<?xml version="1.0" encoding="UTF-8" standalone="no"?>
<svg
   width="500"
   zoomAndPan="magnify"
   viewBox="0 0 375 374.999991"
   height="500"
   preserveAspectRatio="xMidYMid meet"
   version="1.0"
   id="svg19"
   sodipodi:docname="abo-blu-2.svg"
   inkscape:version="1.3 (0e150ed6c4, 2023-07-21)"
   xmlns:inkscape="http://www.inkscape.org/namespaces/inkscape"
   xmlns:sodipodi="http://sodipodi.sourceforge.net/DTD/sodipodi-0.dtd"
   xmlns="http://www.w3.org/2000/svg"
   xmlns:svg="http://www.w3.org/2000/svg">
  <sodipodi:namedview
     id="namedview19"
     pagecolor="#ffffff"
     bordercolor="#000000"
     borderopacity="0.25"
     inkscape:showpageshadow="2"
     inkscape:pageopacity="0.0"
     inkscape:pagecheckerboard="0"
     inkscape:deskcolor="#d1d1d1"
     inkscape:zoom="1.61"
     inkscape:cx="250"
     inkscape:cy="250"
     inkscape:window-width="1920"
     inkscape:window-height="1014"
     inkscape:window-x="0"
     inkscape:window-y="31"
     inkscape:window-maximized="1"
     inkscape:current-layer="svg19" />
  <defs
     id="defs9">
    <clipPath
       id="64fc67e037">
      <path
         d="M 21.363281 27.773438 L 352.863281 27.773438 L 352.863281 359.273438 L 21.363281 359.273438 Z M 21.363281 27.773438 "
         clip-rule="nonzero"
         id="path1" />
    </clipPath>
    <clipPath
       id="4c37b5502b">
      <path
         d="M 187.113281 27.773438 C 95.570312 27.773438 21.363281 101.984375 21.363281 193.523438 C 21.363281 285.066406 95.570312 359.273438 187.113281 359.273438 C 278.652344 359.273438 352.863281 285.066406 352.863281 193.523438 C 352.863281 101.984375 278.652344 27.773438 187.113281 27.773438 Z M 187.113281 27.773438 "
         clip-rule="nonzero"
         id="path2" />
    </clipPath>
    <clipPath
       id="6f6021af7c">
      <path
         d="M 37.5 43.910156 L 337.097656 43.910156 L 337.097656 343.511719 L 37.5 343.511719 Z M 37.5 43.910156 "
         clip-rule="nonzero"
         id="path3" />
    </clipPath>
    <clipPath
       id="88655b4873">
      <path
         d="M 187.300781 43.910156 C 104.566406 43.910156 37.5 110.980469 37.5 193.710938 C 37.5 276.445312 104.566406 343.511719 187.300781 343.511719 C 270.03125 343.511719 337.097656 276.445312 337.097656 193.710938 C 337.097656 110.980469 270.03125 43.910156 187.300781 43.910156 Z M 187.300781 43.910156 "
         clip-rule="nonzero"
         id="path4" />
    </clipPath>
    <clipPath
       id="4cf25ddd99">
      <path
         d="M 37.5 43.910156 L 336.75 43.910156 L 336.75 343.160156 L 37.5 343.160156 Z M 37.5 43.910156 "
         clip-rule="nonzero"
         id="path5" />
    </clipPath>
    <clipPath
       id="5e2909a84b">
      <path
         d="M 187.125 43.910156 C 104.488281 43.910156 37.5 110.902344 37.5 193.535156 C 37.5 276.171875 104.488281 343.160156 187.125 343.160156 C 269.761719 343.160156 336.75 276.171875 336.75 193.535156 C 336.75 110.902344 269.761719 43.910156 187.125 43.910156 Z M 187.125 43.910156 "
         clip-rule="nonzero"
         id="path6" />
    </clipPath>
    <clipPath
       id="43a885b208">
      <path
         d="M 105.507812 198 L 166 198 L 166 276.855469 L 105.507812 276.855469 Z M 105.507812 198 "
         clip-rule="nonzero"
         id="path7" />
    </clipPath>
    <clipPath
       id="1d0c209fd3">
      <path
         d="M 245 98.535156 L 268.976562 98.535156 L 268.976562 129.707031 L 245 129.707031 Z M 245 98.535156 "
         clip-rule="nonzero"
         id="path8" />
    </clipPath>
    <clipPath
       id="303d2e319b">
      <path
         d="M 141.714844 271.585938 L 149 271.585938 L 149 276.699219 L 141.714844 276.699219 Z M 141.714844 271.585938 "
         clip-rule="nonzero"
         id="path9" />
    </clipPath>
  </defs>
  <g
     clip-path="url(#64fc67e037)"
     id="g11">
    <g
       clip-path="url(#4c37b5502b)"
       id="g10">
      <path
         stroke-linecap="butt"
         transform="matrix(0.749179, 0, 0, 0.749179, 21.362708, 27.774569)"
         fill="none"
         stroke-linejoin="miter"
         d="M 221.24295 -0.0015105 C 99.051901 -0.0015105 0.000765629 99.054839 0.000765629 221.240674 C 0.000765629 343.431723 99.051901 442.482858 221.24295 442.482858 C 343.428785 442.482858 442.485135 343.431723 442.485135 221.240674 C 442.485135 99.054839 343.428785 -0.0015105 221.24295 -0.0015105 Z M 221.24295 -0.0015105 "
         stroke="#000000"
         stroke-width="16"
         stroke-opacity="1"
         stroke-miterlimit="4"
         id="path10" />
    </g>
  </g>
  <g
     clip-path="url(#6f6021af7c)"
     id="g13">
    <g
       clip-path="url(#88655b4873)"
       id="g12">
      <path
         fill="#1d319b"
         d="M 37.5 43.910156 L 337.097656 43.910156 L 337.097656 343.511719 L 37.5 343.511719 Z M 37.5 43.910156 "
         fill-opacity="1"
         fill-rule="nonzero"
         id="path11" />
    </g>
  </g>
  <g
     clip-path="url(#4cf25ddd99)"
     id="g15">
    <g
       clip-path="url(#5e2909a84b)"
       id="g14">
      <path
         stroke-linecap="butt"
         transform="matrix(0.749149, 0, 0, 0.749149, 37.500002, 43.911859)"
         fill="none"
         stroke-linejoin="miter"
         d="M 199.72658 -0.00227253 C 89.419149 -0.00227253 -0.00000271975 89.422093 -0.00000271975 199.72431 C -0.00000271975 310.031742 89.419149 399.450893 199.72658 399.450893 C 310.034012 399.450893 399.453163 310.031742 399.453163 199.72431 C 399.453163 89.422093 310.034012 -0.00227253 199.72658 -0.00227253 Z M 199.72658 -0.00227253 "
         stroke="#000000"
         stroke-width="8"
         stroke-opacity="1"
         stroke-miterlimit="4"
         id="path13" />
    </g>
  </g>
  <g
     clip-path="url(#43a885b208)"
     id="g16">
    <path
       fill="#ffffff"
       d="M 135.363281 247.789062 C 124.417969 247.789062 115.546875 238.902344 115.546875 227.941406 C 115.546875 216.976562 124.417969 208.089844 135.363281 208.089844 C 146.308594 208.089844 155.179688 216.976562 155.179688 227.941406 C 155.179688 238.902344 146.308594 247.789062 135.363281 247.789062 Z M 135.363281 198.8125 C 118.875 198.8125 105.507812 212.199219 105.507812 228.714844 C 105.507812 245.226562 131.246094 276.148438 135.363281 276.148438 C 139.738281 276.148438 165.21875 245.226562 165.21875 228.714844 C 165.21875 212.199219 151.855469 198.8125 135.363281 198.8125 "
       fill-opacity="1"
       fill-rule="nonzero"
       id="path15" />
  </g>
  <g
     clip-path="url(#1d0c209fd3)"
     id="g17">
    <path
       fill="#ffffff"
       d="M 257.039062 118.125 C 252.660156 118.125 249.109375 114.570312 249.109375 110.183594 C 249.109375 105.800781 252.660156 102.246094 257.039062 102.246094 C 261.414062 102.246094 264.964844 105.800781 264.964844 110.183594 C 264.964844 114.570312 261.414062 118.125 257.039062 118.125 Z M 257.039062 98.535156 C 250.441406 98.535156 245.097656 103.886719 245.097656 110.496094 C 245.097656 117.101562 255.390625 129.46875 257.039062 129.46875 C 258.789062 129.46875 268.980469 117.101562 268.980469 110.496094 C 268.980469 103.886719 263.632812 98.535156 257.039062 98.535156 "
       fill-opacity="1"
       fill-rule="nonzero"
       id="path16" />
  </g>
  <path
     fill="#ffffff"
     d="M 227.183594 136.550781 L 226.414062 133.5625 L 241.40625 129.976562 L 242.035156 132.425781 Z M 207.40625 141.867188 L 206.394531 138.605469 C 206.390625 138.621094 221.40625 134.832031 221.433594 134.832031 L 222.210938 137.839844 C 222.210938 137.839844 207.417969 141.859375 207.40625 141.867188 Z M 193.980469 153.761719 L 190.265625 152.710938 C 191.699219 147.628906 195.609375 143.253906 201.273438 140.40625 L 203.007812 143.859375 C 197.003906 146.882812 194.785156 150.914062 193.980469 153.761719 Z M 199.289062 171.859375 C 197.4375 170.621094 196.273438 169.847656 196.042969 169.695312 L 195.90625 169.601562 C 192.371094 166.96875 190.117188 162.917969 189.71875 158.496094 L 193.566406 158.152344 C 193.863281 161.46875 195.546875 164.5 198.1875 166.480469 C 198.851562 166.917969 201.40625 168.628906 201.433594 168.644531 Z M 216.300781 183.425781 C 212.183594 180.582031 207.894531 177.660156 203.558594 174.730469 L 205.714844 171.523438 C 210.0625 174.460938 214.359375 177.394531 218.488281 180.242188 Z M 233.09375 195.25 C 229.316406 192.527344 225.085938 189.535156 220.523438 186.351562 L 222.726562 183.179688 C 227.308594 186.371094 231.554688 189.375 235.351562 192.117188 Z M 249.414062 207.605469 C 246.300781 205.0625 242.207031 201.921875 237.242188 198.269531 L 239.523438 195.15625 C 244.546875 198.84375 248.695312 202.023438 251.855469 204.613281 Z M 262.777344 223 L 258.917969 222.871094 C 258.925781 222.707031 258.925781 222.542969 258.925781 222.378906 C 258.925781 219.355469 257.992188 216.449219 256.21875 213.984375 C 255.859375 213.480469 255.046875 212.53125 253.246094 210.890625 L 255.84375 208.027344 C 257.515625 209.550781 258.660156 210.761719 259.355469 211.726562 C 261.601562 214.855469 262.789062 218.539062 262.789062 222.378906 C 262.789062 222.585938 262.785156 222.792969 262.777344 223 Z M 251.214844 241.101562 L 248.867188 238.027344 C 252.105469 235.546875 254.632812 233.015625 256.382812 230.503906 C 257.074219 229.507812 257.636719 228.425781 258.054688 227.289062 L 261.679688 228.625 C 261.148438 230.070312 260.429688 231.445312 259.546875 232.71875 C 257.570312 235.550781 254.769531 238.375 251.214844 241.101562 Z M 233.089844 251.578125 L 231.480469 248.066406 C 236.582031 245.722656 241.0625 243.308594 244.792969 240.894531 L 246.886719 244.140625 C 243.003906 246.65625 238.359375 249.160156 233.089844 251.578125 Z M 213.796875 259.183594 L 212.546875 255.523438 C 217.691406 253.757812 222.496094 251.9375 226.835938 250.109375 L 228.332031 253.671875 C 223.914062 255.535156 219.023438 257.390625 213.796875 259.183594 Z M 194.042969 265.242188 L 193.015625 261.519531 C 198.152344 260.097656 203.097656 258.625 207.703125 257.132812 L 208.890625 260.8125 C 204.226562 262.320312 199.234375 263.808594 194.042969 265.242188 Z M 174.035156 270.292969 L 173.171875 266.519531 C 178.28125 265.347656 183.296875 264.109375 188.078125 262.851562 L 189.058594 266.589844 C 184.238281 267.859375 179.183594 269.105469 174.035156 270.292969 Z M 153.847656 274.542969 L 153.125 270.746094 C 158.132812 269.785156 163.195312 268.742188 168.171875 267.648438 L 169.003906 271.421875 C 163.988281 272.527344 158.890625 273.578125 153.847656 274.542969 "
     fill-opacity="1"
     fill-rule="nonzero"
     id="path17" />
  <g
     clip-path="url(#303d2e319b)"
     id="g18">
    <path
       fill="#ffffff"
       d="M 147.71875 271.753906 C 145.164062 274.4375 143.039062 276.230469 141.792969 276.699219 C 142.898438 276.523438 145.351562 276.113281 148.789062 275.492188 L 148.097656 271.6875 C 147.96875 271.707031 147.847656 271.730469 147.71875 271.753906 "
       fill-opacity="1"
       fill-rule="nonzero"
       id="path18" />
  </g>
  <path
     fill="#ffffff"
     d="M 252.019531 127.773438 L 246.046875 128.859375 L 246.636719 131.160156 L 254.21875 129.972656 C 253.621094 129.480469 252.859375 128.722656 252.019531 127.773438 "
     fill-opacity="1"
     fill-rule="nonzero"
     id="path19" />
</svg>
