<?xml version="1.0" encoding="UTF-8" standalone="no"?>
<svg
   width="500"
   zoomAndPan="magnify"
   viewBox="0 0 375 374.999991"
   height="500"
   preserveAspectRatio="xMidYMid meet"
   version="1.0"
   id="svg14"
   sodipodi:docname="abo-blu-1.svg"
   inkscape:version="1.3 (0e150ed6c4, 2023-07-21)"
   xmlns:inkscape="http://www.inkscape.org/namespaces/inkscape"
   xmlns:sodipodi="http://sodipodi.sourceforge.net/DTD/sodipodi-0.dtd"
   xmlns="http://www.w3.org/2000/svg"
   xmlns:svg="http://www.w3.org/2000/svg">
  <sodipodi:namedview
     id="namedview14"
     pagecolor="#ffffff"
     bordercolor="#000000"
     borderopacity="0.25"
     inkscape:showpageshadow="2"
     inkscape:pageopacity="0.0"
     inkscape:pagecheckerboard="0"
     inkscape:deskcolor="#d1d1d1"
     inkscape:zoom="1.61"
     inkscape:cx="250"
     inkscape:cy="250"
     inkscape:window-width="1920"
     inkscape:window-height="1014"
     inkscape:window-x="0"
     inkscape:window-y="31"
     inkscape:window-maximized="1"
     inkscape:current-layer="svg14" />
  <defs
     id="defs7">
    <clipPath
       id="9c3c3b7b1c">
      <path
         d="M 21.363281 27.773438 L 352.863281 27.773438 L 352.863281 359.273438 L 21.363281 359.273438 Z M 21.363281 27.773438 "
         clip-rule="nonzero"
         id="path1" />
    </clipPath>
    <clipPath
       id="2724c29816">
      <path
         d="M 187.113281 27.773438 C 95.570312 27.773438 21.363281 101.984375 21.363281 193.523438 C 21.363281 285.066406 95.570312 359.273438 187.113281 359.273438 C 278.652344 359.273438 352.863281 285.066406 352.863281 193.523438 C 352.863281 101.984375 278.652344 27.773438 187.113281 27.773438 Z M 187.113281 27.773438 "
         clip-rule="nonzero"
         id="path2" />
    </clipPath>
    <clipPath
       id="fab185b8dd">
      <path
         d="M 37.5 43.910156 L 337.097656 43.910156 L 337.097656 343.511719 L 37.5 343.511719 Z M 37.5 43.910156 "
         clip-rule="nonzero"
         id="path3" />
    </clipPath>
    <clipPath
       id="366ea65d69">
      <path
         d="M 187.300781 43.910156 C 104.566406 43.910156 37.5 110.980469 37.5 193.710938 C 37.5 276.445312 104.566406 343.511719 187.300781 343.511719 C 270.03125 343.511719 337.097656 276.445312 337.097656 193.710938 C 337.097656 110.980469 270.03125 43.910156 187.300781 43.910156 Z M 187.300781 43.910156 "
         clip-rule="nonzero"
         id="path4" />
    </clipPath>
    <clipPath
       id="d7bda40b1f">
      <path
         d="M 37.5 43.910156 L 336.75 43.910156 L 336.75 343.160156 L 37.5 343.160156 Z M 37.5 43.910156 "
         clip-rule="nonzero"
         id="path5" />
    </clipPath>
    <clipPath
       id="18826e4d80">
      <path
         d="M 187.125 43.910156 C 104.488281 43.910156 37.5 110.902344 37.5 193.535156 C 37.5 276.171875 104.488281 343.160156 187.125 343.160156 C 269.761719 343.160156 336.75 276.171875 336.75 193.535156 C 336.75 110.902344 269.761719 43.910156 187.125 43.910156 Z M 187.125 43.910156 "
         clip-rule="nonzero"
         id="path6" />
    </clipPath>
    <clipPath
       id="5042e35386">
      <path
         d="M 91.371094 108.398438 L 283.371094 108.398438 L 283.371094 279.398438 L 91.371094 279.398438 Z M 91.371094 108.398438 "
         clip-rule="nonzero"
         id="path7" />
    </clipPath>
  </defs>
  <g
     clip-path="url(#9c3c3b7b1c)"
     id="g9">
    <g
       clip-path="url(#2724c29816)"
       id="g8">
      <path
         stroke-linecap="butt"
         transform="matrix(0.749179, 0, 0, 0.749179, 21.362708, 27.77449)"
         fill="none"
         stroke-linejoin="miter"
         d="M 221.24295 -0.00140543 C 99.051901 -0.00140543 0.000765629 99.054944 0.000765629 221.240779 C 0.000765629 343.431828 99.051901 442.482963 221.24295 442.482963 C 343.428785 442.482963 442.485135 343.431828 442.485135 221.240779 C 442.485135 99.054944 343.428785 -0.00140543 221.24295 -0.00140543 Z M 221.24295 -0.00140543 "
         stroke="#000000"
         stroke-width="16"
         stroke-opacity="1"
         stroke-miterlimit="4"
         id="path8" />
    </g>
  </g>
  <g
     clip-path="url(#fab185b8dd)"
     id="g11">
    <g
       clip-path="url(#366ea65d69)"
       id="g10">
      <path
         fill="#1d319b"
         d="M 37.5 43.910156 L 337.097656 43.910156 L 337.097656 343.511719 L 37.5 343.511719 Z M 37.5 43.910156 "
         fill-opacity="1"
         fill-rule="nonzero"
         id="path9" />
    </g>
  </g>
  <g
     clip-path="url(#d7bda40b1f)"
     id="g13">
    <g
       clip-path="url(#18826e4d80)"
       id="g12">
      <path
         stroke-linecap="butt"
         transform="matrix(0.749149, 0, 0, 0.749149, 37.500002, 43.911794)"
         fill="none"
         stroke-linejoin="miter"
         d="M 199.72658 -0.00218604 C 89.419149 -0.00218604 -0.00000271975 89.422179 -0.00000271975 199.724397 C -0.00000271975 310.031829 89.419149 399.45098 199.72658 399.45098 C 310.034012 399.45098 399.453163 310.031829 399.453163 199.724397 C 399.453163 89.422179 310.034012 -0.00218604 199.72658 -0.00218604 Z M 199.72658 -0.00218604 "
         stroke="#000000"
         stroke-width="8"
         stroke-opacity="1"
         stroke-miterlimit="4"
         id="path11" />
    </g>
  </g>
  <g
     clip-path="url(#5042e35386)"
     id="g14">
    <path
       fill="#ffffff"
       d="M 187.828125 109.253906 L 192.667969 122.042969 C 192.8125 122.429688 193.152344 122.675781 193.5625 122.695312 L 207.179688 123.363281 C 208.105469 123.40625 208.484375 124.578125 207.761719 125.160156 L 197.136719 133.730469 C 196.816406 133.988281 196.6875 134.386719 196.792969 134.785156 L 200.371094 147.984375 C 200.613281 148.882812 199.621094 149.605469 198.847656 149.097656 L 187.4375 141.605469 C 187.097656 141.378906 186.679688 141.378906 186.335938 141.605469 L 174.929688 149.097656 C 174.152344 149.605469 173.160156 148.882812 173.402344 147.984375 L 176.980469 134.785156 C 177.089844 134.386719 176.960938 133.988281 176.640625 133.730469 L 166.011719 125.160156 C 165.289062 124.578125 165.667969 123.40625 166.597656 123.363281 L 180.210938 122.695312 C 180.621094 122.675781 180.960938 122.429688 181.105469 122.042969 L 185.945312 109.253906 C 186.273438 108.390625 187.503906 108.390625 187.828125 109.253906 Z M 251.015625 214.492188 C 268.875 214.492188 283.351562 229.019531 283.351562 246.941406 C 283.351562 264.863281 268.875 279.390625 251.015625 279.390625 C 233.15625 279.390625 218.679688 264.863281 218.679688 246.941406 C 218.679688 229.019531 233.15625 214.492188 251.015625 214.492188 Z M 246.769531 249.804688 L 239.542969 242.554688 C 237.671875 240.675781 234.632812 240.675781 232.761719 242.554688 C 230.886719 244.433594 230.886719 247.480469 232.761719 249.359375 L 243.386719 260.023438 C 245.261719 261.902344 248.296875 261.902344 250.171875 260.023438 C 256.578125 253.597656 262.910156 247.09375 269.285156 240.636719 C 271.144531 238.753906 271.136719 235.71875 269.265625 233.847656 C 267.390625 231.976562 264.355469 231.980469 262.492188 233.867188 Z M 186.886719 160.773438 C 200.152344 160.773438 210.902344 171.5625 210.902344 184.875 C 210.902344 198.183594 200.152344 208.972656 186.886719 208.972656 C 173.625 208.972656 162.875 198.183594 162.875 184.875 C 162.875 171.5625 173.625 160.773438 186.886719 160.773438 Z M 144.339844 255.511719 L 213.242188 255.511719 C 212.621094 252.753906 212.292969 249.886719 212.292969 246.941406 C 212.292969 238.953125 214.695312 231.53125 218.816406 225.355469 C 210.382812 217.664062 199.179688 212.976562 186.886719 212.976562 C 164.0625 212.976562 145 229.132812 140.433594 250.671875 C 139.902344 253.179688 141.785156 255.511719 144.339844 255.511719 Z M 281.796875 164.789062 L 273.179688 175.386719 C 272.917969 175.707031 272.875 176.125 273.0625 176.488281 L 279.296875 188.65625 C 279.71875 189.484375 278.898438 190.398438 278.035156 190.0625 L 265.324219 185.113281 C 264.945312 184.964844 264.535156 185.050781 264.246094 185.34375 L 254.640625 195.050781 C 253.988281 195.710938 252.867188 195.210938 252.917969 194.28125 L 253.683594 180.625 C 253.707031 180.210938 253.496094 179.847656 253.128906 179.664062 L 240.960938 173.496094 C 240.132812 173.078125 240.261719 171.855469 241.15625 171.617188 L 254.339844 168.125 C 254.734375 168.019531 255.015625 167.707031 255.078125 167.300781 L 257.160156 153.78125 C 257.300781 152.863281 258.503906 152.605469 259.003906 153.386719 L 266.386719 164.886719 C 266.609375 165.234375 266.992188 165.40625 267.394531 165.339844 L 280.851562 163.148438 C 281.765625 163 282.378906 164.070312 281.796875 164.789062 Z M 242.226562 124.386719 C 242.375 123.476562 241.308594 122.855469 240.59375 123.441406 L 230.03125 132.089844 C 229.714844 132.351562 229.296875 132.394531 228.933594 132.207031 L 216.808594 125.949219 C 215.984375 125.527344 215.074219 126.347656 215.40625 127.214844 L 220.339844 139.96875 C 220.488281 140.351562 220.402344 140.765625 220.109375 141.054688 L 210.4375 150.691406 C 209.777344 151.347656 210.277344 152.472656 211.203125 152.421875 L 224.8125 151.652344 C 225.222656 151.632812 225.585938 151.839844 225.769531 152.207031 L 231.914062 164.421875 C 232.332031 165.25 233.550781 165.121094 233.789062 164.222656 L 237.269531 150.996094 C 237.375 150.597656 237.683594 150.316406 238.089844 150.253906 L 251.5625 148.164062 C 252.480469 148.019531 252.734375 146.816406 251.953125 146.3125 L 240.496094 138.90625 C 240.148438 138.683594 239.980469 138.296875 240.046875 137.890625 Z M 92.921875 163.148438 L 106.378906 165.339844 C 106.78125 165.402344 107.164062 165.234375 107.386719 164.886719 L 114.769531 153.386719 C 115.273438 152.605469 116.472656 152.863281 116.613281 153.78125 L 118.695312 167.300781 C 118.761719 167.707031 119.039062 168.019531 119.4375 168.125 L 132.617188 171.617188 C 133.511719 171.855469 133.640625 173.078125 132.8125 173.496094 L 120.644531 179.664062 C 120.277344 179.851562 120.070312 180.214844 120.09375 180.625 L 120.855469 194.28125 C 120.90625 195.210938 119.789062 195.710938 119.132812 195.050781 L 109.527344 185.34375 C 109.242188 185.050781 108.832031 184.964844 108.449219 185.113281 L 95.738281 190.0625 C 94.875 190.398438 94.054688 189.484375 94.480469 188.65625 L 100.710938 176.488281 C 100.898438 176.125 100.855469 175.707031 100.597656 175.386719 L 91.980469 164.785156 C 91.394531 164.070312 92.011719 163 92.921875 163.148438 Z M 133.179688 123.441406 C 132.464844 122.855469 131.398438 123.476562 131.546875 124.386719 L 133.730469 137.890625 C 133.796875 138.296875 133.625 138.679688 133.28125 138.902344 L 121.820312 146.3125 C 121.039062 146.816406 121.296875 148.019531 122.210938 148.164062 L 135.683594 150.253906 C 136.089844 150.316406 136.402344 150.597656 136.503906 150.996094 L 139.984375 164.222656 C 140.222656 165.121094 141.441406 165.25 141.859375 164.417969 L 148.003906 152.207031 C 148.191406 151.839844 148.550781 151.628906 148.960938 151.652344 L 162.574219 152.417969 C 163.5 152.472656 163.996094 151.347656 163.339844 150.691406 L 153.664062 141.054688 C 153.371094 140.761719 153.285156 140.351562 153.433594 139.96875 L 158.367188 127.214844 C 158.703125 126.347656 157.789062 125.523438 156.964844 125.949219 L 144.839844 132.207031 C 144.476562 132.394531 144.0625 132.347656 143.742188 132.089844 Z M 133.179688 123.441406 "
       fill-opacity="1"
       fill-rule="evenodd"
       id="path13" />
  </g>
</svg>
