<?xml version="1.0" encoding="UTF-8" standalone="no"?>
<svg
   width="500"
   zoomAndPan="magnify"
   viewBox="0 0 375 374.999991"
   height="500"
   preserveAspectRatio="xMidYMid meet"
   version="1.0"
   id="svg14"
   sodipodi:docname="acc-blue.svg"
   inkscape:version="1.3 (0e150ed6c4, 2023-07-21)"
   xmlns:inkscape="http://www.inkscape.org/namespaces/inkscape"
   xmlns:sodipodi="http://sodipodi.sourceforge.net/DTD/sodipodi-0.dtd"
   xmlns="http://www.w3.org/2000/svg"
   xmlns:svg="http://www.w3.org/2000/svg">
  <sodipodi:namedview
     id="namedview14"
     pagecolor="#ffffff"
     bordercolor="#000000"
     borderopacity="0.25"
     inkscape:showpageshadow="2"
     inkscape:pageopacity="0.0"
     inkscape:pagecheckerboard="0"
     inkscape:deskcolor="#d1d1d1"
     inkscape:zoom="1.61"
     inkscape:cx="250"
     inkscape:cy="250"
     inkscape:window-width="1920"
     inkscape:window-height="1014"
     inkscape:window-x="0"
     inkscape:window-y="31"
     inkscape:window-maximized="1"
     inkscape:current-layer="svg14" />
  <defs
     id="defs7">
    <clipPath
       id="c9fccb5774">
      <path
         d="M 21.363281 27.773438 L 352.863281 27.773438 L 352.863281 359.273438 L 21.363281 359.273438 Z M 21.363281 27.773438 "
         clip-rule="nonzero"
         id="path1" />
    </clipPath>
    <clipPath
       id="156ed6f489">
      <path
         d="M 187.113281 27.773438 C 95.570312 27.773438 21.363281 101.984375 21.363281 193.523438 C 21.363281 285.066406 95.570312 359.273438 187.113281 359.273438 C 278.652344 359.273438 352.863281 285.066406 352.863281 193.523438 C 352.863281 101.984375 278.652344 27.773438 187.113281 27.773438 Z M 187.113281 27.773438 "
         clip-rule="nonzero"
         id="path2" />
    </clipPath>
    <clipPath
       id="c14498e5b3">
      <path
         d="M 37.5 43.910156 L 337.097656 43.910156 L 337.097656 343.511719 L 37.5 343.511719 Z M 37.5 43.910156 "
         clip-rule="nonzero"
         id="path3" />
    </clipPath>
    <clipPath
       id="e9aaffe326">
      <path
         d="M 187.300781 43.910156 C 104.566406 43.910156 37.5 110.980469 37.5 193.710938 C 37.5 276.445312 104.566406 343.511719 187.300781 343.511719 C 270.03125 343.511719 337.097656 276.445312 337.097656 193.710938 C 337.097656 110.980469 270.03125 43.910156 187.300781 43.910156 Z M 187.300781 43.910156 "
         clip-rule="nonzero"
         id="path4" />
    </clipPath>
    <clipPath
       id="fa62eef52b">
      <path
         d="M 37.5 43.910156 L 336.75 43.910156 L 336.75 343.160156 L 37.5 343.160156 Z M 37.5 43.910156 "
         clip-rule="nonzero"
         id="path5" />
    </clipPath>
    <clipPath
       id="e883b8d774">
      <path
         d="M 187.125 43.910156 C 104.488281 43.910156 37.5 110.902344 37.5 193.535156 C 37.5 276.171875 104.488281 343.160156 187.125 343.160156 C 269.761719 343.160156 336.75 276.171875 336.75 193.535156 C 336.75 110.902344 269.761719 43.910156 187.125 43.910156 Z M 187.125 43.910156 "
         clip-rule="nonzero"
         id="path6" />
    </clipPath>
    <clipPath
       id="71070d5089">
      <path
         d="M 93 98.292969 L 282.539062 98.292969 L 282.539062 301.542969 L 93 301.542969 Z M 93 98.292969 "
         clip-rule="nonzero"
         id="path7" />
    </clipPath>
  </defs>
  <g
     clip-path="url(#c9fccb5774)"
     id="g9">
    <g
       clip-path="url(#156ed6f489)"
       id="g8">
      <path
         stroke-linecap="butt"
         transform="matrix(0.749179, 0, 0, 0.749179, 21.362708, 27.77449)"
         fill="none"
         stroke-linejoin="miter"
         d="M 221.24295 -0.00140543 C 99.051901 -0.00140543 0.000765629 99.054944 0.000765629 221.240779 C 0.000765629 343.431828 99.051901 442.482963 221.24295 442.482963 C 343.428785 442.482963 442.485135 343.431828 442.485135 221.240779 C 442.485135 99.054944 343.428785 -0.00140543 221.24295 -0.00140543 Z M 221.24295 -0.00140543 "
         stroke="#000000"
         stroke-width="16"
         stroke-opacity="1"
         stroke-miterlimit="4"
         id="path8" />
    </g>
  </g>
  <g
     clip-path="url(#c14498e5b3)"
     id="g11">
    <g
       clip-path="url(#e9aaffe326)"
       id="g10">
      <path
         fill="#1d319b"
         d="M 37.5 43.910156 L 337.097656 43.910156 L 337.097656 343.511719 L 37.5 343.511719 Z M 37.5 43.910156 "
         fill-opacity="1"
         fill-rule="nonzero"
         id="path9" />
    </g>
  </g>
  <g
     clip-path="url(#fa62eef52b)"
     id="g13">
    <g
       clip-path="url(#e883b8d774)"
       id="g12">
      <path
         stroke-linecap="butt"
         transform="matrix(0.749149, 0, 0, 0.749149, 37.500002, 43.911912)"
         fill="none"
         stroke-linejoin="miter"
         d="M 199.72658 -0.00234301 C 89.419149 -0.00234301 -0.00000271975 89.422023 -0.00000271975 199.72424 C -0.00000271975 310.031672 89.419149 399.450823 199.72658 399.450823 C 310.034012 399.450823 399.453163 310.031672 399.453163 199.72424 C 399.453163 89.422023 310.034012 -0.00234301 199.72658 -0.00234301 Z M 199.72658 -0.00234301 "
         stroke="#000000"
         stroke-width="8"
         stroke-opacity="1"
         stroke-miterlimit="4"
         id="path11" />
    </g>
  </g>
  <g
     clip-path="url(#71070d5089)"
     id="g14">
    <path
       fill="#ffffff"
       d="M 189.199219 99.921875 L 195.550781 119.566406 C 195.605469 119.746094 195.765625 119.859375 195.953125 119.859375 L 216.636719 119.820312 C 218.316406 119.816406 219.011719 121.980469 217.65625 122.964844 L 217.660156 122.96875 L 200.90625 135.078125 C 200.753906 135.1875 200.691406 135.371094 200.75 135.550781 L 207.179688 155.183594 C 207.695312 156.757812 205.867188 158.199219 204.402344 157.054688 C 204.398438 157.050781 204.394531 157.050781 204.390625 157.046875 L 187.789062 144.949219 C 187.636719 144.839844 187.441406 144.839844 187.289062 144.949219 L 170.578125 157.125 C 169.222656 158.113281 167.386719 156.777344 167.902344 155.1875 L 167.898438 155.183594 L 174.328125 135.550781 C 174.386719 135.371094 174.324219 135.1875 174.175781 135.078125 L 157.421875 122.96875 C 156.074219 121.992188 156.710938 119.757812 158.5625 119.820312 C 158.566406 119.820312 158.570312 119.820312 158.574219 119.820312 L 179.128906 119.859375 C 179.3125 119.859375 179.472656 119.746094 179.53125 119.566406 L 185.882812 99.910156 C 186.402344 98.292969 188.695312 98.316406 189.199219 99.921875 Z M 135.195312 130.214844 C 136.882812 130.214844 138.25 131.578125 138.25 133.265625 C 138.25 134.949219 136.882812 136.316406 135.195312 136.316406 L 110.777344 136.316406 C 109.089844 136.316406 107.722656 134.949219 107.722656 133.265625 C 107.722656 131.578125 109.089844 130.214844 110.777344 130.214844 Z M 236.207031 130.214844 C 234.519531 130.214844 233.152344 131.578125 233.152344 133.265625 C 233.152344 134.949219 234.519531 136.316406 236.207031 136.316406 L 260.625 136.316406 C 262.3125 136.316406 263.679688 134.949219 263.679688 133.265625 C 263.679688 131.578125 262.3125 130.214844 260.625 130.214844 Z M 228.835938 110.933594 C 227.308594 111.628906 226.632812 113.433594 227.332031 114.960938 C 228.03125 116.488281 229.835938 117.160156 231.367188 116.460938 L 252.796875 106.648438 C 254.328125 105.949219 255 104.148438 254.300781 102.621094 C 253.601562 101.09375 251.796875 100.417969 250.269531 101.117188 Z M 233.097656 148.242188 C 231.570312 147.546875 229.761719 148.21875 229.066406 149.746094 C 228.367188 151.273438 229.039062 153.078125 230.570312 153.773438 L 253.492188 164.269531 C 255.019531 164.96875 256.824219 164.296875 257.523438 162.769531 C 258.222656 161.242188 257.550781 159.4375 256.019531 158.742188 Z M 142.566406 110.933594 C 144.09375 111.628906 144.769531 113.433594 144.070312 114.960938 C 143.371094 116.488281 141.566406 117.160156 140.035156 116.460938 L 118.605469 106.648438 C 117.074219 105.949219 116.402344 104.148438 117.101562 102.621094 C 117.800781 101.09375 119.605469 100.417969 121.132812 101.117188 Z M 138.300781 148.242188 C 139.832031 147.546875 141.636719 148.21875 142.335938 149.746094 C 143.035156 151.273438 142.363281 153.078125 140.832031 153.773438 L 117.910156 164.269531 C 116.382812 164.96875 114.574219 164.296875 113.875 162.769531 C 113.179688 161.242188 113.851562 159.4375 115.378906 158.742188 Z M 237.292969 199.71875 L 237.292969 215.828125 C 237.292969 216.015625 237.175781 216.171875 237 216.230469 L 232.722656 217.621094 C 232.628906 217.648438 232.539062 217.648438 232.449219 217.617188 L 218.039062 212.5 C 218.035156 212.496094 218.03125 212.496094 218.027344 212.492188 L 214.679688 211.4375 C 214.648438 211.429688 214.625 211.421875 214.59375 211.421875 C 212.332031 211.183594 210.144531 212.539062 209.378906 214.695312 C 208.464844 217.261719 209.828125 220.128906 212.398438 221.039062 L 230.867188 227.597656 C 230.972656 227.636719 231.050781 227.703125 231.101562 227.804688 L 231.597656 228.765625 C 237.054688 239.324219 245.097656 241.769531 255.789062 238.332031 C 255.917969 238.292969 256.011719 238.199219 256.058594 238.074219 L 264.40625 214.617188 C 264.484375 214.398438 264.371094 214.15625 264.148438 214.078125 L 254.386719 210.609375 C 254.246094 210.5625 254.148438 210.453125 254.117188 210.308594 L 252.46875 203.261719 C 251.570312 199.421875 248.925781 196.5625 245.164062 195.359375 L 224.976562 188.917969 C 224.816406 188.867188 224.648438 188.910156 224.535156 189.035156 C 224.421875 189.160156 224.390625 189.332031 224.460938 189.488281 C 225.210938 191.21875 226.363281 193.992188 226.832031 195.433594 C 226.871094 195.5625 226.960938 195.65625 227.085938 195.703125 L 237.015625 199.324219 C 237.183594 199.386719 237.292969 199.539062 237.292969 199.71875 Z M 203.398438 245.472656 C 202.191406 245.976562 200.957031 246.425781 199.703125 246.8125 C 199.566406 246.855469 199.46875 246.953125 199.425781 247.085938 L 196.210938 256.972656 C 196.152344 257.152344 195.992188 257.265625 195.808594 257.265625 L 182.570312 257.265625 C 182.335938 257.265625 182.144531 257.078125 182.144531 256.84375 L 182.144531 236.308594 C 182.144531 236.234375 182.128906 236.171875 182.097656 236.109375 C 181.238281 234.503906 179.554688 233.464844 177.707031 233.464844 C 174.976562 233.464844 172.734375 235.707031 172.734375 238.433594 L 172.734375 258.011719 C 172.734375 258.121094 172.695312 258.21875 172.617188 258.300781 L 171.878906 259.089844 C 163.742188 267.765625 164.132812 276.148438 170.957031 285.058594 C 171.039062 285.167969 171.15625 285.226562 171.292969 285.226562 L 196.214844 285.226562 C 196.449219 285.226562 196.640625 285.035156 196.640625 284.804688 L 196.640625 274.097656 C 196.640625 274.058594 196.644531 274.027344 196.652344 273.992188 L 203.972656 245.96875 C 204.011719 245.808594 203.964844 245.652344 203.839844 245.542969 C 203.714844 245.4375 203.550781 245.410156 203.398438 245.472656 Z M 120.921875 210.53125 C 121.027344 210.492188 121.105469 210.421875 121.15625 210.320312 L 126.816406 199.109375 C 128.171875 196.417969 130.304688 194.589844 133.167969 193.65625 L 150.488281 188 C 150.652344 187.945312 150.820312 187.992188 150.933594 188.117188 C 151.046875 188.242188 151.078125 188.414062 151.007812 188.570312 C 150.179688 190.484375 148.75 193.914062 148.253906 195.425781 C 148.210938 195.558594 148.113281 195.65625 147.980469 195.699219 L 138.988281 198.617188 C 138.953125 198.628906 138.917969 198.644531 138.886719 198.664062 L 137.976562 199.269531 C 137.855469 199.351562 137.785156 199.476562 137.785156 199.621094 L 137.785156 215.828125 C 137.785156 216.015625 137.902344 216.171875 138.078125 216.230469 L 142.355469 217.621094 C 142.449219 217.648438 142.539062 217.648438 142.628906 217.617188 L 159.347656 211.679688 C 161.917969 210.765625 164.785156 212.128906 165.699219 214.695312 C 166.613281 217.261719 165.25 220.128906 162.679688 221.039062 L 144.210938 227.597656 C 144.105469 227.636719 144.027344 227.703125 143.976562 227.804688 L 143.480469 228.765625 C 138.023438 239.324219 129.984375 241.765625 119.289062 238.332031 C 119.160156 238.292969 119.066406 238.199219 119.023438 238.070312 L 110.671875 214.617188 C 110.59375 214.398438 110.710938 214.15625 110.929688 214.078125 Z M 106.515625 213.933594 C 106.261719 213.210938 105.464844 212.824219 104.738281 213.078125 L 95.625 216.253906 C 93.765625 216.902344 92.777344 218.949219 93.429688 220.804688 L 101.78125 244.707031 C 102.429688 246.5625 104.476562 247.550781 106.335938 246.902344 L 115.449219 243.722656 C 116.175781 243.46875 116.5625 242.671875 116.308594 241.949219 Z M 168.511719 288.894531 L 198.21875 288.894531 C 198.988281 288.894531 199.617188 289.519531 199.617188 290.285156 L 199.617188 297.96875 C 199.617188 299.933594 198.007812 301.539062 196.039062 301.539062 L 170.695312 301.539062 C 168.722656 301.539062 167.117188 299.933594 167.117188 297.96875 L 167.117188 290.285156 C 167.117188 289.519531 167.746094 288.894531 168.511719 288.894531 Z M 268.8125 213.933594 C 269.066406 213.210938 269.867188 212.824219 270.589844 213.078125 L 279.703125 216.253906 C 281.5625 216.902344 282.550781 218.949219 281.902344 220.804688 L 273.546875 244.707031 C 272.898438 246.5625 270.851562 247.550781 268.992188 246.902344 L 259.878906 243.722656 C 259.152344 243.472656 258.769531 242.671875 259.019531 241.949219 Z M 168.039062 174.820312 C 168.167969 174.886719 168.316406 174.882812 168.441406 174.808594 C 171.355469 173.113281 174.511719 171.789062 177.851562 170.914062 C 177.996094 170.875 178.101562 170.777344 178.144531 170.632812 L 181.171875 161.335938 C 181.230469 161.15625 181.386719 161.042969 181.574219 161.042969 L 193.503906 161.042969 C 193.691406 161.042969 193.851562 161.15625 193.90625 161.335938 L 196.933594 170.632812 C 196.980469 170.777344 197.082031 170.875 197.226562 170.914062 C 200.566406 171.789062 203.722656 173.113281 206.636719 174.808594 C 206.765625 174.882812 206.910156 174.890625 207.042969 174.820312 L 215.769531 170.378906 C 215.9375 170.292969 216.128906 170.324219 216.261719 170.457031 L 224.699219 178.882812 C 224.828125 179.015625 224.859375 179.207031 224.777344 179.375 L 220.328125 188.09375 C 220.261719 188.226562 220.265625 188.371094 220.339844 188.496094 C 222.039062 191.40625 223.363281 194.5625 224.242188 197.894531 C 224.277344 198.039062 224.378906 198.144531 224.519531 198.1875 L 233.832031 201.210938 C 234.007812 201.269531 234.125 201.425781 234.125 201.613281 L 234.125 213.53125 C 234.125 213.714844 234.007812 213.875 233.832031 213.933594 L 232.769531 214.277344 C 232.675781 214.308594 232.585938 214.304688 232.496094 214.273438 L 219.050781 209.496094 C 219.042969 209.496094 219.039062 209.496094 219.035156 209.492188 L 215.367188 208.335938 C 215.347656 208.328125 215.328125 208.324219 215.304688 208.324219 C 214.359375 208.179688 213.414062 208.203125 212.507812 208.382812 C 212.378906 208.410156 212.257812 208.378906 212.15625 208.292969 C 212.054688 208.210938 212 208.09375 212.003906 207.964844 C 212.21875 194.328125 201.226562 183.132812 187.539062 183.132812 C 173.851562 183.132812 162.855469 194.335938 163.078125 207.960938 C 163.078125 208.09375 163.027344 208.210938 162.925781 208.292969 C 162.824219 208.378906 162.703125 208.410156 162.570312 208.382812 C 161.183594 208.109375 159.710938 208.191406 158.285156 208.695312 L 142.582031 214.273438 C 142.492188 214.304688 142.402344 214.308594 142.3125 214.277344 L 141.246094 213.933594 C 141.070312 213.875 140.957031 213.714844 140.957031 213.53125 L 140.957031 201.613281 C 140.957031 201.425781 141.070312 201.269531 141.246094 201.210938 L 150.5625 198.1875 C 150.703125 198.144531 150.800781 198.039062 150.839844 197.894531 C 151.71875 194.558594 153.039062 191.40625 154.738281 188.496094 C 154.816406 188.371094 154.820312 188.226562 154.75 188.09375 L 150.304688 179.375 C 150.21875 179.207031 150.25 179.015625 150.382812 178.882812 L 158.820312 170.457031 C 158.949219 170.324219 159.144531 170.292969 159.308594 170.378906 Z M 207.386719 221.863281 C 207.464844 221.753906 207.578125 221.695312 207.707031 221.6875 C 207.839844 221.679688 207.957031 221.730469 208.046875 221.828125 C 208.917969 222.789062 210.03125 223.558594 211.335938 224.023438 L 220.273438 227.195312 C 220.378906 227.234375 220.457031 227.300781 220.507812 227.402344 L 224.777344 235.769531 C 224.859375 235.933594 224.828125 236.128906 224.699219 236.261719 L 216.261719 244.6875 C 216.128906 244.820312 215.9375 244.847656 215.769531 244.765625 L 207.03125 240.316406 C 206.902344 240.253906 206.765625 240.253906 206.640625 240.320312 L 203.933594 241.765625 C 203.921875 241.769531 203.910156 241.777344 203.894531 241.78125 L 200.085938 243.355469 C 200.070312 243.359375 200.058594 243.363281 200.046875 243.367188 L 197.214844 244.222656 C 197.078125 244.265625 196.980469 244.363281 196.9375 244.5 L 193.90625 253.808594 C 193.851562 253.988281 193.691406 254.101562 193.503906 254.101562 L 185.738281 254.101562 C 185.503906 254.101562 185.316406 253.910156 185.316406 253.679688 L 185.316406 235.625 C 185.316406 235.570312 185.304688 235.523438 185.285156 235.46875 C 184.820312 234.292969 184.089844 233.25 183.167969 232.414062 C 183.027344 232.285156 182.988281 232.089844 183.070312 231.917969 C 183.152344 231.746094 183.332031 231.652344 183.519531 231.683594 C 192.785156 233.226562 202 229.320312 207.386719 221.863281 Z M 176.851562 229.558594 C 177.019531 229.644531 177.113281 229.820312 177.082031 230.007812 C 177.050781 230.195312 176.90625 230.335938 176.714844 230.359375 C 172.742188 230.847656 169.566406 234.25 169.566406 238.433594 L 169.566406 240.246094 C 169.566406 240.398438 169.488281 240.535156 169.355469 240.609375 C 169.222656 240.6875 169.070312 240.691406 168.933594 240.613281 C 168.769531 240.519531 168.605469 240.429688 168.445312 240.332031 C 168.316406 240.257812 168.171875 240.253906 168.039062 240.320312 L 159.308594 244.765625 C 159.144531 244.847656 158.949219 244.816406 158.820312 244.6875 L 150.382812 236.257812 C 150.25 236.128906 150.21875 235.933594 150.304688 235.769531 L 154.570312 227.402344 C 154.625 227.300781 154.699219 227.234375 154.808594 227.195312 L 163.742188 224.023438 C 165.046875 223.558594 166.160156 222.789062 167.035156 221.828125 C 167.121094 221.730469 167.238281 221.679688 167.371094 221.6875 C 167.503906 221.695312 167.613281 221.757812 167.691406 221.863281 C 170.050781 225.125 173.195312 227.785156 176.851562 229.558594 Z M 176.851562 229.558594 "
       fill-opacity="1"
       fill-rule="evenodd"
       id="path13" />
  </g>
</svg>
