<?xml version="1.0" encoding="UTF-8" standalone="no"?>
<svg
   width="500"
   zoomAndPan="magnify"
   viewBox="0 0 375 374.999991"
   height="500"
   preserveAspectRatio="xMidYMid meet"
   version="1.0"
   id="svg18"
   sodipodi:docname="cat-yel-3.svg"
   inkscape:version="1.3 (0e150ed6c4, 2023-07-21)"
   xmlns:inkscape="http://www.inkscape.org/namespaces/inkscape"
   xmlns:sodipodi="http://sodipodi.sourceforge.net/DTD/sodipodi-0.dtd"
   xmlns="http://www.w3.org/2000/svg"
   xmlns:svg="http://www.w3.org/2000/svg">
  <sodipodi:namedview
     id="namedview18"
     pagecolor="#ffffff"
     bordercolor="#000000"
     borderopacity="0.25"
     inkscape:showpageshadow="2"
     inkscape:pageopacity="0.0"
     inkscape:pagecheckerboard="0"
     inkscape:deskcolor="#d1d1d1"
     inkscape:zoom="1.61"
     inkscape:cx="250"
     inkscape:cy="250"
     inkscape:window-width="1920"
     inkscape:window-height="1014"
     inkscape:window-x="0"
     inkscape:window-y="31"
     inkscape:window-maximized="1"
     inkscape:current-layer="svg18" />
  <defs
     id="defs7">
    <clipPath
       id="524d2053fd">
      <path
         d="M 21.363281 27.773438 L 352.863281 27.773438 L 352.863281 359.273438 L 21.363281 359.273438 Z M 21.363281 27.773438 "
         clip-rule="nonzero"
         id="path1" />
    </clipPath>
    <clipPath
       id="f5f6a17c1f">
      <path
         d="M 187.113281 27.773438 C 95.570312 27.773438 21.363281 101.984375 21.363281 193.523438 C 21.363281 285.066406 95.570312 359.273438 187.113281 359.273438 C 278.652344 359.273438 352.863281 285.066406 352.863281 193.523438 C 352.863281 101.984375 278.652344 27.773438 187.113281 27.773438 Z M 187.113281 27.773438 "
         clip-rule="nonzero"
         id="path2" />
    </clipPath>
    <clipPath
       id="8956d463f7">
      <path
         d="M 37.5 43.910156 L 337.097656 43.910156 L 337.097656 343.511719 L 37.5 343.511719 Z M 37.5 43.910156 "
         clip-rule="nonzero"
         id="path3" />
    </clipPath>
    <clipPath
       id="f10617710d">
      <path
         d="M 187.300781 43.910156 C 104.566406 43.910156 37.5 110.980469 37.5 193.710938 C 37.5 276.445312 104.566406 343.511719 187.300781 343.511719 C 270.03125 343.511719 337.097656 276.445312 337.097656 193.710938 C 337.097656 110.980469 270.03125 43.910156 187.300781 43.910156 Z M 187.300781 43.910156 "
         clip-rule="nonzero"
         id="path4" />
    </clipPath>
    <clipPath
       id="6911de9cc3">
      <path
         d="M 37.5 43.910156 L 336.75 43.910156 L 336.75 343.160156 L 37.5 343.160156 Z M 37.5 43.910156 "
         clip-rule="nonzero"
         id="path5" />
    </clipPath>
    <clipPath
       id="ce36aaf724">
      <path
         d="M 187.125 43.910156 C 104.488281 43.910156 37.5 110.902344 37.5 193.535156 C 37.5 276.171875 104.488281 343.160156 187.125 343.160156 C 269.761719 343.160156 336.75 276.171875 336.75 193.535156 C 336.75 110.902344 269.761719 43.910156 187.125 43.910156 Z M 187.125 43.910156 "
         clip-rule="nonzero"
         id="path6" />
    </clipPath>
    <clipPath
       id="dddc6d8172">
      <path
         d="M 90.613281 84.488281 L 284.113281 84.488281 L 284.113281 277.988281 L 90.613281 277.988281 Z M 90.613281 84.488281 "
         clip-rule="nonzero"
         id="path7" />
    </clipPath>
  </defs>
  <g
     clip-path="url(#524d2053fd)"
     id="g9">
    <g
       clip-path="url(#f5f6a17c1f)"
       id="g8">
      <path
         stroke-linecap="butt"
         transform="matrix(0.749179, 0, 0, 0.749179, 21.362708, 27.774569)"
         fill="none"
         stroke-linejoin="miter"
         d="M 221.24295 -0.0015105 C 99.051901 -0.0015105 0.000765629 99.054839 0.000765629 221.240674 C 0.000765629 343.431723 99.051901 442.482858 221.24295 442.482858 C 343.428785 442.482858 442.485135 343.431723 442.485135 221.240674 C 442.485135 99.054839 343.428785 -0.0015105 221.24295 -0.0015105 Z M 221.24295 -0.0015105 "
         stroke="#000000"
         stroke-width="16"
         stroke-opacity="1"
         stroke-miterlimit="4"
         id="path8" />
    </g>
  </g>
  <g
     clip-path="url(#8956d463f7)"
     id="g11">
    <g
       clip-path="url(#f10617710d)"
       id="g10">
      <path
         fill="#fbc11c"
         d="M 37.5 43.910156 L 337.097656 43.910156 L 337.097656 343.511719 L 37.5 343.511719 Z M 37.5 43.910156 "
         fill-opacity="1"
         fill-rule="nonzero"
         id="path9" />
    </g>
  </g>
  <g
     clip-path="url(#6911de9cc3)"
     id="g13">
    <g
       clip-path="url(#ce36aaf724)"
       id="g12">
      <path
         stroke-linecap="butt"
         transform="matrix(0.749149, 0, 0, 0.749149, 37.500002, 43.911859)"
         fill="none"
         stroke-linejoin="miter"
         d="M 199.72658 -0.00227253 C 89.419149 -0.00227253 -0.00000271975 89.422093 -0.00000271975 199.72431 C -0.00000271975 310.031742 89.419149 399.450893 199.72658 399.450893 C 310.034012 399.450893 399.453163 310.031742 399.453163 199.72431 C 399.453163 89.422093 310.034012 -0.00227253 199.72658 -0.00227253 Z M 199.72658 -0.00227253 "
         stroke="#000000"
         stroke-width="8"
         stroke-opacity="1"
         stroke-miterlimit="4"
         id="path11" />
    </g>
  </g>
  <g
     clip-path="url(#dddc6d8172)"
     id="g14">
    <path
       fill="#000000"
       d="M 270.871094 155.097656 L 261.09375 164.875 L 254.621094 160.964844 L 253.074219 161.769531 C 251.28125 162.695312 249.464844 163.460938 247.683594 164.023438 L 246.015625 164.546875 L 243.84375 173.386719 L 243.515625 173.703125 C 240.625 172.53125 237.480469 171.875 234.175781 171.875 C 232.019531 171.875 229.933594 172.179688 227.933594 172.703125 L 227.933594 157.71875 C 230.933594 158.78125 234.078125 159.390625 237.296875 159.390625 C 252.792969 159.390625 265.386719 146.796875 265.386719 131.300781 C 265.386719 115.808594 252.792969 103.214844 237.296875 103.214844 C 221.804688 103.214844 209.210938 115.808594 209.210938 131.300781 C 209.210938 134.519531 209.820312 137.664062 210.878906 140.664062 L 196.726562 140.664062 L 196.726562 124.390625 L 204.050781 122.585938 L 204.578125 120.914062 C 205.136719 119.136719 205.90625 117.320312 206.832031 115.527344 L 207.636719 113.976562 L 203.722656 107.503906 L 213.5 97.726562 L 219.972656 101.640625 L 221.523438 100.835938 C 223.316406 99.910156 225.132812 99.140625 226.910156 98.582031 L 228.582031 98.054688 L 230.386719 90.730469 L 244.210938 90.730469 L 246.015625 98.054688 L 247.683594 98.582031 C 249.464844 99.140625 251.28125 99.910156 253.074219 100.835938 L 254.621094 101.640625 L 261.09375 97.726562 L 270.871094 107.503906 L 266.960938 113.976562 L 267.765625 115.527344 C 268.691406 117.320312 269.457031 119.136719 270.019531 120.914062 L 270.542969 122.585938 L 277.871094 124.390625 L 277.871094 138.214844 L 270.542969 140.019531 L 270.019531 141.6875 C 269.457031 143.46875 268.691406 145.285156 267.765625 147.078125 L 266.960938 148.625 Z M 252.902344 196.84375 C 252.902344 207.167969 244.503906 215.566406 234.175781 215.566406 C 223.851562 215.566406 215.453125 207.167969 215.453125 196.84375 C 215.453125 186.515625 223.851562 178.117188 234.175781 178.117188 C 244.503906 178.117188 252.902344 186.515625 252.902344 196.84375 Z M 245.257812 223.285156 L 234.175781 263.199219 L 223.09375 223.285156 C 226.644531 222.359375 230.335938 221.808594 234.175781 221.808594 C 238.015625 221.808594 241.710938 222.359375 245.257812 223.285156 Z M 277.871094 265.503906 L 277.871094 271.746094 L 268.507812 271.746094 L 268.507812 246.777344 L 262.265625 246.777344 L 262.265625 271.746094 L 245.796875 271.746094 L 256.4375 253.117188 L 253.585938 247.398438 L 258.9375 242.035156 L 260.789062 230.929688 C 271.152344 238.925781 277.871094 251.421875 277.871094 265.503906 Z M 190.484375 271.746094 L 190.484375 265.503906 C 190.484375 251.421875 197.199219 238.925781 207.5625 230.929688 L 209.417969 242.035156 L 214.769531 247.398438 L 211.914062 253.117188 L 222.558594 271.746094 L 206.089844 271.746094 L 206.089844 246.777344 L 199.847656 246.777344 L 199.847656 271.746094 Z M 118.703125 271.746094 L 118.703125 265.503906 L 184.242188 265.503906 L 184.242188 271.746094 Z M 137.425781 246.777344 L 187.910156 246.777344 C 186.3125 250.714844 185.230469 254.910156 184.679688 259.261719 L 137.425781 259.261719 Z M 96.855469 231.171875 L 96.855469 228.050781 L 201.261719 228.050781 C 197.199219 231.625 193.726562 235.828125 190.996094 240.535156 L 106.21875 240.535156 C 101.046875 240.535156 96.855469 236.34375 96.855469 231.171875 Z M 146.789062 221.808594 L 140.546875 221.808594 L 140.546875 196.84375 L 146.789062 196.84375 Z M 171.757812 221.808594 L 165.515625 221.808594 L 165.515625 184.359375 L 171.757812 184.359375 Z M 209.210938 221.808594 L 202.96875 221.808594 L 202.96875 165.632812 L 184.242188 165.632812 L 184.242188 221.808594 L 178 221.808594 L 178 178.117188 L 159.273438 178.117188 L 159.273438 221.808594 L 153.03125 221.808594 L 153.03125 190.601562 L 134.304688 190.601562 L 134.304688 221.808594 L 109.339844 221.808594 L 109.339844 159.390625 L 209.210938 159.390625 Z M 215.453125 219.238281 L 215.453125 213.300781 C 216.878906 214.921875 218.488281 216.371094 220.277344 217.578125 C 218.632812 218.054688 217.023438 218.605469 215.453125 219.238281 Z M 196.726562 221.808594 L 190.484375 221.808594 L 190.484375 171.875 L 196.726562 171.875 Z M 229.75 271.746094 L 218.988281 252.921875 L 222.375 246.15625 L 215.242188 239.035156 L 213.269531 227.148438 C 214.523438 226.453125 215.828125 225.820312 217.15625 225.261719 L 230.070312 271.746094 Z M 249.367188 252.921875 L 238.601562 271.746094 L 238.285156 271.746094 L 251.195312 225.261719 C 252.523438 225.820312 253.828125 226.453125 255.085938 227.148438 L 253.109375 239.035156 L 245.976562 246.15625 Z M 215.453125 131.300781 C 215.453125 119.257812 225.253906 109.457031 237.296875 109.457031 C 249.34375 109.457031 259.144531 119.257812 259.144531 131.300781 C 259.144531 143.347656 249.34375 153.148438 237.296875 153.148438 C 233.59375 153.148438 229.984375 152.171875 226.765625 150.394531 C 225.179688 146.515625 222.082031 143.421875 218.207031 141.835938 C 216.425781 138.617188 215.453125 135.007812 215.453125 131.300781 Z M 106.21875 146.90625 L 212.332031 146.90625 C 217.5 146.90625 221.691406 151.101562 221.691406 156.269531 L 221.691406 175.25 C 219.339844 176.617188 217.242188 178.359375 215.453125 180.382812 L 215.453125 159.390625 C 215.453125 155.953125 212.648438 153.148438 209.210938 153.148438 L 109.339844 153.148438 C 105.902344 153.148438 103.097656 155.953125 103.097656 159.390625 L 103.097656 221.808594 L 96.855469 221.808594 L 96.855469 156.269531 C 96.855469 151.101562 101.046875 146.90625 106.21875 146.90625 Z M 284.113281 143.117188 L 284.113281 119.488281 L 275.394531 117.355469 C 275.003906 116.320312 274.578125 115.269531 274.089844 114.246094 L 278.75 106.554688 L 262.046875 89.851562 L 254.355469 94.507812 C 253.328125 94.019531 252.28125 93.59375 251.246094 93.203125 L 249.113281 84.488281 L 225.484375 84.488281 L 223.351562 93.203125 C 222.316406 93.59375 221.265625 94.019531 220.242188 94.507812 L 212.550781 89.851562 L 195.847656 106.554688 L 200.503906 114.246094 C 200.015625 115.269531 199.589844 116.320312 199.199219 117.355469 L 190.484375 119.488281 L 190.484375 140.664062 L 106.21875 140.664062 C 97.609375 140.664062 90.613281 147.664062 90.613281 156.269531 L 90.613281 231.171875 C 90.613281 239.78125 97.609375 246.777344 106.21875 246.777344 L 131.183594 246.777344 L 131.183594 259.261719 L 118.703125 259.261719 C 115.261719 259.261719 112.460938 262.066406 112.460938 265.503906 L 112.460938 271.746094 C 112.460938 275.183594 115.261719 277.988281 118.703125 277.988281 L 284.113281 277.988281 L 284.113281 265.503906 C 284.113281 242.792969 268.859375 223.613281 248.074219 217.578125 C 254.742188 213.09375 259.144531 205.472656 259.144531 196.84375 C 259.144531 188.699219 255.207031 181.480469 249.160156 176.910156 L 249.476562 176.605469 L 251.246094 169.398438 C 252.28125 169.007812 253.328125 168.582031 254.355469 168.09375 L 262.046875 172.753906 L 278.75 156.050781 L 274.089844 148.359375 C 274.578125 147.332031 275.003906 146.285156 275.394531 145.25 L 284.113281 143.117188 "
       fill-opacity="1"
       fill-rule="nonzero"
       id="path13" />
  </g>
  <path
     fill="#000000"
     d="M 237.296875 121.9375 C 242.46875 121.9375 246.660156 126.132812 246.660156 131.300781 C 246.660156 136.472656 242.46875 140.664062 237.296875 140.664062 C 232.128906 140.664062 227.933594 136.472656 227.933594 131.300781 C 227.933594 126.132812 232.128906 121.9375 237.296875 121.9375 Z M 237.296875 146.90625 C 245.90625 146.90625 252.902344 139.910156 252.902344 131.300781 C 252.902344 122.695312 245.90625 115.695312 237.296875 115.695312 C 228.691406 115.695312 221.691406 122.695312 221.691406 131.300781 C 221.691406 139.910156 228.691406 146.90625 237.296875 146.90625 "
     fill-opacity="1"
     fill-rule="nonzero"
     id="path14" />
  <path
     fill="#000000"
     d="M 121.820312 165.632812 L 115.582031 165.632812 L 115.582031 171.875 L 121.820312 171.875 L 121.820312 165.632812 "
     fill-opacity="1"
     fill-rule="nonzero"
     id="path15" />
  <path
     fill="#000000"
     d="M 134.304688 165.632812 L 128.0625 165.632812 L 128.0625 171.875 L 134.304688 171.875 L 134.304688 165.632812 "
     fill-opacity="1"
     fill-rule="nonzero"
     id="path16" />
  <path
     fill="#000000"
     d="M 140.546875 171.875 L 146.789062 171.875 L 146.789062 165.632812 L 140.546875 165.632812 L 140.546875 171.875 "
     fill-opacity="1"
     fill-rule="nonzero"
     id="path17" />
  <path
     fill="#000000"
     d="M 115.582031 184.359375 L 146.789062 184.359375 L 146.789062 178.117188 L 115.582031 178.117188 L 115.582031 184.359375 "
     fill-opacity="1"
     fill-rule="nonzero"
     id="path18" />
</svg>
