<?xml version="1.0" encoding="UTF-8" standalone="no"?>
<svg
   width="500"
   zoomAndPan="magnify"
   viewBox="0 0 375 374.999991"
   height="500"
   preserveAspectRatio="xMidYMid meet"
   version="1.0"
   id="svg27"
   sodipodi:docname="cat-yel-1.svg"
   inkscape:version="1.3 (0e150ed6c4, 2023-07-21)"
   xmlns:inkscape="http://www.inkscape.org/namespaces/inkscape"
   xmlns:sodipodi="http://sodipodi.sourceforge.net/DTD/sodipodi-0.dtd"
   xmlns="http://www.w3.org/2000/svg"
   xmlns:svg="http://www.w3.org/2000/svg">
  <sodipodi:namedview
     id="namedview27"
     pagecolor="#ffffff"
     bordercolor="#000000"
     borderopacity="0.25"
     inkscape:showpageshadow="2"
     inkscape:pageopacity="0.0"
     inkscape:pagecheckerboard="0"
     inkscape:deskcolor="#d1d1d1"
     inkscape:zoom="1.61"
     inkscape:cx="250"
     inkscape:cy="250"
     inkscape:window-width="1920"
     inkscape:window-height="1014"
     inkscape:window-x="0"
     inkscape:window-y="31"
     inkscape:window-maximized="1"
     inkscape:current-layer="svg27" />
  <defs
     id="defs7">
    <clipPath
       id="476462469c">
      <path
         d="M 21.363281 27.773438 L 352.863281 27.773438 L 352.863281 359.273438 L 21.363281 359.273438 Z M 21.363281 27.773438 "
         clip-rule="nonzero"
         id="path1" />
    </clipPath>
    <clipPath
       id="b2a812a0c9">
      <path
         d="M 187.113281 27.773438 C 95.570312 27.773438 21.363281 101.984375 21.363281 193.523438 C 21.363281 285.066406 95.570312 359.273438 187.113281 359.273438 C 278.652344 359.273438 352.863281 285.066406 352.863281 193.523438 C 352.863281 101.984375 278.652344 27.773438 187.113281 27.773438 Z M 187.113281 27.773438 "
         clip-rule="nonzero"
         id="path2" />
    </clipPath>
    <clipPath
       id="ef821814f1">
      <path
         d="M 37.5 43.910156 L 337.097656 43.910156 L 337.097656 343.511719 L 37.5 343.511719 Z M 37.5 43.910156 "
         clip-rule="nonzero"
         id="path3" />
    </clipPath>
    <clipPath
       id="27d060bdcc">
      <path
         d="M 187.300781 43.910156 C 104.566406 43.910156 37.5 110.980469 37.5 193.710938 C 37.5 276.445312 104.566406 343.511719 187.300781 343.511719 C 270.03125 343.511719 337.097656 276.445312 337.097656 193.710938 C 337.097656 110.980469 270.03125 43.910156 187.300781 43.910156 Z M 187.300781 43.910156 "
         clip-rule="nonzero"
         id="path4" />
    </clipPath>
    <clipPath
       id="5a15ead83a">
      <path
         d="M 37.5 43.910156 L 336.75 43.910156 L 336.75 343.160156 L 37.5 343.160156 Z M 37.5 43.910156 "
         clip-rule="nonzero"
         id="path5" />
    </clipPath>
    <clipPath
       id="780c381b35">
      <path
         d="M 187.125 43.910156 C 104.488281 43.910156 37.5 110.902344 37.5 193.535156 C 37.5 276.171875 104.488281 343.160156 187.125 343.160156 C 269.761719 343.160156 336.75 276.171875 336.75 193.535156 C 336.75 110.902344 269.761719 43.910156 187.125 43.910156 Z M 187.125 43.910156 "
         clip-rule="nonzero"
         id="path6" />
    </clipPath>
    <clipPath
       id="6f627ae076">
      <path
         d="M 128.769531 89.335938 L 245.769531 89.335938 L 245.769531 271.585938 L 128.769531 271.585938 Z M 128.769531 89.335938 "
         clip-rule="nonzero"
         id="path7" />
    </clipPath>
  </defs>
  <g
     clip-path="url(#476462469c)"
     id="g9">
    <g
       clip-path="url(#b2a812a0c9)"
       id="g8">
      <path
         stroke-linecap="butt"
         transform="matrix(0.749179, 0, 0, 0.749179, 21.362708, 27.77449)"
         fill="none"
         stroke-linejoin="miter"
         d="M 221.24295 -0.00140543 C 99.051901 -0.00140543 0.000765629 99.054944 0.000765629 221.240779 C 0.000765629 343.431828 99.051901 442.482963 221.24295 442.482963 C 343.428785 442.482963 442.485135 343.431828 442.485135 221.240779 C 442.485135 99.054944 343.428785 -0.00140543 221.24295 -0.00140543 Z M 221.24295 -0.00140543 "
         stroke="#000000"
         stroke-width="16"
         stroke-opacity="1"
         stroke-miterlimit="4"
         id="path8" />
    </g>
  </g>
  <g
     clip-path="url(#ef821814f1)"
     id="g11">
    <g
       clip-path="url(#27d060bdcc)"
       id="g10">
      <path
         fill="#fbc11c"
         d="M 37.5 43.910156 L 337.097656 43.910156 L 337.097656 343.511719 L 37.5 343.511719 Z M 37.5 43.910156 "
         fill-opacity="1"
         fill-rule="nonzero"
         id="path9" />
    </g>
  </g>
  <g
     clip-path="url(#5a15ead83a)"
     id="g13">
    <g
       clip-path="url(#780c381b35)"
       id="g12">
      <path
         stroke-linecap="butt"
         transform="matrix(0.749149, 0, 0, 0.749149, 37.500002, 43.911912)"
         fill="none"
         stroke-linejoin="miter"
         d="M 199.72658 -0.00234301 C 89.419149 -0.00234301 -0.00000271975 89.422023 -0.00000271975 199.72424 C -0.00000271975 310.031672 89.419149 399.450823 199.72658 399.450823 C 310.034012 399.450823 399.453163 310.031672 399.453163 199.72424 C 399.453163 89.422023 310.034012 -0.00234301 199.72658 -0.00234301 Z M 199.72658 -0.00234301 "
         stroke="#000000"
         stroke-width="8"
         stroke-opacity="1"
         stroke-miterlimit="4"
         id="path11" />
    </g>
  </g>
  <path
     fill="#000000"
     d="M 180.070312 212.25 C 180.988281 212.847656 181.535156 213.824219 181.535156 214.867188 L 181.535156 233.445312 C 177.96875 230.226562 175.238281 226.199219 173.589844 221.632812 C 173.316406 220.882812 172.488281 220.492188 171.742188 220.765625 C 170.988281 221.035156 170.601562 221.863281 170.871094 222.617188 C 172.972656 228.425781 176.660156 233.449219 181.53125 237.207031 L 181.53125 238.183594 C 181.53125 241.363281 183.90625 243.972656 186.929688 244.125 C 187.035156 244.128906 187.140625 244.132812 187.242188 244.132812 C 188.710938 244.132812 190.09375 243.582031 191.167969 242.566406 C 192.296875 241.492188 192.945312 239.984375 192.945312 238.429688 L 192.945312 227.359375 C 197.09375 223.691406 199.644531 219.027344 200.496094 213.464844 C 200.617188 212.675781 200.074219 211.9375 199.285156 211.816406 C 198.507812 211.699219 197.761719 212.238281 197.640625 213.027344 C 197.027344 217.042969 195.472656 220.421875 192.945312 223.289062 L 192.945312 214.867188 C 192.945312 213.824219 193.46875 212.851562 194.324219 212.316406 C 198.199219 209.859375 200.511719 205.664062 200.511719 201.089844 C 200.511719 197.308594 198.894531 193.691406 196.078125 191.171875 C 193.261719 188.65625 189.480469 187.453125 185.703125 187.886719 C 179.683594 188.574219 174.789062 193.425781 174.058594 199.429688 C 173.441406 204.566406 175.746094 209.480469 180.070312 212.25 Z M 180.070312 212.25 "
     fill-opacity="1"
     fill-rule="nonzero"
     id="path13" />
  <g
     clip-path="url(#6f627ae076)"
     id="g14">
    <path
       fill="#000000"
       d="M 245.710938 247.535156 L 245.710938 171.457031 C 245.710938 163.875 239.921875 157.628906 232.539062 156.898438 L 232.539062 134.722656 C 232.539062 109.722656 212.214844 89.386719 187.238281 89.386719 C 175.136719 89.386719 163.761719 94.101562 155.207031 102.664062 C 146.652344 111.222656 141.941406 122.609375 141.941406 134.722656 L 141.941406 156.925781 C 137.0625 157.402344 132.757812 160.246094 130.460938 164.640625 C 130.421875 164.695312 130.386719 164.753906 130.355469 164.816406 C 129.316406 166.863281 128.769531 169.15625 128.769531 171.457031 L 128.769531 256.90625 C 128.769531 264.972656 135.324219 271.539062 143.386719 271.539062 L 231.09375 271.539062 C 239.152344 271.539062 245.710938 264.972656 245.710938 256.90625 L 245.710938 247.539062 C 245.710938 247.539062 245.710938 247.535156 245.710938 247.535156 Z M 242.820312 171.457031 L 242.820312 178.285156 C 235.179688 174.773438 230.832031 168.671875 229.578125 159.71875 L 231.09375 159.71875 C 237.558594 159.71875 242.820312 164.984375 242.820312 171.457031 Z M 156.023438 156.828125 L 156.023438 133.636719 C 156.023438 125.296875 159.269531 117.457031 165.164062 111.558594 C 171.058594 105.660156 178.898438 102.414062 187.238281 102.414062 C 204.453125 102.414062 218.453125 116.421875 218.453125 133.636719 L 218.453125 156.828125 Z M 143.386719 159.71875 L 144.199219 159.71875 C 146.898438 161.664062 148.835938 164.191406 150.066406 167.46875 C 150.28125 168.046875 150.832031 168.40625 151.417969 168.40625 C 151.585938 168.40625 151.757812 168.375 151.925781 168.316406 C 152.671875 168.035156 153.050781 167.199219 152.769531 166.453125 C 151.796875 163.859375 150.394531 161.609375 148.597656 159.71875 L 164.582031 159.71875 C 155.160156 168.453125 150.625 179.582031 151.128906 192.863281 C 151.160156 193.640625 151.796875 194.253906 152.570312 194.253906 C 152.589844 194.253906 152.605469 194.253906 152.625 194.253906 C 153.421875 194.222656 154.042969 193.550781 154.015625 192.753906 C 153.503906 179.265625 158.546875 168.160156 168.984375 159.71875 L 215.484375 159.71875 C 218.078125 162.566406 220.386719 165.914062 222.714844 170.207031 C 222.976562 170.691406 223.472656 170.964844 223.984375 170.964844 C 224.21875 170.964844 224.457031 170.90625 224.671875 170.789062 C 225.375 170.40625 225.636719 169.53125 225.253906 168.828125 C 223.320312 165.257812 221.386719 162.300781 219.296875 159.71875 L 226.667969 159.71875 C 228.042969 170.277344 233.472656 177.574219 242.820312 181.429688 L 242.820312 193.472656 C 236.136719 191.046875 232.800781 184.148438 228.992188 176.242188 L 228.984375 176.222656 C 228.636719 175.503906 227.777344 175.210938 227.058594 175.558594 C 226.339844 175.90625 226.042969 176.78125 226.390625 177.5 C 230.480469 185.988281 234.367188 194.011719 242.820312 196.511719 L 242.820312 224.800781 C 239.339844 242.039062 228.335938 257.589844 211.804688 268.648438 L 203.839844 268.648438 C 207.273438 260.691406 211.558594 255.804688 215.714844 251.074219 C 216.335938 250.363281 216.957031 249.660156 217.570312 248.949219 C 218.089844 248.34375 218.023438 247.429688 217.417969 246.910156 C 216.8125 246.390625 215.902344 246.457031 215.378906 247.0625 C 214.773438 247.765625 214.160156 248.464844 213.542969 249.164062 C 209.042969 254.289062 204.394531 259.597656 200.710938 268.648438 L 196.507812 268.648438 C 195.445312 267.515625 192.410156 263.8125 192.410156 258.558594 C 192.410156 254.542969 194.492188 250.050781 197.125 244.363281 C 201.335938 235.261719 206.582031 223.9375 206.582031 207.660156 C 206.582031 190.585938 197.902344 176.695312 187.238281 176.695312 C 182.632812 176.695312 178.183594 179.289062 174.707031 184.003906 C 174.234375 184.644531 174.371094 185.550781 175.011719 186.023438 C 175.65625 186.496094 176.558594 186.363281 177.03125 185.71875 C 179.097656 182.921875 182.542969 179.585938 187.238281 179.585938 C 196.308594 179.585938 203.691406 192.175781 203.691406 207.65625 C 203.691406 223.296875 198.59375 234.304688 194.5 243.144531 C 191.828125 248.917969 189.519531 253.902344 189.519531 258.558594 C 189.519531 263.019531 191.28125 266.484375 192.800781 268.648438 L 175.136719 268.648438 C 162.507812 256.945312 155.683594 242.230469 154.867188 224.894531 C 154.832031 224.09375 154.125 223.453125 153.355469 223.515625 C 152.558594 223.554688 151.945312 224.230469 151.980469 225.03125 C 152.785156 242.117188 159.171875 256.769531 170.96875 268.648438 L 163.777344 268.648438 C 151.660156 258.734375 146.363281 244.679688 148.058594 226.863281 C 148.132812 226.066406 147.550781 225.363281 146.757812 225.285156 C 145.964844 225.191406 145.257812 225.792969 145.183594 226.589844 C 143.511719 244.136719 148.304688 258.261719 159.398438 268.648438 L 152.96875 268.648438 C 147.644531 265.59375 146.34375 259.523438 144.980469 253.09375 C 144.308594 249.933594 143.617188 246.667969 142.414062 243.703125 C 139.386719 236.238281 134.023438 233.664062 131.65625 232.863281 L 131.65625 230.683594 C 132.292969 230.722656 132.917969 230.746094 133.523438 230.746094 C 136.679688 230.746094 139.457031 230.238281 141.941406 229.214844 C 142.679688 228.910156 143.03125 228.066406 142.730469 227.328125 C 142.425781 226.589844 141.582031 226.238281 140.84375 226.539062 C 138.253906 227.605469 135.214844 227.984375 131.65625 227.757812 L 131.65625 222.882812 C 133.371094 223.695312 135.28125 224.117188 137.371094 224.117188 C 137.695312 224.117188 138.027344 224.105469 138.359375 224.085938 C 139.152344 224.039062 139.761719 223.355469 139.714844 222.558594 C 139.667969 221.757812 138.964844 221.148438 138.1875 221.203125 C 135.621094 221.359375 133.484375 220.78125 131.65625 219.523438 L 131.65625 210.386719 C 135.472656 212.113281 138.320312 215.289062 140.320312 220.054688 C 140.554688 220.609375 141.089844 220.941406 141.652344 220.941406 C 141.839844 220.941406 142.027344 220.902344 142.210938 220.828125 C 142.945312 220.519531 143.292969 219.671875 142.984375 218.933594 C 140.519531 213.066406 136.703125 209.167969 131.65625 207.289062 L 131.65625 199.1875 C 139.382812 200.585938 145.832031 206.316406 150.851562 216.242188 C 151.105469 216.746094 151.613281 217.035156 152.140625 217.035156 C 152.359375 217.035156 152.582031 216.988281 152.792969 216.882812 C 153.503906 216.519531 153.789062 215.652344 153.429688 214.9375 C 147.867188 203.933594 140.542969 197.667969 131.65625 196.261719 L 131.65625 192.496094 L 138.964844 193.546875 C 139.03125 193.554688 139.101562 193.558594 139.171875 193.558594 C 139.878906 193.558594 140.496094 193.039062 140.597656 192.320312 C 140.710938 191.53125 140.164062 190.796875 139.375 190.683594 L 131.65625 189.574219 L 131.65625 181.722656 C 133.9375 182.308594 136.011719 183.515625 137.84375 185.34375 C 138.125 185.628906 138.496094 185.769531 138.863281 185.769531 C 139.234375 185.769531 139.605469 185.628906 139.886719 185.34375 C 140.449219 184.78125 140.449219 183.867188 139.886719 183.300781 C 137.488281 180.902344 134.726562 179.375 131.65625 178.746094 L 131.65625 171.457031 C 131.65625 169.933594 131.972656 168.421875 132.546875 167.011719 C 135.695312 167.421875 138.226562 169.101562 140.246094 172.152344 C 140.523438 172.574219 140.984375 172.800781 141.449219 172.800781 C 141.722656 172.800781 142 172.722656 142.246094 172.558594 C 142.910156 172.121094 143.09375 171.222656 142.652344 170.558594 C 140.421875 167.1875 137.546875 165.125 134.066406 164.363281 C 136.253906 161.464844 139.65625 159.71875 143.386719 159.71875 Z M 131.65625 256.90625 L 131.65625 235.964844 C 133.8125 236.914062 137.5 239.273438 139.738281 244.789062 C 140.847656 247.519531 141.511719 250.65625 142.15625 253.691406 C 143.3125 259.148438 144.511719 264.742188 148.292969 268.648438 L 143.386719 268.648438 C 136.917969 268.644531 131.65625 263.378906 131.65625 256.90625 Z M 231.09375 268.644531 L 216.820312 268.644531 C 229.035156 259.613281 237.996094 248.078125 242.820312 235.234375 L 242.820312 247.207031 C 240.40625 252.714844 237.359375 257.0625 233.511719 260.480469 C 232.917969 261.011719 232.863281 261.921875 233.394531 262.519531 C 233.679688 262.84375 234.074219 263.007812 234.472656 263.007812 C 234.816406 263.007812 235.15625 262.886719 235.433594 262.640625 C 238.292969 260.097656 240.734375 257.085938 242.824219 253.542969 L 242.824219 256.90625 C 242.820312 263.378906 237.558594 268.644531 231.09375 268.644531 Z M 231.09375 268.644531 "
       fill-opacity="1"
       fill-rule="nonzero"
       id="path14" />
  </g>
  <path
     fill="#000000"
     d="M 188.019531 169.15625 C 185.429688 169.15625 182.855469 169.726562 180.375 170.847656 C 179.648438 171.175781 179.324219 172.03125 179.652344 172.757812 C 179.984375 173.484375 180.835938 173.808594 181.5625 173.480469 C 183.667969 172.53125 185.839844 172.046875 188.019531 172.046875 C 200.625 172.046875 210.132812 188.246094 210.132812 209.722656 C 210.132812 222.222656 206.414062 230.945312 203.132812 238.640625 C 200.296875 245.285156 197.625 251.5625 197.625 259.207031 C 197.625 260.003906 198.269531 260.652344 199.066406 260.652344 C 199.867188 260.652344 200.511719 260.003906 200.511719 259.207031 C 200.511719 252.152344 202.957031 246.417969 205.789062 239.777344 C 209.179688 231.828125 213.019531 222.816406 213.019531 209.722656 C 213.023438 186.597656 202.273438 169.15625 188.019531 169.15625 Z M 188.019531 169.15625 "
     fill-opacity="1"
     fill-rule="nonzero"
     id="path15" />
  <path
     fill="#000000"
     d="M 174.789062 174.457031 C 168.738281 181.304688 166.910156 188.046875 166.027344 196.066406 C 165.335938 202.488281 166.550781 210.316406 169.355469 217.53125 C 169.578125 218.105469 170.121094 218.453125 170.703125 218.453125 C 170.875 218.453125 171.054688 218.425781 171.226562 218.355469 C 171.96875 218.066406 172.335938 217.230469 172.046875 216.484375 C 169.40625 209.6875 168.257812 202.355469 168.902344 196.378906 C 169.722656 188.914062 171.40625 182.652344 176.953125 176.375 C 177.484375 175.777344 177.425781 174.863281 176.832031 174.335938 C 176.230469 173.804688 175.320312 173.863281 174.789062 174.457031 Z M 174.789062 174.457031 "
     fill-opacity="1"
     fill-rule="nonzero"
     id="path16" />
  <path
     fill="#000000"
     d="M 166.898438 235.417969 C 166.738281 234.3125 166.578125 233.214844 166.40625 232.125 C 166.285156 231.335938 165.550781 230.804688 164.753906 230.917969 C 163.96875 231.042969 163.429688 231.78125 163.550781 232.570312 C 163.722656 233.652344 163.882812 234.742188 164.042969 235.835938 C 165.234375 243.976562 166.46875 252.386719 171.652344 259.054688 C 171.9375 259.421875 172.363281 259.613281 172.796875 259.613281 C 173.105469 259.613281 173.417969 259.515625 173.683594 259.308594 C 174.3125 258.820312 174.425781 257.910156 173.933594 257.28125 C 169.21875 251.210938 168.039062 243.183594 166.898438 235.417969 Z M 166.898438 235.417969 "
     fill-opacity="1"
     fill-rule="nonzero"
     id="path17" />
  <path
     fill="#000000"
     d="M 144.332031 194.351562 C 143.613281 194.699219 143.3125 195.5625 143.65625 196.28125 C 145.570312 200.261719 148.078125 203.21875 150.734375 206.347656 C 153.289062 209.363281 155.933594 212.480469 158.199219 216.753906 C 159.394531 219.027344 159.882812 221.238281 159.882812 224.378906 C 159.882812 225.179688 160.527344 225.824219 161.324219 225.824219 C 162.125 225.824219 162.769531 225.179688 162.769531 224.378906 C 162.769531 220.78125 162.167969 218.09375 160.753906 215.402344 C 158.339844 210.847656 155.59375 207.609375 152.9375 204.476562 C 150.40625 201.492188 148.015625 198.675781 146.261719 195.027344 C 145.917969 194.308594 145.054688 194.007812 144.332031 194.351562 Z M 144.332031 194.351562 "
     fill-opacity="1"
     fill-rule="nonzero"
     id="path18" />
  <path
     fill="#000000"
     d="M 142.6875 190.71875 C 142.820312 191.414062 143.425781 191.898438 144.105469 191.898438 C 144.195312 191.898438 144.285156 191.886719 144.375 191.871094 C 145.160156 191.722656 145.675781 190.96875 145.527344 190.183594 C 143.125 177.398438 148.382812 172.339844 148.628906 172.109375 C 149.21875 171.574219 149.269531 170.667969 148.738281 170.074219 C 148.207031 169.476562 147.292969 169.421875 146.699219 169.957031 C 146.421875 170.207031 139.957031 176.175781 142.6875 190.71875 Z M 142.6875 190.71875 "
     fill-opacity="1"
     fill-rule="nonzero"
     id="path19" />
  <path
     fill="#000000"
     d="M 171.894531 230.414062 C 171.691406 229.644531 170.898438 229.179688 170.128906 229.386719 C 169.355469 229.59375 168.898438 230.382812 169.101562 231.15625 C 170.5 236.449219 173.523438 240.648438 176.449219 244.714844 C 180.410156 250.226562 184.15625 255.429688 183.730469 262.984375 C 183.6875 263.78125 184.296875 264.464844 185.089844 264.511719 C 185.117188 264.511719 185.144531 264.511719 185.171875 264.511719 C 185.933594 264.511719 186.570312 263.917969 186.617188 263.148438 C 187.097656 254.574219 182.875 248.703125 178.792969 243.027344 C 175.894531 238.996094 173.15625 235.191406 171.894531 230.414062 Z M 171.894531 230.414062 "
     fill-opacity="1"
     fill-rule="nonzero"
     id="path20" />
  <path
     fill="#000000"
     d="M 188.242188 164.699219 C 192.3125 164.015625 196.503906 164.21875 200.5 165.292969 C 200.625 165.324219 200.75 165.34375 200.875 165.34375 C 201.511719 165.34375 202.09375 164.917969 202.269531 164.269531 C 202.476562 163.5 202.019531 162.707031 201.246094 162.5 C 196.855469 161.320312 192.238281 161.09375 187.765625 161.847656 C 186.976562 161.980469 186.445312 162.726562 186.578125 163.515625 C 186.710938 164.296875 187.457031 164.828125 188.242188 164.699219 Z M 188.242188 164.699219 "
     fill-opacity="1"
     fill-rule="nonzero"
     id="path21" />
  <path
     fill="#000000"
     d="M 158.65625 197.652344 C 158.726562 197.660156 158.800781 197.667969 158.871094 197.667969 C 159.574219 197.667969 160.191406 197.152344 160.296875 196.433594 C 162.3125 182.992188 170.355469 171.636719 181.28125 166.792969 C 182.007812 166.46875 182.339844 165.617188 182.015625 164.886719 C 181.691406 164.15625 180.835938 163.824219 180.109375 164.148438 C 168.289062 169.390625 159.601562 181.59375 157.441406 196.007812 C 157.324219 196.796875 157.867188 197.53125 158.65625 197.652344 Z M 158.65625 197.652344 "
     fill-opacity="1"
     fill-rule="nonzero"
     id="path22" />
  <path
     fill="#000000"
     d="M 167.054688 226.5625 C 167.210938 227.226562 167.804688 227.675781 168.460938 227.675781 C 168.570312 227.675781 168.679688 227.664062 168.789062 227.640625 C 169.566406 227.457031 170.050781 226.679688 169.867188 225.902344 C 168.367188 219.472656 165.789062 214.828125 163.722656 211.097656 C 161.820312 207.667969 160.316406 204.960938 160.316406 202.191406 C 160.316406 201.390625 159.667969 200.746094 158.871094 200.746094 C 158.074219 200.746094 157.425781 201.390625 157.425781 202.191406 C 157.425781 205.707031 159.171875 208.855469 161.195312 212.5 C 163.28125 216.261719 165.644531 220.523438 167.054688 226.5625 Z M 167.054688 226.5625 "
     fill-opacity="1"
     fill-rule="nonzero"
     id="path23" />
  <path
     fill="#000000"
     d="M 205.324219 167.332031 C 205.550781 167.457031 228.117188 180.195312 228.117188 206.976562 C 228.117188 219.433594 226.5 228.621094 223.03125 235.886719 C 222.6875 236.605469 222.992188 237.46875 223.710938 237.8125 C 223.910156 237.910156 224.125 237.957031 224.332031 237.957031 C 224.871094 237.957031 225.386719 237.652344 225.636719 237.132812 C 229.300781 229.464844 231.007812 219.878906 231.007812 206.976562 C 231.007812 178.449219 206.953125 164.933594 206.710938 164.796875 C 206.011719 164.414062 205.132812 164.667969 204.753906 165.371094 C 204.367188 166.066406 204.625 166.945312 205.324219 167.332031 Z M 205.324219 167.332031 "
     fill-opacity="1"
     fill-rule="nonzero"
     id="path24" />
  <path
     fill="#000000"
     d="M 216.996094 232.285156 C 216.253906 231.996094 215.414062 232.371094 215.128906 233.113281 C 212.882812 238.9375 210.511719 241.722656 210.492188 241.746094 C 209.964844 242.347656 210.027344 243.261719 210.628906 243.785156 C 210.902344 244.023438 211.242188 244.140625 211.578125 244.140625 C 211.980469 244.140625 212.382812 243.976562 212.664062 243.648438 C 212.777344 243.523438 215.375 240.503906 217.824219 234.152344 C 218.109375 233.410156 217.738281 232.570312 216.996094 232.285156 Z M 216.996094 232.285156 "
     fill-opacity="1"
     fill-rule="nonzero"
     id="path25" />
  <path
     fill="#000000"
     d="M 218.722656 226.375 C 218.820312 226.394531 218.921875 226.40625 219.019531 226.40625 C 219.6875 226.40625 220.289062 225.9375 220.429688 225.253906 C 221.515625 220.078125 222.066406 214.515625 222.066406 208.722656 C 222.066406 184.640625 207.972656 172.339844 207.375 171.828125 C 206.765625 171.3125 205.859375 171.382812 205.339844 171.992188 C 204.820312 172.597656 204.890625 173.507812 205.496094 174.027344 C 205.632812 174.144531 219.175781 186.03125 219.175781 208.722656 C 219.175781 214.320312 218.648438 219.679688 217.605469 224.664062 C 217.441406 225.441406 217.941406 226.210938 218.722656 226.375 Z M 218.722656 226.375 "
     fill-opacity="1"
     fill-rule="nonzero"
     id="path26" />
  <path
     fill="#000000"
     d="M 213.691406 259.707031 C 213.085938 260.222656 213.007812 261.132812 213.523438 261.742188 C 213.808594 262.082031 214.214844 262.253906 214.625 262.253906 C 214.957031 262.253906 215.285156 262.144531 215.558594 261.914062 C 216.171875 261.394531 230.640625 249.019531 234.632812 232.6875 C 238.566406 216.546875 236.015625 196.859375 235.90625 196.027344 C 235.800781 195.238281 235.070312 194.683594 234.285156 194.785156 C 233.492188 194.890625 232.9375 195.621094 233.042969 196.410156 C 233.070312 196.609375 235.632812 216.402344 231.828125 232.003906 C 228.0625 247.402344 213.835938 259.585938 213.691406 259.707031 Z M 213.691406 259.707031 "
     fill-opacity="1"
     fill-rule="nonzero"
     id="path27" />
</svg>
