<?xml version="1.0" encoding="UTF-8" standalone="no"?>
<svg
   width="500"
   zoomAndPan="magnify"
   viewBox="0 0 375 374.999991"
   height="500"
   preserveAspectRatio="xMidYMid meet"
   version="1.0"
   id="svg29"
   sodipodi:docname="cat-yel-2.svg"
   inkscape:version="1.3 (0e150ed6c4, 2023-07-21)"
   xmlns:inkscape="http://www.inkscape.org/namespaces/inkscape"
   xmlns:sodipodi="http://sodipodi.sourceforge.net/DTD/sodipodi-0.dtd"
   xmlns="http://www.w3.org/2000/svg"
   xmlns:svg="http://www.w3.org/2000/svg">
  <sodipodi:namedview
     id="namedview29"
     pagecolor="#ffffff"
     bordercolor="#000000"
     borderopacity="0.25"
     inkscape:showpageshadow="2"
     inkscape:pageopacity="0.0"
     inkscape:pagecheckerboard="0"
     inkscape:deskcolor="#d1d1d1"
     inkscape:zoom="1.61"
     inkscape:cx="250"
     inkscape:cy="250"
     inkscape:window-width="1920"
     inkscape:window-height="1014"
     inkscape:window-x="0"
     inkscape:window-y="31"
     inkscape:window-maximized="1"
     inkscape:current-layer="svg29" />
  <defs
     id="defs13">
    <clipPath
       id="2273015386">
      <path
         d="M 21.363281 27.773438 L 352.863281 27.773438 L 352.863281 359.273438 L 21.363281 359.273438 Z M 21.363281 27.773438 "
         clip-rule="nonzero"
         id="path1" />
    </clipPath>
    <clipPath
       id="92366859a6">
      <path
         d="M 187.113281 27.773438 C 95.570312 27.773438 21.363281 101.984375 21.363281 193.523438 C 21.363281 285.066406 95.570312 359.273438 187.113281 359.273438 C 278.652344 359.273438 352.863281 285.066406 352.863281 193.523438 C 352.863281 101.984375 278.652344 27.773438 187.113281 27.773438 Z M 187.113281 27.773438 "
         clip-rule="nonzero"
         id="path2" />
    </clipPath>
    <clipPath
       id="2797a18e59">
      <path
         d="M 37.5 43.910156 L 337.097656 43.910156 L 337.097656 343.511719 L 37.5 343.511719 Z M 37.5 43.910156 "
         clip-rule="nonzero"
         id="path3" />
    </clipPath>
    <clipPath
       id="51a4e933d1">
      <path
         d="M 187.300781 43.910156 C 104.566406 43.910156 37.5 110.980469 37.5 193.710938 C 37.5 276.445312 104.566406 343.511719 187.300781 343.511719 C 270.03125 343.511719 337.097656 276.445312 337.097656 193.710938 C 337.097656 110.980469 270.03125 43.910156 187.300781 43.910156 Z M 187.300781 43.910156 "
         clip-rule="nonzero"
         id="path4" />
    </clipPath>
    <clipPath
       id="06efe76cd4">
      <path
         d="M 37.5 43.910156 L 336.75 43.910156 L 336.75 343.160156 L 37.5 343.160156 Z M 37.5 43.910156 "
         clip-rule="nonzero"
         id="path5" />
    </clipPath>
    <clipPath
       id="020cc8beec">
      <path
         d="M 187.125 43.910156 C 104.488281 43.910156 37.5 110.902344 37.5 193.535156 C 37.5 276.171875 104.488281 343.160156 187.125 343.160156 C 269.761719 343.160156 336.75 276.171875 336.75 193.535156 C 336.75 110.902344 269.761719 43.910156 187.125 43.910156 Z M 187.125 43.910156 "
         clip-rule="nonzero"
         id="path6" />
    </clipPath>
    <clipPath
       id="85add7715a">
      <path
         d="M 265 175 L 277.890625 175 L 277.890625 280.203125 L 265 280.203125 Z M 265 175 "
         clip-rule="nonzero"
         id="path7" />
    </clipPath>
    <clipPath
       id="d84abb801c">
      <path
         d="M 122 270 L 136 270 L 136 280.203125 L 122 280.203125 Z M 122 270 "
         clip-rule="nonzero"
         id="path8" />
    </clipPath>
    <clipPath
       id="fdd3b28f69">
      <path
         d="M 151 264 L 164 264 L 164 280.203125 L 151 280.203125 Z M 151 264 "
         clip-rule="nonzero"
         id="path9" />
    </clipPath>
    <clipPath
       id="38dc7a5963">
      <path
         d="M 236 226 L 250 226 L 250 280.203125 L 236 280.203125 Z M 236 226 "
         clip-rule="nonzero"
         id="path10" />
    </clipPath>
    <clipPath
       id="e471eaf119">
      <path
         d="M 179 258 L 193 258 L 193 280.203125 L 179 280.203125 Z M 179 258 "
         clip-rule="nonzero"
         id="path11" />
    </clipPath>
    <clipPath
       id="ad12c972f3">
      <path
         d="M 208 248 L 221 248 L 221 280.203125 L 208 280.203125 Z M 208 248 "
         clip-rule="nonzero"
         id="path12" />
    </clipPath>
    <clipPath
       id="f700892b45">
      <path
         d="M 97.140625 131 L 259 131 L 259 259 L 97.140625 259 Z M 97.140625 131 "
         clip-rule="nonzero"
         id="path13" />
    </clipPath>
  </defs>
  <g
     clip-path="url(#2273015386)"
     id="g15">
    <g
       clip-path="url(#92366859a6)"
       id="g14">
      <path
         stroke-linecap="butt"
         transform="matrix(0.749179, 0, 0, 0.749179, 21.362708, 27.77449)"
         fill="none"
         stroke-linejoin="miter"
         d="M 221.24295 -0.00140543 C 99.051901 -0.00140543 0.000765629 99.054944 0.000765629 221.240779 C 0.000765629 343.431828 99.051901 442.482963 221.24295 442.482963 C 343.428785 442.482963 442.485135 343.431828 442.485135 221.240779 C 442.485135 99.054944 343.428785 -0.00140543 221.24295 -0.00140543 Z M 221.24295 -0.00140543 "
         stroke="#000000"
         stroke-width="16"
         stroke-opacity="1"
         stroke-miterlimit="4"
         id="path14" />
    </g>
  </g>
  <g
     clip-path="url(#2797a18e59)"
     id="g17">
    <g
       clip-path="url(#51a4e933d1)"
       id="g16">
      <path
         fill="#fbc11c"
         d="M 37.5 43.910156 L 337.097656 43.910156 L 337.097656 343.511719 L 37.5 343.511719 Z M 37.5 43.910156 "
         fill-opacity="1"
         fill-rule="nonzero"
         id="path15" />
    </g>
  </g>
  <g
     clip-path="url(#06efe76cd4)"
     id="g19">
    <g
       clip-path="url(#020cc8beec)"
       id="g18">
      <path
         stroke-linecap="butt"
         transform="matrix(0.749149, 0, 0, 0.749149, 37.500002, 43.911794)"
         fill="none"
         stroke-linejoin="miter"
         d="M 199.72658 -0.00218604 C 89.419149 -0.00218604 -0.00000271975 89.422179 -0.00000271975 199.724397 C -0.00000271975 310.031829 89.419149 399.45098 199.72658 399.45098 C 310.034012 399.45098 399.453163 310.031829 399.453163 199.724397 C 399.453163 89.422179 310.034012 -0.00218604 199.72658 -0.00218604 Z M 199.72658 -0.00218604 "
         stroke="#000000"
         stroke-width="8"
         stroke-opacity="1"
         stroke-miterlimit="4"
         id="path17" />
    </g>
  </g>
  <g
     clip-path="url(#85add7715a)"
     id="g20">
    <path
       fill="#000000"
       d="M 265.210938 175.632812 L 277.878906 175.632812 L 277.878906 280.203125 L 265.210938 280.203125 Z M 265.210938 175.632812 "
       fill-opacity="1"
       fill-rule="nonzero"
       id="path19" />
  </g>
  <path
     fill="#000000"
     d="M 182.976562 184.085938 C 201.785156 184.4375 218.1875 168.023438 217.832031 149.238281 C 218.417969 130.488281 201.28125 113.789062 182.980469 114.355469 C 164.671875 113.785156 147.539062 130.484375 148.121094 149.238281 C 147.773438 168.023438 164.167969 184.4375 182.976562 184.085938 Z M 197.324219 134.863281 C 197.171875 134.71875 197.054688 134.546875 196.972656 134.351562 C 196.890625 134.15625 196.847656 133.953125 196.847656 133.742188 C 196.847656 133.53125 196.886719 133.324219 196.964844 133.128906 C 197.046875 132.933594 197.160156 132.761719 197.3125 132.613281 C 197.460938 132.460938 197.632812 132.347656 197.828125 132.265625 C 198.023438 132.1875 198.226562 132.148438 198.441406 132.148438 C 198.652344 132.148438 198.855469 132.191406 199.050781 132.273438 C 199.242188 132.355469 199.414062 132.472656 199.5625 132.625 C 200.105469 133.167969 200.621094 133.738281 201.105469 134.332031 C 201.59375 134.925781 202.050781 135.542969 202.476562 136.183594 C 202.902344 136.820312 203.296875 137.480469 203.65625 138.160156 C 204.019531 138.835938 204.347656 139.53125 204.640625 140.238281 C 204.933594 140.949219 205.191406 141.671875 205.414062 142.410156 C 205.636719 143.144531 205.824219 143.886719 205.972656 144.640625 C 206.125 145.394531 206.234375 146.15625 206.3125 146.917969 C 206.386719 147.683594 206.425781 148.453125 206.425781 149.21875 C 206.425781 149.988281 206.386719 150.753906 206.3125 151.519531 C 206.234375 152.285156 206.125 153.042969 205.972656 153.796875 C 205.824219 154.550781 205.636719 155.296875 205.414062 156.03125 C 205.191406 156.765625 204.933594 157.488281 204.640625 158.199219 C 204.347656 158.910156 204.019531 159.601562 203.65625 160.28125 C 203.296875 160.957031 202.902344 161.617188 202.476562 162.257812 C 202.050781 162.894531 201.59375 163.511719 201.105469 164.105469 C 200.621094 164.703125 200.105469 165.269531 199.5625 165.8125 C 199.414062 165.960938 199.242188 166.070312 199.050781 166.152344 C 198.855469 166.230469 198.65625 166.265625 198.445312 166.265625 C 198.238281 166.265625 198.039062 166.222656 197.847656 166.144531 C 197.652344 166.0625 197.484375 165.949219 197.335938 165.800781 C 197.1875 165.65625 197.074219 165.484375 196.996094 165.292969 C 196.914062 165.101562 196.875 164.898438 196.871094 164.691406 C 196.871094 164.480469 196.910156 164.28125 196.988281 164.085938 C 197.066406 163.894531 197.179688 163.722656 197.324219 163.574219 C 197.792969 163.105469 198.238281 162.609375 198.660156 162.097656 C 199.078125 161.582031 199.472656 161.050781 199.84375 160.496094 C 200.210938 159.945312 200.550781 159.375 200.863281 158.789062 C 201.179688 158.199219 201.460938 157.601562 201.714844 156.988281 C 201.96875 156.371094 202.191406 155.746094 202.382812 155.109375 C 202.578125 154.476562 202.738281 153.832031 202.867188 153.179688 C 202.996094 152.527344 203.09375 151.871094 203.160156 151.207031 C 203.222656 150.546875 203.257812 149.882812 203.257812 149.21875 C 203.257812 148.554688 203.222656 147.890625 203.160156 147.230469 C 203.09375 146.570312 202.996094 145.914062 202.867188 145.261719 C 202.738281 144.609375 202.578125 143.964844 202.382812 143.328125 C 202.191406 142.691406 201.96875 142.066406 201.714844 141.453125 C 201.460938 140.839844 201.179688 140.238281 200.863281 139.652344 C 200.550781 139.066406 200.210938 138.496094 199.84375 137.941406 C 199.472656 137.390625 199.078125 136.855469 198.660156 136.34375 C 198.238281 135.828125 197.792969 135.335938 197.324219 134.863281 Z M 197.324219 134.863281 "
     fill-opacity="1"
     fill-rule="nonzero"
     id="path20" />
  <g
     clip-path="url(#d84abb801c)"
     id="g21">
    <path
       fill="#000000"
       d="M 122.71875 270.695312 L 135.386719 270.695312 L 135.386719 280.203125 L 122.71875 280.203125 Z M 122.71875 270.695312 "
       fill-opacity="1"
       fill-rule="nonzero"
       id="path21" />
  </g>
  <g
     clip-path="url(#fdd3b28f69)"
     id="g22">
    <path
       fill="#000000"
       d="M 151.21875 264.359375 L 163.882812 264.359375 L 163.882812 280.203125 L 151.21875 280.203125 Z M 151.21875 264.359375 "
       fill-opacity="1"
       fill-rule="nonzero"
       id="path22" />
  </g>
  <g
     clip-path="url(#38dc7a5963)"
     id="g23">
    <path
       fill="#000000"
       d="M 236.714844 226.332031 L 249.378906 226.332031 L 249.378906 280.203125 L 236.714844 280.203125 Z M 236.714844 226.332031 "
       fill-opacity="1"
       fill-rule="nonzero"
       id="path23" />
  </g>
  <g
     clip-path="url(#e471eaf119)"
     id="g24">
    <path
       fill="#000000"
       d="M 179.714844 258.019531 L 192.382812 258.019531 L 192.382812 280.203125 L 179.714844 280.203125 Z M 179.714844 258.019531 "
       fill-opacity="1"
       fill-rule="nonzero"
       id="path24" />
  </g>
  <g
     clip-path="url(#ad12c972f3)"
     id="g25">
    <path
       fill="#000000"
       d="M 208.214844 248.515625 L 220.882812 248.515625 L 220.882812 280.203125 L 208.214844 280.203125 Z M 208.214844 248.515625 "
       fill-opacity="1"
       fill-rule="nonzero"
       id="path25" />
  </g>
  <path
     fill="#000000"
     d="M 217.957031 184.207031 C 237.128906 165.804688 237.128906 132.636719 217.957031 114.238281 C 198.675781 94.96875 167.304688 94.953125 148.03125 114.238281 C 128.761719 133.242188 128.777344 165.242188 148.03125 184.210938 C 167.042969 203.421875 198.925781 203.449219 217.957031 184.207031 Z M 156.082031 122.292969 C 156.964844 121.414062 157.890625 120.582031 158.851562 119.792969 C 159.816406 119.007812 160.816406 118.265625 161.855469 117.578125 C 162.890625 116.886719 163.957031 116.25 165.054688 115.664062 C 166.15625 115.078125 167.28125 114.546875 168.429688 114.074219 C 169.582031 113.597656 170.753906 113.179688 171.945312 112.820312 C 173.136719 112.460938 174.339844 112.160156 175.5625 111.917969 C 176.785156 111.675781 178.011719 111.492188 179.253906 111.371094 C 180.492188 111.25 181.734375 111.1875 182.976562 111.1875 C 184.222656 111.1875 185.464844 111.25 186.703125 111.371094 C 187.941406 111.492188 189.171875 111.675781 190.390625 111.917969 C 191.613281 112.160156 192.820312 112.460938 194.011719 112.820312 C 195.203125 113.179688 196.375 113.597656 197.523438 114.074219 C 198.675781 114.546875 199.800781 115.078125 200.898438 115.664062 C 201.996094 116.25 203.066406 116.886719 204.101562 117.578125 C 205.136719 118.265625 206.136719 119.007812 207.101562 119.792969 C 208.066406 120.582031 208.988281 121.414062 209.871094 122.292969 C 224.605469 136.429688 224.617188 162.003906 209.871094 176.121094 C 195.828125 190.847656 170.148438 190.867188 156.082031 176.121094 C 141.339844 162 141.351562 136.425781 156.082031 122.292969 Z M 156.082031 122.292969 "
     fill-opacity="1"
     fill-rule="nonzero"
     id="path26" />
  <path
     fill="#000000"
     d="M 149.378906 189.714844 C 146.890625 187.625 144.601562 185.339844 142.511719 182.855469 L 128.539062 196.859375 L 135.394531 203.707031 Z M 149.378906 189.714844 "
     fill-opacity="1"
     fill-rule="nonzero"
     id="path27" />
  <path
     fill="#000000"
     d="M 112.832031 230.753906 L 135.261719 208.3125 C 133.550781 205.894531 125.257812 198.3125 123.214844 196.019531 L 100.566406 218.457031 C 100.160156 218.863281 99.800781 219.308594 99.484375 219.789062 C 99.167969 220.269531 98.90625 220.777344 98.695312 221.3125 C 98.480469 221.847656 98.324219 222.398438 98.222656 222.964844 C 98.125 223.53125 98.082031 224.101562 98.09375 224.675781 C 98.109375 225.25 98.183594 225.816406 98.3125 226.378906 C 98.441406 226.9375 98.625 227.480469 98.867188 228.003906 C 99.105469 228.523438 99.394531 229.019531 99.734375 229.484375 C 100.074219 229.945312 100.457031 230.371094 100.882812 230.757812 C 101.273438 231.148438 101.703125 231.496094 102.164062 231.804688 C 102.625 232.109375 103.113281 232.371094 103.625 232.582031 C 104.140625 232.792969 104.667969 232.949219 105.210938 233.058594 C 105.753906 233.164062 106.304688 233.21875 106.859375 233.21875 C 107.414062 233.21875 107.960938 233.164062 108.503906 233.058594 C 109.046875 232.949219 109.578125 232.789062 110.089844 232.578125 C 110.601562 232.367188 111.089844 232.105469 111.550781 231.800781 C 112.011719 231.492188 112.441406 231.144531 112.832031 230.753906 Z M 112.832031 230.753906 "
     fill-opacity="1"
     fill-rule="nonzero"
     id="path28" />
  <g
     clip-path="url(#f700892b45)"
     id="g29">
    <path
       fill="#000000"
       d="M 102.136719 258.019531 C 102.613281 258.019531 103.082031 257.949219 103.539062 257.804688 C 103.992188 257.664062 104.417969 257.457031 104.8125 257.1875 C 105.207031 256.917969 105.550781 256.59375 105.847656 256.21875 C 106.144531 255.84375 106.378906 255.4375 106.550781 254.988281 C 108.824219 255.203125 113.671875 255.574219 120.351562 255.574219 C 141.59375 255.574219 180.941406 251.828125 211.75 227.449219 C 236.632812 207.757812 251.359375 178.507812 255.558594 140.535156 C 255.914062 140.425781 256.25 140.273438 256.570312 140.082031 C 256.890625 139.894531 257.1875 139.667969 257.453125 139.410156 C 257.722656 139.152344 257.957031 138.863281 258.15625 138.550781 C 258.355469 138.238281 258.519531 137.902344 258.640625 137.550781 C 258.765625 137.199219 258.84375 136.839844 258.882812 136.46875 C 258.921875 136.097656 258.914062 135.726562 258.867188 135.355469 C 258.816406 134.988281 258.726562 134.628906 258.59375 134.28125 C 258.460938 133.933594 258.289062 133.605469 258.078125 133.296875 C 257.867188 132.988281 257.625 132.710938 257.351562 132.457031 C 257.074219 132.207031 256.773438 131.992188 256.449219 131.8125 C 256.121094 131.632812 255.78125 131.492188 255.421875 131.390625 C 255.0625 131.289062 254.699219 131.234375 254.324219 131.21875 C 253.953125 131.207031 253.585938 131.234375 253.21875 131.304688 C 252.855469 131.378906 252.5 131.492188 252.164062 131.648438 C 251.824219 131.800781 251.507812 131.996094 251.214844 132.222656 C 250.921875 132.453125 250.65625 132.710938 250.425781 133.003906 C 250.191406 133.292969 249.996094 133.609375 249.835938 133.945312 C 249.675781 134.28125 249.558594 134.632812 249.480469 134.996094 C 249.40625 135.363281 249.371094 135.730469 249.382812 136.105469 C 249.390625 136.476562 249.441406 136.84375 249.539062 137.203125 C 249.632812 137.5625 249.769531 137.90625 249.945312 138.234375 C 250.121094 138.5625 250.332031 138.867188 250.578125 139.148438 C 250.828125 139.425781 251.101562 139.671875 251.40625 139.886719 C 251.714844 140.101562 252.039062 140.277344 252.382812 140.414062 C 248.246094 177.394531 233.941406 205.839844 209.804688 224.949219 C 169.851562 256.582031 115.035156 252.640625 106.636719 251.816406 C 106.457031 251.257812 106.179688 250.75 105.8125 250.296875 C 105.445312 249.839844 105.007812 249.464844 104.5 249.171875 C 103.992188 248.878906 103.449219 248.683594 102.871094 248.59375 C 102.289062 248.5 101.714844 248.515625 101.140625 248.636719 C 100.566406 248.761719 100.035156 248.980469 99.542969 249.300781 C 99.054688 249.621094 98.636719 250.015625 98.289062 250.492188 C 97.945312 250.964844 97.699219 251.488281 97.546875 252.054688 C 97.394531 252.621094 97.351562 253.195312 97.414062 253.777344 C 97.476562 254.363281 97.640625 254.914062 97.90625 255.4375 C 98.171875 255.957031 98.523438 256.414062 98.960938 256.808594 C 99.398438 257.199219 99.890625 257.5 100.4375 257.707031 C 100.984375 257.917969 101.550781 258.023438 102.136719 258.019531 Z M 102.136719 258.019531 "
       fill-opacity="1"
       fill-rule="nonzero"
       id="path29" />
  </g>
</svg>
