<?xml version="1.0" encoding="UTF-8" standalone="no"?>
<svg
   width="500"
   zoomAndPan="magnify"
   viewBox="0 0 375 374.999991"
   height="500"
   preserveAspectRatio="xMidYMid meet"
   version="1.0"
   id="svg42"
   sodipodi:docname="cat-yel-4.svg"
   inkscape:version="1.3 (0e150ed6c4, 2023-07-21)"
   xmlns:inkscape="http://www.inkscape.org/namespaces/inkscape"
   xmlns:sodipodi="http://sodipodi.sourceforge.net/DTD/sodipodi-0.dtd"
   xmlns="http://www.w3.org/2000/svg"
   xmlns:svg="http://www.w3.org/2000/svg">
  <sodipodi:namedview
     id="namedview42"
     pagecolor="#ffffff"
     bordercolor="#000000"
     borderopacity="0.25"
     inkscape:showpageshadow="2"
     inkscape:pageopacity="0.0"
     inkscape:pagecheckerboard="0"
     inkscape:deskcolor="#d1d1d1"
     inkscape:zoom="1.61"
     inkscape:cx="250"
     inkscape:cy="250"
     inkscape:window-width="1920"
     inkscape:window-height="1014"
     inkscape:window-x="0"
     inkscape:window-y="31"
     inkscape:window-maximized="1"
     inkscape:current-layer="svg42" />
  <defs
     id="defs9">
    <clipPath
       id="40307a79f8">
      <path
         d="M 21.363281 27.773438 L 352.863281 27.773438 L 352.863281 359.273438 L 21.363281 359.273438 Z M 21.363281 27.773438 "
         clip-rule="nonzero"
         id="path1" />
    </clipPath>
    <clipPath
       id="817e18da35">
      <path
         d="M 187.113281 27.773438 C 95.570312 27.773438 21.363281 101.984375 21.363281 193.523438 C 21.363281 285.066406 95.570312 359.273438 187.113281 359.273438 C 278.652344 359.273438 352.863281 285.066406 352.863281 193.523438 C 352.863281 101.984375 278.652344 27.773438 187.113281 27.773438 Z M 187.113281 27.773438 "
         clip-rule="nonzero"
         id="path2" />
    </clipPath>
    <clipPath
       id="8bcc0d8bde">
      <path
         d="M 37.5 43.910156 L 337.097656 43.910156 L 337.097656 343.511719 L 37.5 343.511719 Z M 37.5 43.910156 "
         clip-rule="nonzero"
         id="path3" />
    </clipPath>
    <clipPath
       id="9d2eb2b3c0">
      <path
         d="M 187.300781 43.910156 C 104.566406 43.910156 37.5 110.980469 37.5 193.710938 C 37.5 276.445312 104.566406 343.511719 187.300781 343.511719 C 270.03125 343.511719 337.097656 276.445312 337.097656 193.710938 C 337.097656 110.980469 270.03125 43.910156 187.300781 43.910156 Z M 187.300781 43.910156 "
         clip-rule="nonzero"
         id="path4" />
    </clipPath>
    <clipPath
       id="9f2deeef58">
      <path
         d="M 37.5 43.910156 L 336.75 43.910156 L 336.75 343.160156 L 37.5 343.160156 Z M 37.5 43.910156 "
         clip-rule="nonzero"
         id="path5" />
    </clipPath>
    <clipPath
       id="6b17bd3401">
      <path
         d="M 187.125 43.910156 C 104.488281 43.910156 37.5 110.902344 37.5 193.535156 C 37.5 276.171875 104.488281 343.160156 187.125 343.160156 C 269.761719 343.160156 336.75 276.171875 336.75 193.535156 C 336.75 110.902344 269.761719 43.910156 187.125 43.910156 Z M 187.125 43.910156 "
         clip-rule="nonzero"
         id="path6" />
    </clipPath>
    <clipPath
       id="ecc5decbf4">
      <path
         d="M 90 189 L 186 189 L 186 284.714844 L 90 284.714844 Z M 90 189 "
         clip-rule="nonzero"
         id="path7" />
    </clipPath>
    <clipPath
       id="60b4c05eb6">
      <path
         d="M 206 90.464844 L 251 90.464844 L 251 126 L 206 126 Z M 206 90.464844 "
         clip-rule="nonzero"
         id="path8" />
    </clipPath>
    <clipPath
       id="4a52207718">
      <path
         d="M 188 189 L 285 189 L 285 284.714844 L 188 284.714844 Z M 188 189 "
         clip-rule="nonzero"
         id="path9" />
    </clipPath>
  </defs>
  <g
     clip-path="url(#40307a79f8)"
     id="g11">
    <g
       clip-path="url(#817e18da35)"
       id="g10">
      <path
         stroke-linecap="butt"
         transform="matrix(0.749179, 0, 0, 0.749179, 21.362708, 27.774578)"
         fill="none"
         stroke-linejoin="miter"
         d="M 221.24295 -0.00152267 C 99.051901 -0.00152267 0.000765629 99.054827 0.000765629 221.240662 C 0.000765629 343.431711 99.051901 442.482846 221.24295 442.482846 C 343.428785 442.482846 442.485135 343.431711 442.485135 221.240662 C 442.485135 99.054827 343.428785 -0.00152267 221.24295 -0.00152267 Z M 221.24295 -0.00152267 "
         stroke="#000000"
         stroke-width="16"
         stroke-opacity="1"
         stroke-miterlimit="4"
         id="path10" />
    </g>
  </g>
  <g
     clip-path="url(#8bcc0d8bde)"
     id="g13">
    <g
       clip-path="url(#9d2eb2b3c0)"
       id="g12">
      <path
         fill="#fbc11c"
         d="M 37.5 43.910156 L 337.097656 43.910156 L 337.097656 343.511719 L 37.5 343.511719 Z M 37.5 43.910156 "
         fill-opacity="1"
         fill-rule="nonzero"
         id="path11" />
    </g>
  </g>
  <g
     clip-path="url(#9f2deeef58)"
     id="g15">
    <g
       clip-path="url(#6b17bd3401)"
       id="g14">
      <path
         stroke-linecap="butt"
         transform="matrix(0.749149, 0, 0, 0.749149, 37.500002, 43.911852)"
         fill="none"
         stroke-linejoin="miter"
         d="M 199.72658 -0.00226292 C 89.419149 -0.00226292 -0.00000271975 89.422103 -0.00000271975 199.72432 C -0.00000271975 310.031752 89.419149 399.450903 199.72658 399.450903 C 310.034012 399.450903 399.453163 310.031752 399.453163 199.72432 C 399.453163 89.422103 310.034012 -0.00226292 199.72658 -0.00226292 Z M 199.72658 -0.00226292 "
         stroke="#000000"
         stroke-width="8"
         stroke-opacity="1"
         stroke-miterlimit="4"
         id="path13" />
    </g>
  </g>
  <path
     fill="#000000"
     d="M 93.394531 161.363281 C 93.902344 161.667969 94.53125 161.683594 95.058594 161.40625 C 98.941406 159.328125 101.5 158.894531 102.964844 158.894531 C 106.238281 158.894531 107.753906 159.652344 109.355469 160.453125 C 110.894531 161.21875 112.636719 162.089844 115.632812 162.089844 C 121.617188 162.089844 125.433594 159.410156 125.59375 159.296875 C 126.035156 158.980469 126.296875 158.46875 126.296875 157.921875 L 126.296875 142.890625 C 126.296875 142.257812 125.945312 141.6875 125.386719 141.394531 C 124.832031 141.105469 124.15625 141.148438 123.640625 141.511719 C 123.609375 141.53125 120.488281 143.679688 115.632812 143.679688 C 113.429688 143.679688 112.296875 143.113281 110.859375 142.394531 C 109.066406 141.5 107.03125 140.484375 102.964844 140.484375 C 100.277344 140.484375 97.082031 141.464844 93.46875 143.394531 C 92.921875 143.6875 92.578125 144.257812 92.578125 144.882812 L 92.578125 159.914062 C 92.578125 160.507812 92.890625 161.058594 93.394531 161.363281 Z M 95.949219 145.910156 C 99.339844 144.230469 101.617188 143.859375 102.964844 143.859375 C 106.238281 143.859375 107.753906 144.617188 109.355469 145.417969 C 110.894531 146.183594 112.636719 147.054688 115.632812 147.054688 C 118.703125 147.054688 121.199219 146.351562 122.925781 145.652344 L 122.925781 156.960938 C 121.738281 157.59375 119.136719 158.710938 115.632812 158.710938 C 113.429688 158.710938 112.296875 158.148438 110.859375 157.429688 C 109.066406 156.53125 107.03125 155.515625 102.964844 155.515625 C 100.910156 155.515625 98.558594 156.089844 95.949219 157.222656 Z M 95.949219 145.910156 "
     fill-opacity="1"
     fill-rule="nonzero"
     id="path15" />
  <path
     fill="#000000"
     d="M 112.808594 151.289062 C 112.808594 151.734375 112.726562 152.164062 112.554688 152.578125 C 112.382812 152.992188 112.140625 153.359375 111.824219 153.675781 C 111.507812 153.992188 111.140625 154.234375 110.730469 154.40625 C 110.316406 154.578125 109.886719 154.664062 109.4375 154.664062 C 108.992188 154.664062 108.5625 154.578125 108.148438 154.40625 C 107.734375 154.234375 107.371094 153.992188 107.054688 153.675781 C 106.738281 153.359375 106.492188 152.992188 106.324219 152.578125 C 106.152344 152.164062 106.066406 151.734375 106.066406 151.289062 C 106.066406 150.839844 106.152344 150.410156 106.324219 149.996094 C 106.492188 149.582031 106.738281 149.214844 107.054688 148.898438 C 107.371094 148.582031 107.734375 148.339844 108.148438 148.167969 C 108.5625 147.996094 108.992188 147.910156 109.4375 147.910156 C 109.886719 147.910156 110.316406 147.996094 110.730469 148.167969 C 111.140625 148.339844 111.507812 148.582031 111.824219 148.898438 C 112.140625 149.214844 112.382812 149.582031 112.554688 149.996094 C 112.726562 150.410156 112.808594 150.839844 112.808594 151.289062 Z M 112.808594 151.289062 "
     fill-opacity="1"
     fill-rule="nonzero"
     id="path16" />
  <path
     fill="#000000"
     d="M 154.117188 124.269531 C 162.949219 124.269531 170.136719 117.074219 170.136719 108.230469 C 170.136719 99.386719 162.949219 92.191406 154.117188 92.191406 C 145.285156 92.191406 138.101562 99.386719 138.101562 108.230469 C 138.101562 117.074219 145.285156 124.269531 154.117188 124.269531 Z M 154.117188 95.566406 C 161.089844 95.566406 166.765625 101.246094 166.765625 108.230469 C 166.765625 115.214844 161.089844 120.894531 154.117188 120.894531 C 147.144531 120.894531 141.472656 115.214844 141.472656 108.230469 C 141.472656 101.246094 147.144531 95.566406 154.117188 95.566406 Z M 154.117188 95.566406 "
     fill-opacity="1"
     fill-rule="nonzero"
     id="path17" />
  <path
     fill="#000000"
     d="M 150.03125 113.335938 C 150.390625 113.335938 150.75 113.21875 151.058594 112.984375 L 155.894531 109.257812 C 156.308594 108.9375 156.511719 108.464844 156.527344 107.980469 C 156.597656 107.792969 156.648438 107.597656 156.648438 107.386719 L 156.648438 100.632812 C 156.648438 99.699219 155.894531 98.945312 154.960938 98.945312 C 154.03125 98.945312 153.273438 99.699219 153.273438 100.632812 L 153.273438 107.011719 L 149 110.308594 C 148.261719 110.875 148.125 111.9375 148.691406 112.675781 C 149.023438 113.109375 149.523438 113.335938 150.03125 113.335938 Z M 150.03125 113.335938 "
     fill-opacity="1"
     fill-rule="nonzero"
     id="path18" />
  <path
     fill="#000000"
     d="M 251.429688 164.371094 L 257.878906 170.828125 C 258.207031 171.160156 258.640625 171.324219 259.070312 171.324219 C 259.503906 171.324219 259.933594 171.160156 260.261719 170.828125 L 279.289062 151.773438 C 279.46875 151.59375 279.605469 151.375 279.691406 151.132812 L 282.972656 141.613281 C 283.179688 141.011719 283.03125 140.34375 282.585938 139.886719 C 282.140625 139.429688 281.476562 139.261719 280.871094 139.453125 L 271.140625 142.511719 C 270.882812 142.59375 270.648438 142.734375 270.457031 142.929688 L 251.429688 161.980469 C 250.769531 162.640625 250.769531 163.710938 251.429688 164.371094 Z M 272.546875 145.609375 L 278.691406 143.675781 L 276.628906 149.664062 L 259.070312 167.246094 L 255.007812 163.175781 Z M 272.546875 145.609375 "
     fill-opacity="1"
     fill-rule="nonzero"
     id="path19" />
  <g
     clip-path="url(#ecc5decbf4)"
     id="g20">
    <path
       fill="#000000"
       d="M 179.035156 213.371094 L 171.90625 204.679688 C 171.160156 203.769531 170.011719 203.300781 168.835938 203.394531 C 162.023438 203.914062 155.675781 207.164062 151.253906 212.449219 L 137.863281 228.453125 C 136.410156 230.191406 133.691406 230.027344 132.453125 228.128906 L 119.398438 208.078125 L 119.371094 208.089844 L 115.300781 200.90625 C 113.933594 198.496094 111.472656 196.910156 108.714844 196.664062 L 103.757812 196.226562 C 102.667969 196.128906 101.695312 195.507812 101.140625 194.5625 L 99.378906 191.535156 C 98.449219 189.945312 96.773438 189.050781 95.050781 189.050781 C 94.238281 189.050781 93.417969 189.246094 92.65625 189.664062 C 90.242188 190.984375 89.34375 194.007812 90.644531 196.433594 L 101.34375 216.398438 L 123.210938 256.949219 C 125.359375 260.933594 129.515625 263.414062 134.035156 263.414062 C 137.257812 263.414062 140.351562 262.148438 142.648438 259.890625 L 148.730469 253.917969 C 147 242.867188 149.363281 234.015625 149.472656 233.609375 C 149.71875 232.710938 150.644531 232.1875 151.542969 232.433594 C 152.441406 232.679688 152.972656 233.605469 152.722656 234.507812 C 152.699219 234.59375 150.734375 242.023438 151.800781 251.457031 C 152.5625 253.851562 156.476562 267.058594 154.890625 280.566406 C 154.640625 282.703125 156.25 284.601562 158.398438 284.601562 L 185.308594 284.601562 L 185.308594 217.070312 C 182.949219 216.636719 180.707031 215.410156 179.035156 213.371094 Z M 94.273438 192.628906 C 94.515625 192.496094 94.777344 192.425781 95.050781 192.425781 C 95.640625 192.425781 96.167969 192.730469 96.464844 193.238281 L 98.230469 196.265625 C 99.332031 198.152344 101.285156 199.394531 103.460938 199.589844 L 108.417969 200.027344 C 110.070312 200.175781 111.546875 201.125 112.367188 202.574219 L 114.675781 206.640625 L 102.824219 212.019531 L 93.617188 194.835938 C 93.195312 194.046875 93.488281 193.058594 94.273438 192.628906 Z M 94.273438 192.628906 "
       fill-opacity="1"
       fill-rule="nonzero"
       id="path20" />
  </g>
  <path
     fill="#000000"
     d="M 217.34375 202.492188 C 222.757812 202.492188 224.214844 198.125 224.605469 195.953125 C 224.730469 195.238281 225.035156 194.554688 225.558594 194.054688 C 229.15625 190.601562 227.335938 186.691406 226 184.738281 C 225.425781 183.894531 225.238281 182.84375 225.511719 181.859375 C 227.027344 176.308594 226.496094 170.992188 221.882812 168.273438 C 217.804688 165.871094 215.746094 161.648438 215.097656 160.09375 C 215.027344 159.925781 214.96875 159.757812 214.898438 159.59375 C 214.875 159.53125 214.863281 159.492188 214.863281 159.492188 C 214.863281 159.492188 214.859375 159.5 214.859375 159.507812 C 210.203125 148.714844 199.484375 141.15625 186.996094 141.15625 C 176.191406 141.15625 166.742188 146.835938 161.371094 155.351562 L 161.367188 155.347656 C 161.34375 155.386719 161.328125 155.421875 161.304688 155.460938 C 160.695312 156.4375 160.125 157.441406 159.625 158.488281 C 158.214844 161.089844 157.0625 163.078125 154.425781 165.085938 L 154.429688 165.089844 C 151.5625 167.429688 148.324219 171.46875 147.78125 178.015625 C 147.714844 178.851562 147.324219 179.617188 146.652344 180.117188 C 144.171875 181.964844 138.4375 187.234375 141.6875 194.59375 C 141.964844 195.222656 142.070312 195.898438 141.929688 196.566406 C 141.585938 198.21875 141.492188 201.660156 145.941406 203.621094 C 149.78125 205.3125 154.546875 202.632812 156.382812 201.429688 C 156.882812 201.101562 157.460938 200.933594 158.058594 200.949219 C 160.464844 201.015625 166.710938 201.417969 169.15625 196.097656 C 174.167969 199.757812 180.320312 201.941406 186.996094 201.941406 C 193.269531 201.941406 199.097656 200.035156 203.9375 196.769531 C 206.519531 199.949219 211.105469 202.492188 217.34375 202.492188 Z M 160.707031 177.53125 C 180.691406 176.164062 189.382812 167.21875 193.164062 159.683594 C 196.324219 163.777344 202.339844 167.96875 213.730469 168.109375 C 213.875 169.238281 213.972656 170.382812 213.972656 171.550781 C 213.972656 186.445312 201.871094 198.566406 186.996094 198.566406 C 174.175781 198.566406 163.4375 189.554688 160.707031 177.53125 Z M 160.707031 177.53125 "
     fill-opacity="1"
     fill-rule="nonzero"
     id="path21" />
  <g
     clip-path="url(#60b4c05eb6)"
     id="g22">
    <path
       fill="#000000"
       d="M 206.734375 125.160156 C 207.039062 125.65625 207.582031 125.960938 208.164062 125.960938 L 248.492188 125.960938 C 249.074219 125.960938 249.617188 125.65625 249.921875 125.160156 C 250.230469 124.664062 250.261719 124.042969 250 123.519531 L 244.320312 112.066406 L 244.320312 92.191406 C 244.320312 91.257812 243.566406 90.5 242.636719 90.5 L 213.972656 90.5 C 213.042969 90.5 212.285156 91.257812 212.285156 92.191406 L 212.285156 112.164062 L 206.65625 123.519531 C 206.394531 124.042969 206.425781 124.664062 206.734375 125.160156 Z M 215.660156 93.878906 L 240.949219 93.878906 L 240.949219 110.761719 L 215.660156 110.761719 Z M 215.070312 114.140625 L 241.585938 114.140625 L 245.769531 122.582031 L 210.886719 122.582031 Z M 215.070312 114.140625 "
       fill-opacity="1"
       fill-rule="nonzero"
       id="path22" />
  </g>
  <path
     fill="#000000"
     d="M 235.890625 115.828125 L 220.71875 115.828125 C 219.785156 115.828125 219.03125 116.585938 219.03125 117.515625 C 219.03125 118.449219 219.785156 119.207031 220.71875 119.207031 L 235.890625 119.207031 C 236.824219 119.207031 237.578125 118.449219 237.578125 117.515625 C 237.578125 116.585938 236.824219 115.828125 235.890625 115.828125 Z M 235.890625 115.828125 "
     fill-opacity="1"
     fill-rule="nonzero"
     id="path23" />
  <g
     clip-path="url(#4a52207718)"
     id="g24">
    <path
       fill="#000000"
       d="M 281.769531 189.664062 C 281.011719 189.246094 280.1875 189.050781 279.375 189.050781 C 277.652344 189.050781 275.976562 189.945312 275.050781 191.535156 L 273.285156 194.5625 C 272.734375 195.507812 271.757812 196.128906 270.671875 196.226562 L 265.714844 196.664062 C 262.957031 196.910156 260.492188 198.496094 259.125 200.90625 L 254.996094 208.191406 L 255.003906 208.195312 L 242.023438 228.128906 C 240.785156 230.027344 238.066406 230.191406 236.613281 228.453125 L 223.222656 212.449219 C 218.800781 207.164062 212.453125 203.914062 205.640625 203.394531 C 204.46875 203.300781 203.316406 203.769531 202.570312 204.683594 L 195.453125 213.367188 C 193.667969 215.550781 191.226562 216.804688 188.683594 217.148438 L 188.683594 284.601562 L 216.078125 284.601562 C 218.226562 284.601562 219.835938 282.703125 219.585938 280.566406 C 218.203125 268.773438 221.011719 257.207031 222.257812 252.863281 C 223.707031 242.769531 221.539062 234.597656 221.515625 234.507812 C 221.269531 233.605469 221.796875 232.679688 222.695312 232.433594 C 223.589844 232.183594 224.519531 232.710938 224.765625 233.609375 C 224.875 234.011719 227.210938 242.757812 225.542969 253.714844 L 231.828125 259.890625 C 234.128906 262.148438 237.21875 263.414062 240.4375 263.414062 C 244.960938 263.414062 249.117188 260.929688 251.261719 256.945312 L 273.082031 216.398438 L 283.78125 196.433594 C 285.082031 194.007812 284.183594 190.984375 281.769531 189.664062 Z M 210.601562 242.464844 L 200.484375 242.464844 C 199.550781 242.464844 198.796875 241.710938 198.796875 240.777344 C 198.796875 239.84375 199.550781 239.089844 200.484375 239.089844 L 210.601562 239.089844 C 211.53125 239.089844 212.285156 239.84375 212.285156 240.777344 C 212.285156 241.710938 211.53125 242.464844 210.601562 242.464844 Z M 266.011719 200.027344 L 270.96875 199.589844 C 273.140625 199.394531 275.097656 198.152344 276.195312 196.265625 L 277.960938 193.238281 C 278.257812 192.730469 278.785156 192.425781 279.375 192.425781 C 279.648438 192.425781 279.910156 192.496094 280.15625 192.628906 C 280.9375 193.058594 281.234375 194.046875 280.8125 194.835938 L 271.601562 212.019531 L 259.753906 206.640625 L 262.058594 202.574219 C 262.878906 201.125 264.355469 200.175781 266.011719 200.027344 Z M 266.011719 200.027344 "
       fill-opacity="1"
       fill-rule="nonzero"
       id="path24" />
  </g>
  <path
     fill="#000000"
     d="M 273.679688 166.183594 C 273.515625 165.609375 273.351562 165.058594 273.199219 164.542969 C 272.929688 163.652344 271.988281 163.144531 271.097656 163.410156 C 270.207031 163.679688 269.699219 164.625 269.96875 165.515625 C 270.121094 166.019531 270.277344 166.554688 270.4375 167.113281 C 270.652344 167.855469 271.324219 168.339844 272.058594 168.339844 C 272.210938 168.339844 272.367188 168.316406 272.523438 168.273438 C 273.417969 168.015625 273.9375 167.082031 273.679688 166.183594 Z M 273.679688 166.183594 "
     fill-opacity="1"
     fill-rule="nonzero"
     id="path25" />
  <path
     fill="#000000"
     d="M 275.445312 184.863281 C 275.492188 184.863281 275.542969 184.859375 275.59375 184.855469 C 276.519531 184.773438 277.207031 183.957031 277.128906 183.027344 C 277.078125 182.457031 277.015625 181.875 276.945312 181.289062 C 276.832031 180.363281 275.996094 179.683594 275.066406 179.820312 C 274.140625 179.933594 273.484375 180.773438 273.597656 181.699219 C 273.664062 182.246094 273.722656 182.785156 273.769531 183.320312 C 273.84375 184.199219 274.582031 184.863281 275.445312 184.863281 Z M 275.445312 184.863281 "
     fill-opacity="1"
     fill-rule="nonzero"
     id="path26" />
  <path
     fill="#000000"
     d="M 272.480469 175.195312 C 272.652344 175.988281 273.351562 176.527344 274.128906 176.527344 C 274.246094 176.527344 274.367188 176.515625 274.484375 176.488281 C 275.398438 176.292969 275.976562 175.390625 275.777344 174.480469 C 275.65625 173.917969 275.53125 173.359375 275.40625 172.808594 C 275.195312 171.902344 274.289062 171.335938 273.382812 171.542969 C 272.476562 171.753906 271.910156 172.660156 272.117188 173.570312 C 272.242188 174.105469 272.363281 174.652344 272.480469 175.195312 Z M 272.480469 175.195312 "
     fill-opacity="1"
     fill-rule="nonzero"
     id="path27" />
  <path
     fill="#000000"
     d="M 250.410156 129.265625 C 250.785156 129.671875 251.15625 130.082031 251.523438 130.496094 C 251.855469 130.871094 252.316406 131.0625 252.78125 131.0625 C 253.183594 131.0625 253.582031 130.921875 253.902344 130.632812 C 254.597656 130.015625 254.660156 128.949219 254.042969 128.25 C 253.660156 127.824219 253.277344 127.398438 252.890625 126.980469 C 252.261719 126.292969 251.191406 126.246094 250.507812 126.878906 C 249.824219 127.511719 249.78125 128.578125 250.410156 129.265625 Z M 250.410156 129.265625 "
     fill-opacity="1"
     fill-rule="nonzero"
     id="path28" />
  <path
     fill="#000000"
     d="M 256.707031 136.9375 C 257.039062 137.390625 257.550781 137.632812 258.070312 137.632812 C 258.417969 137.632812 258.765625 137.527344 259.066406 137.304688 C 259.816406 136.753906 259.980469 135.699219 259.433594 134.945312 C 259.09375 134.484375 258.753906 134.023438 258.40625 133.570312 C 257.847656 132.824219 256.789062 132.675781 256.046875 133.242188 C 255.304688 133.804688 255.15625 134.863281 255.722656 135.609375 C 256.054688 136.050781 256.382812 136.492188 256.707031 136.9375 Z M 256.707031 136.9375 "
     fill-opacity="1"
     fill-rule="nonzero"
     id="path29" />
  <path
     fill="#000000"
     d="M 260.964844 143.359375 C 261.28125 143.890625 261.839844 144.183594 262.414062 144.183594 C 262.707031 144.183594 263.007812 144.105469 263.277344 143.941406 C 264.078125 143.464844 264.335938 142.425781 263.859375 141.625 L 263.269531 140.660156 C 262.78125 139.863281 261.738281 139.617188 260.949219 140.109375 C 260.15625 140.597656 259.914062 141.640625 260.402344 142.433594 Z M 260.964844 143.359375 "
     fill-opacity="1"
     fill-rule="nonzero"
     id="path30" />
  <path
     fill="#000000"
     d="M 198.210938 102.261719 C 198.757812 102.332031 199.304688 102.40625 199.847656 102.488281 C 199.933594 102.5 200.015625 102.503906 200.097656 102.503906 C 200.921875 102.503906 201.640625 101.902344 201.765625 101.066406 C 201.902344 100.140625 201.261719 99.285156 200.34375 99.148438 C 199.773438 99.0625 199.207031 98.984375 198.636719 98.914062 C 197.707031 98.816406 196.871094 99.453125 196.75 100.375 C 196.636719 101.300781 197.289062 102.144531 198.210938 102.261719 Z M 198.210938 102.261719 "
     fill-opacity="1"
     fill-rule="nonzero"
     id="path31" />
  <path
     fill="#000000"
     d="M 181.59375 101.753906 C 181.632812 101.753906 181.667969 101.75 181.707031 101.75 C 182.253906 101.710938 182.804688 101.683594 183.355469 101.660156 C 184.285156 101.617188 185.007812 100.832031 184.964844 99.898438 C 184.925781 98.96875 184.160156 98.207031 183.207031 98.285156 C 182.632812 98.3125 182.058594 98.34375 181.488281 98.378906 C 180.558594 98.441406 179.855469 99.242188 179.914062 100.171875 C 179.972656 101.066406 180.714844 101.753906 181.59375 101.753906 Z M 181.59375 101.753906 "
     fill-opacity="1"
     fill-rule="nonzero"
     id="path32" />
  <path
     fill="#000000"
     d="M 206.347656 103.703125 L 207.410156 103.949219 C 207.542969 103.980469 207.671875 103.996094 207.804688 103.996094 C 208.566406 103.996094 209.253906 103.476562 209.441406 102.703125 C 209.660156 101.796875 209.101562 100.882812 208.195312 100.664062 L 207.101562 100.410156 C 206.195312 100.199219 205.289062 100.769531 205.082031 101.679688 C 204.875 102.589844 205.441406 103.492188 206.347656 103.703125 Z M 206.347656 103.703125 "
     fill-opacity="1"
     fill-rule="nonzero"
     id="path33" />
  <path
     fill="#000000"
     d="M 173.222656 102.691406 C 173.308594 102.691406 173.398438 102.683594 173.488281 102.667969 C 174.035156 102.582031 174.582031 102.5 175.128906 102.417969 C 176.050781 102.285156 176.691406 101.429688 176.558594 100.507812 C 176.425781 99.585938 175.5625 98.925781 174.648438 99.078125 C 174.082031 99.160156 173.519531 99.246094 172.957031 99.335938 C 172.035156 99.484375 171.410156 100.347656 171.558594 101.269531 C 171.691406 102.101562 172.40625 102.691406 173.222656 102.691406 Z M 173.222656 102.691406 "
     fill-opacity="1"
     fill-rule="nonzero"
     id="path34" />
  <path
     fill="#000000"
     d="M 189.96875 101.613281 C 190.523438 101.628906 191.074219 101.652344 191.625 101.679688 C 191.652344 101.683594 191.683594 101.683594 191.710938 101.683594 C 192.605469 101.683594 193.347656 100.980469 193.394531 100.078125 C 193.441406 99.148438 192.722656 98.355469 191.792969 98.308594 C 191.222656 98.28125 190.652344 98.257812 190.078125 98.238281 C 189.210938 98.160156 188.367188 98.9375 188.339844 99.871094 C 188.308594 100.800781 189.039062 101.582031 189.96875 101.613281 Z M 189.96875 101.613281 "
     fill-opacity="1"
     fill-rule="nonzero"
     id="path35" />
  <path
     fill="#000000"
     d="M 120.054688 133.007812 C 120.535156 133.007812 121.015625 132.800781 121.347656 132.402344 C 121.703125 131.976562 122.058594 131.558594 122.421875 131.144531 C 123.035156 130.441406 122.960938 129.375 122.257812 128.761719 C 121.558594 128.152344 120.496094 128.222656 119.878906 128.925781 C 119.5 129.355469 119.128906 129.796875 118.761719 130.234375 C 118.164062 130.953125 118.257812 132.015625 118.972656 132.613281 C 119.289062 132.878906 119.671875 133.007812 120.054688 133.007812 Z M 120.054688 133.007812 "
     fill-opacity="1"
     fill-rule="nonzero"
     id="path36" />
  <path
     fill="#000000"
     d="M 125.769531 126.804688 C 126.199219 126.804688 126.625 126.644531 126.957031 126.316406 C 127.347656 125.929688 127.742188 125.546875 128.140625 125.167969 C 128.816406 124.527344 128.847656 123.457031 128.207031 122.78125 C 127.566406 122.101562 126.5 122.074219 125.824219 122.714844 C 125.40625 123.113281 124.992188 123.507812 124.585938 123.914062 C 123.921875 124.570312 123.917969 125.636719 124.570312 126.304688 C 124.902344 126.636719 125.335938 126.804688 125.769531 126.804688 Z M 125.769531 126.804688 "
     fill-opacity="1"
     fill-rule="nonzero"
     id="path37" />
  <path
     fill="#000000"
     d="M 114.957031 139.730469 C 115.496094 139.730469 116.027344 139.472656 116.351562 138.996094 C 116.664062 138.542969 116.976562 138.089844 117.296875 137.640625 C 117.84375 136.886719 117.667969 135.832031 116.910156 135.285156 C 116.15625 134.742188 115.101562 134.914062 114.558594 135.671875 C 114.222656 136.140625 113.894531 136.613281 113.570312 137.089844 C 113.042969 137.855469 113.238281 138.910156 114.007812 139.433594 C 114.300781 139.632812 114.632812 139.730469 114.957031 139.730469 Z M 114.957031 139.730469 "
     fill-opacity="1"
     fill-rule="nonzero"
     id="path38" />
  <path
     fill="#000000"
     d="M 132.050781 121.179688 C 132.421875 121.179688 132.796875 121.054688 133.109375 120.800781 C 133.539062 120.453125 133.972656 120.105469 134.40625 119.765625 C 135.140625 119.191406 135.269531 118.128906 134.695312 117.394531 C 134.121094 116.660156 133.058594 116.53125 132.328125 117.105469 C 131.878906 117.460938 131.429688 117.816406 130.984375 118.179688 C 130.261719 118.765625 130.152344 119.828125 130.738281 120.554688 C 131.070312 120.964844 131.558594 121.179688 132.050781 121.179688 Z M 132.050781 121.179688 "
     fill-opacity="1"
     fill-rule="nonzero"
     id="path39" />
  <path
     fill="#000000"
     d="M 98.085938 180.679688 C 98.03125 181.25 97.980469 181.820312 97.9375 182.390625 C 97.867188 183.320312 98.5625 184.132812 99.492188 184.203125 C 99.535156 184.207031 99.578125 184.210938 99.621094 184.210938 C 100.496094 184.210938 101.234375 183.535156 101.300781 182.648438 C 101.34375 182.097656 101.390625 181.546875 101.441406 180.996094 C 101.53125 180.070312 100.847656 179.246094 99.921875 179.160156 C 98.984375 179.050781 98.175781 179.753906 98.085938 180.679688 Z M 98.085938 180.679688 "
     fill-opacity="1"
     fill-rule="nonzero"
     id="path40" />
  <path
     fill="#000000"
     d="M 104.121094 166.359375 C 104.269531 165.824219 104.421875 165.292969 104.578125 164.761719 C 104.839844 163.867188 104.328125 162.929688 103.433594 162.664062 C 102.539062 162.402344 101.605469 162.917969 101.339844 163.8125 C 101.179688 164.359375 101.023438 164.90625 100.871094 165.460938 C 100.625 166.359375 101.152344 167.289062 102.046875 167.539062 C 102.199219 167.578125 102.347656 167.597656 102.496094 167.597656 C 103.238281 167.597656 103.914062 167.105469 104.121094 166.359375 Z M 104.121094 166.359375 "
     fill-opacity="1"
     fill-rule="nonzero"
     id="path41" />
  <path
     fill="#000000"
     d="M 102.320312 174.429688 C 102.414062 173.886719 102.511719 173.34375 102.617188 172.804688 C 102.792969 171.890625 102.195312 171 101.28125 170.824219 C 100.371094 170.644531 99.484375 171.246094 99.308594 172.160156 C 99.195312 172.726562 99.09375 173.289062 98.996094 173.859375 C 98.835938 174.777344 99.453125 175.648438 100.371094 175.808594 C 100.46875 175.824219 100.566406 175.832031 100.660156 175.832031 C 101.464844 175.832031 102.175781 175.253906 102.320312 174.429688 Z M 102.320312 174.429688 "
     fill-opacity="1"
     fill-rule="nonzero"
     id="path42" />
</svg>
