<?xml version="1.0" encoding="UTF-8" standalone="no"?>
<svg
   width="500"
   zoomAndPan="magnify"
   viewBox="0 0 375 374.999991"
   height="500"
   preserveAspectRatio="xMidYMid meet"
   version="1.0"
   id="svg12"
   sodipodi:docname="cst-yel-1.svg"
   inkscape:version="1.3 (0e150ed6c4, 2023-07-21)"
   xmlns:inkscape="http://www.inkscape.org/namespaces/inkscape"
   xmlns:sodipodi="http://sodipodi.sourceforge.net/DTD/sodipodi-0.dtd"
   xmlns="http://www.w3.org/2000/svg"
   xmlns:svg="http://www.w3.org/2000/svg">
  <sodipodi:namedview
     id="namedview12"
     pagecolor="#ffffff"
     bordercolor="#000000"
     borderopacity="0.25"
     inkscape:showpageshadow="2"
     inkscape:pageopacity="0.0"
     inkscape:pagecheckerboard="0"
     inkscape:deskcolor="#d1d1d1"
     inkscape:zoom="0.805"
     inkscape:cx="250.31056"
     inkscape:cy="250.31056"
     inkscape:window-width="1920"
     inkscape:window-height="1014"
     inkscape:window-x="0"
     inkscape:window-y="31"
     inkscape:window-maximized="1"
     inkscape:current-layer="svg12" />
  <defs
     id="defs6">
    <clipPath
       id="98763af718">
      <path
         d="M 21.363281 27.773438 L 352.863281 27.773438 L 352.863281 359.273438 L 21.363281 359.273438 Z M 21.363281 27.773438 "
         clip-rule="nonzero"
         id="path1" />
    </clipPath>
    <clipPath
       id="bc2b66ec17">
      <path
         d="M 187.113281 27.773438 C 95.570312 27.773438 21.363281 101.984375 21.363281 193.523438 C 21.363281 285.066406 95.570312 359.273438 187.113281 359.273438 C 278.652344 359.273438 352.863281 285.066406 352.863281 193.523438 C 352.863281 101.984375 278.652344 27.773438 187.113281 27.773438 Z M 187.113281 27.773438 "
         clip-rule="nonzero"
         id="path2" />
    </clipPath>
    <clipPath
       id="da6c3c9d8d">
      <path
         d="M 37.5 43.910156 L 337.097656 43.910156 L 337.097656 343.511719 L 37.5 343.511719 Z M 37.5 43.910156 "
         clip-rule="nonzero"
         id="path3" />
    </clipPath>
    <clipPath
       id="0f74a65494">
      <path
         d="M 187.300781 43.910156 C 104.566406 43.910156 37.5 110.980469 37.5 193.710938 C 37.5 276.445312 104.566406 343.511719 187.300781 343.511719 C 270.03125 343.511719 337.097656 276.445312 337.097656 193.710938 C 337.097656 110.980469 270.03125 43.910156 187.300781 43.910156 Z M 187.300781 43.910156 "
         clip-rule="nonzero"
         id="path4" />
    </clipPath>
    <clipPath
       id="14f4f08261">
      <path
         d="M 37.5 43.910156 L 336.75 43.910156 L 336.75 343.160156 L 37.5 343.160156 Z M 37.5 43.910156 "
         clip-rule="nonzero"
         id="path5" />
    </clipPath>
    <clipPath
       id="d60168fec1">
      <path
         d="M 187.125 43.910156 C 104.488281 43.910156 37.5 110.902344 37.5 193.535156 C 37.5 276.171875 104.488281 343.160156 187.125 343.160156 C 269.761719 343.160156 336.75 276.171875 336.75 193.535156 C 336.75 110.902344 269.761719 43.910156 187.125 43.910156 Z M 187.125 43.910156 "
         clip-rule="nonzero"
         id="path6" />
    </clipPath>
  </defs>
  <g
     clip-path="url(#98763af718)"
     id="g8"
     style="fill:#feaa02;fill-opacity:1">
    <g
       clip-path="url(#bc2b66ec17)"
       id="g7"
       style="fill:#feaa02;fill-opacity:1">
      <path
         stroke-linecap="butt"
         transform="matrix(0.749179, 0, 0, 0.749179, 21.362708, 27.774549)"
         fill="none"
         stroke-linejoin="miter"
         d="M 221.24295 -0.00148359 C 99.051901 -0.00148359 0.000765629 99.054866 0.000765629 221.240701 C 0.000765629 343.43175 99.051901 442.482885 221.24295 442.482885 C 343.428785 442.482885 442.485135 343.43175 442.485135 221.240701 C 442.485135 99.054866 343.428785 -0.00148359 221.24295 -0.00148359 Z M 221.24295 -0.00148359 "
         stroke="#000000"
         stroke-width="16"
         stroke-opacity="1"
         stroke-miterlimit="4"
         id="path7"
         style="fill:#feaa02;fill-opacity:1" />
    </g>
  </g>
  <g
     clip-path="url(#da6c3c9d8d)"
     id="g10"
     style="fill:#feaa02;fill-opacity:1">
    <g
       clip-path="url(#0f74a65494)"
       id="g9"
       style="fill:#feaa02;fill-opacity:1">
      <path
         fill="#fbc11c"
         d="M 37.5 43.910156 L 337.097656 43.910156 L 337.097656 343.511719 L 37.5 343.511719 Z M 37.5 43.910156 "
         fill-opacity="1"
         fill-rule="nonzero"
         id="path8"
         style="fill:#feaa02;fill-opacity:1" />
    </g>
  </g>
  <g
     clip-path="url(#14f4f08261)"
     id="g12">
    <g
       clip-path="url(#d60168fec1)"
       id="g11">
      <path
         stroke-linecap="butt"
         transform="matrix(0.749149, 0, 0, 0.749149, 37.500002, 43.911912)"
         fill="none"
         stroke-linejoin="miter"
         d="M 199.72658 -0.00234301 C 89.419149 -0.00234301 -0.00000271975 89.422023 -0.00000271975 199.72424 C -0.00000271975 310.031672 89.419149 399.450823 199.72658 399.450823 C 310.034012 399.450823 399.453163 310.031672 399.453163 199.72424 C 399.453163 89.422023 310.034012 -0.00234301 199.72658 -0.00234301 Z M 199.72658 -0.00234301 "
         stroke="#000000"
         stroke-width="8"
         stroke-opacity="1"
         stroke-miterlimit="4"
         id="path10" />
    </g>
  </g>
  <path
     fill="#000000"
     d="M 246.183594 181.089844 L 231.785156 181.089844 L 231.785156 201.542969 L 236.425781 201.542969 C 237.78125 201.542969 238.882812 202.648438 238.882812 204.007812 L 238.882812 209.863281 C 238.882812 214.441406 235.15625 218.179688 230.585938 218.179688 L 230.082031 218.179688 L 237.214844 225.332031 C 246.386719 218.910156 259.15625 225.476562 259.15625 236.816406 C 259.15625 244.546875 252.902344 250.8125 245.195312 250.8125 C 233.886719 250.8125 227.335938 238.011719 233.742188 228.816406 L 223.132812 218.179688 L 189.613281 218.179688 L 189.613281 247.140625 C 200.625 249.101562 205.027344 262.792969 197.027344 270.816406 C 191.574219 276.28125 182.738281 276.28125 177.285156 270.816406 C 169.285156 262.792969 173.6875 249.101562 184.699219 247.140625 L 184.699219 218.179688 L 151.183594 218.179688 L 140.574219 228.816406 C 146.980469 238.011719 140.425781 250.8125 129.117188 250.8125 C 121.410156 250.8125 115.160156 244.546875 115.160156 236.816406 C 115.160156 225.476562 127.925781 218.910156 137.097656 225.332031 L 144.230469 218.179688 L 143.726562 218.179688 C 139.160156 218.179688 135.429688 214.441406 135.429688 209.863281 L 135.429688 204.007812 C 135.429688 202.648438 136.53125 201.542969 137.886719 201.542969 L 142.527344 201.542969 L 142.527344 181.089844 L 128.132812 181.089844 C 126.175781 192.128906 112.519531 196.542969 104.519531 188.523438 C 99.066406 183.054688 99.066406 174.195312 104.519531 168.730469 C 112.519531 160.707031 126.175781 165.121094 128.132812 176.160156 L 142.527344 176.160156 L 142.527344 165.789062 L 131.015625 153.167969 C 128.480469 150.390625 128.125 146.3125 129.988281 143.160156 L 115.257812 127.007812 C 114.34375 126.007812 114.414062 124.457031 115.410156 123.542969 C 116.40625 122.628906 117.953125 122.695312 118.867188 123.695312 L 133.597656 139.847656 C 136.898438 138.265625 140.917969 138.992188 143.449219 141.769531 L 148.847656 147.683594 C 149.480469 147.535156 150.113281 147.453125 150.738281 147.453125 L 174.144531 147.453125 C 174.925781 147.082031 175.722656 146.753906 176.535156 146.460938 C 179.679688 145.335938 182.78125 144.867188 186.332031 144.867188 C 175.027344 140.867188 171.621094 126.308594 180.1875 117.714844 C 186.597656 111.292969 196.984375 111.292969 203.390625 117.714844 C 211.960938 126.308594 208.554688 140.867188 197.25 144.867188 L 197.769531 144.867188 C 201.597656 144.867188 205.21875 145.800781 208.417969 147.453125 L 223.578125 147.453125 C 228.097656 147.453125 231.785156 151.152344 231.785156 155.683594 L 231.785156 176.160156 L 246.183594 176.160156 C 248.140625 165.121094 261.792969 160.707031 269.796875 168.730469 C 275.246094 174.195312 275.246094 183.054688 269.796875 188.519531 C 261.792969 196.542969 248.140625 192.128906 246.183594 181.089844 Z M 184.699219 193.964844 C 184.429688 193.140625 184.28125 192.265625 184.28125 191.355469 C 184.28125 186.480469 188.011719 184.988281 191.5625 183.230469 L 204.417969 176.867188 L 204.417969 169.355469 C 204.417969 167.992188 205.519531 166.890625 206.878906 166.890625 C 208.234375 166.890625 209.335938 167.992188 209.335938 169.355469 L 209.335938 178.390625 L 209.328125 178.390625 C 209.328125 179.296875 208.828125 180.167969 207.960938 180.597656 L 193.125 187.941406 C 191.683594 188.644531 190.289062 189.328125 189.613281 190.210938 L 189.613281 192.992188 C 189.777344 193.289062 189.976562 193.558594 190.214844 193.796875 C 190.839844 194.425781 191.703125 194.816406 192.648438 194.816406 L 194.703125 194.816406 L 216.234375 183.804688 L 216.234375 168.308594 C 216.234375 158.128906 207.921875 149.792969 197.769531 149.792969 L 186.09375 149.792969 C 180.429688 149.792969 175.625 151.511719 171.242188 155.105469 L 162.058594 162.640625 C 160.066406 164.273438 157.160156 164.066406 155.417969 162.152344 L 139.839844 145.078125 C 137.773438 142.8125 133.859375 144.101562 133.71875 147.304688 C 133.675781 148.21875 133.976562 149.144531 134.628906 149.855469 L 151.550781 168.414062 C 155.242188 172.457031 160.828125 173.582031 165.796875 171.273438 L 175.816406 166.625 C 177.453125 165.867188 179.300781 167.105469 179.296875 168.859375 L 179.300781 168.859375 L 179.300781 194.8125 L 184.699219 194.8125 Z M 147.445312 171.179688 L 147.445312 201.542969 L 173.367188 201.542969 C 174.171875 201.542969 174.882812 201.929688 175.332031 202.527344 L 177.683594 205.109375 L 196.585938 205.109375 L 198.917969 202.402344 C 199.402344 201.839844 200.085938 201.550781 200.769531 201.550781 L 200.769531 201.542969 L 226.867188 201.542969 L 226.867188 155.683594 C 226.867188 153.871094 225.382812 152.382812 223.574219 152.382812 L 214.890625 152.382812 C 218.769531 156.570312 221.148438 162.171875 221.148438 168.308594 L 221.148438 185.3125 C 221.148438 186.210938 220.65625 187.074219 219.804688 187.507812 L 196.496094 199.425781 C 196.136719 199.628906 195.726562 199.742188 195.289062 199.742188 L 179.238281 199.742188 C 176.574219 199.742188 174.386719 197.558594 174.386719 194.878906 L 174.386719 172.710938 L 167.851562 175.742188 C 160.960938 178.9375 153.066406 177.34375 147.941406 171.722656 Z M 153.132812 152.382812 L 158.984375 158.796875 L 166.808594 152.382812 Z M 199.917969 121.199219 C 195.429688 116.703125 188.152344 116.703125 183.664062 121.199219 C 179.175781 125.699219 179.175781 132.996094 183.664062 137.496094 C 188.152344 141.996094 195.429688 141.996094 199.917969 137.496094 C 204.402344 132.996094 204.402344 125.699219 199.917969 121.199219 Z M 172.296875 206.472656 L 140.34375 206.472656 L 140.34375 209.859375 C 140.34375 211.71875 141.871094 213.25 143.726562 213.25 L 230.585938 213.25 C 232.441406 213.25 233.96875 211.71875 233.96875 209.859375 L 233.96875 206.472656 L 201.886719 206.472656 L 199.679688 209.03125 C 199.230469 209.640625 198.511719 210.035156 197.699219 210.035156 L 176.613281 210.035156 L 176.613281 210.023438 C 175.953125 210.023438 175.292969 209.753906 174.808594 209.226562 Z M 107.992188 185.035156 C 113.675781 190.734375 123.429688 186.679688 123.429688 178.625 C 123.429688 170.570312 113.675781 166.519531 107.992188 172.214844 C 104.460938 175.753906 104.460938 181.496094 107.992188 185.035156 Z M 266.320312 172.214844 C 260.636719 166.519531 250.882812 170.570312 250.882812 178.625 C 250.882812 186.679688 260.636719 190.734375 266.320312 185.035156 C 269.851562 181.496094 269.851562 175.753906 266.320312 172.214844 Z M 135.511719 243.226562 C 141.191406 237.535156 137.15625 227.75 129.117188 227.75 C 121.078125 227.75 117.046875 237.535156 122.722656 243.226562 C 126.253906 246.769531 131.980469 246.769531 135.511719 243.226562 Z M 193.550781 267.332031 C 199.234375 261.632812 195.191406 251.851562 187.15625 251.851562 C 179.125 251.851562 175.082031 261.632812 180.761719 267.332031 C 184.292969 270.871094 190.019531 270.871094 193.550781 267.332031 Z M 254.238281 236.816406 C 254.238281 228.753906 244.476562 224.710938 238.800781 230.40625 C 233.125 236.097656 237.15625 245.882812 245.195312 245.882812 C 250.191406 245.882812 254.238281 241.824219 254.238281 236.816406 Z M 254.238281 236.816406 "
     fill-opacity="1"
     fill-rule="evenodd"
     id="path12" />
</svg>
