<?xml version="1.0" encoding="UTF-8" standalone="no"?>
<svg
   width="500"
   zoomAndPan="magnify"
   viewBox="0 0 375 374.999991"
   height="500"
   preserveAspectRatio="xMidYMid meet"
   version="1.0"
   id="svg17"
   sodipodi:docname="cst-yel-3.svg"
   inkscape:version="1.3 (0e150ed6c4, 2023-07-21)"
   xmlns:inkscape="http://www.inkscape.org/namespaces/inkscape"
   xmlns:sodipodi="http://sodipodi.sourceforge.net/DTD/sodipodi-0.dtd"
   xmlns="http://www.w3.org/2000/svg"
   xmlns:svg="http://www.w3.org/2000/svg">
  <sodipodi:namedview
     id="namedview17"
     pagecolor="#ffffff"
     bordercolor="#000000"
     borderopacity="0.25"
     inkscape:showpageshadow="2"
     inkscape:pageopacity="0.0"
     inkscape:pagecheckerboard="0"
     inkscape:deskcolor="#d1d1d1"
     inkscape:zoom="1.61"
     inkscape:cx="250"
     inkscape:cy="250"
     inkscape:window-width="1920"
     inkscape:window-height="1014"
     inkscape:window-x="0"
     inkscape:window-y="31"
     inkscape:window-maximized="1"
     inkscape:current-layer="svg17" />
  <defs
     id="defs7">
    <clipPath
       id="84d31864b1">
      <path
         d="M 21.363281 27.773438 L 352.863281 27.773438 L 352.863281 359.273438 L 21.363281 359.273438 Z M 21.363281 27.773438 "
         clip-rule="nonzero"
         id="path1" />
    </clipPath>
    <clipPath
       id="bbabe9c462">
      <path
         d="M 187.113281 27.773438 C 95.570312 27.773438 21.363281 101.984375 21.363281 193.523438 C 21.363281 285.066406 95.570312 359.273438 187.113281 359.273438 C 278.652344 359.273438 352.863281 285.066406 352.863281 193.523438 C 352.863281 101.984375 278.652344 27.773438 187.113281 27.773438 Z M 187.113281 27.773438 "
         clip-rule="nonzero"
         id="path2" />
    </clipPath>
    <clipPath
       id="ff6bf3c552">
      <path
         d="M 37.5 43.910156 L 337.097656 43.910156 L 337.097656 343.511719 L 37.5 343.511719 Z M 37.5 43.910156 "
         clip-rule="nonzero"
         id="path3" />
    </clipPath>
    <clipPath
       id="5cbd616714">
      <path
         d="M 187.300781 43.910156 C 104.566406 43.910156 37.5 110.980469 37.5 193.710938 C 37.5 276.445312 104.566406 343.511719 187.300781 343.511719 C 270.03125 343.511719 337.097656 276.445312 337.097656 193.710938 C 337.097656 110.980469 270.03125 43.910156 187.300781 43.910156 Z M 187.300781 43.910156 "
         clip-rule="nonzero"
         id="path4" />
    </clipPath>
    <clipPath
       id="801a6d210a">
      <path
         d="M 37.5 43.910156 L 336.75 43.910156 L 336.75 343.160156 L 37.5 343.160156 Z M 37.5 43.910156 "
         clip-rule="nonzero"
         id="path5" />
    </clipPath>
    <clipPath
       id="48752aeafd">
      <path
         d="M 187.125 43.910156 C 104.488281 43.910156 37.5 110.902344 37.5 193.535156 C 37.5 276.171875 104.488281 343.160156 187.125 343.160156 C 269.761719 343.160156 336.75 276.171875 336.75 193.535156 C 336.75 110.902344 269.761719 43.910156 187.125 43.910156 Z M 187.125 43.910156 "
         clip-rule="nonzero"
         id="path6" />
    </clipPath>
    <clipPath
       id="f2dc96ce76">
      <path
         d="M 97.386719 103.597656 L 277.386719 103.597656 L 277.386719 283.597656 L 97.386719 283.597656 Z M 97.386719 103.597656 "
         clip-rule="nonzero"
         id="path7" />
    </clipPath>
  </defs>
  <g
     clip-path="url(#84d31864b1)"
     id="g9"
     style="fill:#feaa02;fill-opacity:1">
    <g
       clip-path="url(#bbabe9c462)"
       id="g8"
       style="fill:#feaa02;fill-opacity:1">
      <path
         stroke-linecap="butt"
         transform="matrix(0.749179, 0, 0, 0.749179, 21.362708, 27.774578)"
         fill="none"
         stroke-linejoin="miter"
         d="M 221.24295 -0.00152267 C 99.051901 -0.00152267 0.000765629 99.054827 0.000765629 221.240662 C 0.000765629 343.431711 99.051901 442.482846 221.24295 442.482846 C 343.428785 442.482846 442.485135 343.431711 442.485135 221.240662 C 442.485135 99.054827 343.428785 -0.00152267 221.24295 -0.00152267 Z M 221.24295 -0.00152267 "
         stroke="#000000"
         stroke-width="16"
         stroke-opacity="1"
         stroke-miterlimit="4"
         id="path8"
         style="fill:#feaa02;fill-opacity:1" />
    </g>
  </g>
  <g
     clip-path="url(#ff6bf3c552)"
     id="g11"
     style="fill:#feaa02;fill-opacity:1">
    <g
       clip-path="url(#5cbd616714)"
       id="g10"
       style="fill:#feaa02;fill-opacity:1">
      <path
         fill="#fbc11c"
         d="M 37.5 43.910156 L 337.097656 43.910156 L 337.097656 343.511719 L 37.5 343.511719 Z M 37.5 43.910156 "
         fill-opacity="1"
         fill-rule="nonzero"
         id="path9"
         style="fill:#feaa02;fill-opacity:1" />
    </g>
  </g>
  <g
     clip-path="url(#801a6d210a)"
     id="g13">
    <g
       clip-path="url(#48752aeafd)"
       id="g12">
      <path
         stroke-linecap="butt"
         transform="matrix(0.749149, 0, 0, 0.749149, 37.500002, 43.911852)"
         fill="none"
         stroke-linejoin="miter"
         d="M 199.72658 -0.00226292 C 89.419149 -0.00226292 -0.00000271975 89.422103 -0.00000271975 199.72432 C -0.00000271975 310.031752 89.419149 399.450903 199.72658 399.450903 C 310.034012 399.450903 399.453163 310.031752 399.453163 199.72432 C 399.453163 89.422103 310.034012 -0.00226292 199.72658 -0.00226292 Z M 199.72658 -0.00226292 "
         stroke="#000000"
         stroke-width="8"
         stroke-opacity="1"
         stroke-miterlimit="4"
         id="path11" />
    </g>
  </g>
  <g
     clip-path="url(#f2dc96ce76)"
     id="g14">
    <path
       fill="#000000"
       d="M 277.386719 191.789062 C 277.386719 143.167969 237.835938 103.617188 189.21875 103.617188 C 141.394531 103.617188 102.339844 141.929688 101.105469 189.480469 C 100.707031 189.707031 100.335938 189.972656 99.992188 190.28125 C 99.652344 190.589844 99.347656 190.929688 99.078125 191.304688 C 98.8125 191.675781 98.585938 192.074219 98.40625 192.5 C 98.226562 192.921875 98.09375 193.359375 98.011719 193.8125 C 97.925781 194.261719 97.890625 194.71875 97.90625 195.179688 C 97.921875 195.636719 97.988281 196.089844 98.101562 196.535156 C 98.214844 196.980469 98.378906 197.410156 98.585938 197.820312 C 98.792969 198.230469 99.042969 198.613281 99.335938 198.964844 C 99.628906 199.320312 99.957031 199.640625 100.316406 199.925781 C 100.679688 200.207031 101.066406 200.449219 101.484375 200.648438 C 101.898438 200.847656 102.328125 200.996094 102.777344 201.101562 C 103.226562 201.207031 103.679688 201.261719 104.136719 201.265625 C 104.597656 201.269531 105.054688 201.222656 105.503906 201.128906 C 105.953125 201.035156 106.386719 200.890625 106.804688 200.699219 C 107.222656 200.511719 107.617188 200.277344 107.984375 200 C 108.351562 199.726562 108.6875 199.414062 108.984375 199.0625 C 109.285156 198.714844 109.542969 198.335938 109.757812 197.929688 C 109.972656 197.523438 110.144531 197.101562 110.269531 196.65625 C 110.390625 196.214844 110.464844 195.765625 110.488281 195.304688 C 110.515625 194.84375 110.488281 194.390625 110.414062 193.933594 C 110.339844 193.480469 110.214844 193.042969 110.042969 192.613281 C 109.871094 192.1875 109.65625 191.785156 109.394531 191.40625 C 109.136719 191.027344 108.839844 190.679688 108.503906 190.367188 C 108.167969 190.050781 107.800781 189.777344 107.40625 189.542969 C 108.585938 145.4375 144.828125 109.917969 189.222656 109.917969 C 234.371094 109.917969 271.09375 146.644531 271.09375 191.789062 C 271.089844 235.144531 237.210938 270.707031 194.53125 273.464844 C 194.289062 273.074219 194.007812 272.714844 193.683594 272.382812 C 193.363281 272.054688 193.011719 271.765625 192.625 271.515625 C 192.238281 271.265625 191.832031 271.058594 191.402344 270.894531 C 190.972656 270.734375 190.527344 270.621094 190.074219 270.554688 C 189.617188 270.488281 189.160156 270.476562 188.703125 270.511719 C 188.246094 270.542969 187.796875 270.628906 187.355469 270.761719 C 186.914062 270.894531 186.496094 271.074219 186.09375 271.300781 C 185.695312 271.527344 185.324219 271.792969 184.980469 272.097656 C 184.636719 272.40625 184.332031 272.746094 184.066406 273.121094 C 183.796875 273.492188 183.574219 273.890625 183.390625 274.316406 C 183.210938 274.738281 183.078125 275.175781 182.992188 275.625 C 182.910156 276.078125 182.875 276.535156 182.890625 276.992188 C 182.902344 277.453125 182.96875 277.90625 183.082031 278.351562 C 183.195312 278.796875 183.355469 279.222656 183.566406 279.632812 C 183.773438 280.042969 184.023438 280.425781 184.3125 280.78125 C 184.605469 281.136719 184.933594 281.457031 185.292969 281.742188 C 185.65625 282.027344 186.042969 282.269531 186.457031 282.464844 C 186.871094 282.664062 187.304688 282.816406 187.75 282.921875 C 188.199219 283.027344 188.652344 283.082031 189.113281 283.085938 C 189.570312 283.09375 190.027344 283.046875 190.476562 282.953125 C 190.925781 282.859375 191.359375 282.714844 191.78125 282.527344 C 192.199219 282.335938 192.59375 282.105469 192.960938 281.828125 C 193.328125 281.554688 193.660156 281.242188 193.960938 280.890625 C 194.261719 280.542969 194.519531 280.167969 194.734375 279.761719 C 240.796875 276.902344 277.386719 238.546875 277.386719 191.789062 Z M 277.386719 191.789062 "
       fill-opacity="1"
       fill-rule="nonzero"
       id="path13" />
  </g>
  <path
     fill="#000000"
     d="M 189.21875 264.214844 C 229.152344 264.214844 261.644531 231.722656 261.644531 191.789062 C 261.644531 151.851562 229.152344 119.363281 189.21875 119.363281 C 149.28125 119.363281 116.792969 151.851562 116.792969 191.789062 C 116.796875 197.226562 117.40625 202.597656 118.625 207.902344 C 119.84375 213.203125 121.636719 218.300781 124.007812 223.199219 C 123.398438 224.1875 123.09375 225.265625 123.089844 226.425781 C 123.089844 226.835938 123.128906 227.246094 123.210938 227.648438 C 123.289062 228.054688 123.410156 228.445312 123.566406 228.824219 C 123.722656 229.207031 123.914062 229.566406 124.144531 229.910156 C 124.371094 230.253906 124.628906 230.570312 124.917969 230.863281 C 125.210938 231.15625 125.523438 231.414062 125.867188 231.644531 C 126.207031 231.875 126.566406 232.070312 126.949219 232.230469 C 127.328125 232.390625 127.71875 232.511719 128.121094 232.59375 C 128.523438 232.675781 128.933594 232.71875 129.34375 232.722656 C 129.753906 232.726562 130.164062 232.6875 130.566406 232.613281 C 130.972656 232.535156 131.363281 232.417969 131.746094 232.265625 C 132.128906 232.109375 132.492188 231.921875 132.835938 231.695312 C 133.179688 231.46875 133.5 231.214844 133.792969 230.925781 C 134.085938 230.636719 134.351562 230.324219 134.582031 229.984375 C 134.816406 229.644531 135.011719 229.285156 135.175781 228.910156 C 135.339844 228.53125 135.460938 228.140625 135.546875 227.738281 C 135.632812 227.335938 135.679688 226.925781 135.683594 226.515625 C 135.691406 226.105469 135.65625 225.695312 135.582031 225.292969 C 135.507812 224.886719 135.398438 224.492188 135.246094 224.109375 C 135.09375 223.726562 134.90625 223.363281 134.683594 223.015625 C 134.460938 222.671875 134.207031 222.347656 133.921875 222.054688 C 133.636719 221.757812 133.324219 221.492188 132.988281 221.257812 C 132.648438 221.019531 132.292969 220.820312 131.914062 220.65625 C 131.539062 220.492188 131.148438 220.363281 130.746094 220.273438 C 130.34375 220.1875 129.9375 220.136719 129.527344 220.128906 C 127.410156 215.703125 125.8125 211.101562 124.726562 206.316406 C 123.640625 201.535156 123.09375 196.691406 123.089844 191.789062 C 123.089844 155.324219 152.757812 125.660156 189.21875 125.660156 C 225.679688 125.660156 255.34375 155.324219 255.34375 191.789062 C 255.34375 228.253906 225.679688 257.914062 189.21875 257.914062 C 184.316406 257.914062 179.472656 257.375 174.691406 256.296875 C 169.910156 255.21875 165.304688 253.628906 160.878906 251.527344 C 160.875 251.0625 160.820312 250.605469 160.714844 250.152344 C 160.609375 249.699219 160.457031 249.265625 160.257812 248.847656 C 160.058594 248.429688 159.816406 248.035156 159.53125 247.671875 C 159.242188 247.304688 158.921875 246.976562 158.5625 246.679688 C 158.207031 246.386719 157.820312 246.132812 157.40625 245.921875 C 156.992188 245.710938 156.5625 245.550781 156.113281 245.433594 C 155.664062 245.316406 155.207031 245.253906 154.742188 245.238281 C 154.277344 245.222656 153.820312 245.253906 153.363281 245.339844 C 152.90625 245.425781 152.464844 245.558594 152.039062 245.742188 C 151.613281 245.921875 151.210938 246.148438 150.832031 246.417969 C 150.453125 246.691406 150.113281 246.996094 149.800781 247.34375 C 149.492188 247.6875 149.222656 248.0625 148.996094 248.46875 C 148.769531 248.871094 148.585938 249.296875 148.453125 249.738281 C 148.316406 250.183594 148.234375 250.636719 148.199219 251.101562 C 148.164062 251.5625 148.179688 252.023438 148.242188 252.484375 C 148.308594 252.941406 148.425781 253.390625 148.589844 253.824219 C 148.753906 254.257812 148.960938 254.667969 149.214844 255.058594 C 149.46875 255.445312 149.761719 255.800781 150.09375 256.125 C 150.425781 256.449219 150.789062 256.734375 151.183594 256.976562 C 151.578125 257.222656 151.992188 257.421875 152.433594 257.574219 C 152.871094 257.726562 153.320312 257.832031 153.78125 257.886719 C 154.242188 257.941406 154.703125 257.945312 155.164062 257.898438 C 155.625 257.851562 156.074219 257.757812 156.515625 257.613281 C 156.957031 257.464844 157.378906 257.273438 157.777344 257.039062 C 162.679688 259.398438 167.785156 261.183594 173.09375 262.394531 C 178.398438 263.605469 183.773438 264.210938 189.21875 264.214844 Z M 189.21875 264.214844 "
     fill-opacity="1"
     fill-rule="nonzero"
     id="path14" />
  <path
     fill="#000000"
     d="M 138.980469 195.890625 C 138.875 194.558594 138.804688 193.199219 138.804688 191.789062 C 138.804688 190.136719 138.882812 188.488281 139.046875 186.847656 C 139.207031 185.203125 139.449219 183.574219 139.773438 181.953125 C 140.09375 180.332031 140.496094 178.734375 140.972656 177.152344 C 141.453125 175.574219 142.007812 174.019531 142.640625 172.496094 C 143.273438 170.96875 143.976562 169.480469 144.757812 168.023438 C 145.535156 166.566406 146.382812 165.152344 147.300781 163.78125 C 148.21875 162.40625 149.199219 161.082031 150.246094 159.804688 C 151.292969 158.53125 152.402344 157.308594 153.570312 156.140625 C 154.738281 154.972656 155.957031 153.863281 157.234375 152.816406 C 158.511719 151.769531 159.835938 150.789062 161.207031 149.871094 C 162.582031 148.953125 163.996094 148.105469 165.453125 147.328125 C 166.910156 146.546875 168.398438 145.84375 169.925781 145.210938 C 171.449219 144.578125 173.003906 144.023438 174.582031 143.542969 C 176.164062 143.066406 177.761719 142.664062 179.382812 142.34375 C 181 142.019531 182.632812 141.777344 184.277344 141.617188 C 185.917969 141.453125 187.566406 141.375 189.21875 141.375 C 190.867188 141.375 192.515625 141.453125 194.160156 141.617188 C 195.800781 141.777344 197.433594 142.019531 199.054688 142.34375 C 200.671875 142.664062 202.273438 143.066406 203.851562 143.542969 C 205.433594 144.023438 206.984375 144.578125 208.511719 145.210938 C 210.035156 145.84375 211.527344 146.546875 212.984375 147.328125 C 214.4375 148.105469 215.851562 148.953125 217.226562 149.871094 C 218.597656 150.789062 219.921875 151.769531 221.199219 152.816406 C 222.476562 153.863281 223.699219 154.972656 224.867188 156.140625 C 226.035156 157.308594 227.140625 158.53125 228.1875 159.804688 C 229.234375 161.082031 230.21875 162.40625 231.136719 163.78125 C 232.054688 165.152344 232.902344 166.566406 233.679688 168.023438 C 234.457031 169.480469 235.164062 170.96875 235.792969 172.496094 C 236.425781 174.019531 236.980469 175.574219 237.460938 177.152344 C 237.941406 178.734375 238.339844 180.332031 238.664062 181.953125 C 238.984375 183.574219 239.226562 185.203125 239.390625 186.847656 C 239.550781 188.488281 239.632812 190.136719 239.632812 191.789062 C 239.632812 218.832031 218.207031 240.90625 191.449219 242.089844 C 191.214844 241.695312 190.9375 241.328125 190.621094 240.996094 C 190.308594 240.660156 189.960938 240.363281 189.578125 240.105469 C 189.199219 239.847656 188.792969 239.632812 188.367188 239.464844 C 187.941406 239.292969 187.5 239.171875 187.046875 239.097656 C 186.589844 239.023438 186.136719 239 185.675781 239.027344 C 185.21875 239.054688 184.765625 239.132812 184.324219 239.257812 C 183.882812 239.382812 183.457031 239.554688 183.054688 239.773438 C 182.648438 239.988281 182.273438 240.25 181.925781 240.550781 C 181.578125 240.851562 181.265625 241.183594 180.992188 241.554688 C 180.714844 241.921875 180.484375 242.316406 180.296875 242.738281 C 180.109375 243.15625 179.96875 243.589844 179.875 244.039062 C 179.78125 244.492188 179.738281 244.945312 179.746094 245.40625 C 179.75 245.867188 179.808594 246.320312 179.914062 246.765625 C 180.019531 247.214844 180.171875 247.644531 180.371094 248.058594 C 180.574219 248.472656 180.816406 248.859375 181.101562 249.222656 C 181.386719 249.582031 181.707031 249.90625 182.0625 250.199219 C 182.417969 250.488281 182.804688 250.738281 183.214844 250.941406 C 183.625 251.148438 184.054688 251.308594 184.5 251.421875 C 184.945312 251.535156 185.398438 251.597656 185.855469 251.609375 C 186.316406 251.625 186.773438 251.585938 187.222656 251.5 C 187.675781 251.414062 188.113281 251.28125 188.535156 251.097656 C 188.957031 250.917969 189.355469 250.691406 189.726562 250.421875 C 190.101562 250.152344 190.4375 249.847656 190.746094 249.503906 C 191.050781 249.160156 191.316406 248.789062 191.539062 248.386719 C 221.730469 247.148438 245.929688 222.292969 245.929688 191.789062 C 245.929688 160.515625 220.492188 135.078125 189.21875 135.078125 C 157.945312 135.078125 132.503906 160.515625 132.503906 191.789062 C 132.503906 193.132812 132.554688 194.460938 132.640625 195.757812 C 132.238281 195.980469 131.867188 196.242188 131.523438 196.546875 C 131.179688 196.851562 130.871094 197.1875 130.601562 197.558594 C 130.332031 197.929688 130.105469 198.328125 129.921875 198.75 C 129.738281 199.167969 129.601562 199.605469 129.515625 200.054688 C 129.425781 200.507812 129.386719 200.960938 129.398438 201.417969 C 129.410156 201.878906 129.472656 202.332031 129.582031 202.777344 C 129.691406 203.222656 129.847656 203.652344 130.054688 204.0625 C 130.257812 204.472656 130.503906 204.859375 130.792969 205.214844 C 131.078125 205.574219 131.402344 205.894531 131.761719 206.179688 C 132.121094 206.46875 132.503906 206.710938 132.917969 206.914062 C 133.328125 207.117188 133.757812 207.273438 134.203125 207.382812 C 134.652344 207.492188 135.101562 207.550781 135.5625 207.558594 C 136.019531 207.570312 136.476562 207.527344 136.925781 207.4375 C 137.375 207.347656 137.8125 207.210938 138.230469 207.027344 C 138.652344 206.84375 139.046875 206.613281 139.417969 206.34375 C 139.789062 206.070312 140.125 205.761719 140.425781 205.417969 C 140.730469 205.074219 140.992188 204.699219 141.214844 204.296875 C 141.433594 203.894531 141.609375 203.472656 141.738281 203.03125 C 141.867188 202.59375 141.949219 202.144531 141.980469 201.683594 C 142.007812 201.226562 141.992188 200.769531 141.921875 200.316406 C 141.851562 199.863281 141.734375 199.421875 141.570312 198.992188 C 141.40625 198.566406 141.195312 198.160156 140.941406 197.777344 C 140.6875 197.394531 140.394531 197.046875 140.0625 196.726562 C 139.734375 196.40625 139.371094 196.128906 138.980469 195.890625 Z M 138.980469 195.890625 "
     fill-opacity="1"
     fill-rule="nonzero"
     id="path15" />
  <path
     fill="#000000"
     d="M 189.21875 223.277344 C 189.714844 223.277344 190.183594 223.167969 190.625 222.945312 L 201.890625 217.308594 C 203.066406 216.730469 204.191406 216.070312 205.273438 215.328125 C 206.355469 214.589844 207.378906 213.78125 208.347656 212.898438 C 209.316406 212.019531 210.21875 211.074219 211.054688 210.066406 C 211.890625 209.058594 212.652344 208 213.34375 206.886719 C 214.03125 205.773438 214.640625 204.617188 215.167969 203.417969 C 215.695312 202.21875 216.136719 200.992188 216.492188 199.730469 C 216.851562 198.46875 217.117188 197.191406 217.296875 195.894531 C 217.472656 194.597656 217.5625 193.292969 217.558594 191.984375 L 217.558594 163.449219 C 217.558594 162.867188 217.410156 162.328125 217.109375 161.828125 C 216.8125 161.328125 216.40625 160.941406 215.894531 160.667969 C 213.847656 159.578125 211.746094 158.617188 209.582031 157.785156 C 207.417969 156.953125 205.214844 156.253906 202.964844 155.691406 C 200.71875 155.128906 198.445312 154.707031 196.144531 154.425781 C 193.84375 154.140625 191.535156 154 189.21875 154 C 186.898438 154 184.589844 154.140625 182.292969 154.425781 C 179.992188 154.707031 177.71875 155.128906 175.46875 155.691406 C 173.222656 156.253906 171.015625 156.953125 168.851562 157.785156 C 166.691406 158.617188 164.585938 159.578125 162.542969 160.667969 C 162.03125 160.941406 161.625 161.328125 161.324219 161.828125 C 161.027344 162.328125 160.878906 162.867188 160.878906 163.449219 L 160.878906 191.984375 C 160.871094 193.296875 160.960938 194.597656 161.136719 195.898438 C 161.316406 197.195312 161.582031 198.476562 161.9375 199.734375 C 162.292969 200.996094 162.734375 202.226562 163.261719 203.425781 C 163.789062 204.625 164.398438 205.78125 165.085938 206.898438 C 165.777344 208.011719 166.539062 209.074219 167.375 210.082031 C 168.210938 211.089844 169.117188 212.035156 170.085938 212.917969 C 171.054688 213.796875 172.078125 214.609375 173.160156 215.347656 C 174.242188 216.085938 175.371094 216.746094 176.542969 217.328125 L 187.808594 222.964844 C 188.253906 223.179688 188.722656 223.285156 189.21875 223.277344 Z M 167.175781 191.984375 L 167.175781 165.375 C 168.886719 164.542969 170.640625 163.8125 172.433594 163.175781 C 174.230469 162.542969 176.054688 162.011719 177.90625 161.585938 C 179.761719 161.15625 181.636719 160.835938 183.527344 160.621094 C 185.417969 160.40625 187.3125 160.300781 189.21875 160.300781 C 191.121094 160.300781 193.019531 160.40625 194.910156 160.621094 C 196.800781 160.835938 198.671875 161.15625 200.527344 161.585938 C 202.382812 162.011719 204.207031 162.542969 206 163.175781 C 207.796875 163.8125 209.546875 164.542969 211.261719 165.375 L 211.261719 191.984375 C 211.261719 193.003906 211.191406 194.015625 211.054688 195.023438 C 210.914062 196.03125 210.707031 197.023438 210.429688 198.003906 C 210.152344 198.984375 209.808594 199.9375 209.398438 200.871094 C 208.984375 201.800781 208.511719 202.699219 207.976562 203.5625 C 207.441406 204.429688 206.847656 205.253906 206.199219 206.035156 C 205.546875 206.820312 204.847656 207.550781 204.09375 208.238281 C 203.34375 208.921875 202.546875 209.550781 201.707031 210.125 C 200.863281 210.699219 199.988281 211.214844 199.078125 211.664062 L 189.21875 216.605469 L 179.359375 211.664062 C 178.445312 211.214844 177.570312 210.699219 176.730469 210.125 C 175.890625 209.550781 175.09375 208.921875 174.339844 208.238281 C 173.589844 207.550781 172.886719 206.820312 172.238281 206.035156 C 171.585938 205.253906 170.992188 204.429688 170.457031 203.5625 C 169.921875 202.699219 169.449219 201.800781 169.039062 200.871094 C 168.628906 199.9375 168.285156 198.984375 168.007812 198.003906 C 167.730469 197.023438 167.519531 196.03125 167.382812 195.023438 C 167.242188 194.015625 167.171875 193.003906 167.175781 191.984375 Z M 167.175781 191.984375 "
     fill-opacity="1"
     fill-rule="nonzero"
     id="path16" />
  <path
     fill="#000000"
     d="M 200.410156 173.421875 C 200.0625 173.191406 199.6875 173.035156 199.277344 172.953125 C 198.867188 172.871094 198.457031 172.871094 198.046875 172.953125 C 197.636719 173.035156 197.257812 173.191406 196.910156 173.425781 C 196.5625 173.65625 196.273438 173.949219 196.042969 174.296875 L 185.582031 189.992188 L 182 186.410156 C 181.703125 186.117188 181.363281 185.886719 180.976562 185.726562 C 180.589844 185.570312 180.1875 185.488281 179.769531 185.488281 C 179.351562 185.488281 178.949219 185.570312 178.566406 185.726562 C 178.179688 185.886719 177.839844 186.117188 177.542969 186.410156 C 177.246094 186.707031 177.019531 187.046875 176.859375 187.433594 C 176.699219 187.820312 176.621094 188.222656 176.621094 188.640625 C 176.621094 189.058594 176.699219 189.460938 176.859375 189.84375 C 177.019531 190.230469 177.246094 190.570312 177.542969 190.867188 L 183.839844 197.164062 C 184.457031 197.78125 185.199219 198.085938 186.070312 198.085938 C 186.171875 198.09375 186.277344 198.09375 186.378906 198.085938 C 186.847656 198.039062 187.285156 197.894531 187.691406 197.652344 C 188.09375 197.410156 188.429688 197.09375 188.691406 196.699219 L 201.285156 177.808594 C 201.519531 177.457031 201.679688 177.078125 201.761719 176.667969 C 201.84375 176.257812 201.84375 175.84375 201.761719 175.433594 C 201.679688 175.019531 201.523438 174.640625 201.289062 174.292969 C 201.054688 173.945312 200.761719 173.652344 200.410156 173.421875 Z M 200.410156 173.421875 "
     fill-opacity="1"
     fill-rule="nonzero"
     id="path17" />
</svg>
