<?xml version="1.0" encoding="UTF-8" standalone="no"?>
<svg
   width="500"
   zoomAndPan="magnify"
   viewBox="0 0 375 374.999991"
   height="500"
   preserveAspectRatio="xMidYMid meet"
   version="1.0"
   id="svg16"
   sodipodi:docname="dwr-yel.svg"
   inkscape:version="1.3 (0e150ed6c4, 2023-07-21)"
   xmlns:inkscape="http://www.inkscape.org/namespaces/inkscape"
   xmlns:sodipodi="http://sodipodi.sourceforge.net/DTD/sodipodi-0.dtd"
   xmlns="http://www.w3.org/2000/svg"
   xmlns:svg="http://www.w3.org/2000/svg">
  <sodipodi:namedview
     id="namedview16"
     pagecolor="#ffffff"
     bordercolor="#000000"
     borderopacity="0.25"
     inkscape:showpageshadow="2"
     inkscape:pageopacity="0.0"
     inkscape:pagecheckerboard="0"
     inkscape:deskcolor="#d1d1d1"
     inkscape:zoom="1.61"
     inkscape:cx="250"
     inkscape:cy="250"
     inkscape:window-width="1920"
     inkscape:window-height="1014"
     inkscape:window-x="0"
     inkscape:window-y="31"
     inkscape:window-maximized="1"
     inkscape:current-layer="svg16" />
  <defs
     id="defs8">
    <clipPath
       id="4d04c72cbb">
      <path
         d="M 21.363281 27.773438 L 352.863281 27.773438 L 352.863281 359.273438 L 21.363281 359.273438 Z M 21.363281 27.773438 "
         clip-rule="nonzero"
         id="path1" />
    </clipPath>
    <clipPath
       id="2e2ef5a684">
      <path
         d="M 187.113281 27.773438 C 95.570312 27.773438 21.363281 101.984375 21.363281 193.523438 C 21.363281 285.066406 95.570312 359.273438 187.113281 359.273438 C 278.652344 359.273438 352.863281 285.066406 352.863281 193.523438 C 352.863281 101.984375 278.652344 27.773438 187.113281 27.773438 Z M 187.113281 27.773438 "
         clip-rule="nonzero"
         id="path2" />
    </clipPath>
    <clipPath
       id="c7e1d2097d">
      <path
         d="M 37.5 43.910156 L 337.097656 43.910156 L 337.097656 343.511719 L 37.5 343.511719 Z M 37.5 43.910156 "
         clip-rule="nonzero"
         id="path3" />
    </clipPath>
    <clipPath
       id="f16736296e">
      <path
         d="M 187.300781 43.910156 C 104.566406 43.910156 37.5 110.980469 37.5 193.710938 C 37.5 276.445312 104.566406 343.511719 187.300781 343.511719 C 270.03125 343.511719 337.097656 276.445312 337.097656 193.710938 C 337.097656 110.980469 270.03125 43.910156 187.300781 43.910156 Z M 187.300781 43.910156 "
         clip-rule="nonzero"
         id="path4" />
    </clipPath>
    <clipPath
       id="2dff94aef5">
      <path
         d="M 37.5 43.910156 L 336.75 43.910156 L 336.75 343.160156 L 37.5 343.160156 Z M 37.5 43.910156 "
         clip-rule="nonzero"
         id="path5" />
    </clipPath>
    <clipPath
       id="efb0da61e3">
      <path
         d="M 187.125 43.910156 C 104.488281 43.910156 37.5 110.902344 37.5 193.535156 C 37.5 276.171875 104.488281 343.160156 187.125 343.160156 C 269.761719 343.160156 336.75 276.171875 336.75 193.535156 C 336.75 110.902344 269.761719 43.910156 187.125 43.910156 Z M 187.125 43.910156 "
         clip-rule="nonzero"
         id="path6" />
    </clipPath>
    <clipPath
       id="3d3e00db29">
      <path
         d="M 87.40625 147 L 214 147 L 214 229 L 87.40625 229 Z M 87.40625 147 "
         clip-rule="nonzero"
         id="path7" />
    </clipPath>
    <clipPath
       id="74fa3ccb55">
      <path
         d="M 122 128.273438 L 287.65625 128.273438 L 287.65625 258.773438 L 122 258.773438 Z M 122 128.273438 "
         clip-rule="nonzero"
         id="path8" />
    </clipPath>
  </defs>
  <g
     clip-path="url(#4d04c72cbb)"
     id="g10"
     style="fill:#feaa02;fill-opacity:1">
    <g
       clip-path="url(#2e2ef5a684)"
       id="g9"
       style="fill:#feaa02;fill-opacity:1">
      <path
         stroke-linecap="butt"
         transform="matrix(0.749179, 0, 0, 0.749179, 21.362708, 27.774549)"
         fill="none"
         stroke-linejoin="miter"
         d="M 221.24295 -0.00148359 C 99.051901 -0.00148359 0.000765629 99.054866 0.000765629 221.240701 C 0.000765629 343.43175 99.051901 442.482885 221.24295 442.482885 C 343.428785 442.482885 442.485135 343.43175 442.485135 221.240701 C 442.485135 99.054866 343.428785 -0.00148359 221.24295 -0.00148359 Z M 221.24295 -0.00148359 "
         stroke="#000000"
         stroke-width="16"
         stroke-opacity="1"
         stroke-miterlimit="4"
         id="path9"
         style="fill:#feaa02;fill-opacity:1" />
    </g>
  </g>
  <g
     clip-path="url(#c7e1d2097d)"
     id="g12"
     style="stroke:#000000;stroke-opacity:1">
    <g
       clip-path="url(#f16736296e)"
       id="g11"
       style="stroke:#000000;stroke-opacity:1">
      <path
         fill="#fbc11c"
         d="M 37.5 43.910156 L 337.097656 43.910156 L 337.097656 343.511719 L 37.5 343.511719 Z M 37.5 43.910156 "
         fill-opacity="1"
         fill-rule="nonzero"
         id="path10"
         style="stroke:#000000;stroke-opacity:1" />
    </g>
  </g>
  <g
     clip-path="url(#2dff94aef5)"
     id="g14"
     style="stroke:#000000;stroke-opacity:1;fill:#feaa02;fill-opacity:1">
    <g
       clip-path="url(#efb0da61e3)"
       id="g13"
       style="stroke:#000000;stroke-opacity:1;fill:#feaa02;fill-opacity:1">
      <path
         stroke-linecap="butt"
         transform="matrix(0.749149, 0, 0, 0.749149, 37.500002, 43.911912)"
         fill="none"
         stroke-linejoin="miter"
         d="M 199.72658 -0.00234301 C 89.419149 -0.00234301 -0.00000271975 89.422023 -0.00000271975 199.72424 C -0.00000271975 310.031672 89.419149 399.450823 199.72658 399.450823 C 310.034012 399.450823 399.453163 310.031672 399.453163 199.72424 C 399.453163 89.422023 310.034012 -0.00234301 199.72658 -0.00234301 Z M 199.72658 -0.00234301 "
         stroke="#000000"
         stroke-width="8"
         stroke-opacity="1"
         stroke-miterlimit="4"
         id="path12"
         style="stroke:#000000;stroke-opacity:1;fill:#feaa02;fill-opacity:1" />
    </g>
  </g>
  <path
     fill="#231f20"
     d="M 160.707031 193.527344 C 160.707031 196.132812 161.082031 198.652344 161.78125 201.03125 L 195.0625 167.855469 C 192.671875 167.160156 190.144531 166.785156 187.53125 166.785156 C 172.714844 166.785156 160.707031 178.757812 160.707031 193.527344 Z M 160.707031 193.527344 "
     fill-opacity="1"
     fill-rule="nonzero"
     id="path14" />
  <g
     clip-path="url(#3d3e00db29)"
     id="g15">
    <path
       fill="#231f20"
       d="M 152.230469 210.550781 C 149.730469 205.40625 148.324219 199.628906 148.324219 193.527344 C 148.324219 171.941406 165.878906 154.441406 187.53125 154.441406 C 193.652344 154.441406 199.449219 155.84375 204.609375 158.335938 L 213.25 149.726562 C 205.167969 147.988281 196.574219 147.023438 187.535156 147.152344 C 138.027344 146.445312 101.953125 178.503906 89.746094 191.054688 C 89.746094 191.054688 89.113281 191.710938 87.40625 193.53125 C 88.886719 195.085938 89.738281 196 89.738281 196 C 96.996094 203.460938 112.695312 217.824219 134.640625 228.089844 Z M 152.230469 210.550781 "
       fill-opacity="1"
       fill-rule="nonzero"
       id="path15" />
  </g>
  <g
     clip-path="url(#74fa3ccb55)"
     id="g16">
    <path
       fill="#231f20"
       d="M 285.324219 191.054688 C 277.242188 182.746094 258.695312 165.882812 232.714844 155.640625 L 252.980469 135.4375 L 245.800781 128.28125 L 122.082031 251.617188 L 129.257812 258.769531 L 153.019531 235.085938 C 163.570312 238.199219 175.125 240.078125 187.523438 239.902344 C 237.03125 240.605469 273.109375 208.546875 285.3125 195.996094 C 285.3125 195.996094 287.367188 194.0625 287.652344 193.519531 Z M 187.53125 232.609375 C 178.535156 232.609375 170.246094 229.585938 163.632812 224.503906 L 172.492188 215.671875 C 176.78125 218.570312 181.957031 220.265625 187.53125 220.265625 C 202.34375 220.265625 214.355469 208.292969 214.355469 193.527344 C 214.355469 187.972656 212.652344 182.8125 209.742188 178.535156 L 218.605469 169.703125 C 223.703125 176.296875 226.738281 184.554688 226.738281 193.527344 C 226.738281 215.109375 209.183594 232.609375 187.53125 232.609375 Z M 187.53125 232.609375 "
       fill-opacity="1"
       fill-rule="nonzero"
       id="path16" />
  </g>
</svg>
