<?xml version="1.0" encoding="UTF-8" standalone="no"?>
<svg
   width="500"
   zoomAndPan="magnify"
   viewBox="0 0 375 374.999991"
   height="500"
   preserveAspectRatio="xMidYMid meet"
   version="1.0"
   id="svg24"
   sodipodi:docname="dwr-sky-1.svg"
   inkscape:version="1.3 (0e150ed6c4, 2023-07-21)"
   xmlns:inkscape="http://www.inkscape.org/namespaces/inkscape"
   xmlns:sodipodi="http://sodipodi.sourceforge.net/DTD/sodipodi-0.dtd"
   xmlns="http://www.w3.org/2000/svg"
   xmlns:svg="http://www.w3.org/2000/svg">
  <sodipodi:namedview
     id="namedview24"
     pagecolor="#ffffff"
     bordercolor="#000000"
     borderopacity="0.25"
     inkscape:showpageshadow="2"
     inkscape:pageopacity="0.0"
     inkscape:pagecheckerboard="0"
     inkscape:deskcolor="#d1d1d1"
     inkscape:zoom="1.61"
     inkscape:cx="250"
     inkscape:cy="250"
     inkscape:window-width="1920"
     inkscape:window-height="1014"
     inkscape:window-x="0"
     inkscape:window-y="31"
     inkscape:window-maximized="1"
     inkscape:current-layer="svg24" />
  <defs
     id="defs9">
    <clipPath
       id="a41a753191">
      <path
         d="M 21.363281 27.773438 L 352.863281 27.773438 L 352.863281 359.273438 L 21.363281 359.273438 Z M 21.363281 27.773438 "
         clip-rule="nonzero"
         id="path1" />
    </clipPath>
    <clipPath
       id="099d95e693">
      <path
         d="M 187.113281 27.773438 C 95.570312 27.773438 21.363281 101.984375 21.363281 193.523438 C 21.363281 285.066406 95.570312 359.273438 187.113281 359.273438 C 278.652344 359.273438 352.863281 285.066406 352.863281 193.523438 C 352.863281 101.984375 278.652344 27.773438 187.113281 27.773438 Z M 187.113281 27.773438 "
         clip-rule="nonzero"
         id="path2" />
    </clipPath>
    <clipPath
       id="680311b49f">
      <path
         d="M 37.5 43.910156 L 337.097656 43.910156 L 337.097656 343.511719 L 37.5 343.511719 Z M 37.5 43.910156 "
         clip-rule="nonzero"
         id="path3" />
    </clipPath>
    <clipPath
       id="da95876222">
      <path
         d="M 187.300781 43.910156 C 104.566406 43.910156 37.5 110.980469 37.5 193.710938 C 37.5 276.445312 104.566406 343.511719 187.300781 343.511719 C 270.03125 343.511719 337.097656 276.445312 337.097656 193.710938 C 337.097656 110.980469 270.03125 43.910156 187.300781 43.910156 Z M 187.300781 43.910156 "
         clip-rule="nonzero"
         id="path4" />
    </clipPath>
    <clipPath
       id="96ee0f578c">
      <path
         d="M 37.5 43.910156 L 336.75 43.910156 L 336.75 343.160156 L 37.5 343.160156 Z M 37.5 43.910156 "
         clip-rule="nonzero"
         id="path5" />
    </clipPath>
    <clipPath
       id="bcb468bf9d">
      <path
         d="M 187.125 43.910156 C 104.488281 43.910156 37.5 110.902344 37.5 193.535156 C 37.5 276.171875 104.488281 343.160156 187.125 343.160156 C 269.761719 343.160156 336.75 276.171875 336.75 193.535156 C 336.75 110.902344 269.761719 43.910156 187.125 43.910156 Z M 187.125 43.910156 "
         clip-rule="nonzero"
         id="path6" />
    </clipPath>
    <clipPath
       id="0a48b0bf88">
      <path
         d="M 201 112.28125 L 232 112.28125 L 232 137 L 201 137 Z M 201 112.28125 "
         clip-rule="nonzero"
         id="path7" />
    </clipPath>
    <clipPath
       id="b91489f02f">
      <path
         d="M 148 112.28125 L 201 112.28125 L 201 164 L 148 164 Z M 148 112.28125 "
         clip-rule="nonzero"
         id="path8" />
    </clipPath>
    <clipPath
       id="9bb1866e11">
      <path
         d="M 95 250 L 279.394531 250 L 279.394531 275 L 95 275 Z M 95 250 "
         clip-rule="nonzero"
         id="path9" />
    </clipPath>
  </defs>
  <g
     clip-path="url(#a41a753191)"
     id="g11">
    <g
       clip-path="url(#099d95e693)"
       id="g10">
      <path
         stroke-linecap="butt"
         transform="matrix(0.749179, 0, 0, 0.749179, 21.362708, 27.77449)"
         fill="none"
         stroke-linejoin="miter"
         d="M 221.24295 -0.00140543 C 99.051901 -0.00140543 0.000765629 99.054944 0.000765629 221.240779 C 0.000765629 343.431828 99.051901 442.482963 221.24295 442.482963 C 343.428785 442.482963 442.485135 343.431828 442.485135 221.240779 C 442.485135 99.054944 343.428785 -0.00140543 221.24295 -0.00140543 Z M 221.24295 -0.00140543 "
         stroke="#000000"
         stroke-width="16"
         stroke-opacity="1"
         stroke-miterlimit="4"
         id="path10" />
    </g>
  </g>
  <g
     clip-path="url(#680311b49f)"
     id="g13">
    <g
       clip-path="url(#da95876222)"
       id="g12">
      <path
         fill="#58c5ff"
         d="M 37.5 43.910156 L 337.097656 43.910156 L 337.097656 343.511719 L 37.5 343.511719 Z M 37.5 43.910156 "
         fill-opacity="1"
         fill-rule="nonzero"
         id="path11" />
    </g>
  </g>
  <g
     clip-path="url(#96ee0f578c)"
     id="g15">
    <g
       clip-path="url(#bcb468bf9d)"
       id="g14">
      <path
         stroke-linecap="butt"
         transform="matrix(0.749149, 0, 0, 0.749149, 37.500002, 43.911912)"
         fill="none"
         stroke-linejoin="miter"
         d="M 199.72658 -0.00234301 C 89.419149 -0.00234301 -0.00000271975 89.422023 -0.00000271975 199.72424 C -0.00000271975 310.031672 89.419149 399.450823 199.72658 399.450823 C 310.034012 399.450823 399.453163 310.031672 399.453163 199.72424 C 399.453163 89.422023 310.034012 -0.00234301 199.72658 -0.00234301 Z M 199.72658 -0.00234301 "
         stroke="#000000"
         stroke-width="8"
         stroke-opacity="1"
         stroke-miterlimit="4"
         id="path13" />
    </g>
  </g>
  <path
     fill="#100f0d"
     d="M 137.582031 175.222656 C 137.582031 179.457031 137.582031 183.421875 137.582031 187.511719 C 142.636719 187.511719 147.652344 187.511719 152.808594 187.511719 C 152.808594 190.628906 152.808594 193.621094 152.808594 196.898438 C 160.71875 191.726562 168.394531 186.699219 176.191406 181.605469 C 168.425781 176.527344 160.769531 171.519531 152.925781 166.390625 C 152.925781 169.390625 152.925781 172.230469 152.925781 175.222656 C 147.769531 175.222656 142.761719 175.222656 137.582031 175.222656 "
     fill-opacity="1"
     fill-rule="nonzero"
     id="path15" />
  <g
     clip-path="url(#0a48b0bf88)"
     id="g16">
    <path
       fill="#100f0d"
       d="M 231.710938 119.28125 L 231.710938 128.769531 L 219.945312 128.769531 L 219.945312 136.011719 C 214.832031 132.667969 209.835938 129.398438 204.808594 126.109375 C 203.84375 125.484375 202.863281 124.84375 201.886719 124.203125 C 202.769531 123.632812 203.636719 123.058594 204.503906 122.492188 C 209.621094 119.144531 214.6875 115.835938 219.863281 112.457031 L 219.863281 119.28125 L 231.710938 119.28125 "
       fill-opacity="1"
       fill-rule="nonzero"
       id="path16" />
  </g>
  <path
     fill="#100f0d"
     d="M 127.359375 156.375 L 127.359375 161.882812 L 124.019531 161.882812 C 121.617188 161.882812 121.222656 162.265625 121.222656 164.644531 L 121.222656 243.148438 L 115.679688 243.148438 L 115.679688 164.476562 C 115.679688 159.128906 118.445312 156.375 123.824219 156.375 L 127.359375 156.375 "
     fill-opacity="1"
     fill-rule="nonzero"
     id="path17" />
  <path
     fill="#100f0d"
     d="M 258.503906 243.148438 L 252.976562 243.148438 L 252.976562 164.828125 C 252.976562 162.207031 252.640625 161.882812 250.007812 161.882812 L 246.789062 161.882812 L 246.789062 156.347656 L 250.359375 156.347656 C 253.253906 156.335938 255.824219 157.015625 257.25 159.621094 C 258.058594 161.128906 258.453125 163.078125 258.453125 164.816406 C 258.539062 185.632812 258.503906 206.476562 258.503906 227.28125 C 258.503906 232.570312 258.539062 237.871094 258.503906 243.148438 "
     fill-opacity="1"
     fill-rule="nonzero"
     id="path18" />
  <path
     fill="#100f0d"
     d="M 127.359375 146.15625 L 127.359375 151.710938 L 123.980469 151.710938 C 122.640625 151.710938 121.242188 151.808594 119.929688 152.160156 C 114.355469 153.59375 111 158.222656 111 164.4375 C 111 190.679688 111 216.90625 111.027344 243.148438 L 105.464844 243.148438 C 105.550781 216.714844 105.476562 190.296875 105.511719 163.871094 C 105.511719 155.457031 110.882812 148.585938 118.953125 146.664062 C 120.449219 146.316406 122 146.15625 123.539062 146.15625 L 127.359375 146.15625 "
     fill-opacity="1"
     fill-rule="nonzero"
     id="path19" />
  <path
     fill="#100f0d"
     d="M 268.695312 243.148438 L 263.195312 243.148438 C 263.171875 217.019531 263.183594 190.898438 263.183594 164.769531 C 263.183594 156.625 258.300781 151.699219 250.179688 151.699219 L 246.789062 151.699219 L 246.789062 146.148438 L 250.71875 146.148438 C 261.105469 146.15625 268.6875 153.738281 268.6875 164.101562 C 268.695312 190.449219 268.6875 216.789062 268.695312 243.148438 "
     fill-opacity="1"
     fill-rule="nonzero"
     id="path20" />
  <g
     clip-path="url(#b91489f02f)"
     id="g21">
    <path
       fill="#100f0d"
       d="M 185.578125 144.769531 C 183.34375 148.382812 179.351562 150.773438 174.804688 150.773438 C 174.347656 150.773438 173.890625 150.746094 173.441406 150.699219 C 172.800781 150.640625 172.167969 150.515625 171.546875 150.347656 C 166.144531 148.910156 162.136719 143.960938 162.136719 138.078125 C 162.136719 134.828125 163.371094 131.863281 165.410156 129.601562 C 166.820312 128.03125 168.605469 126.824219 170.628906 126.109375 C 171.257812 125.882812 171.910156 125.714844 172.574219 125.59375 C 173.296875 125.457031 174.046875 125.390625 174.804688 125.390625 C 174.914062 125.390625 175.035156 125.390625 175.144531 125.398438 C 176.507812 125.4375 177.808594 125.675781 179.027344 126.109375 C 183.953125 127.851562 187.484375 132.570312 187.484375 138.078125 C 187.484375 140.542969 186.796875 142.828125 185.578125 144.769531 Z M 192.515625 144.1875 L 192.746094 143.585938 L 200.660156 143.585938 L 200.660156 132.582031 L 193.300781 132.582031 L 193.089844 131.910156 C 192.851562 131.015625 192.550781 130.160156 192.191406 129.3125 L 191.9375 128.746094 L 196.976562 123.699219 L 195.769531 122.492188 L 189.210938 115.910156 L 184.597656 120.496094 L 183.984375 120.132812 C 182.984375 119.578125 181.972656 119.109375 180.921875 118.71875 L 180.316406 118.492188 L 180.316406 112.226562 L 169.316406 112.226562 L 169.316406 118.152344 L 168.652344 118.347656 C 167.976562 118.539062 167.324219 118.785156 166.675781 119.0625 C 166.167969 119.265625 165.675781 119.492188 165.191406 119.738281 L 164.585938 120.050781 L 161.222656 116.691406 L 160.4375 115.910156 L 152.65625 123.699219 L 155.082031 126.109375 L 156.90625 127.933594 L 156.613281 128.554688 C 156.09375 129.601562 155.660156 130.746094 155.335938 131.910156 L 155.144531 132.582031 L 148.96875 132.582031 L 148.96875 143.585938 L 155.710938 143.585938 L 155.9375 144.1875 C 156.285156 145.132812 156.722656 146.050781 157.242188 146.929688 L 157.589844 147.542969 L 152.65625 152.472656 L 160.4375 160.277344 L 165.804688 154.886719 L 166.394531 155.140625 C 167.121094 155.457031 167.878906 155.734375 168.652344 155.964844 L 169.316406 156.15625 L 169.316406 163.957031 L 180.316406 163.957031 L 180.316406 155.820312 L 180.921875 155.589844 C 181.5625 155.359375 182.203125 155.082031 182.828125 154.789062 L 183.429688 154.492188 L 186.011719 157.0625 L 189.210938 160.277344 L 196.976562 152.472656 L 191.296875 146.796875 L 191.613281 146.195312 C 191.949219 145.542969 192.25 144.878906 192.515625 144.1875 "
       fill-opacity="1"
       fill-rule="nonzero"
       id="path21" />
  </g>
  <path
     fill="#100f0d"
     d="M 212.332031 187.054688 C 210.429688 190.125 207.03125 192.171875 203.15625 192.171875 C 202.769531 192.171875 202.375 192.148438 201.992188 192.109375 C 201.449219 192.054688 200.90625 191.949219 200.386719 191.808594 C 195.773438 190.578125 192.359375 186.367188 192.359375 181.355469 C 192.359375 178.578125 193.410156 176.046875 195.148438 174.132812 C 196.71875 172.375 198.851562 171.140625 201.253906 170.710938 C 201.875 170.601562 202.507812 170.535156 203.15625 170.535156 C 203.25 170.535156 203.351562 170.535156 203.445312 170.542969 C 209.273438 170.699219 213.960938 175.492188 213.960938 181.355469 C 213.960938 183.449219 213.367188 185.398438 212.332031 187.054688 Z M 218.25 186.554688 L 218.441406 186.050781 L 225.1875 186.050781 L 225.1875 176.667969 L 218.914062 176.667969 L 218.738281 176.089844 C 218.535156 175.328125 218.28125 174.597656 217.972656 173.882812 L 217.75 173.390625 L 222.054688 169.09375 L 215.429688 162.457031 L 211.507812 166.367188 L 210.976562 166.066406 C 210.132812 165.585938 209.257812 165.1875 208.371094 164.859375 L 207.855469 164.660156 L 207.855469 159.324219 L 198.472656 159.324219 L 198.472656 164.375 L 197.910156 164.53125 C 197.34375 164.699219 196.78125 164.910156 196.226562 165.144531 C 195.800781 165.320312 195.378906 165.519531 194.96875 165.722656 L 194.453125 165.992188 L 191.582031 163.128906 L 190.90625 162.457031 L 184.28125 169.09375 L 187.902344 172.710938 L 187.652344 173.234375 C 187.210938 174.132812 186.847656 175.105469 186.570312 176.089844 L 186.402344 176.667969 L 181.140625 176.667969 L 181.140625 186.050781 L 186.886719 186.050781 L 187.074219 186.554688 C 187.375 187.359375 187.746094 188.144531 188.1875 188.894531 L 188.484375 189.421875 L 184.28125 193.621094 L 190.90625 200.261719 L 195.488281 195.675781 L 195.988281 195.894531 C 196.605469 196.164062 197.253906 196.398438 197.910156 196.589844 L 198.472656 196.753906 L 198.472656 203.402344 L 207.855469 203.402344 L 207.855469 196.46875 L 208.371094 196.273438 C 208.917969 196.082031 209.457031 195.84375 209.996094 195.589844 L 210.503906 195.339844 L 212.703125 197.53125 L 215.429688 200.261719 L 222.054688 193.621094 L 217.210938 188.777344 L 217.480469 188.269531 C 217.765625 187.710938 218.019531 187.144531 218.25 186.554688 "
     fill-opacity="1"
     fill-rule="nonzero"
     id="path22" />
  <g
     clip-path="url(#9bb1866e11)"
     id="g23">
    <path
       fill="#100f0d"
       d="M 218.03125 255.808594 C 217.101562 257.964844 215.816406 259.070312 213.410156 259.058594 C 195.867188 258.996094 178.339844 258.996094 160.792969 259.058594 C 158.402344 259.070312 157.09375 257.988281 156.148438 255.808594 Z M 95.003906 250.710938 L 95.003906 251.988281 C 95.003906 264.617188 105.214844 274.871094 117.816406 274.921875 L 117.917969 274.921875 C 118.425781 274.960938 118.960938 274.972656 119.496094 274.972656 C 127.707031 274.949219 135.90625 274.921875 144.117188 274.921875 L 256.261719 274.921875 C 268.917969 274.921875 279.179688 264.65625 279.179688 251.988281 L 279.179688 250.710938 L 95.003906 250.710938 "
       fill-opacity="1"
       fill-rule="nonzero"
       id="path23" />
  </g>
  <path
     fill="#100f0d"
     d="M 236.691406 122.492188 L 236.535156 122.492188 L 236.535156 126.109375 L 236.691406 126.109375 C 239.359375 126.109375 241.515625 128.269531 241.515625 130.945312 L 241.515625 219.398438 C 241.515625 222.066406 239.359375 224.226562 236.691406 224.226562 L 137.46875 224.226562 C 134.800781 224.226562 132.644531 222.066406 132.644531 219.398438 L 132.644531 130.945312 C 132.644531 128.269531 134.800781 126.109375 137.46875 126.109375 L 148.242188 126.109375 L 145.828125 123.699219 L 147.035156 122.492188 L 137.46875 122.492188 C 132.8125 122.492188 129.027344 126.28125 129.027344 130.945312 L 129.027344 219.398438 C 129.027344 224.054688 132.8125 227.851562 137.46875 227.851562 L 236.691406 227.851562 C 241.347656 227.851562 245.136719 224.054688 245.136719 219.398438 L 245.136719 130.945312 C 245.136719 126.28125 241.347656 122.492188 236.691406 122.492188 "
     fill-opacity="1"
     fill-rule="nonzero"
     id="path24" />
</svg>
