<?xml version="1.0" encoding="UTF-8" standalone="no"?>
<svg
   width="500"
   zoomAndPan="magnify"
   viewBox="0 0 375 374.999991"
   height="500"
   preserveAspectRatio="xMidYMid meet"
   version="1.0"
   id="svg31"
   sodipodi:docname="dwr-sky-2.svg"
   inkscape:version="1.3 (0e150ed6c4, 2023-07-21)"
   xmlns:inkscape="http://www.inkscape.org/namespaces/inkscape"
   xmlns:sodipodi="http://sodipodi.sourceforge.net/DTD/sodipodi-0.dtd"
   xmlns="http://www.w3.org/2000/svg"
   xmlns:svg="http://www.w3.org/2000/svg">
  <sodipodi:namedview
     id="namedview31"
     pagecolor="#ffffff"
     bordercolor="#000000"
     borderopacity="0.25"
     inkscape:showpageshadow="2"
     inkscape:pageopacity="0.0"
     inkscape:pagecheckerboard="0"
     inkscape:deskcolor="#d1d1d1"
     inkscape:zoom="1.61"
     inkscape:cx="250"
     inkscape:cy="250"
     inkscape:window-width="1920"
     inkscape:window-height="1014"
     inkscape:window-x="0"
     inkscape:window-y="31"
     inkscape:window-maximized="1"
     inkscape:current-layer="svg31" />
  <defs
     id="defs8">
    <clipPath
       id="451877d80b">
      <path
         d="M 21.363281 27.773438 L 352.863281 27.773438 L 352.863281 359.273438 L 21.363281 359.273438 Z M 21.363281 27.773438 "
         clip-rule="nonzero"
         id="path1" />
    </clipPath>
    <clipPath
       id="9476884b7b">
      <path
         d="M 187.113281 27.773438 C 95.570312 27.773438 21.363281 101.984375 21.363281 193.523438 C 21.363281 285.066406 95.570312 359.273438 187.113281 359.273438 C 278.652344 359.273438 352.863281 285.066406 352.863281 193.523438 C 352.863281 101.984375 278.652344 27.773438 187.113281 27.773438 Z M 187.113281 27.773438 "
         clip-rule="nonzero"
         id="path2" />
    </clipPath>
    <clipPath
       id="30a817fc7e">
      <path
         d="M 37.5 43.910156 L 337.097656 43.910156 L 337.097656 343.511719 L 37.5 343.511719 Z M 37.5 43.910156 "
         clip-rule="nonzero"
         id="path3" />
    </clipPath>
    <clipPath
       id="3e811e8295">
      <path
         d="M 187.300781 43.910156 C 104.566406 43.910156 37.5 110.980469 37.5 193.710938 C 37.5 276.445312 104.566406 343.511719 187.300781 343.511719 C 270.03125 343.511719 337.097656 276.445312 337.097656 193.710938 C 337.097656 110.980469 270.03125 43.910156 187.300781 43.910156 Z M 187.300781 43.910156 "
         clip-rule="nonzero"
         id="path4" />
    </clipPath>
    <clipPath
       id="e8ac9fe4f7">
      <path
         d="M 37.5 43.910156 L 336.75 43.910156 L 336.75 343.160156 L 37.5 343.160156 Z M 37.5 43.910156 "
         clip-rule="nonzero"
         id="path5" />
    </clipPath>
    <clipPath
       id="3bd1fea283">
      <path
         d="M 187.125 43.910156 C 104.488281 43.910156 37.5 110.902344 37.5 193.535156 C 37.5 276.171875 104.488281 343.160156 187.125 343.160156 C 269.761719 343.160156 336.75 276.171875 336.75 193.535156 C 336.75 110.902344 269.761719 43.910156 187.125 43.910156 Z M 187.125 43.910156 "
         clip-rule="nonzero"
         id="path6" />
    </clipPath>
    <clipPath
       id="a3ffc3da5d">
      <path
         d="M 76 112.984375 L 288.296875 112.984375 L 288.296875 290.734375 L 76 290.734375 Z M 76 112.984375 "
         clip-rule="nonzero"
         id="path7" />
    </clipPath>
    <clipPath
       id="be96e14714">
      <path
         d="M 74.546875 116 L 113 116 L 113 155 L 74.546875 155 Z M 74.546875 116 "
         clip-rule="nonzero"
         id="path8" />
    </clipPath>
  </defs>
  <g
     clip-path="url(#451877d80b)"
     id="g10">
    <g
       clip-path="url(#9476884b7b)"
       id="g9">
      <path
         stroke-linecap="butt"
         transform="matrix(0.749179, 0, 0, 0.749179, 21.362708, 27.77449)"
         fill="none"
         stroke-linejoin="miter"
         d="M 221.24295 -0.00140543 C 99.051901 -0.00140543 0.000765629 99.054944 0.000765629 221.240779 C 0.000765629 343.431828 99.051901 442.482963 221.24295 442.482963 C 343.428785 442.482963 442.485135 343.431828 442.485135 221.240779 C 442.485135 99.054944 343.428785 -0.00140543 221.24295 -0.00140543 Z M 221.24295 -0.00140543 "
         stroke="#000000"
         stroke-width="16"
         stroke-opacity="1"
         stroke-miterlimit="4"
         id="path9" />
    </g>
  </g>
  <g
     clip-path="url(#30a817fc7e)"
     id="g12">
    <g
       clip-path="url(#3e811e8295)"
       id="g11">
      <path
         fill="#58c5ff"
         d="M 37.5 43.910156 L 337.097656 43.910156 L 337.097656 343.511719 L 37.5 343.511719 Z M 37.5 43.910156 "
         fill-opacity="1"
         fill-rule="nonzero"
         id="path10" />
    </g>
  </g>
  <g
     clip-path="url(#e8ac9fe4f7)"
     id="g14">
    <g
       clip-path="url(#3bd1fea283)"
       id="g13">
      <path
         stroke-linecap="butt"
         transform="matrix(0.749149, 0, 0, 0.749149, 37.500002, 43.911794)"
         fill="none"
         stroke-linejoin="miter"
         d="M 199.72658 -0.00218604 C 89.419149 -0.00218604 -0.00000271975 89.422179 -0.00000271975 199.724397 C -0.00000271975 310.031829 89.419149 399.45098 199.72658 399.45098 C 310.034012 399.45098 399.453163 310.031829 399.453163 199.724397 C 399.453163 89.422179 310.034012 -0.00218604 199.72658 -0.00218604 Z M 199.72658 -0.00218604 "
         stroke="#000000"
         stroke-width="8"
         stroke-opacity="1"
         stroke-miterlimit="4"
         id="path12" />
    </g>
  </g>
  <path
     fill="#231f20"
     d="M 194.09375 128.671875 L 201.304688 128.671875 L 201.304688 142.742188 L 194.09375 142.742188 Z M 194.09375 128.671875 "
     fill-opacity="1"
     fill-rule="nonzero"
     id="path14" />
  <path
     fill="#231f20"
     d="M 194.09375 244.914062 L 201.304688 244.914062 L 201.304688 258.984375 L 194.09375 258.984375 Z M 194.09375 244.914062 "
     fill-opacity="1"
     fill-rule="nonzero"
     id="path15" />
  <path
     fill="#231f20"
     d="M 169.582031 134.964844 L 176.246094 132.214844 L 181.597656 145.21875 L 174.933594 147.972656 Z M 169.582031 134.964844 "
     fill-opacity="1"
     fill-rule="nonzero"
     id="path16" />
  <path
     fill="#231f20"
     d="M 213.808594 242.441406 L 220.472656 239.6875 L 225.824219 252.695312 L 219.160156 255.449219 Z M 213.808594 242.441406 "
     fill-opacity="1"
     fill-rule="nonzero"
     id="path17" />
  <path
     fill="#231f20"
     d="M 136.152344 172.476562 L 138.886719 165.792969 L 151.878906 171.125 L 149.148438 177.808594 Z M 136.152344 172.476562 "
     fill-opacity="1"
     fill-rule="nonzero"
     id="path18" />
  <path
     fill="#231f20"
     d="M 243.523438 216.535156 L 246.253906 209.851562 L 259.25 215.183594 L 256.515625 221.867188 Z M 243.523438 216.535156 "
     fill-opacity="1"
     fill-rule="nonzero"
     id="path19" />
  <path
     fill="#231f20"
     d="M 136.492188 216.113281 L 149.402344 210.582031 L 152.238281 217.222656 L 139.324219 222.753906 Z M 136.492188 216.113281 "
     fill-opacity="1"
     fill-rule="nonzero"
     id="path20" />
  <path
     fill="#231f20"
     d="M 243.175781 170.417969 L 256.085938 164.886719 L 258.921875 171.527344 L 246.007812 177.058594 Z M 243.175781 170.417969 "
     fill-opacity="1"
     fill-rule="nonzero"
     id="path21" />
  <path
     fill="#231f20"
     d="M 167.675781 251.734375 L 173.449219 238.90625 L 180.023438 241.875 L 174.25 254.703125 Z M 167.675781 251.734375 "
     fill-opacity="1"
     fill-rule="nonzero"
     id="path22" />
  <path
     fill="#231f20"
     d="M 215.375 145.769531 L 221.148438 132.941406 L 227.71875 135.910156 L 221.949219 148.738281 Z M 215.375 145.769531 "
     fill-opacity="1"
     fill-rule="nonzero"
     id="path23" />
  <path
     fill="#231f20"
     d="M 149.164062 150.308594 L 154.261719 145.203125 L 164.191406 155.148438 L 159.09375 160.257812 Z M 149.164062 150.308594 "
     fill-opacity="1"
     fill-rule="nonzero"
     id="path24" />
  <path
     fill="#231f20"
     d="M 231.207031 232.511719 L 236.304688 227.402344 L 246.234375 237.351562 L 241.136719 242.460938 Z M 231.207031 232.511719 "
     fill-opacity="1"
     fill-rule="nonzero"
     id="path25" />
  <path
     fill="#231f20"
     d="M 248.691406 190.214844 L 262.734375 190.214844 L 262.734375 197.4375 L 248.691406 197.4375 Z M 248.691406 190.214844 "
     fill-opacity="1"
     fill-rule="nonzero"
     id="path26" />
  <path
     fill="#231f20"
     d="M 149.164062 237.351562 L 159.09375 227.402344 L 164.191406 232.507812 L 154.261719 242.457031 Z M 149.164062 237.351562 "
     fill-opacity="1"
     fill-rule="nonzero"
     id="path27" />
  <path
     fill="#231f20"
     d="M 189.234375 193.207031 C 186.71875 196.183594 187.078125 200.640625 190.050781 203.167969 C 193.019531 205.6875 197.46875 205.324219 199.992188 202.351562 L 248.359375 145.183594 L 190.175781 192.28125 C 189.851562 192.554688 189.511719 192.875 189.234375 193.207031 Z M 189.234375 193.207031 "
     fill-opacity="1"
     fill-rule="nonzero"
     id="path28" />
  <g
     clip-path="url(#a3ffc3da5d)"
     id="g29">
    <path
       fill="#231f20"
       d="M 288.238281 197.242188 C 288.191406 195.867188 288.117188 194.492188 288.003906 193.121094 C 287.785156 190.378906 287.441406 187.652344 286.96875 184.941406 C 286.03125 179.53125 284.578125 174.21875 282.664062 169.105469 C 280.746094 163.992188 278.34375 159.078125 275.519531 154.433594 C 272.695312 149.800781 269.453125 145.441406 265.851562 141.433594 C 262.246094 137.425781 258.277344 133.765625 254.019531 130.515625 C 249.765625 127.261719 245.214844 124.414062 240.460938 122.019531 C 235.703125 119.625 230.738281 117.6875 225.644531 116.230469 C 220.554688 114.773438 215.339844 113.808594 210.101562 113.335938 C 207.484375 113.09375 204.859375 112.984375 202.242188 112.992188 C 200.929688 112.992188 199.621094 113.027344 198.316406 113.09375 C 197.988281 113.105469 197.664062 113.125 197.335938 113.148438 L 196.355469 113.207031 C 195.703125 113.257812 195.058594 113.3125 194.402344 113.371094 C 191.804688 113.621094 189.214844 113.984375 186.652344 114.464844 C 184.085938 114.949219 181.550781 115.566406 179.046875 116.292969 C 176.550781 117.027344 174.097656 117.890625 171.6875 118.867188 C 169.28125 119.851562 166.933594 120.964844 164.648438 122.183594 C 163.511719 122.804688 162.382812 123.429688 161.28125 124.109375 C 160.722656 124.4375 160.179688 124.792969 159.636719 125.132812 C 159.363281 125.308594 159.097656 125.484375 158.824219 125.667969 C 158.558594 125.847656 158.289062 126.019531 158.019531 126.207031 C 155.890625 127.660156 153.832031 129.21875 151.871094 130.882812 C 150.886719 131.707031 149.933594 132.574219 148.992188 133.445312 L 148.296875 134.113281 L 147.953125 134.445312 L 147.613281 134.785156 L 146.929688 135.464844 L 146.257812 136.15625 C 144.472656 137.996094 142.804688 139.9375 141.222656 141.929688 C 139.636719 143.933594 138.160156 146.011719 136.777344 148.144531 C 135.402344 150.285156 134.121094 152.476562 132.941406 154.726562 C 131.769531 156.972656 130.691406 159.265625 129.71875 161.597656 C 128.746094 163.929688 127.875 166.296875 127.085938 168.691406 C 128.035156 166.359375 129.070312 164.0625 130.203125 161.820312 C 131.332031 159.578125 132.5625 157.390625 133.867188 155.257812 C 135.183594 153.132812 136.59375 151.066406 138.082031 149.066406 C 139.582031 147.078125 141.167969 145.152344 142.835938 143.316406 C 144.511719 141.488281 146.257812 139.722656 148.101562 138.074219 L 148.792969 137.457031 L 149.492188 136.851562 L 149.84375 136.546875 L 150.203125 136.25 L 150.914062 135.664062 C 151.875 134.894531 152.84375 134.132812 153.84375 133.410156 C 155.824219 131.949219 157.886719 130.609375 160.003906 129.375 C 160.265625 129.21875 160.535156 129.070312 160.804688 128.921875 C 161.070312 128.769531 161.335938 128.617188 161.609375 128.472656 C 162.144531 128.1875 162.683594 127.882812 163.226562 127.613281 C 164.3125 127.046875 165.417969 126.527344 166.53125 126.019531 C 168.761719 125.023438 171.035156 124.140625 173.347656 123.382812 C 175.65625 122.628906 178.003906 121.984375 180.375 121.46875 C 182.742188 120.953125 185.132812 120.550781 187.539062 120.269531 C 189.945312 119.988281 192.359375 119.824219 194.777344 119.765625 C 199.617188 119.660156 204.449219 119.964844 209.183594 120.734375 C 213.917969 121.496094 218.570312 122.691406 223.050781 124.316406 C 227.53125 125.933594 231.84375 127.976562 235.921875 130.386719 C 239.996094 132.796875 243.832031 135.589844 247.367188 138.699219 C 250.90625 141.808594 254.140625 145.238281 257.027344 148.921875 C 259.910156 152.605469 262.441406 156.542969 264.582031 160.667969 C 266.714844 164.796875 268.464844 169.105469 269.78125 173.519531 C 271.101562 177.9375 272.007812 182.464844 272.480469 187.027344 C 272.714844 189.304688 272.839844 191.59375 272.871094 193.878906 C 272.882812 195.023438 272.871094 196.164062 272.828125 197.308594 C 272.785156 198.4375 272.71875 199.550781 272.625 200.671875 C 272.238281 205.136719 271.359375 209.535156 270.046875 213.796875 C 268.734375 218.054688 266.96875 222.175781 264.835938 226.097656 C 262.695312 230.015625 260.164062 233.730469 257.328125 237.195312 C 251.652344 244.128906 244.730469 250.066406 237.09375 254.726562 C 229.457031 259.398438 221.097656 262.796875 212.515625 264.722656 C 210.371094 265.203125 208.214844 265.59375 206.050781 265.886719 C 203.890625 266.175781 201.722656 266.378906 199.5625 266.480469 C 195.238281 266.679688 190.933594 266.5 186.691406 265.910156 C 178.207031 264.753906 169.996094 262.027344 162.542969 257.972656 C 155.089844 253.925781 148.398438 248.558594 142.90625 242.261719 C 140.164062 239.117188 137.71875 235.734375 135.613281 232.191406 C 133.515625 228.648438 131.761719 224.933594 130.382812 221.121094 C 129.003906 217.304688 128.007812 213.390625 127.402344 209.433594 C 127.191406 208.078125 127.03125 206.71875 126.917969 205.355469 L 143.113281 205.355469 C 143.6875 205.355469 144.019531 204.714844 143.695312 204.242188 L 110.945312 157.488281 C 110.664062 157.089844 110.070312 157.089844 109.792969 157.488281 L 77.042969 204.242188 C 76.71875 204.707031 77.050781 205.355469 77.625 205.355469 L 94.53125 205.355469 C 94.921875 208.804688 95.496094 212.226562 96.257812 215.601562 C 97.597656 221.527344 99.511719 227.296875 101.949219 232.796875 C 104.382812 238.300781 107.328125 243.539062 110.710938 248.4375 C 114.097656 253.332031 117.914062 257.886719 122.082031 262.050781 C 126.253906 266.214844 130.78125 269.976562 135.585938 273.308594 C 140.390625 276.640625 145.476562 279.539062 150.777344 281.953125 C 161.359375 286.796875 172.789062 289.710938 184.324219 290.480469 C 187.207031 290.675781 190.089844 290.734375 192.96875 290.660156 C 195.847656 290.589844 198.722656 290.394531 201.5625 290.066406 C 204.40625 289.742188 207.230469 289.285156 210.019531 288.71875 C 212.808594 288.148438 215.5625 287.449219 218.28125 286.652344 C 229.140625 283.425781 239.34375 278.421875 248.46875 271.976562 C 257.59375 265.527344 265.664062 257.609375 272.15625 248.507812 C 275.398438 243.953125 278.242188 239.105469 280.601562 234.015625 C 282.953125 228.925781 284.820312 223.601562 286.117188 218.132812 C 287.410156 212.667969 288.136719 207.070312 288.246094 201.472656 C 288.292969 200.035156 288.28125 198.628906 288.238281 197.242188 Z M 288.238281 197.242188 "
       fill-opacity="1"
       fill-rule="nonzero"
       id="path29" />
  </g>
  <g
     clip-path="url(#be96e14714)"
     id="g30">
    <path
       fill="#231f20"
       d="M 81.199219 143.472656 L 80.121094 147.042969 C 79.875 147.871094 80.171875 148.769531 80.867188 149.277344 L 84.011719 151.597656 C 84.707031 152.113281 85.648438 152.132812 86.363281 151.648438 L 89.445312 149.5625 L 90.675781 149.867188 L 92.429688 153.152344 C 92.707031 153.671875 93.191406 154.035156 93.742188 154.167969 C 93.996094 154.230469 94.265625 154.246094 94.53125 154.203125 L 98.398438 153.625 C 99.25 153.496094 99.933594 152.839844 100.097656 151.992188 L 100.804688 148.332031 L 101.886719 147.679688 L 105.449219 148.757812 C 106.277344 149.007812 107.171875 148.710938 107.679688 148.011719 L 109.996094 144.863281 C 110.511719 144.164062 110.527344 143.21875 110.046875 142.503906 L 107.964844 139.414062 L 108.265625 138.183594 L 111.546875 136.425781 C 112.308594 136.019531 112.730469 135.171875 112.597656 134.320312 L 112.015625 130.445312 C 111.890625 129.59375 111.238281 128.90625 110.390625 128.746094 L 106.738281 128.035156 L 106.085938 126.949219 L 107.160156 123.382812 C 107.410156 122.550781 107.113281 121.65625 106.417969 121.144531 L 103.273438 118.824219 C 102.578125 118.3125 101.632812 118.292969 100.917969 118.777344 L 97.835938 120.863281 L 96.609375 120.558594 L 94.855469 117.273438 C 94.449219 116.511719 93.601562 116.085938 92.75 116.21875 L 88.882812 116.800781 C 88.03125 116.929688 87.347656 117.582031 87.183594 118.433594 L 86.476562 122.089844 L 85.394531 122.746094 L 81.832031 121.667969 C 81.003906 121.417969 80.109375 121.714844 79.601562 122.414062 L 77.285156 125.5625 C 76.769531 126.261719 76.753906 127.207031 77.238281 127.921875 L 79.316406 131.011719 L 79.015625 132.242188 L 75.738281 133.996094 C 74.976562 134.402344 74.550781 135.25 74.683594 136.105469 L 75.265625 139.976562 C 75.390625 140.832031 76.046875 141.515625 76.890625 141.679688 L 80.546875 142.390625 Z M 85.902344 133.300781 C 86.960938 129.015625 91.285156 126.40625 95.5625 127.464844 C 99.835938 128.527344 102.445312 132.859375 101.386719 137.140625 C 100.328125 141.425781 96.003906 144.039062 91.726562 142.976562 C 87.453125 141.917969 84.84375 137.585938 85.902344 133.300781 Z M 85.902344 133.300781 "
       fill-opacity="1"
       fill-rule="nonzero"
       id="path30" />
  </g>
  <path
     fill="#231f20"
     d="M 112.445312 137.574219 C 111.960938 137.523438 111.503906 137.789062 111.304688 138.234375 L 110.378906 140.21875 C 110.171875 140.664062 110.269531 141.183594 110.613281 141.523438 L 112.101562 142.988281 L 112.070312 143.699219 L 110.460938 145.03125 C 110.085938 145.339844 109.949219 145.847656 110.117188 146.308594 L 110.867188 148.371094 C 111.03125 148.824219 111.464844 149.128906 111.949219 149.121094 L 114.035156 149.101562 L 114.515625 149.625 L 114.320312 151.703125 C 114.273438 152.1875 114.539062 152.648438 114.980469 152.847656 L 116.964844 153.773438 C 117.40625 153.980469 117.925781 153.882812 118.265625 153.539062 L 119.726562 152.046875 L 120.433594 152.078125 L 121.765625 153.691406 C 121.976562 153.945312 122.28125 154.089844 122.601562 154.101562 C 122.746094 154.109375 122.898438 154.082031 123.042969 154.035156 L 125.097656 153.285156 C 125.550781 153.121094 125.855469 152.683594 125.847656 152.199219 L 125.828125 150.109375 L 126.351562 149.628906 L 128.425781 149.824219 C 128.90625 149.871094 129.367188 149.605469 129.566406 149.164062 L 130.492188 147.175781 C 130.699219 146.734375 130.601562 146.210938 130.257812 145.875 L 128.769531 144.40625 L 128.800781 143.699219 L 130.40625 142.367188 C 130.78125 142.054688 130.921875 141.546875 130.753906 141.085938 L 130.003906 139.027344 C 129.839844 138.574219 129.402344 138.269531 128.921875 138.277344 L 126.832031 138.292969 L 126.355469 137.773438 L 126.550781 135.695312 C 126.597656 135.210938 126.332031 134.75 125.890625 134.550781 L 123.90625 133.621094 C 123.464844 133.414062 122.945312 133.511719 122.605469 133.859375 L 121.144531 135.347656 L 120.433594 135.320312 L 119.105469 133.707031 C 118.796875 133.332031 118.289062 133.191406 117.828125 133.363281 L 115.773438 134.113281 C 115.320312 134.277344 115.015625 134.710938 115.023438 135.199219 L 115.039062 137.289062 L 114.519531 137.765625 Z M 115.972656 143.503906 C 116.082031 141.03125 118.160156 139.117188 120.628906 139.21875 C 123.097656 139.328125 125.007812 141.414062 124.90625 143.886719 C 124.796875 146.359375 122.714844 148.273438 120.246094 148.171875 C 117.78125 148.066406 115.863281 145.976562 115.972656 143.503906 Z M 115.972656 143.503906 "
     fill-opacity="1"
     fill-rule="nonzero"
     id="path31" />
</svg>
