<?xml version="1.0" encoding="UTF-8" standalone="no"?>
<svg
   width="500"
   zoomAndPan="magnify"
   viewBox="0 0 375 374.999991"
   height="500"
   preserveAspectRatio="xMidYMid meet"
   version="1.0"
   id="svg14"
   sodipodi:docname="dwr-sky-3.svg"
   inkscape:version="1.3 (0e150ed6c4, 2023-07-21)"
   xmlns:inkscape="http://www.inkscape.org/namespaces/inkscape"
   xmlns:sodipodi="http://sodipodi.sourceforge.net/DTD/sodipodi-0.dtd"
   xmlns="http://www.w3.org/2000/svg"
   xmlns:svg="http://www.w3.org/2000/svg">
  <sodipodi:namedview
     id="namedview14"
     pagecolor="#ffffff"
     bordercolor="#000000"
     borderopacity="0.25"
     inkscape:showpageshadow="2"
     inkscape:pageopacity="0.0"
     inkscape:pagecheckerboard="0"
     inkscape:deskcolor="#d1d1d1"
     inkscape:zoom="1.61"
     inkscape:cx="250"
     inkscape:cy="250"
     inkscape:window-width="1920"
     inkscape:window-height="1014"
     inkscape:window-x="0"
     inkscape:window-y="31"
     inkscape:window-maximized="1"
     inkscape:current-layer="svg14" />
  <defs
     id="defs7">
    <clipPath
       id="76f8a86e04">
      <path
         d="M 21.363281 27.773438 L 352.863281 27.773438 L 352.863281 359.273438 L 21.363281 359.273438 Z M 21.363281 27.773438 "
         clip-rule="nonzero"
         id="path1" />
    </clipPath>
    <clipPath
       id="ef97b0ae98">
      <path
         d="M 187.113281 27.773438 C 95.570312 27.773438 21.363281 101.984375 21.363281 193.523438 C 21.363281 285.066406 95.570312 359.273438 187.113281 359.273438 C 278.652344 359.273438 352.863281 285.066406 352.863281 193.523438 C 352.863281 101.984375 278.652344 27.773438 187.113281 27.773438 Z M 187.113281 27.773438 "
         clip-rule="nonzero"
         id="path2" />
    </clipPath>
    <clipPath
       id="d94fe35d07">
      <path
         d="M 37.5 43.910156 L 337.097656 43.910156 L 337.097656 343.511719 L 37.5 343.511719 Z M 37.5 43.910156 "
         clip-rule="nonzero"
         id="path3" />
    </clipPath>
    <clipPath
       id="f3f73e6d3e">
      <path
         d="M 187.300781 43.910156 C 104.566406 43.910156 37.5 110.980469 37.5 193.710938 C 37.5 276.445312 104.566406 343.511719 187.300781 343.511719 C 270.03125 343.511719 337.097656 276.445312 337.097656 193.710938 C 337.097656 110.980469 270.03125 43.910156 187.300781 43.910156 Z M 187.300781 43.910156 "
         clip-rule="nonzero"
         id="path4" />
    </clipPath>
    <clipPath
       id="282f7f74bf">
      <path
         d="M 37.5 43.910156 L 336.75 43.910156 L 336.75 343.160156 L 37.5 343.160156 Z M 37.5 43.910156 "
         clip-rule="nonzero"
         id="path5" />
    </clipPath>
    <clipPath
       id="0c018c1ce8">
      <path
         d="M 187.125 43.910156 C 104.488281 43.910156 37.5 110.902344 37.5 193.535156 C 37.5 276.171875 104.488281 343.160156 187.125 343.160156 C 269.761719 343.160156 336.75 276.171875 336.75 193.535156 C 336.75 110.902344 269.761719 43.910156 187.125 43.910156 Z M 187.125 43.910156 "
         clip-rule="nonzero"
         id="path6" />
    </clipPath>
    <clipPath
       id="9585334f7e">
      <path
         d="M 99 106 L 276 106 L 276 281.398438 L 99 281.398438 Z M 99 106 "
         clip-rule="nonzero"
         id="path7" />
    </clipPath>
  </defs>
  <g
     clip-path="url(#76f8a86e04)"
     id="g9">
    <g
       clip-path="url(#ef97b0ae98)"
       id="g8">
      <path
         stroke-linecap="butt"
         transform="matrix(0.749179, 0, 0, 0.749179, 21.362708, 27.774569)"
         fill="none"
         stroke-linejoin="miter"
         d="M 221.24295 -0.0015105 C 99.051901 -0.0015105 0.000765629 99.054839 0.000765629 221.240674 C 0.000765629 343.431723 99.051901 442.482858 221.24295 442.482858 C 343.428785 442.482858 442.485135 343.431723 442.485135 221.240674 C 442.485135 99.054839 343.428785 -0.0015105 221.24295 -0.0015105 Z M 221.24295 -0.0015105 "
         stroke="#000000"
         stroke-width="16"
         stroke-opacity="1"
         stroke-miterlimit="4"
         id="path8" />
    </g>
  </g>
  <g
     clip-path="url(#d94fe35d07)"
     id="g11">
    <g
       clip-path="url(#f3f73e6d3e)"
       id="g10">
      <path
         fill="#58c5ff"
         d="M 37.5 43.910156 L 337.097656 43.910156 L 337.097656 343.511719 L 37.5 343.511719 Z M 37.5 43.910156 "
         fill-opacity="1"
         fill-rule="nonzero"
         id="path9" />
    </g>
  </g>
  <g
     clip-path="url(#282f7f74bf)"
     id="g13">
    <g
       clip-path="url(#0c018c1ce8)"
       id="g12">
      <path
         stroke-linecap="butt"
         transform="matrix(0.749149, 0, 0, 0.749149, 37.500002, 43.911859)"
         fill="none"
         stroke-linejoin="miter"
         d="M 199.72658 -0.00227253 C 89.419149 -0.00227253 -0.00000271975 89.422093 -0.00000271975 199.72431 C -0.00000271975 310.031742 89.419149 399.450893 199.72658 399.450893 C 310.034012 399.450893 399.453163 310.031742 399.453163 199.72431 C 399.453163 89.422093 310.034012 -0.00227253 199.72658 -0.00227253 Z M 199.72658 -0.00227253 "
         stroke="#000000"
         stroke-width="8"
         stroke-opacity="1"
         stroke-miterlimit="4"
         id="path11" />
    </g>
  </g>
  <g
     clip-path="url(#9585334f7e)"
     id="g14">
    <path
       fill="#000000"
       d="M 208.398438 210.511719 C 226.792969 197.332031 237.75 175.984375 237.75 153.359375 L 237.75 121.878906 C 237.75 120.425781 236.574219 119.214844 235.125 119.148438 C 227.65625 118.871094 220.222656 117.832031 212.996094 116 C 204.492188 113.820312 196.230469 110.601562 188.484375 106.347656 C 187.65625 105.898438 186.6875 105.898438 185.855469 106.347656 C 178.113281 110.566406 169.882812 113.820312 161.34375 116 C 154.121094 117.832031 146.652344 118.90625 139.21875 119.148438 C 137.765625 119.179688 136.589844 120.390625 136.589844 121.878906 L 136.589844 153.359375 C 136.589844 175.984375 147.585938 197.332031 165.941406 210.511719 C 172.167969 214.976562 179.046875 218.398438 186.375 220.613281 C 186.617188 220.683594 186.894531 220.71875 187.171875 220.71875 C 187.449219 220.71875 187.691406 220.683594 187.964844 220.613281 C 195.296875 218.398438 202.175781 215.007812 208.398438 210.511719 Z M 169.125 206.082031 C 152.148438 193.941406 142.054688 174.222656 142.054688 153.359375 L 142.054688 124.472656 C 149.003906 124.058594 155.953125 122.988281 162.726562 121.292969 C 171.199219 119.148438 179.425781 115.964844 187.207031 111.847656 C 194.984375 115.964844 203.179688 119.113281 211.683594 121.292969 C 218.425781 123.019531 225.375 124.09375 232.355469 124.472656 L 232.355469 153.359375 C 232.355469 174.222656 222.226562 193.90625 205.253906 206.082031 C 199.753906 210.0625 193.671875 213.105469 187.207031 215.148438 C 180.707031 213.105469 174.65625 210.0625 169.125 206.082031 Z M 187.171875 198.367188 C 167.671875 198.367188 151.835938 182.488281 151.835938 163.011719 C 151.835938 143.535156 167.671875 127.621094 187.171875 127.621094 C 192.875 127.621094 198.546875 129.007812 203.59375 131.671875 C 204.941406 132.363281 205.425781 134.023438 204.734375 135.371094 C 204.042969 136.722656 202.382812 137.207031 201.035156 136.511719 C 196.714844 134.265625 192.046875 133.089844 187.171875 133.089844 C 170.679688 133.089844 157.265625 146.511719 157.265625 163.011719 C 157.265625 179.515625 170.679688 192.9375 187.171875 192.9375 C 203.660156 192.9375 217.078125 179.515625 217.078125 163.011719 C 217.078125 160.453125 216.765625 157.894531 216.109375 155.472656 C 215.726562 154.019531 216.59375 152.53125 218.042969 152.148438 C 219.496094 151.769531 220.984375 152.632812 221.363281 154.085938 C 222.125 156.992188 222.503906 160.003906 222.503906 163.011719 C 222.503906 182.488281 206.667969 198.367188 187.171875 198.367188 Z M 177.074219 151.007812 C 174.171875 148.101562 169.433594 148.101562 166.53125 151.007812 C 165.113281 152.425781 164.351562 154.296875 164.351562 156.265625 C 164.351562 158.273438 165.113281 160.140625 166.53125 161.527344 L 180.152344 175.15625 C 181.570312 176.574219 183.4375 177.335938 185.40625 177.335938 C 187.378906 177.335938 189.28125 176.574219 190.664062 175.15625 L 221.742188 144.054688 C 224.648438 141.148438 224.648438 136.410156 221.742188 133.503906 C 220.324219 132.085938 218.460938 131.324219 216.488281 131.324219 C 214.484375 131.324219 212.617188 132.085938 211.234375 133.503906 L 185.40625 159.347656 Z M 215.070312 137.378906 C 215.832031 136.617188 217.109375 136.617188 217.90625 137.378906 C 218.699219 138.175781 218.699219 139.417969 217.90625 140.214844 L 186.824219 171.316406 C 186.066406 172.078125 184.75 172.078125 183.988281 171.316406 L 170.367188 157.683594 C 169.988281 157.304688 169.78125 156.820312 169.78125 156.265625 C 169.78125 155.75 169.988281 155.230469 170.367188 154.847656 C 170.75 154.46875 171.265625 154.261719 171.785156 154.261719 C 172.304688 154.261719 172.824219 154.46875 173.203125 154.847656 L 183.472656 165.125 C 183.988281 165.640625 184.683594 165.917969 185.40625 165.917969 C 186.132812 165.917969 186.824219 165.640625 187.34375 165.125 Z M 268.691406 161.042969 C 266.585938 160.417969 264.269531 160.558594 262.226562 161.421875 C 260.1875 162.320312 258.527344 163.914062 257.59375 165.917969 L 237.890625 206.984375 C 237.890625 206.984375 237.855469 206.949219 237.855469 206.949219 C 237.40625 206.566406 236.921875 206.257812 236.402344 205.980469 C 236.265625 205.910156 236.160156 205.839844 236.023438 205.773438 C 235.503906 205.496094 234.949219 205.253906 234.363281 205.082031 C 231.007812 204.078125 227.308594 204.90625 224.683594 207.328125 L 207.707031 223.277344 C 206.1875 224.730469 205.046875 226.5625 204.421875 228.570312 L 197.09375 252.855469 C 195.605469 252.476562 194.015625 252.648438 192.632812 253.410156 C 191.148438 254.207031 190.074219 255.519531 189.589844 257.144531 L 188.035156 262.300781 C 187.550781 263.925781 187.722656 265.621094 188.519531 267.109375 C 189.3125 268.597656 190.628906 269.667969 192.253906 270.152344 L 228.484375 281.085938 C 229.074219 281.257812 229.695312 281.363281 230.28125 281.363281 C 232.980469 281.363281 235.46875 279.597656 236.296875 276.898438 L 237.855469 271.746094 C 238.339844 270.117188 238.164062 268.421875 237.371094 266.9375 C 236.714844 265.726562 235.746094 264.824219 234.535156 264.238281 L 235.78125 260.121094 C 236.609375 257.386719 238.097656 254.898438 240.101562 252.890625 L 252.960938 240.125 C 256.695312 236.390625 259.394531 231.753906 260.742188 226.632812 L 274.949219 172.285156 C 276.300781 167.476562 273.535156 162.496094 268.691406 161.042969 Z M 232.703125 270.1875 L 231.148438 275.34375 C 231.007812 275.792969 230.558594 276.035156 230.109375 275.894531 L 193.878906 264.964844 C 193.429688 264.824219 193.1875 264.375 193.324219 263.925781 L 194.878906 258.773438 C 194.949219 258.496094 195.15625 258.355469 195.296875 258.289062 C 195.433594 258.21875 195.675781 258.148438 195.917969 258.21875 L 232.148438 269.148438 C 232.566406 269.253906 232.839844 269.738281 232.703125 270.1875 Z M 269.730469 170.96875 L 255.519531 225.320312 C 254.414062 229.46875 252.238281 233.273438 249.195312 236.320312 L 236.332031 249.050781 C 233.671875 251.679688 231.699219 254.964844 230.628906 258.5625 L 229.417969 262.613281 L 202.382812 254.449219 L 209.710938 230.195312 C 210.058594 229.089844 210.679688 228.085938 211.511719 227.324219 L 211.683594 227.152344 L 228.449219 211.375 C 229.625 210.304688 231.285156 209.890625 232.808594 210.339844 C 233.566406 210.582031 234.222656 210.960938 234.742188 211.550781 C 235.191406 212.035156 235.539062 212.621094 235.746094 213.246094 C 236.265625 214.871094 235.816406 216.667969 234.535156 217.847656 L 221.085938 230.472656 C 219.980469 231.511719 219.945312 233.242188 220.984375 234.347656 C 221.535156 234.9375 222.226562 235.210938 222.953125 235.210938 C 223.609375 235.210938 224.300781 234.96875 224.820312 234.484375 L 238.269531 221.859375 C 240.792969 219.542969 241.863281 216.046875 241.207031 212.726562 L 262.503906 168.339844 C 262.886719 167.511719 263.578125 166.851562 264.40625 166.472656 C 265.269531 166.09375 266.203125 166.023438 267.101562 166.300781 C 269.109375 166.886719 270.285156 168.929688 269.730469 170.96875 Z M 184.683594 257.179688 C 183.714844 253.964844 180.394531 252.128906 177.179688 252.925781 L 169.882812 228.605469 C 169.261719 226.597656 168.15625 224.765625 166.601562 223.3125 L 149.625 207.328125 C 147.03125 204.941406 143.332031 204.078125 139.980469 205.082031 C 139.425781 205.253906 138.871094 205.496094 138.355469 205.773438 C 138.214844 205.839844 138.113281 205.910156 137.972656 205.980469 C 137.457031 206.257812 136.972656 206.601562 136.523438 206.949219 C 136.523438 206.949219 136.488281 206.984375 136.488281 206.984375 L 116.78125 165.917969 C 115.8125 163.914062 114.1875 162.320312 112.113281 161.421875 C 110.074219 160.523438 107.792969 160.382812 105.648438 161.042969 C 100.808594 162.496094 98.042969 167.476562 99.320312 172.355469 L 113.53125 226.703125 C 114.878906 231.789062 117.542969 236.457031 121.308594 240.195312 L 134.171875 252.960938 C 136.175781 254.964844 137.699219 257.457031 138.527344 260.191406 L 139.773438 264.308594 C 137.007812 265.621094 135.554688 268.769531 136.453125 271.78125 L 138.007812 276.933594 C 138.839844 279.667969 141.328125 281.398438 144.023438 281.398438 C 144.613281 281.398438 145.234375 281.292969 145.820312 281.121094 L 182.054688 270.152344 C 183.679688 269.667969 184.992188 268.597656 185.789062 267.109375 C 186.582031 265.621094 186.757812 263.925781 186.273438 262.335938 Z M 138.007812 249.050781 L 125.148438 236.285156 C 122.105469 233.242188 119.890625 229.433594 118.820312 225.285156 L 104.613281 170.96875 C 104.09375 168.964844 105.234375 166.886719 107.238281 166.300781 C 108.136719 166.023438 109.070312 166.09375 109.9375 166.472656 C 110.765625 166.851562 111.457031 167.511719 111.871094 168.339844 L 133.167969 212.726562 C 132.511719 216.046875 133.617188 219.507812 136.105469 221.824219 L 149.554688 234.453125 C 150.074219 234.9375 150.765625 235.179688 151.421875 235.179688 C 152.148438 235.179688 152.875 234.902344 153.394531 234.3125 C 154.429688 233.207031 154.363281 231.476562 153.289062 230.4375 L 139.804688 217.8125 C 138.5625 216.667969 138.078125 214.835938 138.632812 213.210938 C 138.804688 212.621094 139.148438 212.035156 139.597656 211.550781 C 140.152344 210.960938 140.773438 210.582031 141.535156 210.339844 C 143.054688 209.890625 144.714844 210.269531 145.890625 211.34375 L 162.660156 227.117188 L 162.832031 227.289062 C 163.660156 228.085938 164.285156 229.089844 164.628906 230.195312 L 171.957031 254.449219 L 166.21875 256.175781 L 144.921875 262.613281 L 143.714844 258.5625 C 142.640625 254.964844 140.671875 251.679688 138.007812 249.050781 Z M 180.464844 264.929688 L 144.230469 275.863281 C 143.78125 276 143.332031 275.757812 143.195312 275.308594 L 141.640625 270.152344 C 141.5 269.703125 141.742188 269.253906 142.191406 269.117188 L 178.425781 258.183594 C 178.527344 258.148438 178.597656 258.148438 178.667969 258.148438 C 178.839844 258.148438 178.976562 258.183594 179.046875 258.253906 C 179.183594 258.320312 179.359375 258.460938 179.460938 258.738281 L 181.015625 263.890625 C 181.15625 264.339844 180.914062 264.792969 180.464844 264.929688 Z M 180.464844 264.929688 "
       fill-opacity="1"
       fill-rule="nonzero"
       id="path13" />
  </g>
</svg>
