<?xml version="1.0" encoding="UTF-8" standalone="no"?>
<svg
   width="500"
   zoomAndPan="magnify"
   viewBox="0 0 375 374.999991"
   height="500"
   preserveAspectRatio="xMidYMid meet"
   version="1.0"
   id="svg15"
   sodipodi:docname="hrm-red-3.svg"
   inkscape:version="1.3 (0e150ed6c4, 2023-07-21)"
   xmlns:inkscape="http://www.inkscape.org/namespaces/inkscape"
   xmlns:sodipodi="http://sodipodi.sourceforge.net/DTD/sodipodi-0.dtd"
   xmlns="http://www.w3.org/2000/svg"
   xmlns:svg="http://www.w3.org/2000/svg">
  <sodipodi:namedview
     id="namedview15"
     pagecolor="#ffffff"
     bordercolor="#000000"
     borderopacity="0.25"
     inkscape:showpageshadow="2"
     inkscape:pageopacity="0.0"
     inkscape:pagecheckerboard="0"
     inkscape:deskcolor="#d1d1d1"
     showgrid="false"
     inkscape:zoom="0.56922096"
     inkscape:cx="246.82858"
     inkscape:cy="246.82858"
     inkscape:window-width="1920"
     inkscape:window-height="1014"
     inkscape:window-x="0"
     inkscape:window-y="31"
     inkscape:window-maximized="1"
     inkscape:current-layer="svg15" />
  <defs
     id="defs6">
    <g
       id="g1" />
    <clipPath
       id="03731ff627">
      <path
         d="M 21.363281 27.773438 L 352.863281 27.773438 L 352.863281 359.273438 L 21.363281 359.273438 Z M 21.363281 27.773438 "
         clip-rule="nonzero"
         id="path1" />
    </clipPath>
    <clipPath
       id="7a5b1c4f67">
      <path
         d="M 187.113281 27.773438 C 95.570312 27.773438 21.363281 101.984375 21.363281 193.523438 C 21.363281 285.066406 95.570312 359.273438 187.113281 359.273438 C 278.652344 359.273438 352.863281 285.066406 352.863281 193.523438 C 352.863281 101.984375 278.652344 27.773438 187.113281 27.773438 Z M 187.113281 27.773438 "
         clip-rule="nonzero"
         id="path2" />
    </clipPath>
    <clipPath
       id="eda19659a6">
      <path
         d="M 37.5 43.910156 L 337.097656 43.910156 L 337.097656 343.511719 L 37.5 343.511719 Z M 37.5 43.910156 "
         clip-rule="nonzero"
         id="path3" />
    </clipPath>
    <clipPath
       id="d2d1dec796">
      <path
         d="M 187.300781 43.910156 C 104.566406 43.910156 37.5 110.980469 37.5 193.710938 C 37.5 276.445312 104.566406 343.511719 187.300781 343.511719 C 270.03125 343.511719 337.097656 276.445312 337.097656 193.710938 C 337.097656 110.980469 270.03125 43.910156 187.300781 43.910156 Z M 187.300781 43.910156 "
         clip-rule="nonzero"
         id="path4" />
    </clipPath>
    <clipPath
       id="db5e5a1997">
      <path
         d="M 37.5 43.910156 L 336.75 43.910156 L 336.75 343.160156 L 37.5 343.160156 Z M 37.5 43.910156 "
         clip-rule="nonzero"
         id="path5" />
    </clipPath>
    <clipPath
       id="f13251910b">
      <path
         d="M 187.125 43.910156 C 104.488281 43.910156 37.5 110.902344 37.5 193.535156 C 37.5 276.171875 104.488281 343.160156 187.125 343.160156 C 269.761719 343.160156 336.75 276.171875 336.75 193.535156 C 336.75 110.902344 269.761719 43.910156 187.125 43.910156 Z M 187.125 43.910156 "
         clip-rule="nonzero"
         id="path6" />
    </clipPath>
    <clipPath
       id="51a74099e4">
      <path
         d="M 106.83984,115.76563 H 241 V 154 H 106.83984 Z m 0,0"
         clip-rule="nonzero"
         id="path8" />
    </clipPath>
    <clipPath
       id="68c9ef00f0">
      <path
         d="m 134,234 h 134.08984 v 37.76562 H 134 Z m 0,0"
         clip-rule="nonzero"
         id="path7-3" />
    </clipPath>
    <clipPath
       id="8e4cd945ab">
      <path
         d="M 37.5,43.910156 H 336.75 V 343.16016 H 37.5 Z m 0,0"
         clip-rule="nonzero"
         id="path5-7" />
    </clipPath>
    <clipPath
       id="9a1786d5ad">
      <path
         d="m 187.125,43.910156 c -82.63672,0 -149.625,66.992184 -149.625,149.625004 0,82.63671 66.98828,149.625 149.625,149.625 82.63672,0 149.625,-66.98829 149.625,-149.625 0,-82.63282 -66.98828,-149.625004 -149.625,-149.625004 z m 0,0"
         clip-rule="nonzero"
         id="path6-5" />
    </clipPath>
    <clipPath
       id="0ea9ca12dc">
      <path
         d="m 112.5,117.75 h 150 v 139.5 h -150 z m 0,0"
         clip-rule="nonzero"
         id="path7-5" />
    </clipPath>
    <clipPath
       id="60cf564d70">
      <path
         d="m 112.30078,133.85156 h 162.75 V 231 h -162.75 z m 0,0"
         clip-rule="nonzero"
         id="path7-9" />
    </clipPath>
    <clipPath
       id="60cf564d70-2">
      <path
         d="m 112.30078,133.85156 h 162.75 V 231 h -162.75 z m 0,0"
         clip-rule="nonzero"
         id="path7-7" />
    </clipPath>
  </defs>
  <g
     clip-path="url(#03731ff627)"
     id="g8"
     style="stroke:#e0000e;stroke-opacity:1;fill:#ffffff;fill-opacity:1">
    <g
       clip-path="url(#7a5b1c4f67)"
       id="g7"
       style="stroke:#e0000e;stroke-opacity:1;fill:#ffffff;fill-opacity:1">
      <path
         stroke-linecap="butt"
         transform="matrix(0.749179, 0, 0, 0.749179, 21.362708, 27.774549)"
         fill="none"
         stroke-linejoin="miter"
         d="M 221.24295 -0.00148359 C 99.051901 -0.00148359 0.000765629 99.054866 0.000765629 221.240701 C 0.000765629 343.43175 99.051901 442.482885 221.24295 442.482885 C 343.428785 442.482885 442.485135 343.43175 442.485135 221.240701 C 442.485135 99.054866 343.428785 -0.00148359 221.24295 -0.00148359 Z M 221.24295 -0.00148359 "
         stroke="#000000"
         stroke-width="16"
         stroke-opacity="1"
         stroke-miterlimit="4"
         id="path7"
         style="stroke:#e0000e;stroke-opacity:1;fill:#ffffff;fill-opacity:1" />
    </g>
  </g>
  <g
     clip-path="url(#8e4cd945ab)"
     id="g14"
     transform="translate(0.29370329,0.24712617)"
     style="stroke:#e0000e;stroke-opacity:1;fill:#ffffff;fill-opacity:1">
    <g
       clip-path="url(#9a1786d5ad)"
       id="g13"
       style="stroke:#e0000e;stroke-opacity:1;fill:#ffffff;fill-opacity:1">
      <path
         stroke-linecap="butt"
         transform="matrix(0.749149,0,0,0.749149,37.500002,43.911912)"
         fill="none"
         stroke-linejoin="miter"
         d="M 199.72658,-0.00234301 C 89.419149,-0.00234301 -2.71975e-6,89.422023 -2.71975e-6,199.72424 -2.71975e-6,310.03167 89.419149,399.45082 199.72658,399.45082 c 110.30743,0 199.72658,-89.41915 199.72658,-199.72658 0,-110.302217 -89.41915,-199.72658301 -199.72658,-199.72658301 z m 0,0"
         stroke="#000000"
         stroke-width="8"
         stroke-opacity="1"
         stroke-miterlimit="4"
         id="path12"
         style="stroke:#e0000e;stroke-opacity:1;fill:#ffffff;fill-opacity:1" />
    </g>
  </g>
  <path
     fill="#ffffff"
     d="m 222.88672,233.65237 7.25391,-7.25781 c 0.23828,-0.23828 0.5,-0.44922 0.77734,-0.63672 0.28125,-0.1875 0.57812,-0.34375 0.88672,-0.47266 0.3125,-0.1289 0.63281,-0.22656 0.96484,-0.29297 0.32813,-0.0664 0.66406,-0.0977 1,-0.0977 0.33594,0 0.67188,0.0312 1,0.0977 0.33203,0.0664 0.65235,0.16407 0.96485,0.29297 0.30859,0.12891 0.60546,0.28516 0.88671,0.47266 0.27735,0.1875 0.53907,0.40234 0.77735,0.64062 l 29.9375,29.94141 c 0.23828,0.23828 0.44922,0.49609 0.63672,0.77734 0.1875,0.28125 0.34375,0.57422 0.47265,0.88672 0.12891,0.3125 0.22657,0.63282 0.29297,0.96094 0.0664,0.33203 0.0977,0.66406 0.0977,1.00391 0,0.33593 -0.0312,0.66797 -0.0977,1 -0.0664,0.32812 -0.16406,0.65234 -0.29297,0.96093 -0.1289,0.3125 -0.28515,0.60938 -0.47265,0.88672 -0.1875,0.28125 -0.39844,0.53907 -0.63672,0.77735 l -7.25781,7.25781 c -0.23829,0.23828 -0.4961,0.44922 -0.77735,0.63672 -0.27734,0.1875 -0.57422,0.34765 -0.88672,0.47656 -0.3125,0.12891 -0.63281,0.22266 -0.96093,0.28906 -0.33204,0.0664 -0.66407,0.10157 -1,0.10157 -0.33985,0 -0.67188,-0.0352 -1.00391,-0.10157 -0.32813,-0.0664 -0.64844,-0.16015 -0.96094,-0.28906 -0.3125,-0.12891 -0.60547,-0.28906 -0.88672,-0.47656 -0.28125,-0.1875 -0.53906,-0.39844 -0.77734,-0.63672 l -29.9375,-29.94141 c -0.23828,-0.23828 -0.44922,-0.5 -0.63672,-0.78125 -0.1875,-0.27734 -0.34766,-0.57422 -0.47656,-0.88672 -0.12891,-0.30859 -0.22656,-0.6289 -0.28906,-0.96093 -0.0664,-0.33203 -0.10157,-0.66407 -0.10157,-1 0,-0.33985 0.0352,-0.67188 0.10157,-1.00391 0.0625,-0.32812 0.16015,-0.64844 0.28906,-0.96094 0.1289,-0.3125 0.28906,-0.60547 0.47656,-0.88672 0.1875,-0.28125 0.39844,-0.53906 0.63672,-0.77734 z m 0,0"
     fill-opacity="1"
     fill-rule="nonzero"
     id="path13"
     style="fill:#e0000e;fill-opacity:1" />
  <path
     fill="#ffffff"
     d="m 205.94531,177.94534 -22.07812,20.85547 c -0.46485,0.4375 -0.99219,0.77734 -1.58203,1.01953 -0.59375,0.24219 -1.20703,0.36719 -1.84375,0.37891 -0.63672,0.0156 -1.25782,-0.0898 -1.85547,-0.3086 -0.60156,-0.21875 -1.14063,-0.53906 -1.6211,-0.95703 l -16.80468,-14.70703 -11.07422,11.73047 c 0.8789,1.41015 1.86328,2.73828 2.95703,3.99219 1.09375,1.25 2.28125,2.40234 3.5625,3.46093 1.27734,1.0586 2.63672,2.00782 4.07031,2.84766 1.4336,0.83594 2.92578,1.55469 4.47656,2.15234 1.55079,0.59766 3.13672,1.06641 4.76172,1.40625 1.62891,0.33985 3.26953,0.54688 4.92969,0.6211 1.66016,0.0742 3.3125,0.0117 4.96484,-0.17969 1.64844,-0.19531 3.27344,-0.51953 4.86719,-0.97656 1.59766,-0.45703 3.14844,-1.03907 4.65235,-1.75 1.5,-0.70703 2.9375,-1.53125 4.30859,-2.46875 1.36719,-0.94141 2.65234,-1.98438 3.85156,-3.13282 1.20313,-1.14843 2.30078,-2.38671 3.30078,-3.71484 1,-1.32422 1.88672,-2.72266 2.66016,-4.19531 0.77734,-1.46875 1.42578,-2.99219 1.95312,-4.56641 0.52735,-1.57812 0.92579,-3.18359 1.19141,-4.82422 0.26563,-1.64062 0.39844,-3.28906 0.39844,-4.94922 0,-0.58203 -0.0156,-1.16015 -0.0469,-1.73437 z m 0,0"
     fill-opacity="1"
     fill-rule="nonzero"
     id="path14"
     style="fill:#e0000e;fill-opacity:1" />
  <path
     fill="#ffffff"
     d="m 163.20313,173.25003 17.00781,14.88672 22.85156,-21.58204 c -0.39453,-0.83984 -0.82812,-1.65625 -1.29687,-2.45703 -0.46875,-0.79687 -0.97266,-1.57422 -1.51172,-2.32812 -0.53907,-0.75 -1.11328,-1.48047 -1.71875,-2.17969 -0.60157,-0.70312 -1.23828,-1.375 -1.90235,-2.01953 -0.66797,-0.64453 -1.35937,-1.25781 -2.08203,-1.83984 -0.71875,-0.58204 -1.46484,-1.12891 -2.23437,-1.64454 -0.77344,-0.51171 -1.5625,-0.99218 -2.37891,-1.43359 -0.8125,-0.44531 -1.64453,-0.84766 -2.49219,-1.21875 -0.85156,-0.36719 -1.71484,-0.69531 -2.59765,-0.98437 -0.87891,-0.28907 -1.76953,-0.53907 -2.67188,-0.75 -0.90234,-0.20704 -1.8125,-0.375 -2.73047,-0.50391 -0.91797,-0.125 -1.83593,-0.21094 -2.76172,-0.25781 -0.92578,-0.043 -1.85156,-0.043 -2.77734,-0.004 -0.92578,0.0391 -1.84766,0.12109 -2.76562,0.24219 -0.91797,0.12109 -1.82813,0.28515 -2.73047,0.49219 -0.90235,0.20312 -1.79688,0.44921 -2.67578,0.73437 -0.88282,0.28516 -1.75,0.60938 -2.60157,0.97266 -0.85156,0.36718 -1.68359,0.76562 -2.5,1.20703 -0.8164,0.4375 -1.60937,0.91406 -2.38281,1.42187 -0.77344,0.51172 -1.52344,1.05469 -2.24609,1.63282 -0.72266,0.57812 -1.41797,1.1914 -2.08594,1.83203 -0.67188,0.64062 -1.30859,1.30859 -1.91797,2.00781 -0.60547,0.69922 -1.18359,1.42187 -1.72656,2.17578 -0.54297,0.75 -1.05078,1.52344 -1.52344,2.32031 -0.47266,0.79688 -0.91016,1.60938 -1.30859,2.44532 -0.39844,0.83593 -0.75782,1.6914 -1.08203,2.55859 -0.32422,0.86719 -0.60547,1.75 -0.84766,2.64453 -0.24219,0.89063 -0.44531,1.79688 -0.60547,2.70703 -0.16406,0.91406 -0.28125,1.83203 -0.36328,2.75391 -0.0781,0.92187 -0.11328,1.84765 -0.10938,2.77344 0.004,0.92578 0.0508,1.85156 0.14063,2.77343 0.0859,0.92188 0.21875,1.83594 0.38672,2.75 l 11.13281,-11.78906 c 0.22656,-0.23828 0.47266,-0.45703 0.73828,-0.64844 0.26953,-0.1914 0.55078,-0.35547 0.84766,-0.49218 0.30078,-0.13672 0.60937,-0.24219 0.92969,-0.32032 0.3164,-0.0781 0.64062,-0.125 0.96875,-0.14062 0.32812,-0.0156 0.65625,0 0.98046,0.0469 0.32813,0.0469 0.64454,0.125 0.95313,0.23438 0.3125,0.10547 0.60937,0.24219 0.89453,0.41015 0.28125,0.16407 0.54688,0.35547 0.79688,0.57032 z m 0,0"
     fill-opacity="1"
     fill-rule="nonzero"
     id="path15"
     style="fill:#e0000e;fill-opacity:1" />
  <g
     clip-path="url(#60cf564d70-2)"
     id="g16"
     transform="translate(0.19921865,-0.3671616)"
     style="fill:#e0000e;fill-opacity:1">
    <path
       fill="#ffffff"
       d="m 269.91797,133.86719 h -25.64844 v 10.26172 h 13.26563 l -15.83204,15.83203 -11.76171,-11.76172 c -0.23438,-0.23438 -0.48829,-0.44531 -0.76172,-0.62891 -0.27344,-0.18359 -0.5625,-0.33984 -0.86719,-0.46875 -0.30469,-0.1289 -0.62109,-0.22656 -0.94531,-0.29687 -0.32032,-0.0664 -0.64844,-0.10547 -0.98047,-0.10938 -0.32813,-0.004 -0.65625,0.0234 -0.98438,0.082 -0.32422,0.0586 -0.64062,0.14844 -0.94922,0.26953 -0.30859,0.11719 -0.60156,0.26563 -0.88281,0.44141 -0.27734,0.17969 -0.53906,0.37891 -0.77734,0.60938 l -8.375,7.90625 c -1.02344,-1.67969 -2.15235,-3.29297 -3.38672,-4.82813 -1.23047,-1.53906 -2.55859,-2.99219 -3.97656,-4.35937 -1.41797,-1.3711 -2.91797,-2.64063 -4.4961,-3.81641 -1.58203,-1.17578 -3.23047,-2.25 -4.94922,-3.21484 -1.71875,-0.96485 -3.49218,-1.81641 -5.3164,-2.55469 -1.82813,-0.73828 -3.69531,-1.35547 -5.60156,-1.85547 -1.90625,-0.5 -3.83594,-0.875 -5.78907,-1.125 -1.95703,-0.25391 -3.91797,-0.37891 -5.88672,-0.38281 -25.46093,0 -46.17187,20.71484 -46.17187,46.17968 -0.008,6.42579 1.28125,12.58204 3.85937,18.46875 l -20.41406,21.61719 7.46094,7.04688 18.34766,-19.4336 c 0.92578,1.23438 1.90625,2.41797 2.94921,3.55469 1.04297,1.13672 2.14063,2.21484 3.28907,3.24219 1.15234,1.02344 2.35156,1.98828 3.59765,2.89453 1.25,0.90625 2.53907,1.74609 3.8711,2.51953 1.33203,0.77734 2.69922,1.48438 4.10156,2.12109 1.40234,0.64063 2.83203,1.20704 4.29297,1.70313 1.46094,0.49219 2.9414,0.91406 4.4414,1.26172 1.5,0.34375 3.01563,0.61719 4.54688,0.80859 1.52734,0.19531 3.0625,0.3125 4.60156,0.35547 1.54297,0.0391 3.08203,0.004 4.61719,-0.11328 1.53906,-0.11328 3.06641,-0.30078 4.58203,-0.57031 1.51953,-0.26563 3.01953,-0.60938 4.50391,-1.02735 1.48437,-0.41406 2.9414,-0.90625 4.375,-1.46875 1.43359,-0.5664 2.83593,-1.19922 4.20703,-1.90234 1.37109,-0.70703 2.70312,-1.47656 3.99609,-2.31641 1.29297,-0.83593 2.54297,-1.73828 3.7461,-2.70312 l 14.78125,14.78515 c 0.14843,-0.17187 0.30078,-0.33984 0.46484,-0.5 l 6.76953,-6.77343 -14.76172,-14.76563 c 1.1875,-1.48437 2.28125,-3.03515 3.27735,-4.65234 0.99609,-1.6211 1.88671,-3.29297 2.67578,-5.02344 0.78906,-1.72656 1.46875,-3.5 2.03906,-5.3125 0.57031,-1.8125 1.02344,-3.65234 1.36719,-5.52344 0.34375,-1.87109 0.57031,-3.7539 0.67968,-5.64843 0.10938,-1.89844 0.10157,-3.79688 -0.0234,-5.69141 -0.125,-1.89844 -0.36719,-3.77734 -0.72657,-5.64453 -0.35546,-1.86719 -0.82812,-3.70313 -1.41406,-5.51172 l 7.26563,-6.86328 11.86718,11.86328 c 0.23829,0.23828 0.4961,0.45312 0.77735,0.64062 0.27734,0.1875 0.57422,0.34375 0.88672,0.47266 0.30859,0.12891 0.63281,0.22656 0.96093,0.29297 0.33204,0.0664 0.66407,0.0977 1,0.0977 0.33985,0 0.67188,-0.0312 1.00391,-0.0977 0.32813,-0.0664 0.64844,-0.16406 0.96094,-0.29297 0.3125,-0.12891 0.60547,-0.28516 0.88672,-0.47266 0.28125,-0.1875 0.53906,-0.40234 0.77734,-0.64062 l 19.45703,-19.45703 v 13.26562 h 10.26172 V 139 c 0,-0.33594 -0.0352,-0.67188 -0.10156,-1 -0.0625,-0.33203 -0.16016,-0.65234 -0.28906,-0.96484 -0.12891,-0.3125 -0.28907,-0.60547 -0.47657,-0.88672 -0.1875,-0.28125 -0.39843,-0.53907 -0.63672,-0.77735 -0.23828,-0.23828 -0.49609,-0.44922 -0.77734,-0.63672 -0.28125,-0.1875 -0.57422,-0.34765 -0.88672,-0.47656 -0.3125,-0.1289 -0.63281,-0.22656 -0.96094,-0.28906 -0.33203,-0.0664 -0.66406,-0.10156 -1.0039,-0.10156 z m -130.8125,46.17968 c 0,-1.17968 0.0547,-2.35156 0.17187,-3.52343 0.11328,-1.16797 0.28907,-2.33203 0.51563,-3.48438 0.23047,-1.15234 0.51562,-2.29297 0.85547,-3.41797 0.34375,-1.1289 0.73828,-2.23437 1.1875,-3.32031 0.45312,-1.08594 0.95312,-2.14844 1.50781,-3.1875 0.55469,-1.03516 1.16016,-2.04297 1.8125,-3.01953 0.65234,-0.98047 1.35156,-1.92188 2.09766,-2.83203 0.74609,-0.91016 1.53515,-1.78125 2.36718,-2.61328 0.83203,-0.83203 1.70313,-1.6211 2.61328,-2.36719 0.90625,-0.74609 1.85157,-1.44531 2.82813,-2.09766 0.98047,-0.65625 1.98828,-1.25781 3.02344,-1.8125 1.03906,-0.55468 2.09765,-1.05859 3.1875,-1.50781 1.08593,-0.44922 2.1914,-0.84375 3.3164,-1.1875 1.125,-0.33984 2.26563,-0.625 3.41797,-0.85547 1.15235,-0.23047 2.31641,-0.40234 3.48828,-0.51562 1.16797,-0.11719 2.34375,-0.17578 3.51953,-0.17578 1.17579,0 2.34766,0.0586 3.51954,0.17578 1.16796,0.11328 2.33203,0.28515 3.48437,0.51562 1.15234,0.23047 2.29297,0.51563 3.41797,0.85547 1.125,0.34375 2.23047,0.73828 3.32031,1.1875 1.08594,0.44922 2.14844,0.95313 3.1836,1.50781 1.03906,0.55469 2.04687,1.15625 3.02343,1.8125 0.97657,0.65235 1.92188,1.35157 2.83203,2.09766 0.90625,0.74609 1.77735,1.53516 2.60938,2.36719 0.83203,0.83203 1.62109,1.70312 2.36719,2.61328 0.74609,0.91015 1.44531,1.85156 2.09765,2.82812 0.65625,0.98047 1.25782,1.98828 1.8125,3.02344 0.55469,1.03906 1.0586,2.10156 1.50782,3.1875 0.44921,1.08594 0.84375,2.19141 1.1875,3.32031 0.33984,1.125 0.625,2.26563 0.85546,3.41797 0.23047,1.15235 0.40235,2.31641 0.51563,3.48438 0.11719,1.17187 0.17578,2.34375 0.17578,3.52343 0,1.17579 -0.0586,2.34766 -0.17578,3.51954 -0.11328,1.16796 -0.28516,2.33203 -0.51563,3.48437 -0.23046,1.15625 -0.51562,2.29297 -0.85546,3.42188 -0.34375,1.125 -0.73829,2.23046 -1.1875,3.3164 -0.44922,1.08594 -0.95313,2.14844 -1.50782,3.1875 -0.55468,1.03516 -1.15625,2.04297 -1.8125,3.02344 -0.65234,0.97656 -1.35156,1.92187 -2.09765,2.82812 -0.7461,0.91016 -1.53516,1.78125 -2.36719,2.61329 -0.83203,0.83203 -1.70313,1.62109 -2.60938,2.36718 -0.91015,0.7461 -1.85546,1.44532 -2.83203,2.09766 -0.97656,0.65625 -1.98437,1.25781 -3.02343,1.8125 -1.03516,0.55469 -2.09766,1.05859 -3.1836,1.50781 -1.08984,0.44922 -2.19531,0.84766 -3.32031,1.1875 -1.125,0.33985 -2.26563,0.625 -3.41797,0.85547 -1.15234,0.23047 -2.31641,0.40234 -3.48437,0.51953 -1.17188,0.11328 -2.34375,0.17188 -3.51954,0.17188 -1.17578,0 -2.35156,-0.0586 -3.51953,-0.17578 -1.17187,-0.11719 -2.33203,-0.28907 -3.48437,-0.51954 -1.15235,-0.23046 -2.29297,-0.51953 -3.41797,-0.85937 -1.125,-0.34375 -2.23047,-0.73828 -3.31641,-1.19141 -1.08593,-0.44922 -2.14453,-0.95312 -3.18359,-1.50781 -1.03516,-0.55469 -2.04297,-1.15625 -3.01953,-1.8125 -0.97656,-0.65234 -1.92188,-1.35156 -2.83203,-2.09766 -0.90625,-0.74609 -1.77735,-1.53515 -2.60938,-2.36718 -0.83203,-0.83203 -1.61719,-1.70313 -2.36328,-2.60938 -0.74609,-0.91015 -1.44922,-1.85547 -2.10156,-2.83203 -0.65235,-0.97656 -1.25781,-1.98437 -1.8125,-3.01953 -0.55469,-1.03906 -1.05469,-2.09766 -1.50781,-3.1875 -0.44922,-1.08594 -0.84766,-2.19141 -1.1875,-3.31641 -0.34375,-1.125 -0.62891,-2.26172 -0.85938,-3.41406 -0.23047,-1.15625 -0.40234,-2.31641 -0.51953,-3.48828 -0.11719,-1.16797 -0.17578,-2.33984 -0.17578,-3.51563 z m 0,0"
       fill-opacity="1"
       fill-rule="nonzero"
       id="path16"
       style="fill:#e0000e;fill-opacity:1" />
  </g>
</svg>
