<?xml version="1.0" encoding="UTF-8" standalone="no"?>
<svg
   width="500"
   zoomAndPan="magnify"
   viewBox="0 0 375 374.999991"
   height="500"
   preserveAspectRatio="xMidYMid meet"
   version="1.0"
   id="svg15"
   sodipodi:docname="hrm-red-1.svg"
   inkscape:version="1.3 (0e150ed6c4, 2023-07-21)"
   xmlns:inkscape="http://www.inkscape.org/namespaces/inkscape"
   xmlns:sodipodi="http://sodipodi.sourceforge.net/DTD/sodipodi-0.dtd"
   xmlns="http://www.w3.org/2000/svg"
   xmlns:svg="http://www.w3.org/2000/svg">
  <sodipodi:namedview
     id="namedview15"
     pagecolor="#ffffff"
     bordercolor="#000000"
     borderopacity="0.25"
     inkscape:showpageshadow="2"
     inkscape:pageopacity="0.0"
     inkscape:pagecheckerboard="0"
     inkscape:deskcolor="#d1d1d1"
     showgrid="false"
     inkscape:zoom="0.56922096"
     inkscape:cx="248.58536"
     inkscape:cy="246.82858"
     inkscape:window-width="1920"
     inkscape:window-height="1014"
     inkscape:window-x="0"
     inkscape:window-y="31"
     inkscape:window-maximized="1"
     inkscape:current-layer="svg15" />
  <defs
     id="defs6">
    <g
       id="g1" />
    <clipPath
       id="03731ff627">
      <path
         d="M 21.363281 27.773438 L 352.863281 27.773438 L 352.863281 359.273438 L 21.363281 359.273438 Z M 21.363281 27.773438 "
         clip-rule="nonzero"
         id="path1" />
    </clipPath>
    <clipPath
       id="7a5b1c4f67">
      <path
         d="M 187.113281 27.773438 C 95.570312 27.773438 21.363281 101.984375 21.363281 193.523438 C 21.363281 285.066406 95.570312 359.273438 187.113281 359.273438 C 278.652344 359.273438 352.863281 285.066406 352.863281 193.523438 C 352.863281 101.984375 278.652344 27.773438 187.113281 27.773438 Z M 187.113281 27.773438 "
         clip-rule="nonzero"
         id="path2" />
    </clipPath>
    <clipPath
       id="eda19659a6">
      <path
         d="M 37.5 43.910156 L 337.097656 43.910156 L 337.097656 343.511719 L 37.5 343.511719 Z M 37.5 43.910156 "
         clip-rule="nonzero"
         id="path3" />
    </clipPath>
    <clipPath
       id="d2d1dec796">
      <path
         d="M 187.300781 43.910156 C 104.566406 43.910156 37.5 110.980469 37.5 193.710938 C 37.5 276.445312 104.566406 343.511719 187.300781 343.511719 C 270.03125 343.511719 337.097656 276.445312 337.097656 193.710938 C 337.097656 110.980469 270.03125 43.910156 187.300781 43.910156 Z M 187.300781 43.910156 "
         clip-rule="nonzero"
         id="path4" />
    </clipPath>
    <clipPath
       id="db5e5a1997">
      <path
         d="M 37.5 43.910156 L 336.75 43.910156 L 336.75 343.160156 L 37.5 343.160156 Z M 37.5 43.910156 "
         clip-rule="nonzero"
         id="path5" />
    </clipPath>
    <clipPath
       id="f13251910b">
      <path
         d="M 187.125 43.910156 C 104.488281 43.910156 37.5 110.902344 37.5 193.535156 C 37.5 276.171875 104.488281 343.160156 187.125 343.160156 C 269.761719 343.160156 336.75 276.171875 336.75 193.535156 C 336.75 110.902344 269.761719 43.910156 187.125 43.910156 Z M 187.125 43.910156 "
         clip-rule="nonzero"
         id="path6" />
    </clipPath>
    <clipPath
       id="51a74099e4">
      <path
         d="M 106.83984,115.76563 H 241 V 154 H 106.83984 Z m 0,0"
         clip-rule="nonzero"
         id="path8" />
    </clipPath>
    <clipPath
       id="68c9ef00f0">
      <path
         d="m 134,234 h 134.08984 v 37.76562 H 134 Z m 0,0"
         clip-rule="nonzero"
         id="path7-3" />
    </clipPath>
    <clipPath
       id="8e4cd945ab">
      <path
         d="M 37.5,43.910156 H 336.75 V 343.16016 H 37.5 Z m 0,0"
         clip-rule="nonzero"
         id="path5-7" />
    </clipPath>
    <clipPath
       id="9a1786d5ad">
      <path
         d="m 187.125,43.910156 c -82.63672,0 -149.625,66.992184 -149.625,149.625004 0,82.63671 66.98828,149.625 149.625,149.625 82.63672,0 149.625,-66.98829 149.625,-149.625 0,-82.63282 -66.98828,-149.625004 -149.625,-149.625004 z m 0,0"
         clip-rule="nonzero"
         id="path6-5" />
    </clipPath>
  </defs>
  <g
     clip-path="url(#03731ff627)"
     id="g8"
     style="stroke:#e0000e;stroke-opacity:1;fill:#ffffff;fill-opacity:1">
    <g
       clip-path="url(#7a5b1c4f67)"
       id="g7"
       style="stroke:#e0000e;stroke-opacity:1;fill:#ffffff;fill-opacity:1">
      <path
         stroke-linecap="butt"
         transform="matrix(0.749179, 0, 0, 0.749179, 21.362708, 27.774549)"
         fill="none"
         stroke-linejoin="miter"
         d="M 221.24295 -0.00148359 C 99.051901 -0.00148359 0.000765629 99.054866 0.000765629 221.240701 C 0.000765629 343.43175 99.051901 442.482885 221.24295 442.482885 C 343.428785 442.482885 442.485135 343.43175 442.485135 221.240701 C 442.485135 99.054866 343.428785 -0.00148359 221.24295 -0.00148359 Z M 221.24295 -0.00148359 "
         stroke="#000000"
         stroke-width="16"
         stroke-opacity="1"
         stroke-miterlimit="4"
         id="path7"
         style="stroke:#e0000e;stroke-opacity:1;fill:#ffffff;fill-opacity:1" />
    </g>
  </g>
  <g
     clip-path="url(#8e4cd945ab)"
     id="g14"
     transform="translate(0.29370329,0.24712617)"
     style="stroke:#e0000e;stroke-opacity:1;fill:#ffffff;fill-opacity:1">
    <g
       clip-path="url(#9a1786d5ad)"
       id="g13"
       style="stroke:#e0000e;stroke-opacity:1;fill:#ffffff;fill-opacity:1">
      <path
         stroke-linecap="butt"
         transform="matrix(0.749149,0,0,0.749149,37.500002,43.911912)"
         fill="none"
         stroke-linejoin="miter"
         d="M 199.72658,-0.00234301 C 89.419149,-0.00234301 -2.71975e-6,89.422023 -2.71975e-6,199.72424 -2.71975e-6,310.03167 89.419149,399.45082 199.72658,399.45082 c 110.30743,0 199.72658,-89.41915 199.72658,-199.72658 0,-110.302217 -89.41915,-199.72658301 -199.72658,-199.72658301 z m 0,0"
         stroke="#000000"
         stroke-width="8"
         stroke-opacity="1"
         stroke-miterlimit="4"
         id="path12"
         style="stroke:#e0000e;stroke-opacity:1;fill:#ffffff;fill-opacity:1" />
    </g>
  </g>
  <path
     fill="#ffffff"
     d="m 219.26172,219.21875 -29.23047,-52.53906 c -1.92187,-3.45312 -6.89062,-3.45312 -8.80859,0 l -29.23047,52.53906 c -1.86719,3.35547 0.5625,7.47657 4.40625,7.47657 h 58.45703 c 3.83985,0 6.26953,-4.1211 4.40625,-7.47657 z m -33.63672,-0.0742 c -2.78125,0 -5.03906,-2.25 -5.03906,-5.03125 0,-2.77735 2.25781,-5.03125 5.03906,-5.03125 2.78516,0 5.03907,2.2539 5.03907,5.03125 0,2.78125 -2.25391,5.03125 -5.03907,5.03125 z m 5.03907,-20.12891 c 0,2.78125 -2.25391,5.03516 -5.03907,5.03516 -2.78125,0 -5.03906,-2.25391 -5.03906,-5.03516 v -12.57813 c 0,-2.78125 2.25781,-5.03125 5.03906,-5.03125 2.78516,0 5.03907,2.25 5.03907,5.03125 z m 0,0"
     fill-opacity="1"
     fill-rule="nonzero"
     id="path14"
     style="fill:#e0000e;fill-opacity:1" />
  <path
     fill="#ffffff"
     d="m 237.75391,236.10157 -4.00781,-3.05078 c 0.92968,-1.22266 1.82422,-2.48829 2.66015,-3.77735 l 4.23047,2.73828 c -0.90625,1.39453 -1.875,2.76953 -2.88281,4.08985 z m 5.44531,-8.38672 -4.42969,-2.41016 c 0.73047,-1.33594 1.42579,-2.72656 2.05469,-4.13281 l 4.59766,2.0625 c -0.6836,1.52344 -1.4336,3.02734 -2.22266,4.48047 z m 4.09766,-9.1211 -4.74219,-1.69921 c 0.51953,-1.44532 0.98828,-2.92188 1.39453,-4.39844 l 4.85938,1.33203 c -0.44141,1.60156 -0.94922,3.20703 -1.51172,4.76562 z m 2.64844,-9.63671 -4.94922,-0.95313 c 0.29297,-1.50781 0.52734,-3.03906 0.70312,-4.55859 l 5.00781,0.57031 c -0.1914,1.64844 -0.44531,3.30859 -0.76171,4.94141 z m 1.14062,-9.92579 -5.03516,-0.1914 c 0.0273,-0.77735 0.043,-1.5586 0.043,-2.33985 0,-0.76171 -0.0156,-1.52343 -0.043,-2.28515 l 5.03907,-0.1836 c 0.0273,0.81641 0.043,1.64063 0.043,2.46875 0,0.84766 -0.0156,1.6875 -0.0469,2.53125 z m -5.38281,-9.41796 c -0.17188,-1.52344 -0.40625,-3.0625 -0.69531,-4.57032 l 4.94531,-0.94922 c 0.3164,1.63672 0.57031,3.29688 0.75781,4.94922 l -5.00391,0.57032 z m -1.74219,-9.0625 c -0.40625,-1.48438 -0.875,-2.96875 -1.39062,-4.40235 l 4.74218,-1.69922 c 0.5586,1.5586 1.06641,3.16016 1.50782,4.77344 z m -3.12109,-8.6836 c -0.6211,-1.39062 -1.3125,-2.78125 -2.05078,-4.13672 l 4.42968,-2.40234 c 0.80078,1.46875 1.54688,2.97656 2.22266,4.48047 z m -4.41016,-8.10547 c -0.82812,-1.27734 -1.72266,-2.55078 -2.66016,-3.77734 l 4.01172,-3.04688 c 1.01563,1.33204 1.98438,2.70704 2.87891,4.09375 z m 0,0"
     fill-opacity="1"
     fill-rule="nonzero"
     id="path15"
     style="fill:#e0000e;fill-opacity:1" />
  <path
     fill="#ffffff"
     d="m 133.46875,236.06641 c -1.01172,-1.33203 -1.98047,-2.70703 -2.8789,-4.09375 l 4.23437,-2.73437 c 0.82813,1.28125 1.72266,2.55078 2.65625,3.78125 z m -5.4375,-8.39062 c -0.79687,-1.46875 -1.54297,-2.98047 -2.21875,-4.48438 l 4.59766,-2.05859 c 0.625,1.39062 1.3125,2.78125 2.05078,4.14062 z m -4.09375,-9.1211 c -0.55859,-1.55859 -1.0664,-3.16406 -1.5039,-4.77344 l 4.85937,-1.32812 c 0.40625,1.48437 0.875,2.96484 1.39063,4.40234 z m -2.64062,-9.64844 c -0.3125,-1.63281 -0.57031,-3.29687 -0.75781,-4.94531 l 5.00781,-0.57031 c 0.17187,1.51953 0.41016,3.05859 0.69922,4.56641 z m -1.13281,-9.93359 c -0.0312,-0.81641 -0.0469,-1.64453 -0.0469,-2.47266 0,-0.84375 0.0156,-1.6875 0.0469,-2.52734 l 5.03906,0.19141 c -0.0312,0.77734 -0.0469,1.55468 -0.0469,2.33593 0,0.76563 0.0156,1.52735 0.043,2.28516 z m 5.39062,-9.41406 -5.00781,-0.57031 c 0.1875,-1.64844 0.44531,-3.3125 0.76172,-4.94141 L 126.25391,185 c -0.28906,1.50391 -0.52734,3.03907 -0.69922,4.5586 z m 1.75,-9.05078 -4.85937,-1.33203 c 0.4414,-1.60157 0.94922,-3.20704 1.51172,-4.76563 l 4.73828,1.69922 c -0.51563,1.44141 -0.98438,2.92187 -1.39063,4.39844 z m 3.12109,-8.67578 -4.59374,-2.0625 c 0.68359,-1.52344 1.42968,-3.02735 2.22265,-4.48047 l 4.42578,2.40625 c -0.73047,1.33984 -1.42187,2.73047 -2.05469,4.13672 z m 4.41797,-8.10547 -4.22656,-2.73438 c 0.90625,-1.39453 1.875,-2.76953 2.88281,-4.08984 l 4.00782,3.05078 c -0.92969,1.21875 -1.82813,2.48828 -2.66407,3.77344 z m 0,0"
     fill-opacity="1"
     fill-rule="nonzero"
     id="path16"
     style="fill:#e0000e;fill-opacity:1" />
  <g
     clip-path="url(#68c9ef00f0)"
     id="g17"
     transform="translate(-1.8398413,2.7343786)"
     style="fill:#e0000e;fill-opacity:1">
    <path
       fill="#ffffff"
       d="m 240.375,244.08984 -10.07813,-10.0664 h -34.01171 c -4.8711,0 -8.82032,3.94531 -8.82032,8.80859 0,4.44141 3.30469,8.07813 7.58594,8.67969 0.0664,-1.32813 1.14453,-2.39063 2.49219,-2.39063 h 20.15625 c 1.39062,0 2.51953,1.125 2.51953,2.51563 0,1.39062 -1.12891,2.51562 -2.51953,2.51562 h -20.15625 c -1.39063,0 -2.51953,-1.125 -2.51953,-2.51562 h -17.63672 l -31.16797,-14.36719 c -1.04297,-0.48047 -2.17969,-0.73047 -3.33203,-0.73047 h -0.38281 c -4.39063,0 -7.94922,3.55469 -7.94922,7.94141 0,2.86719 1.55078,5.51172 4.05468,6.91797 l 36.25782,20.36718 h 93.22265 v -27.67578 z m 0,0"
       fill-opacity="1"
       fill-rule="nonzero"
       id="path17"
       style="fill:#e0000e;fill-opacity:1" />
  </g>
  <g
     clip-path="url(#51a74099e4)"
     id="g18"
     transform="translate(-1.8398413,2.7343786)"
     style="fill:#e0000e;fill-opacity:1">
    <path
       fill="#ffffff"
       d="M 236.32422,136.13672 200.0625,115.76563 h -93.22266 v 27.67968 h 27.71485 l 10.07812,10.0625 h 34.01563 c 4.87109,0 8.8164,-3.9414 8.8164,-8.80469 0,-4.4414 -3.30078,-8.07812 -7.58203,-8.68359 -0.0703,1.32813 -1.14844,2.39453 -2.49609,2.39453 h -20.15625 c -1.39063,0 -2.51953,-1.1289 -2.51953,-2.51953 0,-1.38672 1.1289,-2.51562 2.51953,-2.51562 h 20.15625 c 1.39062,0 2.51953,1.1289 2.51953,2.51562 h 17.63672 l 31.16797,14.36719 c 1.04687,0.48047 2.18359,0.73047 3.33203,0.73047 h 0.38281 c 4.39063,0 7.94922,-3.55469 7.94922,-7.9375 0,-2.86719 -1.54688,-5.51172 -4.05078,-6.91797 z m 0,0"
       fill-opacity="1"
       fill-rule="nonzero"
       id="path18"
       style="fill:#e0000e;fill-opacity:1" />
  </g>
</svg>
