<?xml version="1.0" encoding="UTF-8" standalone="no"?>
<svg
   width="500"
   zoomAndPan="magnify"
   viewBox="0 0 375 374.999991"
   height="500"
   preserveAspectRatio="xMidYMid meet"
   version="1.0"
   id="svg25"
   sodipodi:docname="hrm-red.svg"
   inkscape:version="1.3 (0e150ed6c4, 2023-07-21)"
   xmlns:inkscape="http://www.inkscape.org/namespaces/inkscape"
   xmlns:sodipodi="http://sodipodi.sourceforge.net/DTD/sodipodi-0.dtd"
   xmlns="http://www.w3.org/2000/svg"
   xmlns:svg="http://www.w3.org/2000/svg">
  <sodipodi:namedview
     id="namedview25"
     pagecolor="#ffffff"
     bordercolor="#000000"
     borderopacity="0.25"
     inkscape:showpageshadow="2"
     inkscape:pageopacity="0.0"
     inkscape:pagecheckerboard="0"
     inkscape:deskcolor="#d1d1d1"
     inkscape:zoom="1.61"
     inkscape:cx="250"
     inkscape:cy="250"
     inkscape:window-width="1920"
     inkscape:window-height="1014"
     inkscape:window-x="0"
     inkscape:window-y="31"
     inkscape:window-maximized="1"
     inkscape:current-layer="svg25" />
  <defs
     id="defs10">
    <clipPath
       id="3de39fb6c7">
      <path
         d="M 21.363281 27.773438 L 352.863281 27.773438 L 352.863281 359.273438 L 21.363281 359.273438 Z M 21.363281 27.773438 "
         clip-rule="nonzero"
         id="path1" />
    </clipPath>
    <clipPath
       id="8b4512f0a9">
      <path
         d="M 187.113281 27.773438 C 95.570312 27.773438 21.363281 101.984375 21.363281 193.523438 C 21.363281 285.066406 95.570312 359.273438 187.113281 359.273438 C 278.652344 359.273438 352.863281 285.066406 352.863281 193.523438 C 352.863281 101.984375 278.652344 27.773438 187.113281 27.773438 Z M 187.113281 27.773438 "
         clip-rule="nonzero"
         id="path2" />
    </clipPath>
    <clipPath
       id="daef97ad0f">
      <path
         d="M 37.5 43.910156 L 337.097656 43.910156 L 337.097656 343.511719 L 37.5 343.511719 Z M 37.5 43.910156 "
         clip-rule="nonzero"
         id="path3" />
    </clipPath>
    <clipPath
       id="314a362df6">
      <path
         d="M 187.300781 43.910156 C 104.566406 43.910156 37.5 110.980469 37.5 193.710938 C 37.5 276.445312 104.566406 343.511719 187.300781 343.511719 C 270.03125 343.511719 337.097656 276.445312 337.097656 193.710938 C 337.097656 110.980469 270.03125 43.910156 187.300781 43.910156 Z M 187.300781 43.910156 "
         clip-rule="nonzero"
         id="path4" />
    </clipPath>
    <clipPath
       id="c11c0befe9">
      <path
         d="M 37.5 43.910156 L 336.75 43.910156 L 336.75 343.160156 L 37.5 343.160156 Z M 37.5 43.910156 "
         clip-rule="nonzero"
         id="path5" />
    </clipPath>
    <clipPath
       id="af1c00ecc3">
      <path
         d="M 187.125 43.910156 C 104.488281 43.910156 37.5 110.902344 37.5 193.535156 C 37.5 276.171875 104.488281 343.160156 187.125 343.160156 C 269.761719 343.160156 336.75 276.171875 336.75 193.535156 C 336.75 110.902344 269.761719 43.910156 187.125 43.910156 Z M 187.125 43.910156 "
         clip-rule="nonzero"
         id="path6" />
    </clipPath>
    <clipPath
       id="0ef9d2c596">
      <path
         d="M 96.230469 186.546875 L 209.769531 186.546875 L 209.769531 271.167969 L 96.230469 271.167969 Z M 96.230469 186.546875 "
         clip-rule="nonzero"
         id="path7" />
    </clipPath>
    <clipPath
       id="92c903a09c">
      <path
         d="M 242.332031 235.949219 L 278.480469 235.949219 L 278.480469 271 L 242.332031 271 Z M 242.332031 235.949219 "
         clip-rule="nonzero"
         id="path8" />
    </clipPath>
    <clipPath
       id="338934498b">
      <path
         d="M 212.828125 249.121094 L 242.222656 249.121094 L 242.222656 271.167969 L 212.828125 271.167969 Z M 212.828125 249.121094 "
         clip-rule="nonzero"
         id="path9" />
    </clipPath>
    <clipPath
       id="35584ff7a0">
      <path
         d="M 136 103.945312 L 202 103.945312 L 202 138 L 136 138 Z M 136 103.945312 "
         clip-rule="nonzero"
         id="path10" />
    </clipPath>
  </defs>
  <g
     clip-path="url(#3de39fb6c7)"
     id="g12">
    <g
       clip-path="url(#8b4512f0a9)"
       id="g11">
      <path
         stroke-linecap="butt"
         transform="matrix(0.749179, 0, 0, 0.749179, 21.362708, 27.774578)"
         fill="none"
         stroke-linejoin="miter"
         d="M 221.24295 -0.00152267 C 99.051901 -0.00152267 0.000765629 99.054827 0.000765629 221.240662 C 0.000765629 343.431711 99.051901 442.482846 221.24295 442.482846 C 343.428785 442.482846 442.485135 343.431711 442.485135 221.240662 C 442.485135 99.054827 343.428785 -0.00152267 221.24295 -0.00152267 Z M 221.24295 -0.00152267 "
         stroke="#000000"
         stroke-width="16"
         stroke-opacity="1"
         stroke-miterlimit="4"
         id="path11" />
    </g>
  </g>
  <g
     clip-path="url(#daef97ad0f)"
     id="g14">
    <g
       clip-path="url(#314a362df6)"
       id="g13">
      <path
         fill="#e0000e"
         d="M 37.5 43.910156 L 337.097656 43.910156 L 337.097656 343.511719 L 37.5 343.511719 Z M 37.5 43.910156 "
         fill-opacity="1"
         fill-rule="nonzero"
         id="path12" />
    </g>
  </g>
  <g
     clip-path="url(#c11c0befe9)"
     id="g16">
    <g
       clip-path="url(#af1c00ecc3)"
       id="g15">
      <path
         stroke-linecap="butt"
         transform="matrix(0.749149, 0, 0, 0.749149, 37.500002, 43.911852)"
         fill="none"
         stroke-linejoin="miter"
         d="M 199.72658 -0.00226292 C 89.419149 -0.00226292 -0.00000271975 89.422103 -0.00000271975 199.72432 C -0.00000271975 310.031752 89.419149 399.450903 199.72658 399.450903 C 310.034012 399.450903 399.453163 310.031752 399.453163 199.72432 C 399.453163 89.422103 310.034012 -0.00226292 199.72658 -0.00226292 Z M 199.72658 -0.00226292 "
         stroke="#000000"
         stroke-width="8"
         stroke-opacity="1"
         stroke-miterlimit="4"
         id="path14" />
    </g>
  </g>
  <path
     fill="#ffffff"
     d="M 146.230469 189.003906 C 151.140625 197.179688 159.605469 201.953125 169.066406 201.984375 C 170 195.035156 172.46875 188.257812 176.488281 182.207031 C 174.105469 182.792969 171.667969 183.09375 169.207031 183.09375 C 162.488281 183.09375 156.070312 180.839844 150.546875 176.847656 C 149.964844 176.425781 149.144531 176.667969 148.914062 177.347656 L 147.992188 180.089844 C 147.464844 181.65625 146.523438 183.023438 145.296875 184.070312 C 144.515625 184.734375 144.339844 185.863281 144.867188 186.742188 L 146.230469 189.003906 "
     fill-opacity="1"
     fill-rule="nonzero"
     id="path16" />
  <g
     clip-path="url(#0ef9d2c596)"
     id="g17">
    <path
       fill="#ffffff"
       d="M 125.535156 229.613281 C 125.535156 228.742188 126.242188 228.035156 127.113281 228.035156 C 127.984375 228.035156 128.691406 228.742188 128.691406 229.613281 L 128.691406 269.058594 C 128.691406 270.222656 129.632812 271.167969 130.796875 271.167969 L 207.617188 271.167969 C 208.777344 271.167969 209.722656 270.222656 209.722656 269.058594 L 209.722656 255.148438 C 199.742188 253.855469 190.097656 249.390625 182.445312 241.742188 C 172.425781 231.71875 167.871094 218.28125 168.753906 205.144531 C 158.300781 205.011719 148.964844 199.683594 143.523438 190.632812 L 141.707031 187.617188 C 141.210938 186.789062 140.214844 186.40625 139.292969 186.6875 L 124.101562 191.277344 C 115.179688 193.984375 108.175781 200.886719 105.355469 209.734375 C 101.917969 220.570312 97.546875 238.0625 96.25 259.835938 C 96.066406 262.921875 97.175781 265.851562 99.371094 268.046875 C 101.433594 270.117188 104.3125 271.167969 107.234375 271.167969 L 123.429688 271.167969 C 124.589844 271.167969 125.535156 270.222656 125.535156 269.058594 L 125.535156 229.613281 "
       fill-opacity="1"
       fill-rule="nonzero"
       id="path17" />
  </g>
  <path
     fill="#ffffff"
     d="M 169.207031 179.933594 C 172.839844 179.933594 176.40625 179.214844 179.8125 177.804688 C 180.648438 176.820312 181.515625 175.855469 182.445312 174.925781 C 185.746094 171.625 189.414062 168.921875 193.324219 166.800781 C 193.601562 166.652344 193.839844 166.445312 194.027344 166.191406 C 194.925781 164.9375 195.773438 163.613281 196.535156 162.238281 C 197.550781 160.402344 198.449219 158.449219 199.199219 156.441406 C 199.347656 156.039062 199.652344 155.71875 200.046875 155.546875 C 200.4375 155.375 200.882812 155.371094 201.277344 155.53125 C 201.460938 155.609375 201.609375 155.648438 201.71875 155.648438 C 203.785156 155.648438 206.554688 149.667969 206.554688 143.550781 C 206.554688 141.246094 206.136719 139.417969 205.347656 138.144531 C 204.691406 137.085938 203.277344 136.839844 202.28125 137.585938 C 199.371094 139.777344 195.835938 140.929688 191.953125 140.929688 C 190.996094 140.929688 190.019531 140.859375 189.027344 140.71875 C 182.992188 139.871094 177.457031 136.488281 174.359375 131.902344 C 170.347656 135.488281 166.097656 137.542969 162.535156 138.699219 C 158.976562 139.851562 155.222656 140.417969 151.496094 140.417969 C 146.109375 140.417969 140.789062 139.222656 136.203125 136.917969 C 135.378906 136.507812 134.386719 136.636719 133.734375 137.289062 C 132.515625 138.519531 131.855469 140.660156 131.855469 143.550781 C 131.855469 149.667969 134.625 155.648438 136.695312 155.648438 C 136.800781 155.648438 136.949219 155.609375 137.132812 155.53125 C 137.527344 155.371094 137.972656 155.375 138.363281 155.546875 C 138.757812 155.71875 139.0625 156.039062 139.210938 156.441406 C 144.539062 170.714844 156.3125 179.933594 169.207031 179.933594 "
     fill-opacity="1"
     fill-rule="nonzero"
     id="path18" />
  <g
     clip-path="url(#92c903a09c)"
     id="g19">
    <path
       fill="#ffffff"
       d="M 256.683594 236.597656 C 255.78125 235.699219 254.292969 235.796875 253.527344 236.816406 C 252.230469 238.53125 250.808594 240.179688 249.246094 241.742188 C 247.402344 243.585938 245.433594 245.238281 243.378906 246.71875 C 243.324219 246.757812 243.273438 246.796875 243.214844 246.832031 C 242.929688 247.035156 242.640625 247.234375 242.351562 247.429688 L 263.074219 268.152344 C 264.667969 269.75 266.757812 270.824219 269.007812 270.964844 C 271.597656 271.128906 274.0625 270.195312 275.882812 268.375 C 279.347656 264.902344 279.347656 259.257812 275.882812 255.792969 L 256.683594 236.597656 "
       fill-opacity="1"
       fill-rule="nonzero"
       id="path19" />
  </g>
  <g
     clip-path="url(#338934498b)"
     id="g20">
    <path
       fill="#ffffff"
       d="M 215.847656 255.554688 C 214.859375 255.554688 213.867188 255.511719 212.878906 255.453125 L 212.878906 269.058594 C 212.878906 270.222656 213.824219 271.167969 214.984375 271.167969 L 231.167969 271.167969 C 234.089844 271.167969 236.96875 270.117188 239.035156 268.050781 C 241.230469 265.855469 242.34375 262.921875 242.15625 259.835938 C 242 257.128906 241.78125 254.410156 241.511719 251.730469 C 241.464844 251.242188 241.25 250.792969 240.902344 250.445312 L 239.617188 249.160156 C 232.296875 253.417969 224.074219 255.554688 215.847656 255.554688 "
       fill-opacity="1"
       fill-rule="nonzero"
       id="path20" />
  </g>
  <path
     fill="#ffffff"
     d="M 215.277344 227.355469 C 213.507812 227.355469 212.066406 228.796875 212.066406 230.566406 C 212.066406 232.335938 213.507812 233.777344 215.277344 233.777344 C 217.046875 233.777344 218.488281 232.335938 218.488281 230.566406 C 218.488281 228.796875 217.046875 227.355469 215.277344 227.355469 "
     fill-opacity="1"
     fill-rule="nonzero"
     id="path21" />
  <g
     clip-path="url(#35584ff7a0)"
     id="g22">
    <path
       fill="#ffffff"
       d="M 161.558594 135.695312 C 167.601562 133.730469 175.835938 128.953125 180.777344 117.339844 C 181.085938 116.613281 181.863281 116.140625 182.628906 116.324219 C 183.605469 116.558594 184.101562 117.59375 183.726562 118.480469 C 181.761719 123.125 179.304688 126.769531 176.65625 129.640625 C 179.171875 133.757812 184.074219 136.832031 189.464844 137.589844 C 193.828125 138.203125 197.765625 137.183594 200.785156 134.734375 C 201.367188 134.261719 201.671875 133.511719 201.558594 132.769531 C 198.863281 115.203125 186.363281 103.972656 169.207031 103.972656 C 152.257812 103.972656 139.855469 114.925781 136.953125 132.125 C 136.796875 133.058594 137.3125 133.96875 138.171875 134.371094 C 145.074219 137.605469 153.960938 138.160156 161.558594 135.695312 "
       fill-opacity="1"
       fill-rule="nonzero"
       id="path22" />
  </g>
  <path
     fill="#ffffff"
     d="M 215.277344 217.136719 C 216.648438 217.136719 217.753906 216.0625 217.789062 214.691406 L 218.574219 185.652344 C 218.597656 184.753906 218.265625 183.90625 217.640625 183.261719 C 217.015625 182.617188 216.175781 182.265625 215.277344 182.265625 C 214.378906 182.265625 213.539062 182.617188 212.914062 183.261719 C 212.289062 183.90625 211.957031 184.753906 211.980469 185.652344 L 212.765625 214.691406 C 212.804688 216.0625 213.90625 217.136719 215.277344 217.136719 "
     fill-opacity="1"
     fill-rule="nonzero"
     id="path23" />
  <path
     fill="#ffffff"
     d="M 210.652344 181.058594 C 211.878906 179.800781 213.519531 179.105469 215.277344 179.105469 C 217.035156 179.105469 218.679688 179.800781 219.902344 181.058594 C 221.128906 182.320312 221.777344 183.980469 221.730469 185.738281 L 220.945312 214.777344 C 220.863281 217.871094 218.371094 220.296875 215.277344 220.296875 C 212.183594 220.296875 209.691406 217.871094 209.609375 214.777344 L 208.824219 185.738281 C 208.777344 183.980469 209.425781 182.316406 210.652344 181.058594 Z M 215.277344 236.9375 C 211.765625 236.9375 208.910156 234.078125 208.910156 230.566406 C 208.910156 227.054688 211.765625 224.199219 215.277344 224.199219 C 218.789062 224.199219 221.644531 227.054688 221.644531 230.566406 C 221.644531 234.078125 218.789062 236.9375 215.277344 236.9375 Z M 191.050781 233.132812 C 204.722656 246.804688 226.96875 246.804688 240.640625 233.132812 C 254.3125 219.457031 254.3125 197.207031 240.640625 183.535156 C 226.96875 169.859375 204.722656 169.859375 191.050781 183.535156 C 177.382812 197.207031 177.382812 219.457031 191.050781 233.132812 "
     fill-opacity="1"
     fill-rule="nonzero"
     id="path24" />
  <path
     fill="#ffffff"
     d="M 242.875 181.300781 C 257.777344 196.207031 257.777344 220.460938 242.875 235.363281 C 235.421875 242.816406 225.632812 246.542969 215.84375 246.542969 C 206.058594 246.542969 196.269531 242.816406 188.820312 235.363281 C 173.917969 220.460938 173.917969 196.207031 188.820312 181.300781 C 203.722656 166.394531 227.972656 166.394531 242.875 181.300781 Z M 184.679688 239.507812 C 201.863281 256.695312 229.828125 256.695312 247.015625 239.507812 C 264.199219 222.316406 264.199219 194.347656 247.015625 177.160156 C 229.828125 159.96875 201.863281 159.972656 184.679688 177.160156 C 167.492188 194.347656 167.492188 222.316406 184.679688 239.507812 "
     fill-opacity="1"
     fill-rule="nonzero"
     id="path25" />
</svg>
