<?xml version="1.0" encoding="UTF-8" standalone="no"?>
<svg
   width="500"
   zoomAndPan="magnify"
   viewBox="0 0 375 374.999991"
   height="500"
   preserveAspectRatio="xMidYMid meet"
   version="1.0"
   id="svg14"
   sodipodi:docname="hrr-red-1.svg"
   inkscape:version="1.3 (0e150ed6c4, 2023-07-21)"
   xmlns:inkscape="http://www.inkscape.org/namespaces/inkscape"
   xmlns:sodipodi="http://sodipodi.sourceforge.net/DTD/sodipodi-0.dtd"
   xmlns="http://www.w3.org/2000/svg"
   xmlns:svg="http://www.w3.org/2000/svg">
  <sodipodi:namedview
     id="namedview14"
     pagecolor="#ffffff"
     bordercolor="#000000"
     borderopacity="0.25"
     inkscape:showpageshadow="2"
     inkscape:pageopacity="0.0"
     inkscape:pagecheckerboard="0"
     inkscape:deskcolor="#d1d1d1"
     inkscape:zoom="1.61"
     inkscape:cx="250"
     inkscape:cy="250"
     inkscape:window-width="1920"
     inkscape:window-height="1014"
     inkscape:window-x="0"
     inkscape:window-y="31"
     inkscape:window-maximized="1"
     inkscape:current-layer="svg14" />
  <defs
     id="defs7">
    <clipPath
       id="60609299b8">
      <path
         d="M 21.363281 27.773438 L 352.863281 27.773438 L 352.863281 359.273438 L 21.363281 359.273438 Z M 21.363281 27.773438 "
         clip-rule="nonzero"
         id="path1" />
    </clipPath>
    <clipPath
       id="409dd5ec95">
      <path
         d="M 187.113281 27.773438 C 95.570312 27.773438 21.363281 101.984375 21.363281 193.523438 C 21.363281 285.066406 95.570312 359.273438 187.113281 359.273438 C 278.652344 359.273438 352.863281 285.066406 352.863281 193.523438 C 352.863281 101.984375 278.652344 27.773438 187.113281 27.773438 Z M 187.113281 27.773438 "
         clip-rule="nonzero"
         id="path2" />
    </clipPath>
    <clipPath
       id="ec18aec8fd">
      <path
         d="M 37.5 43.910156 L 337.097656 43.910156 L 337.097656 343.511719 L 37.5 343.511719 Z M 37.5 43.910156 "
         clip-rule="nonzero"
         id="path3" />
    </clipPath>
    <clipPath
       id="f5b5965f06">
      <path
         d="M 187.300781 43.910156 C 104.566406 43.910156 37.5 110.980469 37.5 193.710938 C 37.5 276.445312 104.566406 343.511719 187.300781 343.511719 C 270.03125 343.511719 337.097656 276.445312 337.097656 193.710938 C 337.097656 110.980469 270.03125 43.910156 187.300781 43.910156 Z M 187.300781 43.910156 "
         clip-rule="nonzero"
         id="path4" />
    </clipPath>
    <clipPath
       id="c66d360472">
      <path
         d="M 37.5 43.910156 L 336.75 43.910156 L 336.75 343.160156 L 37.5 343.160156 Z M 37.5 43.910156 "
         clip-rule="nonzero"
         id="path5" />
    </clipPath>
    <clipPath
       id="36eb92b84f">
      <path
         d="M 187.125 43.910156 C 104.488281 43.910156 37.5 110.902344 37.5 193.535156 C 37.5 276.171875 104.488281 343.160156 187.125 343.160156 C 269.761719 343.160156 336.75 276.171875 336.75 193.535156 C 336.75 110.902344 269.761719 43.910156 187.125 43.910156 Z M 187.125 43.910156 "
         clip-rule="nonzero"
         id="path6" />
    </clipPath>
    <clipPath
       id="cb4b1bd436">
      <path
         d="M 94.570312 100.78125 L 280.570312 100.78125 L 280.570312 286.78125 L 94.570312 286.78125 Z M 94.570312 100.78125 "
         clip-rule="nonzero"
         id="path7" />
    </clipPath>
  </defs>
  <g
     clip-path="url(#60609299b8)"
     id="g9">
    <g
       clip-path="url(#409dd5ec95)"
       id="g8">
      <path
         stroke-linecap="butt"
         transform="matrix(0.749179, 0, 0, 0.749179, 21.362708, 27.77449)"
         fill="none"
         stroke-linejoin="miter"
         d="M 221.24295 -0.00140543 C 99.051901 -0.00140543 0.000765629 99.054944 0.000765629 221.240779 C 0.000765629 343.431828 99.051901 442.482963 221.24295 442.482963 C 343.428785 442.482963 442.485135 343.431828 442.485135 221.240779 C 442.485135 99.054944 343.428785 -0.00140543 221.24295 -0.00140543 Z M 221.24295 -0.00140543 "
         stroke="#000000"
         stroke-width="16"
         stroke-opacity="1"
         stroke-miterlimit="4"
         id="path8" />
    </g>
  </g>
  <g
     clip-path="url(#ec18aec8fd)"
     id="g11">
    <g
       clip-path="url(#f5b5965f06)"
       id="g10">
      <path
         fill="#e0000e"
         d="M 37.5 43.910156 L 337.097656 43.910156 L 337.097656 343.511719 L 37.5 343.511719 Z M 37.5 43.910156 "
         fill-opacity="1"
         fill-rule="nonzero"
         id="path9" />
    </g>
  </g>
  <g
     clip-path="url(#c66d360472)"
     id="g13">
    <g
       clip-path="url(#36eb92b84f)"
       id="g12">
      <path
         stroke-linecap="butt"
         transform="matrix(0.749149, 0, 0, 0.749149, 37.500002, 43.911794)"
         fill="none"
         stroke-linejoin="miter"
         d="M 199.72658 -0.00218604 C 89.419149 -0.00218604 -0.00000271975 89.422179 -0.00000271975 199.724397 C -0.00000271975 310.031829 89.419149 399.45098 199.72658 399.45098 C 310.034012 399.45098 399.453163 310.031829 399.453163 199.724397 C 399.453163 89.422179 310.034012 -0.00218604 199.72658 -0.00218604 Z M 199.72658 -0.00218604 "
         stroke="#000000"
         stroke-width="8"
         stroke-opacity="1"
         stroke-miterlimit="4"
         id="path11" />
    </g>
  </g>
  <g
     clip-path="url(#cb4b1bd436)"
     id="g14">
    <path
       fill="#ffffff"
       d="M 115.195312 229.382812 L 133.230469 229.382812 C 134.265625 229.382812 135.113281 230.226562 135.113281 231.265625 L 135.113281 267.804688 C 135.113281 268.84375 134.265625 269.6875 133.230469 269.6875 L 115.195312 269.6875 C 114.15625 269.6875 113.3125 268.84375 113.3125 267.804688 L 113.3125 231.265625 C 113.3125 230.226562 114.160156 229.382812 115.195312 229.382812 Z M 268.0625 151.945312 C 267.429688 147.933594 263.9375 144.84375 259.757812 144.84375 L 259.226562 144.84375 C 258.605469 144.84375 258.097656 144.335938 258.097656 143.714844 L 258.097656 132.992188 C 260.140625 132.285156 261.980469 131.132812 263.5 129.652344 C 268.390625 129.652344 272.316406 128.503906 275.867188 124.949219 C 278.769531 122.050781 280.570312 118.046875 280.570312 113.640625 L 280.570312 108.324219 C 280.570312 106.867188 279.390625 105.6875 277.933594 105.6875 L 267.917969 105.6875 L 267.917969 104.546875 C 267.917969 103.925781 267.410156 103.417969 266.789062 103.417969 L 239.929688 103.417969 C 239.304688 103.417969 238.796875 103.925781 238.796875 104.546875 L 238.796875 105.6875 L 228.78125 105.6875 C 227.328125 105.6875 226.148438 106.867188 226.148438 108.324219 L 226.148438 113.640625 C 226.148438 118.046875 227.945312 122.050781 230.847656 124.949219 C 234.398438 128.503906 238.324219 129.652344 243.214844 129.652344 C 244.734375 131.132812 246.574219 132.285156 248.617188 132.992188 L 248.617188 143.714844 C 248.617188 144.335938 248.109375 144.84375 247.488281 144.84375 L 246.960938 144.84375 C 242.777344 144.84375 239.285156 147.933594 238.652344 151.945312 C 238.542969 152.636719 239.070312 153.25 239.769531 153.25 C 252.859375 153.25 253.855469 153.25 266.945312 153.25 C 267.644531 153.25 268.171875 152.636719 268.0625 151.945312 Z M 267.082031 124.078125 C 267.625 122.558594 267.917969 120.929688 267.917969 119.230469 L 267.917969 110.957031 L 275.296875 110.957031 L 275.296875 113.640625 C 275.296875 116.59375 274.089844 119.277344 272.140625 121.222656 C 270.769531 122.597656 269.027344 123.605469 267.082031 124.078125 Z M 238.796875 110.957031 L 238.796875 119.230469 C 238.796875 120.929688 239.09375 122.558594 239.632812 124.078125 C 237.691406 123.605469 235.949219 122.597656 234.574219 121.222656 C 232.625 119.277344 231.417969 116.59375 231.417969 113.640625 L 231.417969 110.957031 Z M 114.785156 219.273438 C 113.578125 220.085938 111.941406 219.765625 111.128906 218.5625 C 110.316406 217.355469 110.636719 215.71875 111.839844 214.90625 L 219.914062 141.871094 L 215.203125 140.90625 C 213.78125 140.613281 212.863281 139.226562 213.15625 137.804688 C 213.445312 136.382812 214.832031 135.464844 216.253906 135.757812 L 227.085938 137.984375 C 228.507812 138.273438 229.425781 139.660156 229.136719 141.082031 L 226.910156 151.914062 C 226.621094 153.335938 225.230469 154.253906 223.8125 153.964844 C 222.390625 153.675781 221.472656 152.285156 221.761719 150.867188 L 222.691406 146.351562 Z M 277.933594 281.511719 L 99.839844 281.511719 L 99.839844 103.417969 C 99.839844 101.960938 98.660156 100.78125 97.207031 100.78125 C 95.75 100.78125 94.570312 101.960938 94.570312 103.417969 L 94.570312 284.144531 C 94.570312 285.601562 95.75 286.78125 97.207031 286.78125 L 277.933594 286.78125 C 279.390625 286.78125 280.570312 285.601562 280.570312 284.144531 C 280.570312 282.691406 279.390625 281.511719 277.933594 281.511719 Z M 244.339844 168.988281 L 262.375 168.988281 C 263.414062 168.988281 264.257812 169.835938 264.257812 170.871094 L 264.257812 267.804688 C 264.257812 268.84375 263.414062 269.6875 262.375 269.6875 L 244.339844 269.6875 C 243.304688 269.6875 242.457031 268.84375 242.457031 267.804688 L 242.457031 170.871094 C 242.457031 169.835938 243.304688 168.988281 244.339844 168.988281 Z M 201.292969 189.121094 C 200.253906 189.121094 199.410156 189.964844 199.410156 191.003906 C 199.410156 216.605469 199.410156 242.203125 199.410156 267.804688 C 199.410156 268.84375 200.253906 269.6875 201.292969 269.6875 C 207.304688 269.6875 213.316406 269.6875 219.328125 269.6875 C 220.363281 269.6875 221.210938 268.84375 221.210938 267.804688 C 221.210938 242.207031 221.210938 216.605469 221.210938 191.003906 C 221.210938 189.964844 220.363281 189.121094 219.328125 189.121094 C 213.316406 189.121094 207.304688 189.121094 201.292969 189.121094 Z M 158.242188 209.25 C 157.207031 209.25 156.359375 210.097656 156.359375 211.132812 C 156.359375 230.023438 156.359375 248.914062 156.359375 267.804688 C 156.359375 268.84375 157.207031 269.6875 158.242188 269.6875 C 164.253906 269.6875 170.265625 269.6875 176.277344 269.6875 C 177.316406 269.6875 178.160156 268.84375 178.160156 267.804688 C 178.160156 248.914062 178.160156 230.023438 178.160156 211.132812 C 178.160156 210.097656 177.316406 209.25 176.277344 209.25 C 170.265625 209.25 164.253906 209.25 158.242188 209.25 Z M 158.242188 209.25 "
       fill-opacity="1"
       fill-rule="evenodd"
       id="path13" />
  </g>
</svg>
