<?xml version="1.0" encoding="UTF-8" standalone="no"?>
<svg
   width="500"
   zoomAndPan="magnify"
   viewBox="0 0 375 374.999991"
   height="500"
   preserveAspectRatio="xMidYMid meet"
   version="1.0"
   id="svg19"
   sodipodi:docname="hrr-yel.svg"
   inkscape:version="1.3 (0e150ed6c4, 2023-07-21)"
   xmlns:inkscape="http://www.inkscape.org/namespaces/inkscape"
   xmlns:sodipodi="http://sodipodi.sourceforge.net/DTD/sodipodi-0.dtd"
   xmlns="http://www.w3.org/2000/svg"
   xmlns:svg="http://www.w3.org/2000/svg">
  <sodipodi:namedview
     id="namedview19"
     pagecolor="#ffffff"
     bordercolor="#000000"
     borderopacity="0.25"
     inkscape:showpageshadow="2"
     inkscape:pageopacity="0.0"
     inkscape:pagecheckerboard="0"
     inkscape:deskcolor="#d1d1d1"
     inkscape:zoom="1.61"
     inkscape:cx="250"
     inkscape:cy="250"
     inkscape:window-width="1920"
     inkscape:window-height="1014"
     inkscape:window-x="0"
     inkscape:window-y="31"
     inkscape:window-maximized="1"
     inkscape:current-layer="svg19" />
  <defs
     id="defs8">
    <clipPath
       id="dcab4a00f5">
      <path
         d="M 21.363281 27.773438 L 352.863281 27.773438 L 352.863281 359.273438 L 21.363281 359.273438 Z M 21.363281 27.773438 "
         clip-rule="nonzero"
         id="path1" />
    </clipPath>
    <clipPath
       id="7802182db4">
      <path
         d="M 187.113281 27.773438 C 95.570312 27.773438 21.363281 101.984375 21.363281 193.523438 C 21.363281 285.066406 95.570312 359.273438 187.113281 359.273438 C 278.652344 359.273438 352.863281 285.066406 352.863281 193.523438 C 352.863281 101.984375 278.652344 27.773438 187.113281 27.773438 Z M 187.113281 27.773438 "
         clip-rule="nonzero"
         id="path2" />
    </clipPath>
    <clipPath
       id="f40e35fd7d">
      <path
         d="M 37.5 43.910156 L 337.097656 43.910156 L 337.097656 343.511719 L 37.5 343.511719 Z M 37.5 43.910156 "
         clip-rule="nonzero"
         id="path3" />
    </clipPath>
    <clipPath
       id="c94271ef79">
      <path
         d="M 187.300781 43.910156 C 104.566406 43.910156 37.5 110.980469 37.5 193.710938 C 37.5 276.445312 104.566406 343.511719 187.300781 343.511719 C 270.03125 343.511719 337.097656 276.445312 337.097656 193.710938 C 337.097656 110.980469 270.03125 43.910156 187.300781 43.910156 Z M 187.300781 43.910156 "
         clip-rule="nonzero"
         id="path4" />
    </clipPath>
    <clipPath
       id="b2d291742b">
      <path
         d="M 37.5 43.910156 L 336.75 43.910156 L 336.75 343.160156 L 37.5 343.160156 Z M 37.5 43.910156 "
         clip-rule="nonzero"
         id="path5" />
    </clipPath>
    <clipPath
       id="a0e62b071f">
      <path
         d="M 187.125 43.910156 C 104.488281 43.910156 37.5 110.902344 37.5 193.535156 C 37.5 276.171875 104.488281 343.160156 187.125 343.160156 C 269.761719 343.160156 336.75 276.171875 336.75 193.535156 C 336.75 110.902344 269.761719 43.910156 187.125 43.910156 Z M 187.125 43.910156 "
         clip-rule="nonzero"
         id="path6" />
    </clipPath>
    <clipPath
       id="1c0882f53e">
      <path
         d="M 201 216 L 272.757812 216 L 272.757812 278 L 201 278 Z M 201 216 "
         clip-rule="nonzero"
         id="path7" />
    </clipPath>
    <clipPath
       id="4e22de0b9b">
      <path
         d="M 137 96.105469 L 272.757812 96.105469 L 272.757812 232 L 137 232 Z M 137 96.105469 "
         clip-rule="nonzero"
         id="path8" />
    </clipPath>
  </defs>
  <g
     clip-path="url(#dcab4a00f5)"
     id="g10"
     style="fill:#feaa02;fill-opacity:1">
    <g
       clip-path="url(#7802182db4)"
       id="g9"
       style="fill:#feaa02;fill-opacity:1">
      <path
         stroke-linecap="butt"
         transform="matrix(0.749179, 0, 0, 0.749179, 21.362708, 27.77449)"
         fill="none"
         stroke-linejoin="miter"
         d="M 221.24295 -0.00140543 C 99.051901 -0.00140543 0.000765629 99.054944 0.000765629 221.240779 C 0.000765629 343.431828 99.051901 442.482963 221.24295 442.482963 C 343.428785 442.482963 442.485135 343.431828 442.485135 221.240779 C 442.485135 99.054944 343.428785 -0.00140543 221.24295 -0.00140543 Z M 221.24295 -0.00140543 "
         stroke="#000000"
         stroke-width="16"
         stroke-opacity="1"
         stroke-miterlimit="4"
         id="path9"
         style="fill:#feaa02;fill-opacity:1" />
    </g>
  </g>
  <g
     clip-path="url(#f40e35fd7d)"
     id="g12">
    <g
       clip-path="url(#c94271ef79)"
       id="g11">
      <path
         fill="#fbc11c"
         d="M 37.5 43.910156 L 337.097656 43.910156 L 337.097656 343.511719 L 37.5 343.511719 Z M 37.5 43.910156 "
         fill-opacity="1"
         fill-rule="nonzero"
         id="path10" />
    </g>
  </g>
  <g
     clip-path="url(#b2d291742b)"
     id="g14"
     style="fill:#feaa02;fill-opacity:1">
    <g
       clip-path="url(#a0e62b071f)"
       id="g13"
       style="fill:#feaa02;fill-opacity:1">
      <path
         stroke-linecap="butt"
         transform="matrix(0.749149, 0, 0, 0.749149, 37.500002, 43.911794)"
         fill="none"
         stroke-linejoin="miter"
         d="M 199.72658 -0.00218604 C 89.419149 -0.00218604 -0.00000271975 89.422179 -0.00000271975 199.724397 C -0.00000271975 310.031829 89.419149 399.45098 199.72658 399.45098 C 310.034012 399.45098 399.453163 310.031829 399.453163 199.724397 C 399.453163 89.422179 310.034012 -0.00218604 199.72658 -0.00218604 Z M 199.72658 -0.00218604 "
         stroke="#000000"
         stroke-width="8"
         stroke-opacity="1"
         stroke-miterlimit="4"
         id="path12"
         style="fill:#feaa02;fill-opacity:1" />
    </g>
  </g>
  <path
     fill="#000000"
     d="M 131.824219 215.6875 C 130.347656 214.214844 127.957031 214.214844 126.484375 215.6875 L 97.128906 245.042969 C 89.773438 252.402344 89.773438 264.371094 97.128906 271.730469 C 104.488281 279.085938 116.457031 279.089844 123.816406 271.730469 L 153.171875 242.375 C 154.644531 240.902344 154.644531 238.511719 153.171875 237.039062 Z M 131.824219 215.6875 "
     fill-opacity="1"
     fill-rule="nonzero"
     id="path14" />
  <g
     clip-path="url(#1c0882f53e)"
     id="g15">
    <path
       fill="#000000"
       d="M 268.980469 216.875 L 258.667969 216.875 C 243.808594 232.015625 223.117188 240.511719 201.046875 239.421875 L 201.046875 273.484375 C 201.046875 275.566406 202.738281 277.257812 204.824219 277.257812 L 268.980469 277.257812 C 271.0625 277.257812 272.753906 275.566406 272.753906 273.484375 L 272.753906 220.648438 C 272.753906 218.5625 271.066406 216.875 268.980469 216.875 Z M 223.691406 265.933594 L 219.917969 265.933594 C 217.835938 265.933594 216.144531 264.246094 216.144531 262.160156 C 216.144531 260.078125 217.835938 258.386719 219.917969 258.386719 L 223.691406 258.386719 C 225.777344 258.386719 227.464844 260.078125 227.464844 262.160156 C 227.464844 264.246094 225.777344 265.933594 223.691406 265.933594 Z M 223.691406 250.839844 L 219.917969 250.839844 C 217.835938 250.839844 216.144531 249.148438 216.144531 247.066406 C 216.144531 244.980469 217.835938 243.292969 219.917969 243.292969 L 223.691406 243.292969 C 225.777344 243.292969 227.464844 244.980469 227.464844 247.066406 C 227.464844 249.148438 225.777344 250.839844 223.691406 250.839844 Z M 253.882812 265.933594 L 238.789062 265.933594 C 236.703125 265.933594 235.015625 264.246094 235.015625 262.160156 C 235.015625 260.078125 236.703125 258.386719 238.789062 258.386719 L 253.882812 258.386719 C 255.96875 258.386719 257.660156 260.078125 257.660156 262.160156 C 257.660156 264.246094 255.96875 265.933594 253.882812 265.933594 Z M 253.882812 250.839844 L 238.789062 250.839844 C 236.703125 250.839844 235.015625 249.148438 235.015625 247.066406 C 235.015625 244.980469 236.703125 243.292969 238.789062 243.292969 L 253.882812 243.292969 C 255.96875 243.292969 257.660156 244.980469 257.660156 247.066406 C 257.660156 249.148438 255.96875 250.839844 253.882812 250.839844 Z M 253.882812 250.839844 "
       fill-opacity="1"
       fill-rule="nonzero"
       id="path15" />
  </g>
  <path
     fill="#000000"
     d="M 204.824219 167.8125 C 206.902344 167.8125 208.597656 166.117188 208.597656 164.039062 C 208.597656 161.957031 206.902344 160.265625 204.824219 160.265625 C 202.742188 160.265625 201.046875 161.957031 201.046875 164.039062 C 201.046875 166.117188 202.742188 167.8125 204.824219 167.8125 Z M 204.824219 167.8125 "
     fill-opacity="1"
     fill-rule="nonzero"
     id="path16" />
  <g
     clip-path="url(#4e22de0b9b)"
     id="g17">
    <path
       fill="#000000"
       d="M 272.753906 164.039062 C 272.753906 126.582031 242.28125 96.105469 204.824219 96.105469 C 184.71875 96.105469 165.941406 104.898438 153.109375 119.976562 L 161.171875 134.253906 C 170.898438 120.003906 187.160156 111.203125 204.824219 111.203125 C 233.90625 111.203125 257.660156 134.867188 257.660156 164.039062 C 257.660156 193.125 233.996094 216.875 204.824219 216.875 C 179.722656 216.875 158.453125 199.296875 153.210938 175.371094 L 137.835938 175.371094 C 139.574219 185.746094 143.632812 195.261719 149.4375 203.414062 L 139.828125 213.023438 L 155.839844 229.03125 L 165.457031 219.414062 C 176.609375 227.34375 190.226562 231.96875 204.824219 231.96875 C 242.28125 231.96875 272.753906 201.496094 272.753906 164.039062 Z M 272.753906 164.039062 "
       fill-opacity="1"
       fill-rule="nonzero"
       id="path17" />
  </g>
  <path
     fill="#000000"
     d="M 160.800781 174.675781 C 162.488281 181.640625 165.800781 187.957031 170.292969 193.230469 L 172.8125 190.710938 C 174.285156 189.238281 176.675781 189.238281 178.148438 190.710938 C 179.621094 192.1875 179.621094 194.574219 178.148438 196.050781 L 175.640625 198.554688 C 182.6875 204.507812 191.519531 208.351562 201.046875 209.164062 L 201.046875 205.550781 C 201.046875 203.46875 202.738281 201.777344 204.824219 201.777344 C 206.90625 201.777344 208.597656 203.46875 208.597656 205.550781 L 208.597656 209.167969 C 218.253906 208.367188 227.058594 204.523438 234.050781 198.601562 L 231.507812 196.0625 C 230.035156 194.589844 230.035156 192.199219 231.507812 190.722656 C 232.984375 189.25 235.371094 189.25 236.847656 190.722656 L 239.386719 193.265625 C 245.308594 186.273438 249.152344 177.46875 249.953125 167.8125 L 246.335938 167.8125 C 244.253906 167.8125 242.5625 166.121094 242.5625 164.039062 C 242.5625 161.953125 244.253906 160.265625 246.335938 160.265625 L 249.953125 160.265625 C 249.152344 150.609375 245.308594 141.804688 239.386719 134.8125 L 236.847656 137.351562 C 235.371094 138.824219 232.984375 138.824219 231.507812 137.351562 C 230.035156 135.878906 230.035156 133.488281 231.507812 132.015625 L 234.050781 129.472656 C 227.058594 123.550781 218.253906 119.710938 208.597656 118.910156 L 208.597656 122.523438 C 208.597656 124.609375 206.90625 126.296875 204.824219 126.296875 C 202.738281 126.296875 201.046875 124.609375 201.046875 122.523438 L 201.046875 118.914062 C 191.539062 119.707031 182.671875 123.46875 175.582031 129.460938 L 178.140625 132.019531 C 179.617188 133.496094 179.617188 135.882812 178.140625 137.359375 C 176.667969 138.832031 174.277344 138.832031 172.804688 137.359375 L 170.238281 134.789062 C 168.425781 136.929688 166.804688 139.257812 165.398438 141.742188 L 170.441406 150.679688 C 175.828125 160.214844 170.621094 171.765625 160.800781 174.675781 Z M 185.953125 160.265625 L 194.148438 160.265625 C 195.289062 157.054688 197.835938 154.503906 201.046875 153.367188 L 201.046875 137.621094 C 201.046875 135.535156 202.738281 133.847656 204.824219 133.847656 C 206.90625 133.847656 208.597656 135.535156 208.597656 137.621094 L 208.597656 153.367188 C 212.988281 154.921875 216.144531 159.117188 216.144531 164.039062 C 216.144531 170.28125 211.066406 175.359375 204.824219 175.359375 C 199.902344 175.359375 195.707031 172.203125 194.148438 167.8125 L 185.953125 167.8125 C 183.867188 167.8125 182.179688 166.121094 182.179688 164.039062 C 182.179688 161.953125 183.867188 160.265625 185.953125 160.265625 Z M 185.953125 160.265625 "
     fill-opacity="1"
     fill-rule="nonzero"
     id="path18" />
  <path
     fill="#000000"
     d="M 108.171875 167.824219 L 156.027344 167.824219 C 162.921875 167.824219 167.261719 160.394531 163.871094 154.390625 L 139.941406 112.007812 C 136.496094 105.902344 127.703125 105.902344 124.257812 112.007812 L 100.328125 154.390625 C 96.9375 160.394531 101.277344 167.824219 108.171875 167.824219 Z M 128.324219 126.308594 C 128.324219 124.226562 130.015625 122.535156 132.101562 122.535156 C 134.183594 122.535156 135.875 124.226562 135.875 126.308594 L 135.875 141.40625 C 135.875 143.492188 134.183594 145.179688 132.101562 145.179688 C 130.015625 145.179688 128.324219 143.492188 128.324219 141.40625 Z M 132.097656 148.941406 C 134.183594 148.941406 135.871094 150.632812 135.871094 152.714844 C 135.871094 154.800781 134.183594 156.488281 132.097656 156.488281 C 130.015625 156.488281 128.324219 154.800781 128.324219 152.714844 C 128.324219 150.632812 130.015625 148.941406 132.097656 148.941406 Z M 132.097656 148.941406 "
     fill-opacity="1"
     fill-rule="nonzero"
     id="path19" />
</svg>
