<?xml version="1.0" encoding="UTF-8" standalone="no"?>
<svg
   width="500"
   zoomAndPan="magnify"
   viewBox="0 0 375 374.999991"
   height="500"
   preserveAspectRatio="xMidYMid meet"
   version="1.0"
   id="svg16"
   sodipodi:docname="hrr-red-tick.svg"
   inkscape:version="1.3 (0e150ed6c4, 2023-07-21)"
   xmlns:inkscape="http://www.inkscape.org/namespaces/inkscape"
   xmlns:sodipodi="http://sodipodi.sourceforge.net/DTD/sodipodi-0.dtd"
   xmlns="http://www.w3.org/2000/svg"
   xmlns:svg="http://www.w3.org/2000/svg">
  <sodipodi:namedview
     id="namedview16"
     pagecolor="#ffffff"
     bordercolor="#000000"
     borderopacity="0.25"
     inkscape:showpageshadow="2"
     inkscape:pageopacity="0.0"
     inkscape:pagecheckerboard="0"
     inkscape:deskcolor="#d1d1d1"
     inkscape:zoom="1.61"
     inkscape:cx="250"
     inkscape:cy="250"
     inkscape:window-width="1920"
     inkscape:window-height="1014"
     inkscape:window-x="0"
     inkscape:window-y="31"
     inkscape:window-maximized="1"
     inkscape:current-layer="svg16" />
  <defs
     id="defs8">
    <clipPath
       id="aab4625e2b">
      <path
         d="M 21.363281 27.773438 L 352.863281 27.773438 L 352.863281 359.273438 L 21.363281 359.273438 Z M 21.363281 27.773438 "
         clip-rule="nonzero"
         id="path1" />
    </clipPath>
    <clipPath
       id="a6cedd00d9">
      <path
         d="M 187.113281 27.773438 C 95.570312 27.773438 21.363281 101.984375 21.363281 193.523438 C 21.363281 285.066406 95.570312 359.273438 187.113281 359.273438 C 278.652344 359.273438 352.863281 285.066406 352.863281 193.523438 C 352.863281 101.984375 278.652344 27.773438 187.113281 27.773438 Z M 187.113281 27.773438 "
         clip-rule="nonzero"
         id="path2" />
    </clipPath>
    <clipPath
       id="d9d6ea8e90">
      <path
         d="M 37.5 43.910156 L 337.097656 43.910156 L 337.097656 343.511719 L 37.5 343.511719 Z M 37.5 43.910156 "
         clip-rule="nonzero"
         id="path3" />
    </clipPath>
    <clipPath
       id="5b2945b9be">
      <path
         d="M 187.300781 43.910156 C 104.566406 43.910156 37.5 110.980469 37.5 193.710938 C 37.5 276.445312 104.566406 343.511719 187.300781 343.511719 C 270.03125 343.511719 337.097656 276.445312 337.097656 193.710938 C 337.097656 110.980469 270.03125 43.910156 187.300781 43.910156 Z M 187.300781 43.910156 "
         clip-rule="nonzero"
         id="path4" />
    </clipPath>
    <clipPath
       id="489edafe71">
      <path
         d="M 37.5 43.910156 L 336.75 43.910156 L 336.75 343.160156 L 37.5 343.160156 Z M 37.5 43.910156 "
         clip-rule="nonzero"
         id="path5" />
    </clipPath>
    <clipPath
       id="086cc85b3d">
      <path
         d="M 187.125 43.910156 C 104.488281 43.910156 37.5 110.902344 37.5 193.535156 C 37.5 276.171875 104.488281 343.160156 187.125 343.160156 C 269.761719 343.160156 336.75 276.171875 336.75 193.535156 C 336.75 110.902344 269.761719 43.910156 187.125 43.910156 Z M 187.125 43.910156 "
         clip-rule="nonzero"
         id="path6" />
    </clipPath>
    <clipPath
       id="ecbb7c7d0e">
      <path
         d="M 118.964844 100.570312 L 299.417969 100.570312 L 299.417969 257.855469 L 118.964844 257.855469 Z M 118.964844 100.570312 "
         clip-rule="nonzero"
         id="path7" />
    </clipPath>
    <clipPath
       id="c657aeae04">
      <path
         d="M 99.199219 109 L 276.578125 109 L 276.578125 286.570312 L 99.199219 286.570312 Z M 99.199219 109 "
         clip-rule="nonzero"
         id="path8" />
    </clipPath>
  </defs>
  <g
     clip-path="url(#aab4625e2b)"
     id="g10">
    <g
       clip-path="url(#a6cedd00d9)"
       id="g9">
      <path
         stroke-linecap="butt"
         transform="matrix(0.749179, 0, 0, 0.749179, 21.362708, 27.774569)"
         fill="none"
         stroke-linejoin="miter"
         d="M 221.24295 -0.0015105 C 99.051901 -0.0015105 0.000765629 99.054839 0.000765629 221.240674 C 0.000765629 343.431723 99.051901 442.482858 221.24295 442.482858 C 343.428785 442.482858 442.485135 343.431723 442.485135 221.240674 C 442.485135 99.054839 343.428785 -0.0015105 221.24295 -0.0015105 Z M 221.24295 -0.0015105 "
         stroke="#000000"
         stroke-width="16"
         stroke-opacity="1"
         stroke-miterlimit="4"
         id="path9" />
    </g>
  </g>
  <g
     clip-path="url(#d9d6ea8e90)"
     id="g12">
    <g
       clip-path="url(#5b2945b9be)"
       id="g11">
      <path
         fill="#e0000e"
         d="M 37.5 43.910156 L 337.097656 43.910156 L 337.097656 343.511719 L 37.5 343.511719 Z M 37.5 43.910156 "
         fill-opacity="1"
         fill-rule="nonzero"
         id="path10" />
    </g>
  </g>
  <g
     clip-path="url(#489edafe71)"
     id="g14">
    <g
       clip-path="url(#086cc85b3d)"
       id="g13">
      <path
         stroke-linecap="butt"
         transform="matrix(0.749149, 0, 0, 0.749149, 37.500002, 43.911859)"
         fill="none"
         stroke-linejoin="miter"
         d="M 199.72658 -0.00227253 C 89.419149 -0.00227253 -0.00000271975 89.422093 -0.00000271975 199.72431 C -0.00000271975 310.031742 89.419149 399.450893 199.72658 399.450893 C 310.034012 399.450893 399.453163 310.031742 399.453163 199.72431 C 399.453163 89.422093 310.034012 -0.00227253 199.72658 -0.00227253 Z M 199.72658 -0.00227253 "
         stroke="#000000"
         stroke-width="8"
         stroke-opacity="1"
         stroke-miterlimit="4"
         id="path12" />
    </g>
  </g>
  <g
     clip-path="url(#ecbb7c7d0e)"
     id="g15">
    <path
       fill="#ffffff"
       d="M 298.453125 102.933594 C 295.597656 102.191406 292.742188 101.453125 289.882812 100.710938 C 289.664062 100.585938 289.390625 100.535156 289.070312 100.59375 C 288.925781 100.609375 288.789062 100.648438 288.671875 100.710938 C 288.117188 100.890625 287.566406 101.089844 287.023438 101.292969 C 285.160156 101.980469 283.328125 102.738281 281.519531 103.542969 C 278.804688 104.753906 276.144531 106.074219 273.535156 107.472656 C 270.027344 109.347656 266.609375 111.375 263.285156 113.515625 C 259.132812 116.1875 255.113281 119.042969 251.238281 122.050781 C 246.714844 125.554688 242.390625 129.269531 238.257812 133.164062 C 233.5 137.648438 229.003906 142.367188 224.773438 147.273438 C 219.96875 152.84375 215.488281 158.640625 211.339844 164.640625 C 206.667969 171.398438 202.410156 178.402344 198.550781 185.582031 C 194.203125 193.667969 190.347656 201.976562 186.945312 210.433594 C 186.28125 212.078125 185.636719 213.730469 185.007812 215.386719 C 182.8125 213.675781 180.617188 211.960938 178.417969 210.25 C 172.660156 205.757812 166.902344 201.265625 161.140625 196.777344 C 155.851562 192.648438 150.558594 188.519531 145.265625 184.394531 C 143.921875 183.34375 142.574219 182.296875 141.230469 181.246094 C 140.886719 180.980469 140.585938 180.722656 140.160156 180.5625 C 138.824219 180.058594 137.445312 179.40625 136.054688 179.054688 C 135.527344 178.921875 134.863281 179.101562 134.332031 179.183594 C 133.402344 179.328125 132.472656 179.46875 131.546875 179.613281 C 130.960938 179.703125 130.167969 179.699219 129.679688 180.042969 C 129.410156 180.234375 129.285156 180.480469 129.125 180.742188 C 127.640625 183.171875 126.15625 185.597656 124.671875 188.027344 C 123.019531 190.734375 121.363281 193.441406 119.707031 196.148438 C 119.324219 196.78125 118.878906 197.304688 119.015625 198.070312 C 119.171875 198.957031 119.363281 199.839844 119.535156 200.722656 C 120.199219 204.105469 120.863281 207.488281 121.527344 210.871094 C 121.730469 211.910156 121.890625 212.972656 122.140625 214.003906 C 122.289062 214.609375 122.738281 214.925781 123.335938 215.148438 C 123.859375 215.339844 124.382812 215.535156 124.902344 215.730469 C 125.085938 215.800781 125.273438 215.871094 125.457031 215.945312 C 125.558594 215.980469 125.660156 216.019531 125.761719 216.058594 C 125.8125 216.078125 125.867188 216.101562 125.917969 216.121094 C 125.925781 216.125 125.933594 216.125 125.941406 216.128906 C 126.464844 216.332031 126.988281 216.539062 127.511719 216.746094 C 130.476562 217.921875 133.421875 219.152344 136.339844 220.429688 C 145.105469 224.257812 153.679688 228.480469 161.945312 233.152344 C 171.671875 238.652344 181.050781 244.792969 189.371094 252 C 191.367188 253.730469 193.292969 255.523438 195.140625 257.386719 C 195.78125 258.03125 197.105469 257.71875 197.3125 256.859375 C 197.570312 255.769531 197.859375 254.6875 198.15625 253.605469 C 198.972656 250.597656 199.859375 247.605469 200.792969 244.628906 C 202.214844 240.089844 203.75 235.578125 205.382812 231.101562 C 207.453125 225.417969 209.691406 219.78125 212.085938 214.203125 C 214.835938 207.792969 217.808594 201.460938 221.011719 195.226562 C 224.527344 188.386719 228.324219 181.664062 232.4375 175.109375 C 236.726562 168.273438 241.359375 161.621094 246.394531 155.234375 C 251.515625 148.734375 257.070312 142.515625 263.101562 136.703125 C 269.140625 130.886719 275.664062 125.464844 282.707031 120.683594 C 286.265625 118.269531 289.949219 116.015625 293.757812 113.945312 C 294.628906 113.46875 295.941406 113.046875 296.355469 112.160156 C 296.496094 111.859375 296.59375 111.535156 296.714844 111.226562 C 297.261719 109.820312 297.804688 108.410156 298.351562 107 C 298.6875 106.132812 299.023438 105.265625 299.359375 104.398438 C 299.597656 103.789062 299.089844 103.097656 298.453125 102.933594 "
       fill-opacity="1"
       fill-rule="nonzero"
       id="path14" />
  </g>
  <g
     clip-path="url(#c657aeae04)"
     id="g16">
    <path
       fill="#ffffff"
       d="M 259.25 145.121094 C 255.6875 148.921875 252.214844 152.960938 248.878906 157.195312 C 248.785156 157.316406 248.691406 157.4375 248.597656 157.554688 C 256.253906 169.097656 260.71875 182.9375 260.71875 197.800781 C 260.71875 238.015625 228.039062 270.734375 187.867188 270.734375 C 147.699219 270.734375 115.019531 238.015625 115.019531 197.800781 C 115.019531 157.585938 147.699219 124.867188 187.867188 124.867188 C 203.1875 124.867188 217.414062 129.625 229.15625 137.742188 C 231.425781 135.371094 233.742188 133.070312 236.089844 130.855469 C 237.636719 129.398438 239.210938 127.96875 240.804688 126.570312 C 235.125 122.328125 228.964844 118.792969 222.386719 116.007812 C 211.449219 111.378906 199.835938 109.03125 187.867188 109.03125 C 175.902344 109.03125 164.289062 111.378906 153.351562 116.007812 C 142.792969 120.480469 133.308594 126.878906 125.167969 135.03125 C 117.027344 143.179688 110.636719 152.671875 106.167969 163.246094 C 101.542969 174.195312 99.199219 185.820312 99.199219 197.800781 C 99.199219 209.78125 101.542969 221.410156 106.167969 232.359375 C 110.632812 242.929688 117.027344 252.421875 125.167969 260.574219 C 133.308594 268.722656 142.792969 275.121094 153.351562 279.59375 C 164.289062 284.226562 175.902344 286.574219 187.867188 286.574219 C 199.835938 286.574219 211.449219 284.226562 222.386719 279.59375 C 232.945312 275.121094 242.425781 268.722656 250.566406 260.574219 C 258.710938 252.421875 265.101562 242.929688 269.566406 232.359375 C 274.191406 221.410156 276.539062 209.78125 276.539062 197.800781 C 276.539062 185.820312 274.191406 174.195312 269.566406 163.246094 C 266.835938 156.777344 263.382812 150.71875 259.25 145.121094 "
       fill-opacity="1"
       fill-rule="nonzero"
       id="path15" />
  </g>
</svg>
