<?xml version="1.0" encoding="UTF-8" standalone="no"?>
<svg
   width="500"
   zoomAndPan="magnify"
   viewBox="0 0 375 374.999991"
   height="500"
   preserveAspectRatio="xMidYMid meet"
   version="1.0"
   id="svg28"
   sodipodi:docname="hrr-red-3.svg"
   inkscape:version="1.3 (0e150ed6c4, 2023-07-21)"
   xmlns:inkscape="http://www.inkscape.org/namespaces/inkscape"
   xmlns:sodipodi="http://sodipodi.sourceforge.net/DTD/sodipodi-0.dtd"
   xmlns="http://www.w3.org/2000/svg"
   xmlns:svg="http://www.w3.org/2000/svg">
  <sodipodi:namedview
     id="namedview28"
     pagecolor="#ffffff"
     bordercolor="#000000"
     borderopacity="0.25"
     inkscape:showpageshadow="2"
     inkscape:pageopacity="0.0"
     inkscape:pagecheckerboard="0"
     inkscape:deskcolor="#d1d1d1"
     inkscape:zoom="1.61"
     inkscape:cx="250"
     inkscape:cy="250"
     inkscape:window-width="1920"
     inkscape:window-height="1014"
     inkscape:window-x="0"
     inkscape:window-y="31"
     inkscape:window-maximized="1"
     inkscape:current-layer="svg28" />
  <defs
     id="defs8">
    <clipPath
       id="61184e85fe">
      <path
         d="M 21.363281 27.773438 L 352.863281 27.773438 L 352.863281 359.273438 L 21.363281 359.273438 Z M 21.363281 27.773438 "
         clip-rule="nonzero"
         id="path1" />
    </clipPath>
    <clipPath
       id="a74d8cd84b">
      <path
         d="M 187.113281 27.773438 C 95.570312 27.773438 21.363281 101.984375 21.363281 193.523438 C 21.363281 285.066406 95.570312 359.273438 187.113281 359.273438 C 278.652344 359.273438 352.863281 285.066406 352.863281 193.523438 C 352.863281 101.984375 278.652344 27.773438 187.113281 27.773438 Z M 187.113281 27.773438 "
         clip-rule="nonzero"
         id="path2" />
    </clipPath>
    <clipPath
       id="d1fb65bdd2">
      <path
         d="M 37.5 43.910156 L 337.097656 43.910156 L 337.097656 343.511719 L 37.5 343.511719 Z M 37.5 43.910156 "
         clip-rule="nonzero"
         id="path3" />
    </clipPath>
    <clipPath
       id="c6a5861a48">
      <path
         d="M 187.300781 43.910156 C 104.566406 43.910156 37.5 110.980469 37.5 193.710938 C 37.5 276.445312 104.566406 343.511719 187.300781 343.511719 C 270.03125 343.511719 337.097656 276.445312 337.097656 193.710938 C 337.097656 110.980469 270.03125 43.910156 187.300781 43.910156 Z M 187.300781 43.910156 "
         clip-rule="nonzero"
         id="path4" />
    </clipPath>
    <clipPath
       id="5d5165dc3f">
      <path
         d="M 37.5 43.910156 L 336.75 43.910156 L 336.75 343.160156 L 37.5 343.160156 Z M 37.5 43.910156 "
         clip-rule="nonzero"
         id="path5" />
    </clipPath>
    <clipPath
       id="d1fc06a1fd">
      <path
         d="M 187.125 43.910156 C 104.488281 43.910156 37.5 110.902344 37.5 193.535156 C 37.5 276.171875 104.488281 343.160156 187.125 343.160156 C 269.761719 343.160156 336.75 276.171875 336.75 193.535156 C 336.75 110.902344 269.761719 43.910156 187.125 43.910156 Z M 187.125 43.910156 "
         clip-rule="nonzero"
         id="path6" />
    </clipPath>
    <clipPath
       id="00f12a2c3a">
      <path
         d="M 239 147 L 298.679688 147 L 298.679688 207 L 239 207 Z M 239 147 "
         clip-rule="nonzero"
         id="path7" />
    </clipPath>
    <clipPath
       id="c2e8d692a8">
      <path
         d="M 99.179688 111 L 174 111 L 174 276.902344 L 99.179688 276.902344 Z M 99.179688 111 "
         clip-rule="nonzero"
         id="path8" />
    </clipPath>
  </defs>
  <g
     clip-path="url(#61184e85fe)"
     id="g10">
    <g
       clip-path="url(#a74d8cd84b)"
       id="g9">
      <path
         stroke-linecap="butt"
         transform="matrix(0.749179, 0, 0, 0.749179, 21.362708, 27.774549)"
         fill="none"
         stroke-linejoin="miter"
         d="M 221.24295 -0.00148359 C 99.051901 -0.00148359 0.000765629 99.054866 0.000765629 221.240701 C 0.000765629 343.43175 99.051901 442.482885 221.24295 442.482885 C 343.428785 442.482885 442.485135 343.43175 442.485135 221.240701 C 442.485135 99.054866 343.428785 -0.00148359 221.24295 -0.00148359 Z M 221.24295 -0.00148359 "
         stroke="#000000"
         stroke-width="16"
         stroke-opacity="1"
         stroke-miterlimit="4"
         id="path9" />
    </g>
  </g>
  <g
     clip-path="url(#d1fb65bdd2)"
     id="g12">
    <g
       clip-path="url(#c6a5861a48)"
       id="g11">
      <path
         fill="#e0000e"
         d="M 37.5 43.910156 L 337.097656 43.910156 L 337.097656 343.511719 L 37.5 343.511719 Z M 37.5 43.910156 "
         fill-opacity="1"
         fill-rule="nonzero"
         id="path10" />
    </g>
  </g>
  <g
     clip-path="url(#5d5165dc3f)"
     id="g14">
    <g
       clip-path="url(#d1fc06a1fd)"
       id="g13">
      <path
         stroke-linecap="butt"
         transform="matrix(0.749149, 0, 0, 0.749149, 37.500002, 43.911912)"
         fill="none"
         stroke-linejoin="miter"
         d="M 199.72658 -0.00234301 C 89.419149 -0.00234301 -0.00000271975 89.422023 -0.00000271975 199.72424 C -0.00000271975 310.031672 89.419149 399.450823 199.72658 399.450823 C 310.034012 399.450823 399.453163 310.031672 399.453163 199.72424 C 399.453163 89.422023 310.034012 -0.00234301 199.72658 -0.00234301 Z M 199.72658 -0.00234301 "
         stroke="#000000"
         stroke-width="8"
         stroke-opacity="1"
         stroke-miterlimit="4"
         id="path12" />
    </g>
  </g>
  <g
     clip-path="url(#00f12a2c3a)"
     id="g15">
    <path
       fill="#ffffff"
       d="M 269.066406 147.308594 C 252.703125 147.308594 239.453125 160.550781 239.453125 176.90625 C 239.453125 193.265625 252.703125 206.507812 269.066406 206.507812 C 285.433594 206.507812 298.679688 193.265625 298.679688 176.90625 C 298.679688 160.550781 285.433594 147.308594 269.066406 147.308594 Z M 269.066406 169.117188 C 273.429688 169.117188 276.859375 172.546875 276.859375 176.90625 C 276.859375 181.269531 273.429688 184.695312 269.066406 184.695312 C 264.703125 184.695312 261.273438 181.269531 261.273438 176.90625 C 261.273438 172.546875 264.703125 169.117188 269.066406 169.117188 Z M 269.066406 169.117188 "
       fill-opacity="1"
       fill-rule="nonzero"
       id="path14" />
  </g>
  <path
     fill="#ffffff"
     d="M 175.550781 176.90625 C 175.550781 177.320312 175.472656 177.71875 175.3125 178.097656 C 175.15625 178.480469 174.929688 178.816406 174.636719 179.109375 C 174.347656 179.402344 174.007812 179.628906 173.628906 179.785156 C 173.246094 179.945312 172.847656 180.023438 172.433594 180.023438 C 172.019531 180.023438 171.625 179.945312 171.242188 179.785156 C 170.859375 179.628906 170.523438 179.402344 170.230469 179.109375 C 169.9375 178.816406 169.710938 178.480469 169.554688 178.097656 C 169.394531 177.71875 169.316406 177.320312 169.316406 176.90625 C 169.316406 176.492188 169.394531 176.097656 169.554688 175.714844 C 169.710938 175.332031 169.9375 174.996094 170.230469 174.703125 C 170.523438 174.410156 170.859375 174.1875 171.242188 174.027344 C 171.625 173.871094 172.019531 173.792969 172.433594 173.792969 C 172.847656 173.792969 173.246094 173.871094 173.628906 174.027344 C 174.007812 174.1875 174.347656 174.410156 174.636719 174.703125 C 174.929688 174.996094 175.15625 175.332031 175.3125 175.714844 C 175.472656 176.097656 175.550781 176.492188 175.550781 176.90625 Z M 175.550781 176.90625 "
     fill-opacity="1"
     fill-rule="nonzero"
     id="path15" />
  <path
     fill="#ffffff"
     d="M 186.460938 182.046875 C 186.460938 182.460938 186.382812 182.859375 186.222656 183.242188 C 186.066406 183.621094 185.839844 183.960938 185.546875 184.25 C 185.257812 184.542969 184.917969 184.769531 184.539062 184.925781 C 184.15625 185.085938 183.757812 185.164062 183.34375 185.164062 C 182.929688 185.164062 182.535156 185.085938 182.152344 184.925781 C 181.769531 184.769531 181.433594 184.542969 181.140625 184.25 C 180.847656 183.960938 180.621094 183.621094 180.464844 183.242188 C 180.304688 182.859375 180.226562 182.460938 180.226562 182.046875 C 180.226562 181.636719 180.304688 181.238281 180.464844 180.855469 C 180.621094 180.472656 180.847656 180.136719 181.140625 179.84375 C 181.433594 179.550781 181.769531 179.328125 182.152344 179.167969 C 182.535156 179.011719 182.929688 178.933594 183.34375 178.933594 C 183.757812 178.933594 184.15625 179.011719 184.539062 179.167969 C 184.917969 179.328125 185.257812 179.550781 185.546875 179.84375 C 185.839844 180.136719 186.066406 180.472656 186.222656 180.855469 C 186.382812 181.238281 186.460938 181.636719 186.460938 182.046875 Z M 186.460938 182.046875 "
     fill-opacity="1"
     fill-rule="nonzero"
     id="path16" />
  <path
     fill="#ffffff"
     d="M 197.371094 187.34375 C 197.371094 187.757812 197.292969 188.15625 197.132812 188.539062 C 196.976562 188.917969 196.75 189.253906 196.457031 189.546875 C 196.167969 189.839844 195.828125 190.066406 195.449219 190.222656 C 195.066406 190.382812 194.667969 190.460938 194.253906 190.460938 C 193.839844 190.460938 193.445312 190.382812 193.0625 190.222656 C 192.679688 190.066406 192.34375 189.839844 192.050781 189.546875 C 191.757812 189.253906 191.53125 188.917969 191.375 188.539062 C 191.214844 188.15625 191.136719 187.757812 191.136719 187.34375 C 191.136719 186.933594 191.214844 186.535156 191.375 186.152344 C 191.53125 185.769531 191.757812 185.433594 192.050781 185.140625 C 192.34375 184.847656 192.679688 184.625 193.0625 184.464844 C 193.445312 184.308594 193.839844 184.230469 194.253906 184.230469 C 194.667969 184.230469 195.066406 184.308594 195.449219 184.464844 C 195.828125 184.625 196.167969 184.847656 196.457031 185.140625 C 196.75 185.433594 196.976562 185.769531 197.132812 186.152344 C 197.292969 186.535156 197.371094 186.933594 197.371094 187.34375 Z M 197.371094 187.34375 "
     fill-opacity="1"
     fill-rule="nonzero"
     id="path17" />
  <path
     fill="#ffffff"
     d="M 208.28125 192.484375 C 208.28125 192.898438 208.203125 193.296875 208.042969 193.679688 C 207.886719 194.058594 207.660156 194.398438 207.367188 194.6875 C 207.078125 194.980469 206.738281 195.207031 206.359375 195.363281 C 205.976562 195.523438 205.578125 195.601562 205.164062 195.601562 C 204.75 195.601562 204.355469 195.523438 203.972656 195.363281 C 203.589844 195.207031 203.253906 194.980469 202.960938 194.6875 C 202.667969 194.398438 202.441406 194.058594 202.285156 193.679688 C 202.125 193.296875 202.046875 192.898438 202.046875 192.484375 C 202.046875 192.074219 202.125 191.675781 202.285156 191.292969 C 202.441406 190.910156 202.667969 190.574219 202.960938 190.28125 C 203.253906 189.992188 203.589844 189.765625 203.972656 189.605469 C 204.355469 189.449219 204.75 189.371094 205.164062 189.371094 C 205.578125 189.371094 205.976562 189.449219 206.359375 189.605469 C 206.738281 189.765625 207.078125 189.992188 207.367188 190.28125 C 207.660156 190.574219 207.886719 190.910156 208.042969 191.292969 C 208.203125 191.675781 208.28125 192.074219 208.28125 192.484375 Z M 208.28125 192.484375 "
     fill-opacity="1"
     fill-rule="nonzero"
     id="path18" />
  <path
     fill="#ffffff"
     d="M 219.191406 197.625 C 219.191406 198.039062 219.113281 198.4375 218.953125 198.820312 C 218.796875 199.199219 218.570312 199.539062 218.277344 199.828125 C 217.988281 200.121094 217.648438 200.347656 217.269531 200.503906 C 216.886719 200.664062 216.488281 200.742188 216.074219 200.742188 C 215.660156 200.742188 215.265625 200.664062 214.882812 200.503906 C 214.5 200.347656 214.164062 200.121094 213.871094 199.828125 C 213.578125 199.539062 213.351562 199.199219 213.195312 198.820312 C 213.035156 198.4375 212.957031 198.039062 212.957031 197.625 C 212.957031 197.214844 213.035156 196.816406 213.195312 196.433594 C 213.351562 196.054688 213.578125 195.714844 213.871094 195.421875 C 214.164062 195.132812 214.5 194.90625 214.882812 194.75 C 215.265625 194.589844 215.660156 194.511719 216.074219 194.511719 C 216.488281 194.511719 216.886719 194.589844 217.269531 194.75 C 217.648438 194.90625 217.988281 195.132812 218.277344 195.421875 C 218.570312 195.714844 218.796875 196.054688 218.953125 196.433594 C 219.113281 196.816406 219.191406 197.214844 219.191406 197.625 Z M 219.191406 197.625 "
     fill-opacity="1"
     fill-rule="nonzero"
     id="path19" />
  <path
     fill="#ffffff"
     d="M 230.101562 202.921875 C 230.101562 203.335938 230.023438 203.734375 229.863281 204.117188 C 229.707031 204.496094 229.480469 204.835938 229.1875 205.125 C 228.898438 205.417969 228.558594 205.644531 228.179688 205.800781 C 227.796875 205.960938 227.398438 206.039062 226.984375 206.039062 C 226.570312 206.039062 226.175781 205.960938 225.792969 205.800781 C 225.410156 205.644531 225.074219 205.417969 224.78125 205.125 C 224.488281 204.835938 224.261719 204.496094 224.105469 204.117188 C 223.945312 203.734375 223.867188 203.335938 223.867188 202.921875 C 223.867188 202.511719 223.945312 202.113281 224.105469 201.730469 C 224.261719 201.347656 224.488281 201.011719 224.78125 200.71875 C 225.074219 200.429688 225.410156 200.203125 225.792969 200.046875 C 226.175781 199.886719 226.570312 199.808594 226.984375 199.808594 C 227.398438 199.808594 227.796875 199.886719 228.179688 200.046875 C 228.558594 200.203125 228.898438 200.429688 229.1875 200.71875 C 229.480469 201.011719 229.707031 201.347656 229.863281 201.730469 C 230.023438 202.113281 230.101562 202.511719 230.101562 202.921875 Z M 230.101562 202.921875 "
     fill-opacity="1"
     fill-rule="nonzero"
     id="path20" />
  <path
     fill="#ffffff"
     d="M 241.011719 208.066406 C 241.011719 208.476562 240.933594 208.875 240.773438 209.257812 C 240.617188 209.640625 240.390625 209.976562 240.097656 210.269531 C 239.808594 210.558594 239.46875 210.785156 239.089844 210.941406 C 238.707031 211.101562 238.308594 211.179688 237.894531 211.179688 C 237.480469 211.179688 237.085938 211.101562 236.703125 210.941406 C 236.320312 210.785156 235.984375 210.558594 235.691406 210.269531 C 235.398438 209.976562 235.171875 209.640625 235.015625 209.257812 C 234.855469 208.875 234.777344 208.476562 234.777344 208.066406 C 234.777344 207.652344 234.855469 207.253906 235.015625 206.871094 C 235.171875 206.492188 235.398438 206.152344 235.691406 205.863281 C 235.984375 205.570312 236.320312 205.34375 236.703125 205.1875 C 237.085938 205.027344 237.480469 204.949219 237.894531 204.949219 C 238.308594 204.949219 238.707031 205.027344 239.089844 205.1875 C 239.46875 205.34375 239.808594 205.570312 240.097656 205.863281 C 240.390625 206.152344 240.617188 206.492188 240.773438 206.871094 C 240.933594 207.253906 241.011719 207.652344 241.011719 208.066406 Z M 241.011719 208.066406 "
     fill-opacity="1"
     fill-rule="nonzero"
     id="path21" />
  <path
     fill="#ffffff"
     d="M 186.460938 171.765625 C 186.460938 172.179688 186.382812 172.578125 186.222656 172.957031 C 186.066406 173.339844 185.839844 173.675781 185.546875 173.96875 C 185.257812 174.261719 184.917969 174.488281 184.539062 174.644531 C 184.15625 174.800781 183.757812 174.882812 183.34375 174.882812 C 182.929688 174.882812 182.535156 174.800781 182.152344 174.644531 C 181.769531 174.488281 181.433594 174.261719 181.140625 173.96875 C 180.847656 173.675781 180.621094 173.339844 180.464844 172.957031 C 180.304688 172.578125 180.226562 172.179688 180.226562 171.765625 C 180.226562 171.351562 180.304688 170.957031 180.464844 170.574219 C 180.621094 170.191406 180.847656 169.855469 181.140625 169.5625 C 181.433594 169.269531 181.769531 169.046875 182.152344 168.886719 C 182.535156 168.730469 182.929688 168.648438 183.34375 168.648438 C 183.757812 168.648438 184.15625 168.730469 184.539062 168.886719 C 184.917969 169.046875 185.257812 169.269531 185.546875 169.5625 C 185.839844 169.855469 186.066406 170.191406 186.222656 170.574219 C 186.382812 170.957031 186.460938 171.351562 186.460938 171.765625 Z M 186.460938 171.765625 "
     fill-opacity="1"
     fill-rule="nonzero"
     id="path22" />
  <path
     fill="#ffffff"
     d="M 197.371094 166.46875 C 197.371094 166.882812 197.292969 167.28125 197.132812 167.660156 C 196.976562 168.042969 196.75 168.378906 196.457031 168.671875 C 196.167969 168.964844 195.828125 169.191406 195.449219 169.347656 C 195.066406 169.507812 194.667969 169.585938 194.253906 169.585938 C 193.839844 169.585938 193.445312 169.507812 193.0625 169.347656 C 192.679688 169.191406 192.34375 168.964844 192.050781 168.671875 C 191.757812 168.378906 191.53125 168.042969 191.375 167.660156 C 191.214844 167.28125 191.136719 166.882812 191.136719 166.46875 C 191.136719 166.054688 191.214844 165.660156 191.375 165.277344 C 191.53125 164.894531 191.757812 164.558594 192.050781 164.265625 C 192.34375 163.972656 192.679688 163.75 193.0625 163.589844 C 193.445312 163.433594 193.839844 163.351562 194.253906 163.351562 C 194.667969 163.351562 195.066406 163.433594 195.449219 163.589844 C 195.828125 163.75 196.167969 163.972656 196.457031 164.265625 C 196.75 164.558594 196.976562 164.894531 197.132812 165.277344 C 197.292969 165.660156 197.371094 166.054688 197.371094 166.46875 Z M 197.371094 166.46875 "
     fill-opacity="1"
     fill-rule="nonzero"
     id="path23" />
  <path
     fill="#ffffff"
     d="M 208.28125 161.328125 C 208.28125 161.742188 208.203125 162.140625 208.042969 162.519531 C 207.886719 162.902344 207.660156 163.238281 207.367188 163.53125 C 207.078125 163.824219 206.738281 164.046875 206.359375 164.207031 C 205.976562 164.363281 205.578125 164.445312 205.164062 164.445312 C 204.75 164.445312 204.355469 164.363281 203.972656 164.207031 C 203.589844 164.046875 203.253906 163.824219 202.960938 163.53125 C 202.667969 163.238281 202.441406 162.902344 202.285156 162.519531 C 202.125 162.140625 202.046875 161.742188 202.046875 161.328125 C 202.046875 160.914062 202.125 160.519531 202.285156 160.136719 C 202.441406 159.753906 202.667969 159.417969 202.960938 159.125 C 203.253906 158.832031 203.589844 158.609375 203.972656 158.449219 C 204.355469 158.292969 204.75 158.210938 205.164062 158.210938 C 205.578125 158.210938 205.976562 158.292969 206.359375 158.449219 C 206.738281 158.609375 207.078125 158.832031 207.367188 159.125 C 207.660156 159.417969 207.886719 159.753906 208.042969 160.136719 C 208.203125 160.519531 208.28125 160.914062 208.28125 161.328125 Z M 208.28125 161.328125 "
     fill-opacity="1"
     fill-rule="nonzero"
     id="path24" />
  <path
     fill="#ffffff"
     d="M 219.191406 156.1875 C 219.191406 156.601562 219.113281 156.996094 218.953125 157.378906 C 218.796875 157.761719 218.570312 158.097656 218.277344 158.390625 C 217.988281 158.683594 217.648438 158.90625 217.269531 159.066406 C 216.886719 159.222656 216.488281 159.304688 216.074219 159.304688 C 215.660156 159.304688 215.265625 159.222656 214.882812 159.066406 C 214.5 158.90625 214.164062 158.683594 213.871094 158.390625 C 213.578125 158.097656 213.351562 157.761719 213.195312 157.378906 C 213.035156 156.996094 212.957031 156.601562 212.957031 156.1875 C 212.957031 155.773438 213.035156 155.375 213.195312 154.996094 C 213.351562 154.613281 213.578125 154.277344 213.871094 153.984375 C 214.164062 153.691406 214.5 153.464844 214.882812 153.308594 C 215.265625 153.152344 215.660156 153.070312 216.074219 153.070312 C 216.488281 153.070312 216.886719 153.152344 217.269531 153.308594 C 217.648438 153.464844 217.988281 153.691406 218.277344 153.984375 C 218.570312 154.277344 218.796875 154.613281 218.953125 154.996094 C 219.113281 155.375 219.191406 155.773438 219.191406 156.1875 Z M 219.191406 156.1875 "
     fill-opacity="1"
     fill-rule="nonzero"
     id="path25" />
  <path
     fill="#ffffff"
     d="M 230.101562 150.890625 C 230.101562 151.304688 230.023438 151.699219 229.863281 152.082031 C 229.707031 152.464844 229.480469 152.800781 229.1875 153.09375 C 228.898438 153.386719 228.558594 153.609375 228.179688 153.769531 C 227.796875 153.925781 227.398438 154.007812 226.984375 154.007812 C 226.570312 154.007812 226.175781 153.925781 225.792969 153.769531 C 225.410156 153.609375 225.074219 153.386719 224.78125 153.09375 C 224.488281 152.800781 224.261719 152.464844 224.105469 152.082031 C 223.945312 151.699219 223.867188 151.304688 223.867188 150.890625 C 223.867188 150.476562 223.945312 150.078125 224.105469 149.699219 C 224.261719 149.316406 224.488281 148.980469 224.78125 148.6875 C 225.074219 148.394531 225.410156 148.171875 225.792969 148.011719 C 226.175781 147.855469 226.570312 147.773438 226.984375 147.773438 C 227.398438 147.773438 227.796875 147.855469 228.179688 148.011719 C 228.558594 148.171875 228.898438 148.394531 229.1875 148.6875 C 229.480469 148.980469 229.707031 149.316406 229.863281 149.699219 C 230.023438 150.078125 230.101562 150.476562 230.101562 150.890625 Z M 230.101562 150.890625 "
     fill-opacity="1"
     fill-rule="nonzero"
     id="path26" />
  <path
     fill="#ffffff"
     d="M 241.011719 145.75 C 241.011719 146.164062 240.933594 146.558594 240.773438 146.941406 C 240.617188 147.324219 240.390625 147.660156 240.097656 147.953125 C 239.808594 148.246094 239.46875 148.46875 239.089844 148.628906 C 238.707031 148.785156 238.308594 148.863281 237.894531 148.863281 C 237.480469 148.863281 237.085938 148.785156 236.703125 148.628906 C 236.320312 148.46875 235.984375 148.246094 235.691406 147.953125 C 235.398438 147.660156 235.171875 147.324219 235.015625 146.941406 C 234.855469 146.558594 234.777344 146.164062 234.777344 145.75 C 234.777344 145.335938 234.855469 144.9375 235.015625 144.558594 C 235.171875 144.175781 235.398438 143.839844 235.691406 143.546875 C 235.984375 143.253906 236.320312 143.027344 236.703125 142.871094 C 237.085938 142.710938 237.480469 142.632812 237.894531 142.632812 C 238.308594 142.632812 238.707031 142.710938 239.089844 142.871094 C 239.46875 143.027344 239.808594 143.253906 240.097656 143.546875 C 240.390625 143.839844 240.617188 144.175781 240.773438 144.558594 C 240.933594 144.9375 241.011719 145.335938 241.011719 145.75 Z M 241.011719 145.75 "
     fill-opacity="1"
     fill-rule="nonzero"
     id="path27" />
  <g
     clip-path="url(#c2e8d692a8)"
     id="g28">
    <path
       fill="#ffffff"
       d="M 173.679688 203.703125 C 173.679688 203.703125 164.796875 186.410156 161.523438 180.023438 L 153.730469 180.023438 C 152.015625 180.023438 150.613281 178.621094 150.613281 176.90625 C 150.613281 175.195312 152.015625 173.792969 153.730469 173.792969 L 159.964844 173.792969 C 159.964844 172.546875 160.121094 171.296875 160.121094 170.207031 C 160.277344 166.625 160.433594 163.199219 159.964844 158.992188 C 158.40625 142.320312 136.585938 110.542969 102.296875 111.476562 C 100.582031 111.476562 99.179688 112.878906 99.179688 114.589844 L 99.179688 276.613281 L 125.054688 276.613281 C 125.054688 276.613281 128.171875 276.765625 128.324219 273.652344 C 128.480469 266.953125 130.039062 262.589844 132.847656 259.785156 C 135.808594 256.980469 141.261719 256.359375 145.160156 257.136719 C 149.992188 258.074219 154.199219 256.980469 157.003906 254.179688 C 159.03125 251.996094 159.964844 249.191406 159.34375 246.386719 C 157.785156 239.222656 160.902344 236.417969 161.054688 236.261719 C 161.679688 235.796875 162.148438 235.015625 162.304688 234.238281 C 162.460938 233.457031 162.148438 232.523438 161.679688 231.898438 L 156.847656 225.980469 C 158.5625 224.734375 160.902344 222.863281 163.082031 221.308594 C 164.019531 220.683594 164.484375 219.59375 164.328125 218.503906 L 163.550781 209.464844 L 169.941406 209.464844 C 171.34375 209.464844 172.589844 208.84375 173.371094 207.753906 C 174.148438 206.507812 174.148438 205.105469 173.679688 203.703125 Z M 173.679688 203.703125 "
       fill-opacity="1"
       fill-rule="nonzero"
       id="path28" />
  </g>
</svg>
