<?xml version="1.0" encoding="UTF-8" standalone="no"?>
<svg
   width="500"
   zoomAndPan="magnify"
   viewBox="0 0 375 374.999991"
   height="500"
   preserveAspectRatio="xMidYMid meet"
   version="1.0"
   id="svg23"
   sodipodi:docname="hrr-red-4.svg"
   inkscape:version="1.3 (0e150ed6c4, 2023-07-21)"
   xmlns:inkscape="http://www.inkscape.org/namespaces/inkscape"
   xmlns:sodipodi="http://sodipodi.sourceforge.net/DTD/sodipodi-0.dtd"
   xmlns="http://www.w3.org/2000/svg"
   xmlns:svg="http://www.w3.org/2000/svg">
  <sodipodi:namedview
     id="namedview23"
     pagecolor="#ffffff"
     bordercolor="#000000"
     borderopacity="0.25"
     inkscape:showpageshadow="2"
     inkscape:pageopacity="0.0"
     inkscape:pagecheckerboard="0"
     inkscape:deskcolor="#d1d1d1"
     inkscape:zoom="1.61"
     inkscape:cx="250"
     inkscape:cy="250"
     inkscape:window-width="1920"
     inkscape:window-height="1014"
     inkscape:window-x="0"
     inkscape:window-y="31"
     inkscape:window-maximized="1"
     inkscape:current-layer="svg23" />
  <defs
     id="defs8">
    <clipPath
       id="1ae0fb9aae">
      <path
         d="M 21.363281 27.773438 L 352.863281 27.773438 L 352.863281 359.273438 L 21.363281 359.273438 Z M 21.363281 27.773438 "
         clip-rule="nonzero"
         id="path1" />
    </clipPath>
    <clipPath
       id="f078049a58">
      <path
         d="M 187.113281 27.773438 C 95.570312 27.773438 21.363281 101.984375 21.363281 193.523438 C 21.363281 285.066406 95.570312 359.273438 187.113281 359.273438 C 278.652344 359.273438 352.863281 285.066406 352.863281 193.523438 C 352.863281 101.984375 278.652344 27.773438 187.113281 27.773438 Z M 187.113281 27.773438 "
         clip-rule="nonzero"
         id="path2" />
    </clipPath>
    <clipPath
       id="fefb08e214">
      <path
         d="M 37.5 43.910156 L 337.097656 43.910156 L 337.097656 343.511719 L 37.5 343.511719 Z M 37.5 43.910156 "
         clip-rule="nonzero"
         id="path3" />
    </clipPath>
    <clipPath
       id="15d63fa9b4">
      <path
         d="M 187.300781 43.910156 C 104.566406 43.910156 37.5 110.980469 37.5 193.710938 C 37.5 276.445312 104.566406 343.511719 187.300781 343.511719 C 270.03125 343.511719 337.097656 276.445312 337.097656 193.710938 C 337.097656 110.980469 270.03125 43.910156 187.300781 43.910156 Z M 187.300781 43.910156 "
         clip-rule="nonzero"
         id="path4" />
    </clipPath>
    <clipPath
       id="9ab35def14">
      <path
         d="M 37.5 43.910156 L 336.75 43.910156 L 336.75 343.160156 L 37.5 343.160156 Z M 37.5 43.910156 "
         clip-rule="nonzero"
         id="path5" />
    </clipPath>
    <clipPath
       id="7e369efcc8">
      <path
         d="M 187.125 43.910156 C 104.488281 43.910156 37.5 110.902344 37.5 193.535156 C 37.5 276.171875 104.488281 343.160156 187.125 343.160156 C 269.761719 343.160156 336.75 276.171875 336.75 193.535156 C 336.75 110.902344 269.761719 43.910156 187.125 43.910156 Z M 187.125 43.910156 "
         clip-rule="nonzero"
         id="path6" />
    </clipPath>
    <clipPath
       id="59a54d7ddb">
      <path
         d="M 250 173 L 279.875 173 L 279.875 202 L 250 202 Z M 250 173 "
         clip-rule="nonzero"
         id="path7" />
    </clipPath>
    <clipPath
       id="6521e5fdd0">
      <path
         d="M 94.625 173 L 125 173 L 125 202 L 94.625 202 Z M 94.625 173 "
         clip-rule="nonzero"
         id="path8" />
    </clipPath>
  </defs>
  <g
     clip-path="url(#1ae0fb9aae)"
     id="g10">
    <g
       clip-path="url(#f078049a58)"
       id="g9">
      <path
         stroke-linecap="butt"
         transform="matrix(0.749179, 0, 0, 0.749179, 21.362708, 27.774578)"
         fill="none"
         stroke-linejoin="miter"
         d="M 221.24295 -0.00152267 C 99.051901 -0.00152267 0.000765629 99.054827 0.000765629 221.240662 C 0.000765629 343.431711 99.051901 442.482846 221.24295 442.482846 C 343.428785 442.482846 442.485135 343.431711 442.485135 221.240662 C 442.485135 99.054827 343.428785 -0.00152267 221.24295 -0.00152267 Z M 221.24295 -0.00152267 "
         stroke="#000000"
         stroke-width="16"
         stroke-opacity="1"
         stroke-miterlimit="4"
         id="path9" />
    </g>
  </g>
  <g
     clip-path="url(#fefb08e214)"
     id="g12">
    <g
       clip-path="url(#15d63fa9b4)"
       id="g11">
      <path
         fill="#e0000e"
         d="M 37.5 43.910156 L 337.097656 43.910156 L 337.097656 343.511719 L 37.5 343.511719 Z M 37.5 43.910156 "
         fill-opacity="1"
         fill-rule="nonzero"
         id="path10" />
    </g>
  </g>
  <g
     clip-path="url(#9ab35def14)"
     id="g14">
    <g
       clip-path="url(#7e369efcc8)"
       id="g13">
      <path
         stroke-linecap="butt"
         transform="matrix(0.749149, 0, 0, 0.749149, 37.500002, 43.911852)"
         fill="none"
         stroke-linejoin="miter"
         d="M 199.72658 -0.00226292 C 89.419149 -0.00226292 -0.00000271975 89.422103 -0.00000271975 199.72432 C -0.00000271975 310.031752 89.419149 399.450903 199.72658 399.450903 C 310.034012 399.450903 399.453163 310.031752 399.453163 199.72432 C 399.453163 89.422103 310.034012 -0.00226292 199.72658 -0.00226292 Z M 199.72658 -0.00226292 "
         stroke="#000000"
         stroke-width="8"
         stroke-opacity="1"
         stroke-miterlimit="4"
         id="path12" />
    </g>
  </g>
  <path
     fill="#ffffff"
     d="M 178.289062 113.957031 L 177.167969 120.511719 C 176.984375 121.589844 177.425781 122.683594 178.3125 123.328125 C 179.203125 123.972656 180.378906 124.058594 181.347656 123.546875 L 187.230469 120.453125 L 193.113281 123.546875 C 193.535156 123.769531 193.996094 123.878906 194.453125 123.878906 C 195.050781 123.878906 195.644531 123.695312 196.148438 123.328125 C 197.035156 122.683594 197.476562 121.589844 197.292969 120.511719 L 196.171875 113.957031 L 200.929688 109.316406 C 201.714844 108.550781 202 107.40625 201.660156 106.363281 C 201.320312 105.320312 200.417969 104.5625 199.332031 104.402344 L 192.753906 103.445312 L 189.8125 97.484375 C 188.839844 95.515625 185.617188 95.515625 184.644531 97.484375 L 181.703125 103.445312 L 175.128906 104.402344 C 174.042969 104.5625 173.140625 105.320312 172.800781 106.363281 C 172.460938 107.40625 172.742188 108.550781 173.527344 109.316406 Z M 178.289062 113.957031 "
     fill-opacity="1"
     fill-rule="nonzero"
     id="path14" />
  <path
     fill="#ffffff"
     d="M 123.550781 137.007812 L 122.425781 143.558594 C 122.242188 144.640625 122.6875 145.730469 123.574219 146.375 C 124.464844 147.019531 125.636719 147.105469 126.609375 146.59375 L 132.492188 143.5 L 138.375 146.59375 C 138.792969 146.816406 139.253906 146.925781 139.714844 146.925781 C 140.308594 146.925781 140.90625 146.742188 141.40625 146.375 C 142.296875 145.730469 142.738281 144.640625 142.554688 143.558594 L 141.429688 137.007812 L 146.191406 132.367188 C 146.972656 131.597656 147.257812 130.457031 146.917969 129.414062 C 146.578125 128.371094 145.675781 127.609375 144.589844 127.449219 L 138.015625 126.492188 L 135.074219 120.535156 C 134.101562 118.566406 130.878906 118.566406 129.90625 120.535156 L 126.964844 126.492188 L 120.386719 127.449219 C 119.300781 127.609375 118.398438 128.371094 118.058594 129.414062 C 117.71875 130.457031 118.003906 131.597656 118.789062 132.367188 Z M 123.550781 137.007812 "
     fill-opacity="1"
     fill-rule="nonzero"
     id="path15" />
  <path
     fill="#ffffff"
     d="M 233.03125 137.007812 L 231.90625 143.558594 C 231.722656 144.640625 232.164062 145.730469 233.054688 146.375 C 233.941406 147.019531 235.117188 147.105469 236.085938 146.59375 L 241.96875 143.5 L 247.851562 146.59375 C 248.273438 146.816406 248.734375 146.925781 249.191406 146.925781 C 249.789062 146.925781 250.386719 146.742188 250.886719 146.375 C 251.773438 145.730469 252.21875 144.640625 252.035156 143.558594 L 250.910156 137.007812 L 255.667969 132.367188 C 256.453125 131.597656 256.738281 130.457031 256.398438 129.414062 C 256.058594 128.371094 255.15625 127.609375 254.070312 127.449219 L 247.492188 126.492188 L 244.550781 120.535156 C 243.582031 118.566406 240.355469 118.566406 239.386719 120.535156 L 236.445312 126.492188 L 229.867188 127.449219 C 228.78125 127.609375 227.878906 128.371094 227.539062 129.414062 C 227.199219 130.457031 227.480469 131.597656 228.269531 132.367188 Z M 233.03125 137.007812 "
     fill-opacity="1"
     fill-rule="nonzero"
     id="path16" />
  <path
     fill="#ffffff"
     d="M 144.59375 236.929688 L 138.015625 235.972656 L 135.074219 230.011719 C 134.105469 228.042969 130.878906 228.042969 129.910156 230.011719 L 126.96875 235.972656 L 120.390625 236.929688 C 119.304688 237.089844 118.402344 237.847656 118.0625 238.890625 C 117.722656 239.933594 118.003906 241.078125 118.792969 241.84375 L 123.550781 246.484375 L 122.425781 253.035156 C 122.242188 254.113281 122.6875 255.207031 123.574219 255.851562 C 124.464844 256.496094 125.636719 256.578125 126.609375 256.070312 L 132.492188 252.976562 L 138.375 256.070312 C 138.792969 256.292969 139.253906 256.402344 139.714844 256.402344 C 140.308594 256.402344 140.90625 256.21875 141.40625 255.851562 C 142.296875 255.207031 142.738281 254.113281 142.554688 253.035156 L 141.429688 246.484375 L 146.191406 241.839844 C 146.972656 241.074219 147.257812 239.929688 146.917969 238.886719 C 146.578125 237.847656 145.679688 237.089844 144.59375 236.929688 Z M 144.59375 236.929688 "
     fill-opacity="1"
     fill-rule="nonzero"
     id="path17" />
  <path
     fill="#ffffff"
     d="M 254.074219 236.929688 L 247.496094 235.972656 L 244.554688 230.011719 C 243.582031 228.042969 240.359375 228.042969 239.386719 230.011719 L 236.445312 235.972656 L 229.871094 236.929688 C 228.785156 237.089844 227.882812 237.847656 227.542969 238.890625 C 227.203125 239.933594 227.484375 241.078125 228.269531 241.84375 L 233.03125 246.484375 L 231.90625 253.035156 C 231.722656 254.113281 232.164062 255.207031 233.054688 255.851562 C 233.941406 256.496094 235.117188 256.578125 236.085938 256.070312 L 241.96875 252.976562 L 247.851562 256.070312 C 248.273438 256.292969 248.734375 256.402344 249.191406 256.402344 C 249.789062 256.402344 250.386719 256.21875 250.886719 255.851562 C 251.773438 255.207031 252.21875 254.113281 252.035156 253.035156 L 250.910156 246.484375 L 255.667969 241.839844 C 256.453125 241.074219 256.738281 239.929688 256.398438 238.886719 C 256.058594 237.847656 255.160156 237.089844 254.074219 236.929688 Z M 254.074219 236.929688 "
     fill-opacity="1"
     fill-rule="nonzero"
     id="path18" />
  <g
     clip-path="url(#59a54d7ddb)"
     id="g19">
    <path
       fill="#ffffff"
       d="M 279.445312 184.152344 C 279.105469 183.109375 278.203125 182.347656 277.117188 182.191406 L 270.539062 181.234375 L 267.597656 175.273438 C 266.628906 173.304688 263.40625 173.304688 262.433594 175.273438 L 259.492188 181.234375 L 252.914062 182.191406 C 251.828125 182.347656 250.925781 183.109375 250.585938 184.152344 C 250.246094 185.195312 250.53125 186.339844 251.316406 187.105469 L 256.074219 191.742188 L 254.953125 198.296875 C 254.765625 199.375 255.210938 200.46875 256.097656 201.113281 C 256.984375 201.757812 258.160156 201.839844 259.132812 201.332031 L 265.015625 198.238281 L 270.898438 201.332031 C 271.320312 201.554688 271.78125 201.664062 272.238281 201.664062 C 272.835938 201.664062 273.429688 201.480469 273.933594 201.113281 C 274.820312 200.46875 275.261719 199.375 275.078125 198.296875 L 273.953125 191.742188 L 278.714844 187.101562 C 279.503906 186.339844 279.785156 185.195312 279.445312 184.152344 Z M 279.445312 184.152344 "
       fill-opacity="1"
       fill-rule="nonzero"
       id="path19" />
  </g>
  <g
     clip-path="url(#6521e5fdd0)"
     id="g20">
    <path
       fill="#ffffff"
       d="M 119.507812 198.296875 L 118.382812 191.746094 L 123.140625 187.105469 C 123.925781 186.339844 124.210938 185.195312 123.871094 184.152344 C 123.53125 183.109375 122.628906 182.347656 121.542969 182.191406 L 114.964844 181.234375 L 112.023438 175.273438 C 111.054688 173.304688 107.828125 173.304688 106.859375 175.273438 L 103.917969 181.234375 L 97.339844 182.191406 C 96.253906 182.347656 95.351562 183.109375 95.011719 184.152344 C 94.671875 185.195312 94.953125 186.339844 95.742188 187.105469 L 100.5 191.742188 L 99.375 198.296875 C 99.191406 199.375 99.636719 200.46875 100.523438 201.113281 C 101.414062 201.757812 102.589844 201.839844 103.558594 201.332031 L 109.441406 198.238281 L 115.324219 201.332031 C 115.742188 201.554688 116.203125 201.664062 116.664062 201.664062 C 117.257812 201.664062 117.855469 201.480469 118.355469 201.113281 C 119.246094 200.46875 119.691406 199.378906 119.507812 198.296875 Z M 119.507812 198.296875 "
       fill-opacity="1"
       fill-rule="nonzero"
       id="path20" />
  </g>
  <path
     fill="#ffffff"
     d="M 199.332031 259.976562 L 192.757812 259.019531 L 189.816406 253.058594 C 188.84375 251.09375 185.621094 251.09375 184.648438 253.058594 L 181.707031 259.019531 L 175.128906 259.976562 C 174.042969 260.136719 173.140625 260.898438 172.800781 261.941406 C 172.460938 262.984375 172.746094 264.125 173.53125 264.894531 L 178.289062 269.53125 L 177.167969 276.082031 C 176.984375 277.164062 177.425781 278.253906 178.3125 278.898438 C 179.203125 279.546875 180.378906 279.628906 181.347656 279.121094 L 187.230469 276.023438 L 193.113281 279.121094 C 193.535156 279.339844 193.996094 279.449219 194.453125 279.449219 C 195.050781 279.449219 195.644531 279.265625 196.148438 278.898438 C 197.035156 278.253906 197.476562 277.164062 197.292969 276.082031 L 196.171875 269.53125 L 200.929688 264.890625 C 201.714844 264.125 202 262.980469 201.660156 261.9375 C 201.320312 260.894531 200.417969 260.136719 199.332031 259.976562 Z M 199.332031 259.976562 "
     fill-opacity="1"
     fill-rule="nonzero"
     id="path21" />
  <path
     fill="#ffffff"
     d="M 187.394531 165.121094 C 174.6875 165.121094 164.347656 175.460938 164.347656 188.171875 C 164.347656 200.878906 174.6875 211.21875 187.394531 211.21875 C 200.101562 211.21875 210.441406 200.878906 210.441406 188.171875 C 210.441406 175.460938 200.101562 165.121094 187.394531 165.121094 Z M 186.726562 198.65625 C 186.207031 199.28125 185.453125 199.65625 184.644531 199.691406 C 184.601562 199.695312 184.558594 199.695312 184.511719 199.695312 C 183.75 199.695312 183.019531 199.394531 182.476562 198.851562 L 176.714844 193.089844 L 180.789062 189.015625 L 184.320312 192.546875 L 196.707031 177.683594 L 201.132812 181.371094 Z M 186.726562 198.65625 "
     fill-opacity="1"
     fill-rule="nonzero"
     id="path22" />
  <path
     fill="#ffffff"
     d="M 230.164062 159.105469 L 188.785156 136.351562 C 187.917969 135.878906 186.871094 135.878906 186.007812 136.351562 L 144.625 159.105469 C 143.625 159.65625 143.042969 160.746094 143.144531 161.882812 L 145.617188 190.292969 C 146.886719 204.929688 154.601562 218.042969 166.769531 226.277344 L 185.785156 239.128906 C 186.269531 239.460938 186.835938 239.625 187.398438 239.625 C 187.960938 239.625 188.523438 239.460938 189.011719 239.128906 L 208.027344 226.273438 C 220.195312 218.042969 227.90625 204.929688 229.179688 190.292969 L 231.648438 161.882812 C 231.746094 160.746094 231.164062 159.65625 230.164062 159.105469 Z M 187.394531 216.980469 C 171.507812 216.980469 158.585938 204.058594 158.585938 188.171875 C 158.585938 172.285156 171.507812 159.359375 187.394531 159.359375 C 203.28125 159.359375 216.203125 172.285156 216.203125 188.171875 C 216.203125 204.058594 203.28125 216.980469 187.394531 216.980469 Z M 187.394531 216.980469 "
     fill-opacity="1"
     fill-rule="nonzero"
     id="path23" />
</svg>
