<?xml version="1.0" encoding="UTF-8" standalone="no"?>
<svg
   width="500"
   zoomAndPan="magnify"
   viewBox="0 0 375 374.999991"
   height="500"
   preserveAspectRatio="xMidYMid meet"
   version="1.0"
   id="svg22"
   sodipodi:docname="hrr-red-2.svg"
   inkscape:version="1.3 (0e150ed6c4, 2023-07-21)"
   xmlns:inkscape="http://www.inkscape.org/namespaces/inkscape"
   xmlns:sodipodi="http://sodipodi.sourceforge.net/DTD/sodipodi-0.dtd"
   xmlns="http://www.w3.org/2000/svg"
   xmlns:svg="http://www.w3.org/2000/svg">
  <sodipodi:namedview
     id="namedview22"
     pagecolor="#ffffff"
     bordercolor="#000000"
     borderopacity="0.25"
     inkscape:showpageshadow="2"
     inkscape:pageopacity="0.0"
     inkscape:pagecheckerboard="0"
     inkscape:deskcolor="#d1d1d1"
     inkscape:zoom="1.61"
     inkscape:cx="250"
     inkscape:cy="250"
     inkscape:window-width="1920"
     inkscape:window-height="1014"
     inkscape:window-x="0"
     inkscape:window-y="31"
     inkscape:window-maximized="1"
     inkscape:current-layer="svg22" />
  <defs
     id="defs10">
    <clipPath
       id="c324bf5d6c">
      <path
         d="M 21.363281 27.773438 L 352.863281 27.773438 L 352.863281 359.273438 L 21.363281 359.273438 Z M 21.363281 27.773438 "
         clip-rule="nonzero"
         id="path1" />
    </clipPath>
    <clipPath
       id="4f6a5867d3">
      <path
         d="M 187.113281 27.773438 C 95.570312 27.773438 21.363281 101.984375 21.363281 193.523438 C 21.363281 285.066406 95.570312 359.273438 187.113281 359.273438 C 278.652344 359.273438 352.863281 285.066406 352.863281 193.523438 C 352.863281 101.984375 278.652344 27.773438 187.113281 27.773438 Z M 187.113281 27.773438 "
         clip-rule="nonzero"
         id="path2" />
    </clipPath>
    <clipPath
       id="b3c04230bc">
      <path
         d="M 37.5 43.910156 L 337.097656 43.910156 L 337.097656 343.511719 L 37.5 343.511719 Z M 37.5 43.910156 "
         clip-rule="nonzero"
         id="path3" />
    </clipPath>
    <clipPath
       id="e35a482784">
      <path
         d="M 187.300781 43.910156 C 104.566406 43.910156 37.5 110.980469 37.5 193.710938 C 37.5 276.445312 104.566406 343.511719 187.300781 343.511719 C 270.03125 343.511719 337.097656 276.445312 337.097656 193.710938 C 337.097656 110.980469 270.03125 43.910156 187.300781 43.910156 Z M 187.300781 43.910156 "
         clip-rule="nonzero"
         id="path4" />
    </clipPath>
    <clipPath
       id="d2f5ae1c9c">
      <path
         d="M 37.5 43.910156 L 336.75 43.910156 L 336.75 343.160156 L 37.5 343.160156 Z M 37.5 43.910156 "
         clip-rule="nonzero"
         id="path5" />
    </clipPath>
    <clipPath
       id="b792dcaea4">
      <path
         d="M 187.125 43.910156 C 104.488281 43.910156 37.5 110.902344 37.5 193.535156 C 37.5 276.171875 104.488281 343.160156 187.125 343.160156 C 269.761719 343.160156 336.75 276.171875 336.75 193.535156 C 336.75 110.902344 269.761719 43.910156 187.125 43.910156 Z M 187.125 43.910156 "
         clip-rule="nonzero"
         id="path6" />
    </clipPath>
    <clipPath
       id="2219effe73">
      <path
         d="M 103.285156 113.601562 L 157 113.601562 L 157 168 L 103.285156 168 Z M 103.285156 113.601562 "
         clip-rule="nonzero"
         id="path7" />
    </clipPath>
    <clipPath
       id="2eaec5ec6f">
      <path
         d="M 218 113.601562 L 272.035156 113.601562 L 272.035156 168 L 218 168 Z M 218 113.601562 "
         clip-rule="nonzero"
         id="path8" />
    </clipPath>
    <clipPath
       id="88fa723daf">
      <path
         d="M 218 220 L 272.035156 220 L 272.035156 274.101562 L 218 274.101562 Z M 218 220 "
         clip-rule="nonzero"
         id="path9" />
    </clipPath>
    <clipPath
       id="34b7dfc763">
      <path
         d="M 103.285156 220 L 157 220 L 157 274.101562 L 103.285156 274.101562 Z M 103.285156 220 "
         clip-rule="nonzero"
         id="path10" />
    </clipPath>
  </defs>
  <g
     clip-path="url(#c324bf5d6c)"
     id="g12">
    <g
       clip-path="url(#4f6a5867d3)"
       id="g11">
      <path
         stroke-linecap="butt"
         transform="matrix(0.749179, 0, 0, 0.749179, 21.362708, 27.77449)"
         fill="none"
         stroke-linejoin="miter"
         d="M 221.24295 -0.00140543 C 99.051901 -0.00140543 0.000765629 99.054944 0.000765629 221.240779 C 0.000765629 343.431828 99.051901 442.482963 221.24295 442.482963 C 343.428785 442.482963 442.485135 343.431828 442.485135 221.240779 C 442.485135 99.054944 343.428785 -0.00140543 221.24295 -0.00140543 Z M 221.24295 -0.00140543 "
         stroke="#000000"
         stroke-width="16"
         stroke-opacity="1"
         stroke-miterlimit="4"
         id="path11" />
    </g>
  </g>
  <g
     clip-path="url(#b3c04230bc)"
     id="g14">
    <g
       clip-path="url(#e35a482784)"
       id="g13">
      <path
         fill="#e0000e"
         d="M 37.5 43.910156 L 337.097656 43.910156 L 337.097656 343.511719 L 37.5 343.511719 Z M 37.5 43.910156 "
         fill-opacity="1"
         fill-rule="nonzero"
         id="path12" />
    </g>
  </g>
  <g
     clip-path="url(#d2f5ae1c9c)"
     id="g16">
    <g
       clip-path="url(#b792dcaea4)"
       id="g15">
      <path
         stroke-linecap="butt"
         transform="matrix(0.749149, 0, 0, 0.749149, 37.500002, 43.911912)"
         fill="none"
         stroke-linejoin="miter"
         d="M 199.72658 -0.00234301 C 89.419149 -0.00234301 -0.00000271975 89.422023 -0.00000271975 199.72424 C -0.00000271975 310.031672 89.419149 399.450823 199.72658 399.450823 C 310.034012 399.450823 399.453163 310.031672 399.453163 199.72424 C 399.453163 89.422023 310.034012 -0.00234301 199.72658 -0.00234301 Z M 199.72658 -0.00234301 "
         stroke="#000000"
         stroke-width="8"
         stroke-opacity="1"
         stroke-miterlimit="4"
         id="path14" />
    </g>
  </g>
  <g
     clip-path="url(#2219effe73)"
     id="g17">
    <path
       fill="#ffffff"
       d="M 150.617188 113.605469 L 125.921875 113.605469 C 125.179688 113.609375 124.441406 113.644531 123.703125 113.71875 C 122.964844 113.792969 122.234375 113.902344 121.507812 114.046875 C 120.78125 114.191406 120.0625 114.371094 119.351562 114.585938 C 118.644531 114.804688 117.945312 115.050781 117.261719 115.335938 C 116.578125 115.621094 115.910156 115.9375 115.253906 116.285156 C 114.601562 116.636719 113.964844 117.015625 113.351562 117.429688 C 112.734375 117.839844 112.140625 118.28125 111.566406 118.753906 C 110.992188 119.222656 110.445312 119.71875 109.921875 120.242188 C 109.398438 120.765625 108.898438 121.316406 108.429688 121.886719 C 107.960938 122.460938 107.519531 123.054688 107.105469 123.671875 C 106.695312 124.289062 106.3125 124.921875 105.964844 125.574219 C 105.613281 126.230469 105.296875 126.898438 105.011719 127.582031 C 104.730469 128.265625 104.480469 128.964844 104.265625 129.671875 C 104.046875 130.382812 103.867188 131.101562 103.722656 131.828125 C 103.578125 132.554688 103.46875 133.285156 103.394531 134.023438 C 103.320312 134.761719 103.285156 135.5 103.285156 136.238281 L 103.285156 160.929688 C 103.285156 161.335938 103.324219 161.738281 103.402344 162.132812 C 103.480469 162.53125 103.597656 162.917969 103.753906 163.292969 C 103.910156 163.667969 104.097656 164.023438 104.324219 164.359375 C 104.550781 164.695312 104.804688 165.007812 105.09375 165.296875 C 105.378906 165.582031 105.691406 165.835938 106.027344 166.0625 C 106.363281 166.289062 106.71875 166.476562 107.09375 166.632812 C 107.46875 166.789062 107.855469 166.90625 108.253906 166.984375 C 108.652344 167.0625 109.050781 167.101562 109.457031 167.101562 C 109.863281 167.101562 110.265625 167.0625 110.660156 166.984375 C 111.058594 166.90625 111.445312 166.789062 111.820312 166.632812 C 112.195312 166.476562 112.550781 166.289062 112.886719 166.0625 C 113.226562 165.835938 113.535156 165.582031 113.824219 165.296875 C 114.109375 165.007812 114.367188 164.695312 114.589844 164.359375 C 114.816406 164.023438 115.007812 163.667969 115.160156 163.292969 C 115.316406 162.917969 115.433594 162.53125 115.511719 162.132812 C 115.59375 161.738281 115.632812 161.335938 115.632812 160.929688 L 115.632812 136.238281 C 115.632812 135.566406 115.699219 134.894531 115.828125 134.234375 C 115.960938 133.570312 116.15625 132.925781 116.414062 132.304688 C 116.671875 131.679688 116.988281 131.085938 117.367188 130.523438 C 117.742188 129.964844 118.167969 129.441406 118.644531 128.964844 C 119.121094 128.488281 119.644531 128.0625 120.203125 127.6875 C 120.765625 127.3125 121.359375 126.992188 121.984375 126.734375 C 122.609375 126.476562 123.25 126.28125 123.914062 126.148438 C 124.578125 126.019531 125.246094 125.953125 125.921875 125.953125 L 150.617188 125.953125 C 151.023438 125.953125 151.421875 125.914062 151.820312 125.832031 C 152.21875 125.753906 152.605469 125.636719 152.980469 125.484375 C 153.351562 125.328125 153.710938 125.136719 154.046875 124.914062 C 154.382812 124.6875 154.695312 124.429688 154.980469 124.144531 C 155.269531 123.859375 155.523438 123.546875 155.75 123.210938 C 155.976562 122.871094 156.164062 122.515625 156.320312 122.140625 C 156.476562 121.765625 156.59375 121.382812 156.671875 120.984375 C 156.75 120.585938 156.789062 120.183594 156.789062 119.78125 C 156.789062 119.375 156.75 118.972656 156.671875 118.574219 C 156.59375 118.179688 156.476562 117.792969 156.320312 117.417969 C 156.164062 117.042969 155.976562 116.6875 155.75 116.351562 C 155.523438 116.011719 155.269531 115.703125 154.980469 115.414062 C 154.695312 115.128906 154.382812 114.871094 154.046875 114.648438 C 153.710938 114.421875 153.351562 114.230469 152.980469 114.078125 C 152.605469 113.921875 152.21875 113.804688 151.820312 113.726562 C 151.421875 113.648438 151.023438 113.605469 150.617188 113.605469 Z M 150.617188 113.605469 "
       fill-opacity="1"
       fill-rule="nonzero"
       id="path16" />
  </g>
  <g
     clip-path="url(#2eaec5ec6f)"
     id="g18">
    <path
       fill="#ffffff"
       d="M 249.398438 113.605469 L 224.703125 113.605469 C 224.296875 113.605469 223.894531 113.648438 223.496094 113.726562 C 223.097656 113.804688 222.714844 113.921875 222.339844 114.078125 C 221.964844 114.230469 221.609375 114.421875 221.273438 114.648438 C 220.933594 114.871094 220.621094 115.128906 220.335938 115.414062 C 220.050781 115.703125 219.792969 116.011719 219.566406 116.351562 C 219.34375 116.6875 219.152344 117.042969 218.996094 117.417969 C 218.84375 117.792969 218.726562 118.179688 218.644531 118.574219 C 218.566406 118.972656 218.527344 119.375 218.527344 119.78125 C 218.527344 120.183594 218.566406 120.585938 218.644531 120.984375 C 218.726562 121.382812 218.84375 121.765625 218.996094 122.140625 C 219.152344 122.515625 219.34375 122.871094 219.566406 123.210938 C 219.792969 123.546875 220.050781 123.859375 220.335938 124.144531 C 220.621094 124.429688 220.933594 124.6875 221.273438 124.914062 C 221.609375 125.136719 221.964844 125.328125 222.339844 125.484375 C 222.714844 125.636719 223.097656 125.753906 223.496094 125.832031 C 223.894531 125.914062 224.296875 125.953125 224.703125 125.953125 L 249.398438 125.953125 C 250.070312 125.953125 250.742188 126.019531 251.402344 126.148438 C 252.066406 126.28125 252.710938 126.476562 253.335938 126.734375 C 253.957031 126.992188 254.550781 127.3125 255.113281 127.6875 C 255.675781 128.0625 256.195312 128.488281 256.671875 128.964844 C 257.148438 129.441406 257.578125 129.964844 257.953125 130.523438 C 258.328125 131.085938 258.644531 131.679688 258.902344 132.304688 C 259.160156 132.925781 259.355469 133.570312 259.488281 134.234375 C 259.621094 134.894531 259.6875 135.566406 259.6875 136.238281 L 259.6875 160.929688 C 259.6875 161.335938 259.726562 161.738281 259.804688 162.132812 C 259.882812 162.53125 260 162.917969 260.15625 163.292969 C 260.3125 163.667969 260.5 164.023438 260.726562 164.359375 C 260.953125 164.695312 261.207031 165.007812 261.496094 165.296875 C 261.78125 165.582031 262.09375 165.835938 262.429688 166.0625 C 262.765625 166.289062 263.121094 166.476562 263.496094 166.632812 C 263.871094 166.789062 264.257812 166.90625 264.65625 166.984375 C 265.054688 167.0625 265.453125 167.101562 265.859375 167.101562 C 266.265625 167.101562 266.667969 167.0625 267.0625 166.984375 C 267.460938 166.90625 267.847656 166.789062 268.222656 166.632812 C 268.597656 166.476562 268.953125 166.289062 269.289062 166.0625 C 269.628906 165.835938 269.9375 165.582031 270.226562 165.296875 C 270.511719 165.007812 270.769531 164.695312 270.992188 164.359375 C 271.21875 164.023438 271.410156 163.667969 271.5625 163.292969 C 271.71875 162.917969 271.835938 162.53125 271.914062 162.132812 C 271.996094 161.738281 272.035156 161.335938 272.035156 160.929688 L 272.035156 136.238281 C 272.03125 135.5 271.996094 134.761719 271.921875 134.023438 C 271.847656 133.285156 271.738281 132.554688 271.59375 131.828125 C 271.449219 131.101562 271.269531 130.382812 271.054688 129.671875 C 270.835938 128.964844 270.589844 128.265625 270.304688 127.582031 C 270.019531 126.898438 269.703125 126.230469 269.355469 125.574219 C 269.003906 124.921875 268.625 124.289062 268.210938 123.671875 C 267.800781 123.054688 267.359375 122.460938 266.886719 121.886719 C 266.417969 121.316406 265.921875 120.765625 265.394531 120.242188 C 264.871094 119.71875 264.324219 119.222656 263.75 118.753906 C 263.179688 118.28125 262.582031 117.839844 261.96875 117.429688 C 261.351562 117.015625 260.714844 116.636719 260.0625 116.285156 C 259.410156 115.9375 258.742188 115.621094 258.054688 115.335938 C 257.371094 115.050781 256.675781 114.804688 255.964844 114.585938 C 255.257812 114.371094 254.539062 114.191406 253.8125 114.046875 C 253.085938 113.902344 252.351562 113.792969 251.613281 113.71875 C 250.878906 113.644531 250.136719 113.609375 249.398438 113.605469 Z M 249.398438 113.605469 "
       fill-opacity="1"
       fill-rule="nonzero"
       id="path17" />
  </g>
  <g
     clip-path="url(#88fa723daf)"
     id="g19">
    <path
       fill="#ffffff"
       d="M 265.859375 220.597656 C 265.453125 220.597656 265.054688 220.636719 264.65625 220.71875 C 264.257812 220.796875 263.871094 220.914062 263.496094 221.070312 C 263.121094 221.222656 262.765625 221.414062 262.429688 221.640625 C 262.09375 221.863281 261.78125 222.121094 261.496094 222.40625 C 261.207031 222.695312 260.953125 223.003906 260.726562 223.34375 C 260.5 223.679688 260.3125 224.035156 260.15625 224.410156 C 260 224.785156 259.882812 225.167969 259.804688 225.566406 C 259.726562 225.964844 259.6875 226.367188 259.6875 226.769531 L 259.6875 251.460938 C 259.6875 252.136719 259.621094 252.804688 259.488281 253.46875 C 259.355469 254.132812 259.160156 254.773438 258.902344 255.398438 C 258.644531 256.023438 258.328125 256.617188 257.953125 257.175781 C 257.578125 257.738281 257.148438 258.257812 256.671875 258.734375 C 256.195312 259.214844 255.675781 259.640625 255.113281 260.015625 C 254.550781 260.390625 253.957031 260.707031 253.335938 260.964844 C 252.710938 261.226562 252.066406 261.421875 251.402344 261.550781 C 250.742188 261.683594 250.070312 261.75 249.398438 261.75 L 224.703125 261.75 C 224.296875 261.75 223.894531 261.789062 223.496094 261.867188 C 223.097656 261.945312 222.714844 262.0625 222.339844 262.21875 C 221.964844 262.375 221.609375 262.566406 221.273438 262.789062 C 220.933594 263.015625 220.621094 263.269531 220.335938 263.558594 C 220.050781 263.84375 219.792969 264.15625 219.566406 264.492188 C 219.34375 264.828125 219.152344 265.183594 218.996094 265.558594 C 218.84375 265.933594 218.726562 266.320312 218.644531 266.71875 C 218.566406 267.117188 218.527344 267.515625 218.527344 267.921875 C 218.527344 268.328125 218.566406 268.730469 218.644531 269.125 C 218.726562 269.523438 218.84375 269.910156 218.996094 270.285156 C 219.152344 270.660156 219.34375 271.015625 219.566406 271.351562 C 219.792969 271.6875 220.050781 272 220.335938 272.285156 C 220.621094 272.574219 220.933594 272.828125 221.273438 273.054688 C 221.609375 273.28125 221.964844 273.46875 222.339844 273.625 C 222.714844 273.78125 223.097656 273.898438 223.496094 273.976562 C 223.894531 274.054688 224.296875 274.09375 224.703125 274.09375 L 249.398438 274.09375 C 250.136719 274.09375 250.878906 274.058594 251.613281 273.984375 C 252.351562 273.910156 253.085938 273.800781 253.8125 273.65625 C 254.539062 273.511719 255.257812 273.332031 255.964844 273.113281 C 256.675781 272.898438 257.371094 272.648438 258.054688 272.367188 C 258.742188 272.082031 259.410156 271.765625 260.0625 271.414062 C 260.714844 271.066406 261.351562 270.683594 261.96875 270.273438 C 262.582031 269.859375 263.179688 269.417969 263.75 268.949219 C 264.324219 268.480469 264.871094 267.980469 265.394531 267.457031 C 265.921875 266.933594 266.417969 266.386719 266.886719 265.8125 C 267.359375 265.242188 267.800781 264.644531 268.210938 264.03125 C 268.625 263.414062 269.003906 262.78125 269.355469 262.125 C 269.703125 261.472656 270.019531 260.804688 270.304688 260.121094 C 270.589844 259.433594 270.835938 258.738281 271.054688 258.027344 C 271.269531 257.320312 271.449219 256.601562 271.59375 255.875 C 271.738281 255.148438 271.847656 254.417969 271.921875 253.679688 C 271.996094 252.941406 272.03125 252.203125 272.035156 251.460938 L 272.035156 226.769531 C 272.035156 226.367188 271.996094 225.964844 271.914062 225.566406 C 271.835938 225.167969 271.71875 224.785156 271.5625 224.410156 C 271.410156 224.035156 271.21875 223.679688 270.992188 223.34375 C 270.769531 223.003906 270.511719 222.691406 270.226562 222.40625 C 269.9375 222.121094 269.628906 221.863281 269.289062 221.640625 C 268.953125 221.414062 268.597656 221.222656 268.222656 221.070312 C 267.847656 220.914062 267.460938 220.796875 267.0625 220.71875 C 266.667969 220.636719 266.265625 220.597656 265.859375 220.597656 Z M 265.859375 220.597656 "
       fill-opacity="1"
       fill-rule="nonzero"
       id="path18" />
  </g>
  <g
     clip-path="url(#34b7dfc763)"
     id="g20">
    <path
       fill="#ffffff"
       d="M 150.617188 261.75 L 125.921875 261.75 C 125.246094 261.75 124.578125 261.683594 123.914062 261.550781 C 123.25 261.421875 122.609375 261.226562 121.984375 260.964844 C 121.359375 260.707031 120.765625 260.390625 120.203125 260.015625 C 119.644531 259.640625 119.121094 259.214844 118.644531 258.734375 C 118.167969 258.257812 117.742188 257.738281 117.367188 257.175781 C 116.988281 256.617188 116.671875 256.023438 116.414062 255.398438 C 116.15625 254.773438 115.960938 254.132812 115.828125 253.46875 C 115.699219 252.804688 115.632812 252.136719 115.632812 251.460938 L 115.632812 226.769531 C 115.632812 226.367188 115.59375 225.964844 115.511719 225.566406 C 115.433594 225.167969 115.316406 224.785156 115.160156 224.410156 C 115.007812 224.035156 114.816406 223.679688 114.589844 223.34375 C 114.367188 223.003906 114.109375 222.691406 113.824219 222.40625 C 113.535156 222.121094 113.226562 221.863281 112.886719 221.640625 C 112.550781 221.414062 112.195312 221.222656 111.820312 221.070312 C 111.445312 220.914062 111.058594 220.796875 110.660156 220.71875 C 110.265625 220.636719 109.863281 220.597656 109.457031 220.597656 C 109.050781 220.597656 108.652344 220.636719 108.253906 220.71875 C 107.855469 220.796875 107.46875 220.914062 107.09375 221.070312 C 106.71875 221.222656 106.363281 221.414062 106.027344 221.640625 C 105.691406 221.863281 105.378906 222.121094 105.09375 222.40625 C 104.804688 222.691406 104.550781 223.003906 104.324219 223.34375 C 104.097656 223.679688 103.910156 224.035156 103.753906 224.410156 C 103.597656 224.785156 103.480469 225.167969 103.402344 225.566406 C 103.324219 225.964844 103.285156 226.367188 103.285156 226.769531 L 103.285156 251.460938 C 103.285156 252.203125 103.320312 252.941406 103.394531 253.679688 C 103.46875 254.417969 103.578125 255.148438 103.722656 255.875 C 103.867188 256.601562 104.046875 257.320312 104.265625 258.027344 C 104.480469 258.738281 104.730469 259.433594 105.011719 260.121094 C 105.296875 260.804688 105.613281 261.472656 105.964844 262.125 C 106.3125 262.78125 106.695312 263.414062 107.105469 264.03125 C 107.519531 264.644531 107.960938 265.242188 108.429688 265.8125 C 108.898438 266.386719 109.398438 266.933594 109.921875 267.457031 C 110.445312 267.980469 110.992188 268.480469 111.566406 268.949219 C 112.140625 269.417969 112.734375 269.859375 113.351562 270.273438 C 113.964844 270.683594 114.601562 271.066406 115.253906 271.414062 C 115.910156 271.765625 116.578125 272.082031 117.261719 272.367188 C 117.945312 272.648438 118.644531 272.898438 119.351562 273.113281 C 120.0625 273.332031 120.78125 273.511719 121.507812 273.65625 C 122.234375 273.800781 122.964844 273.910156 123.703125 273.984375 C 124.441406 274.058594 125.179688 274.09375 125.921875 274.09375 L 150.617188 274.09375 C 151.023438 274.09375 151.421875 274.054688 151.820312 273.976562 C 152.21875 273.898438 152.605469 273.78125 152.980469 273.625 C 153.351562 273.46875 153.710938 273.28125 154.046875 273.054688 C 154.382812 272.828125 154.695312 272.574219 154.980469 272.285156 C 155.269531 272 155.523438 271.6875 155.75 271.351562 C 155.976562 271.015625 156.164062 270.660156 156.320312 270.285156 C 156.476562 269.910156 156.59375 269.523438 156.671875 269.125 C 156.75 268.730469 156.789062 268.328125 156.789062 267.921875 C 156.789062 267.515625 156.75 267.117188 156.671875 266.71875 C 156.59375 266.320312 156.476562 265.933594 156.320312 265.558594 C 156.164062 265.183594 155.976562 264.828125 155.75 264.492188 C 155.523438 264.15625 155.269531 263.84375 154.980469 263.558594 C 154.695312 263.269531 154.382812 263.015625 154.046875 262.789062 C 153.710938 262.566406 153.351562 262.375 152.980469 262.21875 C 152.605469 262.0625 152.21875 261.945312 151.820312 261.867188 C 151.421875 261.789062 151.023438 261.75 150.617188 261.75 Z M 150.617188 261.75 "
       fill-opacity="1"
       fill-rule="nonzero"
       id="path19" />
  </g>
  <path
     fill="#ffffff"
     d="M 259.355469 185.375 L 247.421875 172.742188 C 244.210938 169.324219 240.730469 166.207031 236.980469 163.394531 C 233.230469 160.578125 229.265625 158.109375 225.089844 155.980469 C 220.910156 153.851562 216.582031 152.097656 212.101562 150.714844 C 207.621094 149.335938 203.054688 148.351562 198.402344 147.761719 C 191.238281 146.824219 184.078125 146.824219 176.917969 147.761719 C 172.265625 148.351562 167.699219 149.335938 163.21875 150.714844 C 158.734375 152.097656 154.40625 153.851562 150.230469 155.980469 C 146.050781 158.109375 142.085938 160.578125 138.335938 163.394531 C 134.585938 166.207031 131.105469 169.324219 127.898438 172.742188 L 115.960938 185.375 C 115.421875 185.941406 114.9375 186.550781 114.515625 187.210938 C 114.09375 187.867188 113.734375 188.558594 113.445312 189.285156 C 113.152344 190.011719 112.933594 190.757812 112.785156 191.527344 C 112.636719 192.292969 112.566406 193.070312 112.566406 193.851562 C 112.566406 194.632812 112.636719 195.40625 112.785156 196.175781 C 112.933594 196.945312 113.152344 197.691406 113.445312 198.417969 C 113.734375 199.144531 114.09375 199.835938 114.515625 200.492188 C 114.9375 201.148438 115.421875 201.761719 115.960938 202.328125 L 127.898438 214.960938 C 131.105469 218.378906 134.585938 221.492188 138.335938 224.308594 C 142.085938 227.121094 146.050781 229.59375 150.230469 231.722656 C 154.40625 233.851562 158.734375 235.605469 163.21875 236.984375 C 167.699219 238.367188 172.265625 239.351562 176.917969 239.941406 C 184.078125 240.875 191.238281 240.875 198.402344 239.941406 C 203.054688 239.351562 207.621094 238.367188 212.101562 236.984375 C 216.582031 235.605469 220.910156 233.851562 225.089844 231.722656 C 229.265625 229.59375 233.230469 227.121094 236.980469 224.308594 C 240.730469 221.492188 244.210938 218.378906 247.421875 214.960938 L 259.355469 202.328125 C 259.898438 201.761719 260.378906 201.148438 260.800781 200.492188 C 261.226562 199.835938 261.582031 199.144531 261.871094 198.417969 C 262.164062 197.691406 262.382812 196.945312 262.53125 196.175781 C 262.679688 195.40625 262.753906 194.632812 262.753906 193.851562 C 262.753906 193.070312 262.679688 192.292969 262.53125 191.527344 C 262.382812 190.757812 262.164062 190.011719 261.871094 189.285156 C 261.582031 188.558594 261.226562 187.867188 260.800781 187.210938 C 260.378906 186.550781 259.898438 185.941406 259.355469 185.375 Z M 253.390625 196.691406 L 241.453125 209.28125 C 236.789062 214.214844 231.550781 218.425781 225.730469 221.914062 C 221.367188 224.5625 216.777344 226.714844 211.957031 228.382812 C 207.132812 230.046875 202.191406 231.183594 197.125 231.792969 L 197.042969 231.792969 C 197.007812 231.824219 196.96875 231.839844 196.917969 231.832031 C 196.835938 231.832031 196.753906 231.875 196.671875 231.875 C 190.664062 232.589844 184.652344 232.589844 178.644531 231.875 C 178.5625 231.875 178.480469 231.832031 178.398438 231.832031 C 178.351562 231.839844 178.308594 231.824219 178.273438 231.792969 L 178.191406 231.792969 C 173.128906 231.183594 168.183594 230.046875 163.363281 228.382812 C 158.539062 226.714844 153.949219 224.5625 149.585938 221.914062 C 143.769531 218.425781 138.527344 214.214844 133.863281 209.28125 L 121.929688 196.691406 C 121.5625 196.308594 121.28125 195.871094 121.085938 195.378906 C 120.890625 194.890625 120.792969 194.378906 120.792969 193.851562 C 120.792969 193.324219 120.890625 192.8125 121.085938 192.320312 C 121.28125 191.832031 121.5625 191.394531 121.929688 191.011719 L 133.863281 178.417969 C 138.527344 173.488281 143.769531 169.277344 149.585938 165.785156 C 153.949219 163.140625 158.539062 160.984375 163.363281 159.320312 C 168.183594 157.65625 173.128906 156.519531 178.191406 155.910156 L 178.273438 155.910156 C 178.308594 155.875 178.351562 155.863281 178.398438 155.867188 C 178.480469 155.867188 178.5625 155.828125 178.644531 155.828125 C 184.652344 155.113281 190.664062 155.113281 196.671875 155.828125 C 196.753906 155.828125 196.835938 155.867188 196.917969 155.867188 C 196.96875 155.863281 197.007812 155.878906 197.042969 155.910156 L 197.125 155.910156 C 202.191406 156.519531 207.132812 157.65625 211.957031 159.320312 C 216.777344 160.984375 221.367188 163.140625 225.730469 165.785156 C 231.550781 169.277344 236.789062 173.488281 241.453125 178.417969 L 253.390625 191.011719 C 253.753906 191.394531 254.035156 191.832031 254.230469 192.320312 C 254.425781 192.8125 254.527344 193.324219 254.527344 193.851562 C 254.527344 194.378906 254.425781 194.890625 254.230469 195.378906 C 254.035156 195.871094 253.753906 196.308594 253.390625 196.691406 Z M 253.390625 196.691406 "
     fill-opacity="1"
     fill-rule="nonzero"
     id="path20" />
  <path
     fill="#ffffff"
     d="M 225.730469 165.785156 C 224.074219 163.535156 222.234375 161.449219 220.210938 159.527344 C 218.183594 157.601562 216.007812 155.871094 213.675781 154.335938 C 211.34375 152.796875 208.894531 151.476562 206.328125 150.371094 C 203.765625 149.269531 201.121094 148.398438 198.402344 147.761719 C 194.867188 146.9375 191.285156 146.527344 187.660156 146.527344 C 184.03125 146.527344 180.449219 146.9375 176.917969 147.761719 C 175.628906 148.0625 174.351562 148.417969 173.09375 148.824219 C 171.832031 149.230469 170.59375 149.691406 169.371094 150.203125 C 168.148438 150.714844 166.953125 151.273438 165.777344 151.886719 C 164.605469 152.5 163.457031 153.160156 162.339844 153.867188 C 161.21875 154.574219 160.132812 155.328125 159.078125 156.128906 C 158.023438 156.925781 157.003906 157.769531 156.019531 158.652344 C 155.035156 159.539062 154.085938 160.464844 153.179688 161.425781 C 152.273438 162.390625 151.40625 163.390625 150.585938 164.429688 C 149.761719 165.464844 148.984375 166.535156 148.25 167.636719 C 147.515625 168.738281 146.832031 169.871094 146.191406 171.03125 C 145.554688 172.191406 144.964844 173.375 144.425781 174.582031 C 143.886719 175.792969 143.398438 177.023438 142.964844 178.273438 C 142.527344 179.519531 142.144531 180.789062 141.816406 182.070312 C 141.484375 183.351562 141.210938 184.644531 140.988281 185.949219 C 140.769531 187.253906 140.601562 188.566406 140.492188 189.886719 C 140.378906 191.207031 140.324219 192.527344 140.324219 193.851562 C 140.324219 195.175781 140.378906 196.496094 140.492188 197.816406 C 140.601562 199.132812 140.769531 200.445312 140.988281 201.75 C 141.210938 203.058594 141.484375 204.351562 141.816406 205.632812 C 142.144531 206.914062 142.527344 208.179688 142.964844 209.429688 C 143.398438 210.679688 143.886719 211.910156 144.425781 213.117188 C 144.964844 214.328125 145.554688 215.511719 146.191406 216.671875 C 146.832031 217.832031 147.515625 218.960938 148.25 220.066406 C 148.984375 221.167969 149.761719 222.234375 150.585938 223.273438 C 151.40625 224.308594 152.273438 225.308594 153.179688 226.273438 C 154.085938 227.238281 155.035156 228.164062 156.019531 229.046875 C 157.003906 229.933594 158.023438 230.773438 159.078125 231.574219 C 160.132812 232.375 161.21875 233.128906 162.339844 233.835938 C 163.457031 234.542969 164.605469 235.203125 165.777344 235.816406 C 166.953125 236.425781 168.148438 236.988281 169.371094 237.5 C 170.59375 238.011719 171.832031 238.472656 173.09375 238.878906 C 174.351562 239.285156 175.628906 239.640625 176.917969 239.941406 C 180.449219 240.761719 184.03125 241.175781 187.660156 241.175781 C 191.285156 241.175781 194.867188 240.761719 198.402344 239.941406 C 199.351562 239.71875 200.292969 239.46875 201.226562 239.191406 C 202.160156 238.910156 203.085938 238.605469 204.003906 238.269531 C 204.917969 237.933594 205.820312 237.566406 206.714844 237.175781 C 207.609375 236.785156 208.488281 236.363281 209.355469 235.917969 C 210.222656 235.472656 211.074219 235 211.910156 234.5 C 212.75 234 213.570312 233.476562 214.375 232.925781 C 215.179688 232.375 215.96875 231.800781 216.738281 231.203125 C 217.507812 230.605469 218.257812 229.984375 218.988281 229.339844 C 219.71875 228.691406 220.429688 228.027344 221.121094 227.335938 C 221.8125 226.648438 222.480469 225.9375 223.125 225.207031 C 223.769531 224.476562 224.394531 223.726562 224.992188 222.960938 C 225.59375 222.191406 226.167969 221.402344 226.71875 220.597656 C 227.269531 219.792969 227.796875 218.972656 228.296875 218.136719 C 228.796875 217.300781 229.269531 216.449219 229.71875 215.582031 C 230.164062 214.714844 230.585938 213.835938 230.976562 212.945312 C 231.371094 212.050781 231.738281 211.148438 232.074219 210.234375 C 232.410156 209.320312 232.71875 208.394531 233 207.460938 C 233.28125 206.527344 233.53125 205.585938 233.75 204.636719 C 233.972656 203.6875 234.164062 202.730469 234.328125 201.769531 C 234.492188 200.808594 234.625 199.84375 234.726562 198.875 C 234.828125 197.902344 234.902344 196.933594 234.945312 195.957031 C 234.988281 194.984375 235 194.007812 234.984375 193.035156 C 234.964844 192.058594 234.917969 191.085938 234.839844 190.113281 C 234.761719 189.144531 234.652344 188.175781 234.515625 187.210938 C 234.378906 186.242188 234.210938 185.285156 234.015625 184.328125 C 233.816406 183.375 233.589844 182.425781 233.335938 181.484375 C 233.078125 180.542969 232.792969 179.613281 232.480469 178.691406 C 232.167969 177.765625 231.824219 176.855469 231.457031 175.953125 C 231.085938 175.050781 230.6875 174.160156 230.261719 173.28125 C 229.835938 172.40625 229.386719 171.542969 228.90625 170.691406 C 228.429688 169.84375 227.925781 169.007812 227.394531 168.191406 C 226.863281 167.371094 226.308594 166.570312 225.730469 165.785156 Z M 226.308594 199.816406 C 226.265625 199.980469 226.265625 200.1875 226.222656 200.351562 C 226.183594 200.515625 226.140625 200.683594 226.101562 200.886719 C 226.019531 201.339844 225.9375 201.75 225.855469 202.164062 C 225.78125 202.59375 225.6875 203.019531 225.566406 203.4375 C 225.519531 203.558594 225.492188 203.679688 225.484375 203.808594 C 225.320312 204.34375 225.152344 204.921875 224.988281 205.457031 C 224.824219 206.074219 224.578125 206.691406 224.371094 207.308594 C 224.042969 208.210938 223.671875 209.078125 223.300781 209.941406 C 222.847656 210.929688 222.355469 211.875 221.863281 212.820312 C 221.574219 213.273438 221.328125 213.769531 221.039062 214.21875 C 220.75 214.671875 220.503906 215.085938 220.175781 215.539062 C 220.128906 215.582031 220.101562 215.636719 220.089844 215.703125 C 219.558594 216.441406 219.023438 217.183594 218.527344 217.882812 C 218.460938 217.941406 218.40625 218.011719 218.363281 218.089844 C 217.582031 218.992188 216.839844 219.898438 216.015625 220.722656 C 215.730469 221.050781 215.359375 221.421875 215.027344 221.75 C 214.699219 222.082031 214.328125 222.449219 213.960938 222.78125 C 213.925781 222.78125 213.898438 222.796875 213.875 222.820312 C 213.09375 223.519531 212.273438 224.21875 211.449219 224.878906 C 210.625 225.535156 209.71875 226.152344 208.8125 226.730469 C 208.15625 227.140625 207.496094 227.554688 206.839844 227.921875 C 205.523438 228.664062 204.121094 229.324219 202.722656 229.941406 C 201.980469 230.226562 201.28125 230.515625 200.542969 230.761719 C 200.128906 230.925781 199.675781 231.050781 199.265625 231.175781 C 198.773438 231.339844 198.277344 231.460938 197.785156 231.585938 C 197.578125 231.667969 197.332031 231.710938 197.125 231.792969 L 197.042969 231.792969 C 197.007812 231.824219 196.96875 231.839844 196.917969 231.832031 C 196.835938 231.832031 196.753906 231.875 196.671875 231.875 C 195.683594 232.121094 194.65625 232.328125 193.625 232.492188 C 193.367188 232.535156 193.105469 232.566406 192.84375 232.574219 C 191.917969 232.730469 190.984375 232.828125 190.046875 232.863281 C 189.265625 232.902344 188.480469 232.945312 187.660156 232.945312 C 186.835938 232.945312 186.054688 232.902344 185.273438 232.863281 C 184.332031 232.828125 183.398438 232.730469 182.472656 232.574219 C 182.210938 232.566406 181.949219 232.535156 181.691406 232.492188 C 180.660156 232.328125 179.632812 232.121094 178.644531 231.875 C 178.5625 231.875 178.480469 231.832031 178.398438 231.832031 C 178.351562 231.839844 178.308594 231.824219 178.273438 231.792969 L 178.191406 231.792969 C 177.988281 231.710938 177.738281 231.667969 177.535156 231.585938 C 177.039062 231.460938 176.546875 231.339844 176.050781 231.175781 C 175.640625 231.050781 175.1875 230.925781 174.777344 230.761719 C 174.035156 230.515625 173.335938 230.226562 172.59375 229.941406 C 171.195312 229.324219 169.796875 228.664062 168.480469 227.921875 C 167.820312 227.554688 167.160156 227.140625 166.503906 226.730469 C 165.597656 226.152344 164.734375 225.535156 163.871094 224.878906 C 163.003906 224.21875 162.222656 223.519531 161.441406 222.820312 C 161.417969 222.796875 161.390625 222.78125 161.359375 222.78125 C 160.988281 222.449219 160.660156 222.121094 160.289062 221.75 C 159.917969 221.378906 159.628906 221.09375 159.300781 220.722656 C 158.476562 219.898438 157.738281 218.992188 156.953125 218.089844 C 156.914062 218.011719 156.859375 217.941406 156.789062 217.882812 C 156.296875 217.183594 155.761719 216.441406 155.226562 215.703125 C 155.214844 215.636719 155.1875 215.582031 155.144531 215.539062 C 154.8125 215.085938 154.566406 214.671875 154.277344 214.21875 C 153.992188 213.769531 153.746094 213.273438 153.457031 212.820312 C 152.960938 211.875 152.46875 210.929688 152.015625 209.941406 C 151.644531 209.078125 151.273438 208.210938 150.945312 207.308594 C 150.738281 206.691406 150.492188 206.074219 150.328125 205.457031 C 150.164062 204.921875 150 204.34375 149.835938 203.808594 C 149.828125 203.679688 149.800781 203.558594 149.75 203.4375 C 149.632812 203.019531 149.535156 202.59375 149.464844 202.164062 C 149.382812 201.75 149.300781 201.339844 149.214844 200.886719 C 149.175781 200.683594 149.132812 200.515625 149.09375 200.351562 C 149.050781 200.1875 149.050781 199.980469 149.011719 199.816406 C 148.886719 198.953125 148.804688 198.128906 148.722656 197.265625 C 148.503906 194.988281 148.503906 192.710938 148.722656 190.433594 C 148.804688 189.570312 148.886719 188.75 149.011719 187.882812 C 149.050781 187.71875 149.050781 187.515625 149.09375 187.347656 C 149.132812 187.183594 149.175781 187.019531 149.214844 186.8125 C 149.300781 186.363281 149.382812 185.949219 149.464844 185.539062 C 149.535156 185.109375 149.632812 184.683594 149.75 184.261719 C 149.800781 184.144531 149.828125 184.019531 149.835938 183.890625 C 150 183.359375 150.164062 182.78125 150.328125 182.246094 C 150.492188 181.628906 150.738281 181.011719 150.945312 180.394531 C 151.273438 179.488281 151.644531 178.625 152.015625 177.761719 C 152.46875 176.773438 152.960938 175.828125 153.457031 174.878906 C 153.746094 174.429688 153.992188 173.933594 154.277344 173.480469 C 154.566406 173.027344 154.8125 172.617188 155.144531 172.164062 C 155.1875 172.117188 155.214844 172.0625 155.226562 172 C 155.761719 171.257812 156.296875 170.519531 156.789062 169.820312 C 156.859375 169.761719 156.914062 169.691406 156.953125 169.613281 C 157.738281 168.707031 158.476562 167.800781 159.300781 166.980469 C 159.628906 166.609375 159.960938 166.28125 160.289062 165.949219 C 160.617188 165.621094 160.988281 165.25 161.359375 164.921875 C 161.390625 164.917969 161.417969 164.90625 161.441406 164.882812 C 162.222656 164.179688 163.046875 163.480469 163.871094 162.824219 C 164.691406 162.164062 165.597656 161.546875 166.503906 160.972656 C 167.160156 160.558594 167.820312 160.148438 168.480469 159.777344 C 169.796875 159.039062 171.195312 158.378906 172.59375 157.761719 C 173.335938 157.472656 174.035156 157.1875 174.777344 156.9375 C 175.113281 156.808594 175.457031 156.699219 175.804688 156.609375 C 176.585938 156.320312 177.410156 156.117188 178.191406 155.910156 L 178.273438 155.910156 C 178.308594 155.875 178.351562 155.863281 178.398438 155.867188 C 178.480469 155.867188 178.5625 155.828125 178.644531 155.828125 C 179.632812 155.582031 180.660156 155.375 181.691406 155.210938 C 181.949219 155.164062 182.210938 155.136719 182.472656 155.128906 C 183.398438 154.972656 184.332031 154.875 185.273438 154.839844 C 186.054688 154.800781 186.835938 154.757812 187.660156 154.757812 C 188.480469 154.757812 189.265625 154.800781 190.046875 154.839844 C 190.984375 154.875 191.917969 154.972656 192.84375 155.128906 C 193.105469 155.136719 193.367188 155.164062 193.625 155.210938 C 194.65625 155.375 195.683594 155.582031 196.671875 155.828125 C 196.753906 155.828125 196.835938 155.867188 196.917969 155.867188 C 196.96875 155.863281 197.007812 155.875 197.042969 155.910156 L 197.125 155.910156 C 197.90625 156.117188 198.730469 156.320312 199.511719 156.609375 C 199.863281 156.699219 200.203125 156.808594 200.542969 156.9375 C 201.28125 157.1875 201.980469 157.472656 202.722656 157.761719 C 204.121094 158.378906 205.523438 159.039062 206.839844 159.777344 C 207.496094 160.148438 208.15625 160.558594 208.8125 160.972656 C 209.71875 161.546875 210.585938 162.164062 211.449219 162.824219 C 212.3125 163.480469 213.09375 164.179688 213.875 164.882812 C 213.898438 164.90625 213.925781 164.917969 213.960938 164.921875 C 214.328125 165.25 214.660156 165.582031 215.027344 165.949219 C 215.398438 166.320312 215.730469 166.652344 216.015625 166.980469 C 216.839844 167.800781 217.582031 168.707031 218.363281 169.613281 C 218.40625 169.691406 218.460938 169.761719 218.527344 169.820312 C 219.023438 170.519531 219.558594 171.257812 220.089844 172 C 220.101562 172.0625 220.128906 172.117188 220.175781 172.164062 C 220.503906 172.617188 220.75 173.027344 221.039062 173.480469 C 221.328125 173.933594 221.574219 174.429688 221.863281 174.878906 C 222.355469 175.828125 222.847656 176.773438 223.300781 177.761719 C 223.671875 178.625 224.042969 179.488281 224.371094 180.394531 C 224.578125 181.011719 224.824219 181.628906 224.988281 182.246094 C 225.152344 182.78125 225.320312 183.359375 225.484375 183.890625 C 225.492188 184.019531 225.519531 184.144531 225.566406 184.261719 C 225.6875 184.683594 225.78125 185.109375 225.855469 185.539062 C 225.9375 185.949219 226.019531 186.363281 226.101562 186.8125 C 226.140625 187.019531 226.183594 187.183594 226.222656 187.347656 C 226.265625 187.515625 226.265625 187.71875 226.308594 187.882812 C 226.429688 188.75 226.511719 189.570312 226.59375 190.433594 C 226.816406 192.710938 226.816406 194.988281 226.59375 197.265625 C 226.511719 198.128906 226.429688 198.953125 226.308594 199.816406 Z M 226.308594 199.816406 "
     fill-opacity="1"
     fill-rule="nonzero"
     id="path21" />
  <path
     fill="#ffffff"
     d="M 214.660156 183.851562 C 213.851562 185.125 212.851562 186.222656 211.65625 187.144531 C 210.460938 188.0625 209.140625 188.75 207.703125 189.199219 C 206.535156 189.546875 205.339844 189.726562 204.121094 189.734375 C 203.3125 189.734375 202.511719 189.652344 201.714844 189.492188 C 200.921875 189.332031 200.152344 189.097656 199.402344 188.785156 C 198.65625 188.476562 197.945312 188.09375 197.269531 187.644531 C 196.597656 187.195312 195.976562 186.683594 195.402344 186.109375 C 194.828125 185.535156 194.316406 184.914062 193.867188 184.242188 C 193.417969 183.566406 193.035156 182.855469 192.722656 182.109375 C 192.414062 181.363281 192.179688 180.589844 192.019531 179.796875 C 191.859375 179.003906 191.777344 178.199219 191.773438 177.390625 C 191.785156 176.171875 191.964844 174.980469 192.308594 173.8125 C 192.761719 172.371094 193.449219 171.054688 194.367188 169.859375 C 195.289062 168.664062 196.386719 167.664062 197.660156 166.855469 C 194.4375 165.628906 191.105469 165.027344 187.660156 165.046875 C 186.714844 165.046875 185.773438 165.089844 184.835938 165.183594 C 183.894531 165.277344 182.964844 165.414062 182.039062 165.597656 C 181.113281 165.78125 180.199219 166.011719 179.296875 166.285156 C 178.390625 166.558594 177.503906 166.878906 176.632812 167.238281 C 175.761719 167.597656 174.910156 168.003906 174.078125 168.445312 C 173.246094 168.890625 172.4375 169.375 171.652344 169.898438 C 170.867188 170.425781 170.109375 170.984375 169.382812 171.585938 C 168.652344 172.183594 167.953125 172.816406 167.285156 173.484375 C 166.621094 174.148438 165.984375 174.847656 165.386719 175.578125 C 164.789062 176.304688 164.226562 177.0625 163.703125 177.847656 C 163.179688 178.632812 162.695312 179.441406 162.25 180.273438 C 161.804688 181.105469 161.402344 181.957031 161.039062 182.828125 C 160.679688 183.699219 160.363281 184.585938 160.089844 185.488281 C 159.816406 186.390625 159.585938 187.304688 159.402344 188.230469 C 159.21875 189.15625 159.078125 190.089844 158.988281 191.027344 C 158.894531 191.964844 158.847656 192.90625 158.847656 193.851562 C 158.847656 194.792969 158.894531 195.734375 158.988281 196.675781 C 159.078125 197.613281 159.21875 198.546875 159.402344 199.46875 C 159.585938 200.394531 159.816406 201.308594 160.089844 202.210938 C 160.363281 203.117188 160.679688 204.003906 161.039062 204.875 C 161.402344 205.746094 161.804688 206.597656 162.25 207.429688 C 162.695312 208.261719 163.179688 209.070312 163.703125 209.855469 C 164.226562 210.640625 164.789062 211.394531 165.386719 212.125 C 165.984375 212.855469 166.621094 213.550781 167.285156 214.21875 C 167.953125 214.886719 168.652344 215.519531 169.382812 216.117188 C 170.109375 216.714844 170.867188 217.277344 171.652344 217.800781 C 172.4375 218.324219 173.246094 218.808594 174.078125 219.253906 C 174.910156 219.699219 175.761719 220.101562 176.632812 220.464844 C 177.503906 220.824219 178.390625 221.140625 179.296875 221.417969 C 180.199219 221.691406 181.113281 221.917969 182.039062 222.101562 C 182.964844 222.285156 183.894531 222.425781 184.835938 222.519531 C 185.773438 222.609375 186.714844 222.65625 187.660156 222.65625 C 188.601562 222.65625 189.542969 222.609375 190.484375 222.519531 C 191.421875 222.425781 192.355469 222.285156 193.28125 222.101562 C 194.203125 221.917969 195.121094 221.691406 196.023438 221.417969 C 196.925781 221.140625 197.8125 220.824219 198.683594 220.464844 C 199.554688 220.101562 200.40625 219.699219 201.238281 219.253906 C 202.074219 218.808594 202.878906 218.324219 203.664062 217.800781 C 204.449219 217.277344 205.207031 216.714844 205.9375 216.117188 C 206.664062 215.519531 207.363281 214.886719 208.03125 214.21875 C 208.699219 213.550781 209.332031 212.855469 209.929688 212.125 C 210.527344 211.394531 211.089844 210.640625 211.613281 209.855469 C 212.136719 209.070312 212.621094 208.261719 213.066406 207.429688 C 213.511719 206.597656 213.914062 205.746094 214.277344 204.875 C 214.636719 204.003906 214.957031 203.117188 215.230469 202.210938 C 215.503906 201.308594 215.730469 200.394531 215.917969 199.46875 C 216.101562 198.546875 216.238281 197.613281 216.332031 196.675781 C 216.421875 195.734375 216.46875 194.792969 216.46875 193.851562 C 216.488281 190.40625 215.886719 187.070312 214.660156 183.851562 Z M 214.660156 183.851562 "
     fill-opacity="1"
     fill-rule="nonzero"
     id="path22" />
</svg>
