<?xml version="1.0" encoding="UTF-8" standalone="no"?>
<svg
   width="500"
   zoomAndPan="magnify"
   viewBox="0 0 375 374.999991"
   height="500"
   preserveAspectRatio="xMidYMid meet"
   version="1.0"
   id="svg15"
   sodipodi:docname="number-two.svg"
   inkscape:version="1.3 (0e150ed6c4, 2023-07-21)"
   xmlns:inkscape="http://www.inkscape.org/namespaces/inkscape"
   xmlns:sodipodi="http://sodipodi.sourceforge.net/DTD/sodipodi-0.dtd"
   xmlns="http://www.w3.org/2000/svg"
   xmlns:svg="http://www.w3.org/2000/svg">
  <sodipodi:namedview
     id="namedview15"
     pagecolor="#ffffff"
     bordercolor="#000000"
     borderopacity="0.25"
     inkscape:showpageshadow="2"
     inkscape:pageopacity="0.0"
     inkscape:pagecheckerboard="0"
     inkscape:deskcolor="#d1d1d1"
     inkscape:zoom="1.61"
     inkscape:cx="250"
     inkscape:cy="250"
     inkscape:window-width="1920"
     inkscape:window-height="1014"
     inkscape:window-x="0"
     inkscape:window-y="31"
     inkscape:window-maximized="1"
     inkscape:current-layer="svg15" />
  <defs
     id="defs6">
    <g
       id="g1" />
    <clipPath
       id="0d4d4281f9">
      <path
         d="M 21.363281 27.773438 L 352.863281 27.773438 L 352.863281 359.273438 L 21.363281 359.273438 Z M 21.363281 27.773438 "
         clip-rule="nonzero"
         id="path1" />
    </clipPath>
    <clipPath
       id="559ed73ea8">
      <path
         d="M 187.113281 27.773438 C 95.570312 27.773438 21.363281 101.984375 21.363281 193.523438 C 21.363281 285.066406 95.570312 359.273438 187.113281 359.273438 C 278.652344 359.273438 352.863281 285.066406 352.863281 193.523438 C 352.863281 101.984375 278.652344 27.773438 187.113281 27.773438 Z M 187.113281 27.773438 "
         clip-rule="nonzero"
         id="path2" />
    </clipPath>
    <clipPath
       id="7af2d8e676">
      <path
         d="M 37.5 43.910156 L 337.097656 43.910156 L 337.097656 343.511719 L 37.5 343.511719 Z M 37.5 43.910156 "
         clip-rule="nonzero"
         id="path3" />
    </clipPath>
    <clipPath
       id="7fa884bdad">
      <path
         d="M 187.300781 43.910156 C 104.566406 43.910156 37.5 110.980469 37.5 193.710938 C 37.5 276.445312 104.566406 343.511719 187.300781 343.511719 C 270.03125 343.511719 337.097656 276.445312 337.097656 193.710938 C 337.097656 110.980469 270.03125 43.910156 187.300781 43.910156 Z M 187.300781 43.910156 "
         clip-rule="nonzero"
         id="path4" />
    </clipPath>
    <clipPath
       id="00528a10ca">
      <path
         d="M 37.5 43.910156 L 336.75 43.910156 L 336.75 343.160156 L 37.5 343.160156 Z M 37.5 43.910156 "
         clip-rule="nonzero"
         id="path5" />
    </clipPath>
    <clipPath
       id="0993708e9a">
      <path
         d="M 187.125 43.910156 C 104.488281 43.910156 37.5 110.902344 37.5 193.535156 C 37.5 276.171875 104.488281 343.160156 187.125 343.160156 C 269.761719 343.160156 336.75 276.171875 336.75 193.535156 C 336.75 110.902344 269.761719 43.910156 187.125 43.910156 Z M 187.125 43.910156 "
         clip-rule="nonzero"
         id="path6" />
    </clipPath>
  </defs>
  <g
     clip-path="url(#0d4d4281f9)"
     id="g8">
    <g
       clip-path="url(#559ed73ea8)"
       id="g7">
      <path
         stroke-linecap="butt"
         transform="matrix(0.749179, 0, 0, 0.749179, 21.362708, 27.77449)"
         fill="none"
         stroke-linejoin="miter"
         d="M 221.24295 -0.00140543 C 99.051901 -0.00140543 0.000765629 99.054944 0.000765629 221.240779 C 0.000765629 343.431828 99.051901 442.482963 221.24295 442.482963 C 343.428785 442.482963 442.485135 343.431828 442.485135 221.240779 C 442.485135 99.054944 343.428785 -0.00140543 221.24295 -0.00140543 Z M 221.24295 -0.00140543 "
         stroke="#000000"
         stroke-width="16"
         stroke-opacity="1"
         stroke-miterlimit="4"
         id="path7" />
    </g>
  </g>
  <g
     clip-path="url(#7af2d8e676)"
     id="g10">
    <g
       clip-path="url(#7fa884bdad)"
       id="g9">
      <path
         fill="#e0000e"
         d="M 37.5 43.910156 L 337.097656 43.910156 L 337.097656 343.511719 L 37.5 343.511719 Z M 37.5 43.910156 "
         fill-opacity="1"
         fill-rule="nonzero"
         id="path8" />
    </g>
  </g>
  <g
     clip-path="url(#00528a10ca)"
     id="g12">
    <g
       clip-path="url(#0993708e9a)"
       id="g11">
      <path
         stroke-linecap="butt"
         transform="matrix(0.749149, 0, 0, 0.749149, 37.500002, 43.911912)"
         fill="none"
         stroke-linejoin="miter"
         d="M 199.72658 -0.00234301 C 89.419149 -0.00234301 -0.00000271975 89.422023 -0.00000271975 199.72424 C -0.00000271975 310.031672 89.419149 399.450823 199.72658 399.450823 C 310.034012 399.450823 399.453163 310.031672 399.453163 199.72424 C 399.453163 89.422023 310.034012 -0.00234301 199.72658 -0.00234301 Z M 199.72658 -0.00234301 "
         stroke="#000000"
         stroke-width="8"
         stroke-opacity="1"
         stroke-miterlimit="4"
         id="path10" />
    </g>
  </g>
  <g
     fill="#ffffff"
     fill-opacity="1"
     id="g15">
    <g
       transform="translate(116.960512, 279.976106)"
       id="g14">
      <g
         id="g13">
        <path
           d="M 8.15625 -38.8125 C 24.144531 -51.34375 37.25 -62.140625 47.46875 -71.203125 C 57.6875 -80.273438 66.257812 -89.628906 73.1875 -99.265625 C 80.113281 -108.910156 83.578125 -118.101562 83.578125 -126.84375 C 83.578125 -132.113281 82.378906 -136.234375 79.984375 -139.203125 C 77.597656 -142.171875 74.097656 -143.65625 69.484375 -143.65625 C 64.703125 -143.65625 60.988281 -141.632812 58.34375 -137.59375 C 55.707031 -133.550781 54.472656 -127.660156 54.640625 -119.921875 L 7.671875 -119.921875 C 8.160156 -134.585938 11.367188 -146.738281 17.296875 -156.375 C 23.234375 -166.019531 30.984375 -173.109375 40.546875 -177.640625 C 50.109375 -182.179688 60.738281 -184.453125 72.4375 -184.453125 C 92.71875 -184.453125 107.800781 -179.421875 117.6875 -169.359375 C 127.582031 -159.304688 132.53125 -146.285156 132.53125 -130.296875 C 132.53125 -113.160156 126.800781 -97.09375 115.34375 -82.09375 C 103.882812 -67.09375 89.582031 -53.65625 72.4375 -41.78125 L 134.25 -41.78125 L 134.25 -2.46875 L 8.15625 -2.46875 Z M 8.15625 -38.8125 "
           id="path12" />
      </g>
    </g>
  </g>
</svg>
