<?xml version="1.0" encoding="UTF-8" standalone="no"?>
<svg
   width="500"
   zoomAndPan="magnify"
   viewBox="0 0 375 374.999991"
   height="500"
   preserveAspectRatio="xMidYMid meet"
   version="1.0"
   id="svg15"
   sodipodi:docname="number-three.svg"
   inkscape:version="1.3 (0e150ed6c4, 2023-07-21)"
   xmlns:inkscape="http://www.inkscape.org/namespaces/inkscape"
   xmlns:sodipodi="http://sodipodi.sourceforge.net/DTD/sodipodi-0.dtd"
   xmlns="http://www.w3.org/2000/svg"
   xmlns:svg="http://www.w3.org/2000/svg">
  <sodipodi:namedview
     id="namedview15"
     pagecolor="#ffffff"
     bordercolor="#000000"
     borderopacity="0.25"
     inkscape:showpageshadow="2"
     inkscape:pageopacity="0.0"
     inkscape:pagecheckerboard="0"
     inkscape:deskcolor="#d1d1d1"
     inkscape:zoom="1.61"
     inkscape:cx="250"
     inkscape:cy="250"
     inkscape:window-width="1920"
     inkscape:window-height="1014"
     inkscape:window-x="0"
     inkscape:window-y="31"
     inkscape:window-maximized="1"
     inkscape:current-layer="svg15" />
  <defs
     id="defs6">
    <g
       id="g1" />
    <clipPath
       id="d5e80c08d1">
      <path
         d="M 21.363281 27.773438 L 352.863281 27.773438 L 352.863281 359.273438 L 21.363281 359.273438 Z M 21.363281 27.773438 "
         clip-rule="nonzero"
         id="path1" />
    </clipPath>
    <clipPath
       id="4c648560ce">
      <path
         d="M 187.113281 27.773438 C 95.570312 27.773438 21.363281 101.984375 21.363281 193.523438 C 21.363281 285.066406 95.570312 359.273438 187.113281 359.273438 C 278.652344 359.273438 352.863281 285.066406 352.863281 193.523438 C 352.863281 101.984375 278.652344 27.773438 187.113281 27.773438 Z M 187.113281 27.773438 "
         clip-rule="nonzero"
         id="path2" />
    </clipPath>
    <clipPath
       id="aaa8924c62">
      <path
         d="M 37.5 43.910156 L 337.097656 43.910156 L 337.097656 343.511719 L 37.5 343.511719 Z M 37.5 43.910156 "
         clip-rule="nonzero"
         id="path3" />
    </clipPath>
    <clipPath
       id="3d8ad730c6">
      <path
         d="M 187.300781 43.910156 C 104.566406 43.910156 37.5 110.980469 37.5 193.710938 C 37.5 276.445312 104.566406 343.511719 187.300781 343.511719 C 270.03125 343.511719 337.097656 276.445312 337.097656 193.710938 C 337.097656 110.980469 270.03125 43.910156 187.300781 43.910156 Z M 187.300781 43.910156 "
         clip-rule="nonzero"
         id="path4" />
    </clipPath>
    <clipPath
       id="d064bb7a38">
      <path
         d="M 37.5 43.910156 L 336.75 43.910156 L 336.75 343.160156 L 37.5 343.160156 Z M 37.5 43.910156 "
         clip-rule="nonzero"
         id="path5" />
    </clipPath>
    <clipPath
       id="7d3d66a02f">
      <path
         d="M 187.125 43.910156 C 104.488281 43.910156 37.5 110.902344 37.5 193.535156 C 37.5 276.171875 104.488281 343.160156 187.125 343.160156 C 269.761719 343.160156 336.75 276.171875 336.75 193.535156 C 336.75 110.902344 269.761719 43.910156 187.125 43.910156 Z M 187.125 43.910156 "
         clip-rule="nonzero"
         id="path6" />
    </clipPath>
  </defs>
  <g
     clip-path="url(#d5e80c08d1)"
     id="g8">
    <g
       clip-path="url(#4c648560ce)"
       id="g7">
      <path
         stroke-linecap="butt"
         transform="matrix(0.749179, 0, 0, 0.749179, 21.362708, 27.77449)"
         fill="none"
         stroke-linejoin="miter"
         d="M 221.24295 -0.00140543 C 99.051901 -0.00140543 0.000765629 99.054944 0.000765629 221.240779 C 0.000765629 343.431828 99.051901 442.482963 221.24295 442.482963 C 343.428785 442.482963 442.485135 343.431828 442.485135 221.240779 C 442.485135 99.054944 343.428785 -0.00140543 221.24295 -0.00140543 Z M 221.24295 -0.00140543 "
         stroke="#000000"
         stroke-width="16"
         stroke-opacity="1"
         stroke-miterlimit="4"
         id="path7" />
    </g>
  </g>
  <g
     clip-path="url(#aaa8924c62)"
     id="g10">
    <g
       clip-path="url(#3d8ad730c6)"
       id="g9">
      <path
         fill="#e0000e"
         d="M 37.5 43.910156 L 337.097656 43.910156 L 337.097656 343.511719 L 37.5 343.511719 Z M 37.5 43.910156 "
         fill-opacity="1"
         fill-rule="nonzero"
         id="path8" />
    </g>
  </g>
  <g
     clip-path="url(#d064bb7a38)"
     id="g12">
    <g
       clip-path="url(#7d3d66a02f)"
       id="g11">
      <path
         stroke-linecap="butt"
         transform="matrix(0.749149, 0, 0, 0.749149, 37.500002, 43.911794)"
         fill="none"
         stroke-linejoin="miter"
         d="M 199.72658 -0.00218604 C 89.419149 -0.00218604 -0.00000271975 89.422179 -0.00000271975 199.724397 C -0.00000271975 310.031829 89.419149 399.45098 199.72658 399.45098 C 310.034012 399.45098 399.453163 310.031829 399.453163 199.724397 C 399.453163 89.422179 310.034012 -0.00218604 199.72658 -0.00218604 Z M 199.72658 -0.00218604 "
         stroke="#000000"
         stroke-width="8"
         stroke-opacity="1"
         stroke-miterlimit="4"
         id="path10" />
    </g>
  </g>
  <g
     fill="#ffffff"
     fill-opacity="1"
     id="g15">
    <g
       transform="translate(111.865924, 279.976224)"
       id="g14">
      <g
         id="g13">
        <path
           d="M 11.875 -126.84375 C 12.53125 -145.46875 18.296875 -159.765625 29.171875 -169.734375 C 40.054688 -179.710938 55.222656 -184.703125 74.671875 -184.703125 C 87.359375 -184.703125 98.191406 -182.515625 107.171875 -178.140625 C 116.160156 -173.773438 122.960938 -167.84375 127.578125 -160.34375 C 132.191406 -152.84375 134.5 -144.394531 134.5 -135 C 134.5 -123.789062 131.78125 -114.847656 126.34375 -108.171875 C 120.90625 -101.492188 114.722656 -97.003906 107.796875 -94.703125 L 107.796875 -93.703125 C 127.742188 -86.285156 137.71875 -72.113281 137.71875 -51.1875 C 137.71875 -40.800781 135.328125 -31.648438 130.546875 -23.734375 C 125.765625 -15.828125 118.84375 -9.644531 109.78125 -5.1875 C 100.71875 -0.738281 89.921875 1.484375 77.390625 1.484375 C 56.785156 1.484375 40.503906 -3.5 28.546875 -13.46875 C 16.597656 -23.445312 10.378906 -38.738281 9.890625 -59.34375 L 57.109375 -59.34375 C 56.785156 -52.75 58.1875 -47.640625 61.3125 -44.015625 C 64.445312 -40.390625 69.144531 -38.578125 75.40625 -38.578125 C 80.1875 -38.578125 83.9375 -40.054688 86.65625 -43.015625 C 89.375 -45.984375 90.734375 -49.941406 90.734375 -54.890625 C 90.734375 -61.148438 88.710938 -65.765625 84.671875 -68.734375 C 80.640625 -71.703125 74.09375 -73.1875 65.03125 -73.1875 L 56.375 -73.1875 L 56.375 -112.5 L 64.78125 -112.5 C 71.039062 -112.332031 76.351562 -113.359375 80.71875 -115.578125 C 85.09375 -117.804688 87.28125 -122.300781 87.28125 -129.0625 C 87.28125 -134.175781 86.039062 -138.007812 83.5625 -140.5625 C 81.09375 -143.113281 77.71875 -144.390625 73.4375 -144.390625 C 68.65625 -144.390625 65.148438 -142.695312 62.921875 -139.3125 C 60.703125 -135.9375 59.425781 -131.78125 59.09375 -126.84375 Z M 11.875 -126.84375 "
           id="path12" />
      </g>
    </g>
  </g>
</svg>
