<?xml version="1.0" encoding="UTF-8" standalone="no"?>
<svg
   width="500"
   zoomAndPan="magnify"
   viewBox="0 0 375 374.999991"
   height="500"
   preserveAspectRatio="xMidYMid meet"
   version="1.0"
   id="svg20"
   sodipodi:docname="pms-bla-1.svg"
   inkscape:version="1.3 (0e150ed6c4, 2023-07-21)"
   xmlns:inkscape="http://www.inkscape.org/namespaces/inkscape"
   xmlns:sodipodi="http://sodipodi.sourceforge.net/DTD/sodipodi-0.dtd"
   xmlns="http://www.w3.org/2000/svg"
   xmlns:svg="http://www.w3.org/2000/svg">
  <sodipodi:namedview
     id="namedview20"
     pagecolor="#ffffff"
     bordercolor="#000000"
     borderopacity="0.25"
     inkscape:showpageshadow="2"
     inkscape:pageopacity="0.0"
     inkscape:pagecheckerboard="0"
     inkscape:deskcolor="#d1d1d1"
     inkscape:zoom="1.61"
     inkscape:cx="250"
     inkscape:cy="250"
     inkscape:window-width="1920"
     inkscape:window-height="1014"
     inkscape:window-x="0"
     inkscape:window-y="31"
     inkscape:window-maximized="1"
     inkscape:current-layer="svg20" />
  <defs
     id="defs7">
    <clipPath
       id="4c98354b0d">
      <path
         d="M 21.363281 27.773438 L 352.863281 27.773438 L 352.863281 359.273438 L 21.363281 359.273438 Z M 21.363281 27.773438 "
         clip-rule="nonzero"
         id="path1" />
    </clipPath>
    <clipPath
       id="008c7fcfc6">
      <path
         d="M 187.113281 27.773438 C 95.570312 27.773438 21.363281 101.984375 21.363281 193.523438 C 21.363281 285.066406 95.570312 359.273438 187.113281 359.273438 C 278.652344 359.273438 352.863281 285.066406 352.863281 193.523438 C 352.863281 101.984375 278.652344 27.773438 187.113281 27.773438 Z M 187.113281 27.773438 "
         clip-rule="nonzero"
         id="path2" />
    </clipPath>
    <clipPath
       id="7383c1f493">
      <path
         d="M 37.5 43.910156 L 337.097656 43.910156 L 337.097656 343.511719 L 37.5 343.511719 Z M 37.5 43.910156 "
         clip-rule="nonzero"
         id="path3" />
    </clipPath>
    <clipPath
       id="9f9083462c">
      <path
         d="M 187.300781 43.910156 C 104.566406 43.910156 37.5 110.980469 37.5 193.710938 C 37.5 276.445312 104.566406 343.511719 187.300781 343.511719 C 270.03125 343.511719 337.097656 276.445312 337.097656 193.710938 C 337.097656 110.980469 270.03125 43.910156 187.300781 43.910156 Z M 187.300781 43.910156 "
         clip-rule="nonzero"
         id="path4" />
    </clipPath>
    <clipPath
       id="d835b4c46d">
      <path
         d="M 37.5 43.910156 L 336.75 43.910156 L 336.75 343.160156 L 37.5 343.160156 Z M 37.5 43.910156 "
         clip-rule="nonzero"
         id="path5" />
    </clipPath>
    <clipPath
       id="b50528c417">
      <path
         d="M 187.125 43.910156 C 104.488281 43.910156 37.5 110.902344 37.5 193.535156 C 37.5 276.171875 104.488281 343.160156 187.125 343.160156 C 269.761719 343.160156 336.75 276.171875 336.75 193.535156 C 336.75 110.902344 269.761719 43.910156 187.125 43.910156 Z M 187.125 43.910156 "
         clip-rule="nonzero"
         id="path6" />
    </clipPath>
    <clipPath
       id="37485ce743">
      <path
         d="M 117 102.292969 L 253 102.292969 L 253 285.292969 L 117 285.292969 Z M 117 102.292969 "
         clip-rule="nonzero"
         id="path7" />
    </clipPath>
  </defs>
  <g
     clip-path="url(#4c98354b0d)"
     id="g9">
    <g
       clip-path="url(#008c7fcfc6)"
       id="g8">
      <path
         stroke-linecap="butt"
         transform="matrix(0.749179, 0, 0, 0.749179, 21.362708, 27.774578)"
         fill="none"
         stroke-linejoin="miter"
         d="M 221.24295 -0.00152267 C 99.051901 -0.00152267 0.000765629 99.054827 0.000765629 221.240662 C 0.000765629 343.431711 99.051901 442.482846 221.24295 442.482846 C 343.428785 442.482846 442.485135 343.431711 442.485135 221.240662 C 442.485135 99.054827 343.428785 -0.00152267 221.24295 -0.00152267 Z M 221.24295 -0.00152267 "
         stroke="#000000"
         stroke-width="16"
         stroke-opacity="1"
         stroke-miterlimit="4"
         id="path8" />
    </g>
  </g>
  <g
     clip-path="url(#7383c1f493)"
     id="g11">
    <g
       clip-path="url(#9f9083462c)"
       id="g10">
      <path
         fill="#231f20"
         d="M 37.5 43.910156 L 337.097656 43.910156 L 337.097656 343.511719 L 37.5 343.511719 Z M 37.5 43.910156 "
         fill-opacity="1"
         fill-rule="nonzero"
         id="path9" />
    </g>
  </g>
  <g
     clip-path="url(#d835b4c46d)"
     id="g13">
    <g
       clip-path="url(#b50528c417)"
       id="g12">
      <path
         stroke-linecap="butt"
         transform="matrix(0.749149, 0, 0, 0.749149, 37.500002, 43.911852)"
         fill="none"
         stroke-linejoin="miter"
         d="M 199.72658 -0.00226292 C 89.419149 -0.00226292 -0.00000271975 89.422103 -0.00000271975 199.72432 C -0.00000271975 310.031752 89.419149 399.450903 199.72658 399.450903 C 310.034012 399.450903 399.453163 310.031752 399.453163 199.72432 C 399.453163 89.422103 310.034012 -0.00226292 199.72658 -0.00226292 Z M 199.72658 -0.00226292 "
         stroke="#000000"
         stroke-width="8"
         stroke-opacity="1"
         stroke-miterlimit="4"
         id="path11" />
    </g>
  </g>
  <g
     clip-path="url(#37485ce743)"
     id="g14">
    <path
       fill="#ffffff"
       d="M 185.035156 114.75 C 189.101562 114.75 192.390625 118.15625 192.390625 122.347656 C 192.390625 126.539062 189.101562 129.933594 185.035156 129.933594 C 180.976562 129.933594 177.679688 126.539062 177.679688 122.347656 C 177.679688 118.15625 180.972656 114.75 185.035156 114.75 Z M 185.035156 102.371094 C 176.640625 102.382812 169.183594 107.914062 166.570312 116.101562 L 131.621094 116.160156 C 123.957031 116.160156 117.335938 121.90625 117.335938 129.382812 L 117.335938 272.222656 C 117.335938 279.703125 123.957031 285.445312 131.621094 285.445312 L 238.457031 285.445312 C 246.121094 285.445312 252.746094 279.703125 252.746094 272.222656 L 252.746094 250.597656 L 245.851562 256.113281 L 245.851562 272.222656 C 245.851562 275.59375 242.804688 278.574219 238.457031 278.574219 L 131.617188 278.574219 C 127.285156 278.574219 124.21875 275.59375 124.21875 272.222656 L 124.21875 129.386719 C 124.21875 126.015625 127.285156 123.035156 131.617188 123.035156 L 147.71875 123.035156 L 147.71875 135.546875 C 147.71875 138.796875 150.375 141.421875 153.652344 141.421875 L 216.414062 141.421875 C 219.699219 141.421875 222.339844 138.800781 222.339844 135.546875 L 222.339844 123.035156 L 238.453125 123.035156 C 242.796875 123.035156 245.847656 126.015625 245.847656 129.386719 L 245.847656 158.621094 L 252.742188 161.019531 L 252.742188 129.386719 C 252.742188 121.90625 246.117188 116.164062 238.453125 116.164062 L 203.492188 116.101562 C 200.875 107.925781 193.421875 102.382812 185.035156 102.371094 Z M 185.035156 102.371094 "
       fill-opacity="1"
       fill-rule="evenodd"
       id="path13" />
  </g>
  <path
     fill="#ffffff"
     d="M 225.449219 186.335938 C 231.640625 186.335938 236.667969 191.59375 236.667969 198.074219 C 236.652344 201.957031 234.816406 205.585938 231.738281 207.757812 L 235.089844 222.109375 C 235.351562 223.679688 234.199219 224.996094 233.078125 224.996094 L 217.816406 224.996094 C 216.703125 224.996094 215.542969 223.679688 215.804688 222.109375 L 219.15625 207.78125 C 216.089844 205.597656 214.242188 201.964844 214.242188 198.074219 C 214.238281 191.59375 219.253906 186.335938 225.449219 186.335938 Z M 225.449219 158.050781 L 179.964844 173.886719 L 179.964844 191.085938 C 179.964844 226.148438 198.21875 247.261719 225.449219 261.707031 C 252.679688 247.261719 270.9375 226.144531 270.9375 191.085938 L 270.9375 173.886719 Z M 225.449219 158.050781 "
     fill-opacity="1"
     fill-rule="nonzero"
     id="path14" />
  <path
     fill="#ffffff"
     d="M 138.527344 170.429688 C 133.941406 170.429688 133.941406 177.328125 138.527344 177.328125 L 165.976562 177.328125 C 170.570312 177.328125 170.570312 170.429688 165.976562 170.429688 Z M 138.527344 170.429688 "
     fill-opacity="1"
     fill-rule="nonzero"
     id="path15" />
  <path
     fill="#ffffff"
     d="M 138.527344 185.992188 C 133.941406 185.992188 133.941406 192.890625 138.527344 192.890625 L 165.976562 192.890625 C 170.570312 192.890625 170.570312 185.992188 165.976562 185.992188 Z M 138.527344 185.992188 "
     fill-opacity="1"
     fill-rule="nonzero"
     id="path16" />
  <path
     fill="#ffffff"
     d="M 138.195312 201.550781 C 133.742188 201.898438 134.070312 208.53125 138.527344 208.4375 L 165.976562 208.4375 C 167.953125 208.542969 169.609375 206.976562 169.609375 204.996094 C 169.609375 203.011719 167.953125 201.445312 165.976562 201.550781 L 138.527344 201.550781 C 138.421875 201.550781 138.300781 201.550781 138.195312 201.550781 Z M 138.195312 201.550781 "
     fill-opacity="1"
     fill-rule="nonzero"
     id="path17" />
  <path
     fill="#ffffff"
     d="M 138.527344 217.101562 C 133.941406 217.101562 133.941406 223.996094 138.527344 223.996094 L 165.976562 223.996094 C 170.570312 223.996094 170.570312 217.101562 165.976562 217.101562 Z M 138.527344 217.101562 "
     fill-opacity="1"
     fill-rule="nonzero"
     id="path18" />
  <path
     fill="#ffffff"
     d="M 138.195312 232.664062 C 133.742188 232.996094 134.070312 239.632812 138.527344 239.535156 L 177.265625 239.535156 C 179.230469 239.652344 180.890625 238.078125 180.890625 236.105469 C 180.890625 234.125 179.230469 232.546875 177.265625 232.667969 L 138.527344 232.667969 C 138.421875 232.652344 138.300781 232.652344 138.195312 232.664062 Z M 138.195312 232.664062 "
     fill-opacity="1"
     fill-rule="nonzero"
     id="path19" />
  <path
     fill="#ffffff"
     d="M 138.527344 248.203125 C 133.941406 248.203125 133.941406 255.097656 138.527344 255.097656 L 184.90625 255.097656 C 189.492188 255.097656 189.492188 248.203125 184.90625 248.203125 Z M 138.527344 248.203125 "
     fill-opacity="1"
     fill-rule="nonzero"
     id="path20" />
</svg>
