<?xml version="1.0" encoding="UTF-8" standalone="no"?>
<svg
   width="500"
   zoomAndPan="magnify"
   viewBox="0 0 375 374.999991"
   height="500"
   preserveAspectRatio="xMidYMid meet"
   version="1.0"
   id="svg14"
   sodipodi:docname="pms-bla-2.svg"
   inkscape:version="1.3 (0e150ed6c4, 2023-07-21)"
   xmlns:inkscape="http://www.inkscape.org/namespaces/inkscape"
   xmlns:sodipodi="http://sodipodi.sourceforge.net/DTD/sodipodi-0.dtd"
   xmlns="http://www.w3.org/2000/svg"
   xmlns:svg="http://www.w3.org/2000/svg">
  <sodipodi:namedview
     id="namedview14"
     pagecolor="#ffffff"
     bordercolor="#000000"
     borderopacity="0.25"
     inkscape:showpageshadow="2"
     inkscape:pageopacity="0.0"
     inkscape:pagecheckerboard="0"
     inkscape:deskcolor="#d1d1d1"
     inkscape:zoom="1.61"
     inkscape:cx="250"
     inkscape:cy="250"
     inkscape:window-width="1920"
     inkscape:window-height="1014"
     inkscape:window-x="0"
     inkscape:window-y="31"
     inkscape:window-maximized="1"
     inkscape:current-layer="svg14" />
  <defs
     id="defs7">
    <clipPath
       id="d49960a774">
      <path
         d="M 21.363281 27.773438 L 352.863281 27.773438 L 352.863281 359.273438 L 21.363281 359.273438 Z M 21.363281 27.773438 "
         clip-rule="nonzero"
         id="path1" />
    </clipPath>
    <clipPath
       id="d7df4e16ab">
      <path
         d="M 187.113281 27.773438 C 95.570312 27.773438 21.363281 101.984375 21.363281 193.523438 C 21.363281 285.066406 95.570312 359.273438 187.113281 359.273438 C 278.652344 359.273438 352.863281 285.066406 352.863281 193.523438 C 352.863281 101.984375 278.652344 27.773438 187.113281 27.773438 Z M 187.113281 27.773438 "
         clip-rule="nonzero"
         id="path2" />
    </clipPath>
    <clipPath
       id="4d5cba6ac7">
      <path
         d="M 37.5 43.910156 L 337.097656 43.910156 L 337.097656 343.511719 L 37.5 343.511719 Z M 37.5 43.910156 "
         clip-rule="nonzero"
         id="path3" />
    </clipPath>
    <clipPath
       id="0897a01b61">
      <path
         d="M 187.300781 43.910156 C 104.566406 43.910156 37.5 110.980469 37.5 193.710938 C 37.5 276.445312 104.566406 343.511719 187.300781 343.511719 C 270.03125 343.511719 337.097656 276.445312 337.097656 193.710938 C 337.097656 110.980469 270.03125 43.910156 187.300781 43.910156 Z M 187.300781 43.910156 "
         clip-rule="nonzero"
         id="path4" />
    </clipPath>
    <clipPath
       id="7007f90f8b">
      <path
         d="M 37.5 43.910156 L 336.75 43.910156 L 336.75 343.160156 L 37.5 343.160156 Z M 37.5 43.910156 "
         clip-rule="nonzero"
         id="path5" />
    </clipPath>
    <clipPath
       id="f000783e16">
      <path
         d="M 187.125 43.910156 C 104.488281 43.910156 37.5 110.902344 37.5 193.535156 C 37.5 276.171875 104.488281 343.160156 187.125 343.160156 C 269.761719 343.160156 336.75 276.171875 336.75 193.535156 C 336.75 110.902344 269.761719 43.910156 187.125 43.910156 Z M 187.125 43.910156 "
         clip-rule="nonzero"
         id="path6" />
    </clipPath>
    <clipPath
       id="2e58cf09e4">
      <path
         d="M 96.5 101.445312 L 278.75 101.445312 L 278.75 285.945312 L 96.5 285.945312 Z M 96.5 101.445312 "
         clip-rule="nonzero"
         id="path7" />
    </clipPath>
  </defs>
  <g
     clip-path="url(#d49960a774)"
     id="g9">
    <g
       clip-path="url(#d7df4e16ab)"
       id="g8">
      <path
         stroke-linecap="butt"
         transform="matrix(0.749179, 0, 0, 0.749179, 21.362708, 27.774549)"
         fill="none"
         stroke-linejoin="miter"
         d="M 221.24295 -0.00148359 C 99.051901 -0.00148359 0.000765629 99.054866 0.000765629 221.240701 C 0.000765629 343.43175 99.051901 442.482885 221.24295 442.482885 C 343.428785 442.482885 442.485135 343.43175 442.485135 221.240701 C 442.485135 99.054866 343.428785 -0.00148359 221.24295 -0.00148359 Z M 221.24295 -0.00148359 "
         stroke="#000000"
         stroke-width="16"
         stroke-opacity="1"
         stroke-miterlimit="4"
         id="path8" />
    </g>
  </g>
  <g
     clip-path="url(#4d5cba6ac7)"
     id="g11">
    <g
       clip-path="url(#0897a01b61)"
       id="g10">
      <path
         fill="#231f20"
         d="M 37.5 43.910156 L 337.097656 43.910156 L 337.097656 343.511719 L 37.5 343.511719 Z M 37.5 43.910156 "
         fill-opacity="1"
         fill-rule="nonzero"
         id="path9" />
    </g>
  </g>
  <g
     clip-path="url(#7007f90f8b)"
     id="g13">
    <g
       clip-path="url(#f000783e16)"
       id="g12">
      <path
         stroke-linecap="butt"
         transform="matrix(0.749149, 0, 0, 0.749149, 37.500002, 43.911912)"
         fill="none"
         stroke-linejoin="miter"
         d="M 199.72658 -0.00234301 C 89.419149 -0.00234301 -0.00000271975 89.422023 -0.00000271975 199.72424 C -0.00000271975 310.031672 89.419149 399.450823 199.72658 399.450823 C 310.034012 399.450823 399.453163 310.031672 399.453163 199.72424 C 399.453163 89.422023 310.034012 -0.00234301 199.72658 -0.00234301 Z M 199.72658 -0.00234301 "
         stroke="#000000"
         stroke-width="8"
         stroke-opacity="1"
         stroke-miterlimit="4"
         id="path11" />
    </g>
  </g>
  <g
     clip-path="url(#2e58cf09e4)"
     id="g14">
    <path
       fill="#ffffff"
       d="M 236.757812 257.28125 C 237.148438 254.296875 236.6875 251.257812 235.40625 248.53125 L 235.757812 150.820312 C 235.761719 149.761719 234.894531 148.898438 233.832031 148.898438 L 222.164062 148.898438 L 222.164062 140.96875 L 237.992188 140.96875 C 241.136719 140.96875 243.699219 143.527344 243.699219 146.667969 L 243.699219 251.578125 C 243.699219 254.71875 241.136719 257.28125 237.992188 257.28125 Z M 182.429688 268.820312 C 172.589844 268.820312 164.492188 276.257812 163.46875 285.8125 L 201.390625 285.8125 C 200.367188 276.257812 192.269531 268.820312 182.429688 268.820312 Z M 158.382812 266.804688 L 113.097656 266.804688 L 113.097656 235.144531 L 113.898438 236.527344 C 114.75 237.992188 116.628906 238.492188 118.097656 237.644531 C 119.566406 236.796875 120.066406 234.917969 119.214844 233.453125 L 112.789062 222.335938 C 112.289062 221.3125 111.234375 220.605469 110.019531 220.605469 C 108.800781 220.605469 107.746094 221.3125 107.246094 222.335938 L 100.820312 233.453125 C 99.96875 234.917969 100.46875 236.796875 101.9375 237.644531 C 103.40625 238.492188 105.285156 237.992188 106.136719 236.527344 L 106.9375 235.144531 L 106.9375 269.878906 C 106.9375 271.578125 108.316406 272.953125 110.015625 272.953125 L 158.382812 272.953125 C 160.082031 272.953125 161.460938 271.578125 161.460938 269.878906 C 161.460938 268.179688 160.082031 266.804688 158.382812 266.804688 Z M 119.894531 208.875 L 127.347656 208.875 C 128.40625 208.875 129.273438 208.011719 129.273438 206.953125 L 129.273438 203.382812 C 129.273438 202.324219 130.136719 201.460938 131.195312 201.460938 L 134.773438 201.460938 C 135.832031 201.460938 136.695312 200.597656 136.695312 199.539062 L 136.695312 192.097656 C 136.695312 191.039062 135.832031 190.175781 134.773438 190.175781 L 131.195312 190.175781 C 130.136719 190.175781 129.273438 189.3125 129.273438 188.253906 L 129.273438 184.683594 C 129.273438 183.625 128.40625 182.761719 127.347656 182.761719 L 119.894531 182.761719 C 118.832031 182.761719 117.96875 183.625 117.96875 184.683594 L 117.96875 188.253906 C 117.96875 189.3125 117.105469 190.175781 116.042969 190.175781 L 112.46875 190.175781 C 111.410156 190.175781 110.542969 191.039062 110.542969 192.097656 L 110.542969 199.539062 C 110.542969 200.597656 111.410156 201.460938 112.46875 201.460938 L 116.042969 201.460938 C 117.105469 201.460938 117.96875 202.324219 117.96875 203.382812 L 117.96875 206.953125 C 117.96875 208.011719 118.832031 208.875 119.894531 208.875 Z M 250.109375 255.480469 C 250.109375 260.796875 254.429688 265.109375 259.753906 265.109375 C 265.078125 265.109375 269.394531 260.796875 269.394531 255.480469 C 269.394531 250.164062 265.078125 245.851562 259.753906 245.851562 C 254.425781 245.851562 250.109375 250.164062 250.109375 255.480469 Z M 192.855469 120.582031 L 259.542969 120.582031 L 259.542969 219.183594 L 258.742188 217.796875 C 257.894531 216.332031 256.011719 215.832031 254.542969 216.679688 C 253.078125 217.527344 252.574219 219.40625 253.425781 220.871094 L 259.855469 231.988281 C 260.351562 233.011719 261.40625 233.71875 262.625 233.71875 C 263.84375 233.71875 264.894531 233.011719 265.394531 231.988281 L 271.824219 220.871094 C 272.671875 219.40625 272.171875 217.527344 270.703125 216.679688 C 269.234375 215.832031 267.355469 216.332031 266.503906 217.796875 L 265.703125 219.183594 L 265.703125 117.507812 C 265.703125 115.8125 264.324219 114.433594 262.625 114.433594 L 192.855469 114.433594 C 191.15625 114.433594 189.777344 115.8125 189.777344 117.507812 C 189.777344 119.207031 191.15625 120.582031 192.855469 120.582031 Z M 221.089844 264.839844 C 226.417969 264.839844 230.734375 260.53125 230.734375 255.214844 C 230.734375 249.894531 226.417969 245.585938 221.089844 245.585938 C 215.765625 245.585938 211.449219 249.894531 211.449219 255.214844 C 211.449219 260.53125 215.765625 264.839844 221.089844 264.839844 Z M 182.429688 265.109375 C 187.753906 265.109375 192.070312 260.796875 192.070312 255.480469 C 192.070312 250.164062 187.753906 245.851562 182.429688 245.851562 C 177.105469 245.851562 172.789062 250.164062 172.789062 255.480469 C 172.789062 260.796875 177.105469 265.109375 182.429688 265.109375 Z M 259.753906 268.953125 C 249.914062 268.953125 241.816406 276.390625 240.792969 285.945312 L 278.714844 285.945312 C 277.691406 276.390625 269.59375 268.953125 259.753906 268.953125 Z M 221.089844 268.683594 C 211.253906 268.683594 203.152344 276.125 202.128906 285.675781 L 240.050781 285.675781 C 239.027344 276.125 230.929688 268.683594 221.089844 268.683594 Z M 133.621094 127.941406 C 133.621094 120.578125 133.621094 113.214844 133.621094 105.851562 C 133.621094 103.421875 135.605469 101.445312 138.035156 101.445312 C 148.8125 101.445312 159.589844 101.445312 170.367188 101.445312 C 172.796875 101.445312 174.78125 103.421875 174.78125 105.851562 C 174.78125 113.214844 174.78125 120.578125 174.78125 127.941406 C 174.78125 130.371094 172.796875 132.347656 170.367188 132.347656 L 150.410156 132.347656 L 141.769531 141.328125 L 141.769531 132.347656 L 138.035156 132.347656 C 135.605469 132.347656 133.621094 130.371094 133.621094 127.941406 Z M 139.144531 109.976562 C 139.144531 111.675781 140.523438 113.054688 142.222656 113.054688 L 165.785156 113.054688 C 167.488281 113.054688 168.867188 111.675781 168.867188 109.976562 C 168.867188 108.28125 167.488281 106.902344 165.785156 106.902344 L 142.222656 106.902344 C 140.523438 106.902344 139.144531 108.28125 139.144531 109.976562 Z M 139.144531 116.972656 C 139.144531 118.671875 140.523438 120.046875 142.222656 120.046875 L 165.785156 120.046875 C 167.488281 120.046875 168.867188 118.671875 168.867188 116.972656 C 168.867188 115.273438 167.488281 113.898438 165.785156 113.898438 L 142.222656 113.898438 C 140.523438 113.898438 139.144531 115.273438 139.144531 116.972656 Z M 139.144531 123.964844 C 139.144531 125.664062 140.523438 127.042969 142.222656 127.042969 L 165.785156 127.042969 C 167.488281 127.042969 168.867188 125.664062 168.867188 123.964844 C 168.867188 122.269531 167.488281 120.890625 165.785156 120.890625 L 142.222656 120.890625 C 140.523438 120.890625 139.144531 122.269531 139.144531 123.964844 Z M 123.621094 162.683594 C 131.226562 162.683594 137.390625 156.527344 137.390625 148.933594 C 137.390625 141.335938 131.226562 135.179688 123.621094 135.179688 C 116.015625 135.179688 109.847656 141.335938 109.847656 148.933594 C 109.847656 156.527344 116.015625 162.683594 123.621094 162.683594 Z M 111.835938 184.050781 C 112.160156 179.890625 115.648438 176.613281 119.894531 176.613281 L 127.347656 176.613281 C 131.59375 176.613281 135.082031 179.890625 135.40625 184.050781 C 139.136719 184.339844 142.160156 187.164062 142.75 190.796875 L 150.703125 190.796875 C 149.238281 177.152344 137.675781 166.527344 123.621094 166.527344 C 109.566406 166.527344 98 177.152344 96.539062 190.796875 L 104.492188 190.796875 C 105.082031 187.164062 108.105469 184.339844 111.835938 184.050781 Z M 173.960938 137.519531 L 183.175781 137.519531 C 183.984375 137.519531 184.675781 137.046875 184.96875 136.292969 C 186.375 132.675781 189.898438 130.109375 194.019531 130.109375 C 198.144531 130.109375 201.664062 132.675781 203.074219 136.292969 C 203.367188 137.046875 204.058594 137.519531 204.867188 137.519531 L 214.082031 137.519531 C 215.140625 137.519531 216.007812 138.382812 216.007812 139.441406 L 216.007812 150.421875 C 216.007812 151.480469 215.140625 152.34375 214.082031 152.34375 L 173.960938 152.34375 C 172.898438 152.34375 172.035156 151.480469 172.035156 150.421875 L 172.035156 139.441406 C 172.035156 138.382812 172.902344 137.519531 173.960938 137.519531 Z M 191.453125 138.054688 C 191.453125 139.46875 192.601562 140.617188 194.019531 140.617188 C 195.4375 140.617188 196.589844 139.46875 196.589844 138.054688 C 196.589844 136.636719 195.4375 135.492188 194.019531 135.492188 C 192.601562 135.492188 191.453125 136.636719 191.453125 138.054688 Z M 196.992188 249.347656 C 198.050781 251.851562 198.4375 254.582031 198.128906 257.28125 L 205.425781 257.28125 C 205.074219 254.601562 205.410156 251.859375 206.417969 249.347656 Z M 154.207031 249.347656 C 153.148438 249.347656 152.285156 248.484375 152.285156 247.425781 L 152.285156 202.328125 L 144.339844 202.328125 L 144.339844 251.578125 C 144.339844 254.71875 146.90625 257.28125 150.050781 257.28125 L 166.730469 257.28125 C 166.664062 256.691406 166.628906 256.089844 166.628906 255.480469 C 166.628906 253.304688 167.070312 251.234375 167.867188 249.347656 Z M 144.339844 146.667969 L 144.339844 160.988281 C 147.273438 162.84375 149.945312 165.082031 152.285156 167.636719 L 152.285156 150.820312 C 152.285156 149.761719 153.148438 148.898438 154.207031 148.898438 L 165.875 148.898438 L 165.875 140.96875 L 150.050781 140.96875 C 146.90625 140.96875 144.339844 143.527344 144.339844 146.667969 Z M 179.523438 237.898438 L 165.144531 237.898438 C 164.109375 237.898438 163.265625 237.054688 163.265625 236.023438 L 163.265625 221.667969 C 163.265625 220.636719 164.109375 219.792969 165.144531 219.792969 L 179.523438 219.792969 C 180.554688 219.792969 181.398438 220.636719 181.398438 221.667969 L 181.398438 236.023438 C 181.398438 237.054688 180.554688 237.898438 179.523438 237.898438 Z M 178.09375 223.679688 C 176.773438 222.613281 174.832031 222.816406 173.765625 224.136719 L 171.417969 227.03125 L 170.683594 226.300781 C 169.484375 225.101562 167.535156 225.101562 166.332031 226.300781 C 165.128906 227.5 165.128906 229.449219 166.332031 230.648438 L 169.484375 233.796875 C 170.785156 235.097656 172.925781 234.96875 174.070312 233.539062 L 178.550781 228.003906 C 179.621094 226.683594 179.417969 224.746094 178.09375 223.679688 Z M 181.398438 177.933594 C 181.398438 178.964844 180.554688 179.808594 179.523438 179.808594 L 165.144531 179.808594 C 164.109375 179.808594 163.265625 178.964844 163.265625 177.933594 L 163.265625 163.578125 C 163.265625 162.546875 164.109375 161.703125 165.144531 161.703125 L 179.523438 161.703125 C 180.554688 161.703125 181.398438 162.546875 181.398438 163.578125 Z M 178.09375 165.589844 C 176.773438 164.519531 174.832031 164.726562 173.765625 166.042969 L 171.417969 168.941406 L 170.683594 168.207031 C 169.484375 167.007812 167.535156 167.007812 166.332031 168.207031 C 165.128906 169.410156 165.128906 171.355469 166.332031 172.558594 L 169.484375 175.703125 C 170.785156 177.003906 172.925781 176.878906 174.070312 175.445312 L 178.550781 169.910156 C 179.621094 168.59375 179.417969 166.65625 178.09375 165.589844 Z M 181.398438 192.621094 L 181.398438 206.980469 C 181.398438 208.007812 180.554688 208.851562 179.523438 208.851562 L 165.144531 208.851562 C 164.109375 208.851562 163.265625 208.007812 163.265625 206.980469 C 163.265625 202.191406 163.265625 197.40625 163.265625 192.621094 C 163.265625 191.589844 164.109375 190.746094 165.144531 190.746094 L 179.523438 190.746094 C 180.554688 190.746094 181.398438 191.589844 181.398438 192.621094 Z M 178.09375 194.632812 C 176.773438 193.566406 174.832031 193.769531 173.765625 195.089844 L 171.417969 197.984375 L 170.683594 197.253906 C 169.484375 196.054688 167.535156 196.054688 166.332031 197.253906 C 165.128906 198.457031 165.128906 200.402344 166.332031 201.601562 L 169.484375 204.75 C 170.785156 206.050781 172.925781 205.921875 174.070312 204.492188 L 178.550781 198.957031 C 179.621094 197.636719 179.417969 195.703125 178.09375 194.632812 Z M 192.855469 226.757812 L 224.773438 226.757812 C 226.476562 226.757812 227.855469 225.378906 227.855469 223.679688 C 227.855469 221.984375 226.476562 220.605469 224.773438 220.605469 L 192.855469 220.605469 C 191.15625 220.605469 189.777344 221.984375 189.777344 223.679688 C 189.777344 225.378906 191.15625 226.757812 192.855469 226.757812 Z M 192.855469 168.664062 L 224.773438 168.664062 C 226.476562 168.664062 227.855469 167.289062 227.855469 165.589844 C 227.855469 163.890625 226.476562 162.515625 224.773438 162.515625 L 192.855469 162.515625 C 191.15625 162.515625 189.777344 163.890625 189.777344 165.589844 C 189.777344 167.289062 191.15625 168.664062 192.855469 168.664062 Z M 192.855469 178.996094 L 224.773438 178.996094 C 226.476562 178.996094 227.855469 177.617188 227.855469 175.917969 C 227.855469 174.222656 226.476562 172.84375 224.773438 172.84375 L 192.855469 172.84375 C 191.15625 172.84375 189.777344 174.222656 189.777344 175.917969 C 189.777344 177.617188 191.15625 178.996094 192.855469 178.996094 Z M 192.855469 197.710938 L 224.773438 197.710938 C 226.476562 197.710938 227.855469 196.332031 227.855469 194.636719 C 227.855469 192.9375 226.476562 191.5625 224.773438 191.5625 L 192.855469 191.5625 C 191.15625 191.5625 189.777344 192.9375 189.777344 194.636719 C 189.777344 196.332031 191.15625 197.710938 192.855469 197.710938 Z M 192.855469 208.039062 L 224.773438 208.039062 C 226.476562 208.039062 227.855469 206.664062 227.855469 204.964844 C 227.855469 203.265625 226.476562 201.890625 224.773438 201.890625 L 192.855469 201.890625 C 191.15625 201.890625 189.777344 203.265625 189.777344 204.964844 C 189.777344 206.664062 191.15625 208.039062 192.855469 208.039062 Z M 227.855469 234.011719 C 227.855469 232.3125 226.476562 230.9375 224.773438 230.9375 L 192.855469 230.9375 C 191.15625 230.9375 189.777344 232.3125 189.777344 234.011719 C 189.777344 235.707031 191.15625 237.085938 192.855469 237.085938 L 224.773438 237.085938 C 226.476562 237.085938 227.855469 235.707031 227.855469 234.011719 Z M 227.855469 234.011719 "
       fill-opacity="1"
       fill-rule="evenodd"
       id="path13" />
  </g>
</svg>
