<?xml version="1.0" encoding="UTF-8" standalone="no"?>
<svg
   width="500"
   zoomAndPan="magnify"
   viewBox="0 0 375 374.999991"
   height="500"
   preserveAspectRatio="xMidYMid meet"
   version="1.0"
   id="svg14"
   sodipodi:docname="pms-yel.svg"
   inkscape:version="1.3 (0e150ed6c4, 2023-07-21)"
   xmlns:inkscape="http://www.inkscape.org/namespaces/inkscape"
   xmlns:sodipodi="http://sodipodi.sourceforge.net/DTD/sodipodi-0.dtd"
   xmlns="http://www.w3.org/2000/svg"
   xmlns:svg="http://www.w3.org/2000/svg">
  <sodipodi:namedview
     id="namedview14"
     pagecolor="#ffffff"
     bordercolor="#000000"
     borderopacity="0.25"
     inkscape:showpageshadow="2"
     inkscape:pageopacity="0.0"
     inkscape:pagecheckerboard="0"
     inkscape:deskcolor="#d1d1d1"
     inkscape:zoom="1.61"
     inkscape:cx="250"
     inkscape:cy="250"
     inkscape:window-width="1920"
     inkscape:window-height="1014"
     inkscape:window-x="0"
     inkscape:window-y="31"
     inkscape:window-maximized="1"
     inkscape:current-layer="svg14" />
  <defs
     id="defs7">
    <clipPath
       id="e86c9b9641">
      <path
         d="M 21.363281 27.773438 L 352.863281 27.773438 L 352.863281 359.273438 L 21.363281 359.273438 Z M 21.363281 27.773438 "
         clip-rule="nonzero"
         id="path1" />
    </clipPath>
    <clipPath
       id="ea3b367ddd">
      <path
         d="M 187.113281 27.773438 C 95.570312 27.773438 21.363281 101.984375 21.363281 193.523438 C 21.363281 285.066406 95.570312 359.273438 187.113281 359.273438 C 278.652344 359.273438 352.863281 285.066406 352.863281 193.523438 C 352.863281 101.984375 278.652344 27.773438 187.113281 27.773438 Z M 187.113281 27.773438 "
         clip-rule="nonzero"
         id="path2" />
    </clipPath>
    <clipPath
       id="a2c3c1bafc">
      <path
         d="M 37.5 43.910156 L 337.097656 43.910156 L 337.097656 343.511719 L 37.5 343.511719 Z M 37.5 43.910156 "
         clip-rule="nonzero"
         id="path3" />
    </clipPath>
    <clipPath
       id="3facc9bfcb">
      <path
         d="M 187.300781 43.910156 C 104.566406 43.910156 37.5 110.980469 37.5 193.710938 C 37.5 276.445312 104.566406 343.511719 187.300781 343.511719 C 270.03125 343.511719 337.097656 276.445312 337.097656 193.710938 C 337.097656 110.980469 270.03125 43.910156 187.300781 43.910156 Z M 187.300781 43.910156 "
         clip-rule="nonzero"
         id="path4" />
    </clipPath>
    <clipPath
       id="0a1f9e5edc">
      <path
         d="M 37.5 43.910156 L 336.75 43.910156 L 336.75 343.160156 L 37.5 343.160156 Z M 37.5 43.910156 "
         clip-rule="nonzero"
         id="path5" />
    </clipPath>
    <clipPath
       id="40f12dbf9c">
      <path
         d="M 187.125 43.910156 C 104.488281 43.910156 37.5 110.902344 37.5 193.535156 C 37.5 276.171875 104.488281 343.160156 187.125 343.160156 C 269.761719 343.160156 336.75 276.171875 336.75 193.535156 C 336.75 110.902344 269.761719 43.910156 187.125 43.910156 Z M 187.125 43.910156 "
         clip-rule="nonzero"
         id="path6" />
    </clipPath>
    <clipPath
       id="cc1fd04484">
      <path
         d="M 108.945312 90 L 265.695312 90 L 265.695312 297 L 108.945312 297 Z M 108.945312 90 "
         clip-rule="nonzero"
         id="path7" />
    </clipPath>
  </defs>
  <g
     clip-path="url(#e86c9b9641)"
     id="g9"
     style="fill:#feaa02;fill-opacity:1">
    <g
       clip-path="url(#ea3b367ddd)"
       id="g8"
       style="fill:#feaa02;fill-opacity:1">
      <path
         stroke-linecap="butt"
         transform="matrix(0.749179, 0, 0, 0.749179, 21.362708, 27.77449)"
         fill="none"
         stroke-linejoin="miter"
         d="M 221.24295 -0.00140543 C 99.051901 -0.00140543 0.000765629 99.054944 0.000765629 221.240779 C 0.000765629 343.431828 99.051901 442.482963 221.24295 442.482963 C 343.428785 442.482963 442.485135 343.431828 442.485135 221.240779 C 442.485135 99.054944 343.428785 -0.00140543 221.24295 -0.00140543 Z M 221.24295 -0.00140543 "
         stroke="#000000"
         stroke-width="16"
         stroke-opacity="1"
         stroke-miterlimit="4"
         id="path8"
         style="fill:#feaa02;fill-opacity:1" />
    </g>
  </g>
  <g
     clip-path="url(#a2c3c1bafc)"
     id="g11">
    <g
       clip-path="url(#3facc9bfcb)"
       id="g10">
      <path
         fill="#fbc11c"
         d="M 37.5 43.910156 L 337.097656 43.910156 L 337.097656 343.511719 L 37.5 343.511719 Z M 37.5 43.910156 "
         fill-opacity="1"
         fill-rule="nonzero"
         id="path9" />
    </g>
  </g>
  <g
     clip-path="url(#0a1f9e5edc)"
     id="g13"
     style="fill:#feaa02;fill-opacity:1">
    <g
       clip-path="url(#40f12dbf9c)"
       id="g12"
       style="fill:#feaa02;fill-opacity:1">
      <path
         stroke-linecap="butt"
         transform="matrix(0.749149, 0, 0, 0.749149, 37.500002, 43.911912)"
         fill="none"
         stroke-linejoin="miter"
         d="M 199.72658 -0.00234301 C 89.419149 -0.00234301 -0.00000271975 89.422023 -0.00000271975 199.72424 C -0.00000271975 310.031672 89.419149 399.450823 199.72658 399.450823 C 310.034012 399.450823 399.453163 310.031672 399.453163 199.72424 C 399.453163 89.422023 310.034012 -0.00234301 199.72658 -0.00234301 Z M 199.72658 -0.00234301 "
         stroke="#000000"
         stroke-width="8"
         stroke-opacity="1"
         stroke-miterlimit="4"
         id="path11"
         style="fill:#feaa02;fill-opacity:1" />
    </g>
  </g>
  <g
     clip-path="url(#cc1fd04484)"
     id="g14">
    <path
       fill="#100f0d"
       d="M 217.4375 145.878906 C 216.9375 152.589844 215.167969 158.875 211.402344 164.523438 C 208.34375 169.09375 204.339844 172.503906 199.203125 174.507812 C 198.433594 174.816406 198.207031 175.203125 198.207031 176.015625 C 198.242188 183.972656 198.148438 191.933594 198.261719 199.875 C 198.324219 204.757812 198.667969 209.617188 198.914062 214.492188 C 199.148438 219.640625 199.421875 224.765625 199.667969 229.914062 C 199.839844 233.714844 200.03125 237.507812 200.226562 241.308594 C 200.265625 242.039062 200.339844 242.75 200.203125 243.484375 C 199.875 245.203125 198.722656 246.167969 197.1875 246.785156 L 195.320312 246.785156 C 193.742188 246.203125 192.570312 245.222656 192.261719 243.484375 C 192.050781 242.25 191.953125 241.019531 191.796875 239.785156 C 191.300781 235.425781 190.78125 231.070312 190.261719 226.710938 C 189.746094 222.300781 189.222656 217.867188 188.703125 213.449219 C 188.433594 211.234375 188.167969 209.015625 187.894531 206.78125 L 186.605469 206.78125 C 186.550781 207.261719 186.472656 207.742188 186.414062 208.207031 C 186.089844 210.882812 185.761719 213.566406 185.453125 216.222656 C 184.9375 220.582031 184.4375 224.9375 183.914062 229.296875 C 183.394531 233.714844 182.820312 238.125 182.375 242.558594 C 182.167969 244.703125 181.144531 246.085938 179.164062 246.785156 L 177.085938 246.785156 C 175.796875 246.050781 174.625 245.222656 174.316406 243.585938 C 174.183594 242.886719 174.21875 242.210938 174.261719 241.519531 C 174.589844 234.542969 174.914062 227.566406 175.261719 220.582031 C 175.570312 214.128906 175.96875 207.664062 176.203125 201.210938 C 176.332031 196.753906 176.242188 192.28125 176.261719 187.8125 C 176.261719 183.800781 176.242188 179.789062 176.261719 175.777344 C 176.261719 175.261719 176.242188 174.914062 175.625 174.683594 C 166.96875 171.230469 161.855469 164.582031 158.96875 155.945312 C 157.835938 152.570312 157.292969 149.0625 157.046875 145.496094 C 156.875 143.046875 157.890625 141.429688 160.105469 140.484375 L 161.757812 140.484375 C 163.507812 141.046875 164.796875 142.066406 165.042969 144.011719 C 165.375 146.535156 165.875 149.042969 166.738281 151.453125 C 168.316406 155.808594 170.640625 159.648438 174.335938 162.558594 C 177.429688 164.96875 180.953125 166.179688 184.800781 166.546875 C 189.566406 166.972656 194.167969 166.355469 198.324219 163.808594 C 203.707031 160.511719 206.628906 155.425781 208.359375 149.523438 C 208.898438 147.75 209.222656 145.921875 209.421875 144.050781 C 209.613281 142.238281 210.839844 141.253906 212.300781 140.484375 L 214.378906 140.484375 C 216.863281 141.445312 217.628906 143.320312 217.4375 145.878906 Z M 187.261719 146.6875 C 192.207031 146.6875 196.320312 150.78125 196.246094 155.710938 C 196.144531 160.839844 192.28125 164.640625 187.222656 164.714844 C 182.296875 164.773438 178.222656 160.570312 178.238281 155.675781 C 178.28125 150.679688 182.296875 146.667969 187.261719 146.6875 Z M 187.320312 90.378906 C 164.914062 110.027344 138.714844 119.703125 109.074219 120.160156 C 109.035156 120.589844 109 120.796875 109 121.015625 C 108.960938 154.074219 108.945312 187.140625 108.898438 220.199219 C 108.882812 227.65625 110.902344 234.5625 114.617188 240.976562 C 120.0625 250.390625 127.75 257.769531 136.082031 264.5 C 151.636719 277.070312 168.855469 287.050781 186.316406 296.617188 C 187.359375 297.175781 188.03125 296.773438 188.820312 296.328125 C 199.09375 290.714844 209.261719 284.894531 219.015625 278.398438 C 231.152344 270.320312 242.867188 261.6875 252.425781 250.5 C 260.210938 241.402344 265.484375 231.304688 265.464844 218.90625 C 265.429688 193.554688 265.523438 168.226562 265.582031 142.875 L 265.582031 120.160156 C 235.789062 119.625 209.632812 109.964844 187.320312 90.378906 "
       fill-opacity="1"
       fill-rule="nonzero"
       id="path13" />
  </g>
</svg>
