<?xml version="1.0" encoding="UTF-8" standalone="no"?>
<!-- Created with Inkscape (http://www.inkscape.org/) -->

<svg
   width="500"
   height="500"
   viewBox="0 0 132.29167 132.29167"
   version="1.1"
   id="svg1"
   xml:space="preserve"
   inkscape:version="1.3 (0e150ed6c4, 2023-07-21)"
   sodipodi:docname="safe-500-b.svg"
   xmlns:inkscape="http://www.inkscape.org/namespaces/inkscape"
   xmlns:sodipodi="http://sodipodi.sourceforge.net/DTD/sodipodi-0.dtd"
   xmlns:xlink="http://www.w3.org/1999/xlink"
   xmlns="http://www.w3.org/2000/svg"
   xmlns:svg="http://www.w3.org/2000/svg"><sodipodi:namedview
     id="namedview1"
     pagecolor="#ffffff"
     bordercolor="#000000"
     borderopacity="0.25"
     inkscape:showpageshadow="2"
     inkscape:pageopacity="0.0"
     inkscape:pagecheckerboard="0"
     inkscape:deskcolor="#d1d1d1"
     inkscape:document-units="px"
     inkscape:zoom="1.0502038"
     inkscape:cx="185.20216"
     inkscape:cy="169.01482"
     inkscape:window-width="1920"
     inkscape:window-height="1014"
     inkscape:window-x="0"
     inkscape:window-y="31"
     inkscape:window-maximized="1"
     inkscape:current-layer="rotate3" /><defs
     id="defs1"><linearGradient
       id="linearGradient17"
       inkscape:collect="always"><stop
         style="stop-color:#262626;stop-opacity:1;"
         offset="0"
         id="stop16" /><stop
         style="stop-color:#fefefe;stop-opacity:1;"
         offset="1"
         id="stop17" /></linearGradient><linearGradient
       id="linearGradient3"
       inkscape:collect="always"><stop
         style="stop-color:#5e5e61;stop-opacity:1;"
         offset="0"
         id="stop3" /><stop
         style="stop-color:#fefefe;stop-opacity:1;"
         offset="1"
         id="stop4" /></linearGradient><radialGradient
       inkscape:collect="always"
       xlink:href="#linearGradient3"
       id="radialGradient4"
       cx="139.80365"
       cy="134.7023"
       fx="139.80365"
       fy="134.7023"
       r="132.61803"
       gradientTransform="matrix(0.22650315,0.00277281,-0.00459083,0.37501285,36.062908,11.908522)"
       gradientUnits="userSpaceOnUse"
       spreadMethod="reflect" /><filter
       inkscape:collect="always"
       style="color-interpolation-filters:sRGB"
       id="filter11"
       x="-0.034775601"
       y="-0.14817472"
       width="1.0695512"
       height="1.2963494"><feGaussianBlur
         inkscape:collect="always"
         stdDeviation="2.810124"
         id="feGaussianBlur11" /></filter><radialGradient
       inkscape:collect="always"
       xlink:href="#linearGradient13"
       id="radialGradient14"
       cx="139.84782"
       cy="137.34108"
       fx="139.84782"
       fy="137.34108"
       r="84.818245"
       gradientTransform="matrix(-7.2235315e-5,0.32685058,-0.54708237,-0.00581823,141.29282,21.23557)"
       gradientUnits="userSpaceOnUse"
       spreadMethod="reflect" /><linearGradient
       id="linearGradient13"
       inkscape:collect="always"><stop
         style="stop-color:#434343;stop-opacity:1;"
         offset="0"
         id="stop13" /><stop
         style="stop-color:#1b1b19;stop-opacity:1;"
         offset="1"
         id="stop14" /></linearGradient><radialGradient
       inkscape:collect="always"
       xlink:href="#linearGradient17"
       id="radialGradient4-4"
       cx="139.80365"
       cy="134.7023"
       fx="139.80365"
       fy="134.7023"
       r="132.61803"
       gradientTransform="matrix(0.19468597,0.00174148,-0.00284855,0.31844879,40.130843,20.175061)"
       gradientUnits="userSpaceOnUse"
       spreadMethod="reflect" /><filter
       inkscape:collect="always"
       style="color-interpolation-filters:sRGB"
       id="filter11-3"
       x="-0.057662624"
       y="-0.11135734"
       width="1.1153252"
       height="1.2227147"><feGaussianBlur
         inkscape:collect="always"
         stdDeviation="4.439286"
         id="feGaussianBlur11-6" /></filter><filter
       inkscape:collect="always"
       style="color-interpolation-filters:sRGB"
       id="filter16"
       x="-0.066273647"
       y="-0.14680816"
       width="1.1325473"
       height="1.2936163"><feGaussianBlur
         inkscape:collect="always"
         stdDeviation="5.5447021"
         id="feGaussianBlur16" /></filter><filter
       inkscape:collect="always"
       style="color-interpolation-filters:sRGB"
       id="filter11-3-5"
       x="-0.057662624"
       y="-0.11135734"
       width="1.1153252"
       height="1.2227147"><feGaussianBlur
         inkscape:collect="always"
         stdDeviation="4.439286"
         id="feGaussianBlur11-6-2" /></filter><filter
       inkscape:collect="always"
       style="color-interpolation-filters:sRGB"
       id="filter16-5"
       x="-0.066273647"
       y="-0.14680816"
       width="1.1325473"
       height="1.2936163"><feGaussianBlur
         inkscape:collect="always"
         stdDeviation="5.5447021"
         id="feGaussianBlur16-4" /></filter><radialGradient
       inkscape:collect="always"
       xlink:href="#linearGradient3"
       id="radialGradient4-4-7"
       cx="139.80365"
       cy="134.7023"
       fx="139.80365"
       fy="134.7023"
       r="132.61803"
       gradientTransform="matrix(0.18504793,0.00102207,-0.00155183,0.27148874,41.191339,26.989346)"
       gradientUnits="userSpaceOnUse"
       spreadMethod="reflect" /><radialGradient
       inkscape:collect="always"
       xlink:href="#linearGradient3"
       id="radialGradient4-4-7-9"
       cx="139.80365"
       cy="134.7023"
       fx="139.80365"
       fy="134.7023"
       r="132.61803"
       gradientTransform="matrix(0.14212817,0.00120713,-0.00138665,0.16326626,46.88253,42.533037)"
       gradientUnits="userSpaceOnUse"
       spreadMethod="reflect" /></defs><g
     inkscape:label="Layer 1"
     inkscape:groupmode="layer"
     id="layer1"
     style="display:inline" /><g
     inkscape:groupmode="layer"
     id="layer2"
     inkscape:label="static1"
     style="display:inline"><circle
       style="opacity:1;fill:url(#radialGradient4);fill-opacity:1;stroke:none;stroke-width:0.368497;stroke-dasharray:none;stroke-opacity:1"
       id="path1"
       cx="66.145836"
       cy="66.145836"
       r="61.383335" /><path
       style="opacity:1;mix-blend-mode:normal;fill:#f9f9f9;fill-opacity:1;stroke:none;stroke-width:0.79375;stroke-dasharray:none;stroke-opacity:1;filter:url(#filter11)"
       d="M 38.077306,47.377054 C 53.099274,19.819895 81.705042,6.3077704 139.52973,2.6253563 185.50208,8.3366343 214.98648,18.382473 232.01493,48.1412 174.33034,20.754324 90.640323,27.216723 38.077306,47.377054 Z"
       id="path11"
       sodipodi:nodetypes="cccc"
       transform="matrix(0.46302216,0,0,0.46302182,3.3027069,3.3623679)" /><path
       style="opacity:1;mix-blend-mode:normal;fill:#f9f9f9;fill-opacity:1;stroke:none;stroke-width:0.79375;stroke-dasharray:none;stroke-opacity:1;filter:url(#filter11)"
       d="M 14.053725,87.472255 C 30.278423,41.459544 81.705042,6.3077704 139.52973,2.6253563 185.50208,8.3366343 226.67949,33.826535 249.62529,77.851085 130.36645,104.66314 123.12032,111.5489 14.053725,87.472255 Z"
       id="path12"
       sodipodi:nodetypes="cccc"
       transform="matrix(0.46302216,0,0,-0.46302182,4.2391299,127.84524)" /></g><g
     inkscape:groupmode="layer"
     id="layer6"
     inkscape:label="static2"
     style="display:inline"><circle
       style="display:inline;fill:url(#radialGradient14);stroke:none;stroke-width:0.547644;stroke-dasharray:none;stroke-opacity:1"
       id="path13"
       cx="66.145836"
       cy="66.145836"
       r="56.885418" /><path
       style="display:inline;opacity:0.631838;fill:#e8e8e8;fill-opacity:1;stroke:none;stroke-width:0.367524;stroke-dasharray:none;stroke-opacity:1"
       d="M 24.503482,28.162331 C 31.257185,20.863635 45.48416,10.26911 65.578267,10.102586 83.77656,10.129447 97.040029,17.530022 107.35089,27.996121 97.63209,18.725231 83.630401,11.232443 65.604043,10.746984 55.879412,10.565389 38.453762,15.520522 24.503482,28.162331 Z"
       id="path14"
       sodipodi:nodetypes="ccccc" /><path
       style="opacity:1;fill:#f8f8f6;fill-opacity:1;stroke:none;stroke-width:0.367524;stroke-dasharray:none;stroke-opacity:1"
       d="m 64.972736,13.917474 -0.02587,-3.763957 1.486714,0.0042 0.0056,3.762845 z"
       id="path15"
       sodipodi:nodetypes="ccccc" /><path
       style="opacity:1;fill:#e9e9e9;fill-opacity:1;stroke:none;stroke-width:0.26162;stroke-dasharray:none;stroke-opacity:1"
       d="m 34.187066,24.367775 -2.124611,-2.98578 0.866375,-0.611996 2.112455,2.993445 z"
       id="path16"
       sodipodi:nodetypes="ccccc"
       inkscape:transform-center-x="-0.017436893"
       inkscape:transform-center-y="0.25877433" /></g><g
     inkscape:groupmode="layer"
     id="layer7"
     inkscape:label="static3"
     style="display:inline"><circle
       style="display:inline;fill:url(#radialGradient4-4);fill-opacity:1;stroke:none;stroke-width:0.312904;stroke-dasharray:none;stroke-opacity:1"
       id="path1-0"
       cx="66.145836"
       cy="66.145836"
       r="52.122917" /><path
       style="display:inline;mix-blend-mode:normal;fill:#f9f9f9;fill-opacity:1;stroke:none;stroke-width:0.79375;stroke-dasharray:none;stroke-opacity:1;filter:url(#filter11-3)"
       d="m 9.534866,-96.344397 c 25.344796,-20.680483 34.946149,-34.026083 91.274754,-45.532313 46.20438,10.34087 66.51552,24.02148 93.49462,50.717406 -49.16519,68.608245 -132.668864,52.084496 -184.769374,-5.185093 z"
       id="path11-6"
       sodipodi:nodetypes="cccc"
       transform="matrix(0.37618556,0,0,0.288501,29.022627,55.784066)" /><path
       style="display:inline;mix-blend-mode:normal;fill:#f9f9f9;fill-opacity:1;stroke:none;stroke-width:0.79375;stroke-dasharray:none;stroke-opacity:1;filter:url(#filter16)"
       d="M 27.863873,77.686093 C 50.167989,33.295755 68.729629,8.9041591 126.55432,5.221745 184.00249,8.7562606 205.92486,28.02054 228.65688,61.514966 138.75651,107.04818 136.93047,101.76274 27.863873,77.686093 Z"
       id="path12-3"
       sodipodi:nodetypes="cccc"
       transform="matrix(0.46243679,-0.0232752,-0.02327522,-0.46243645,7.9004546,120.39462)" /></g><g
     inkscape:groupmode="layer"
     id="layer8"
     inkscape:label="static4"
     style="display:inline"><circle
       style="display:inline;fill:url(#radialGradient4-4-7);fill-opacity:1;stroke:none;stroke-width:0.27002;stroke-dasharray:none;stroke-opacity:1"
       id="path1-0-0"
       cx="66.145836"
       cy="66.145836"
       r="44.979168" /><path
       style="display:inline;mix-blend-mode:normal;fill:#f9f9f9;fill-opacity:1;stroke:none;stroke-width:0.79375;stroke-dasharray:none;stroke-opacity:1;filter:url(#filter11-3-5)"
       d="m 9.534866,-96.344397 c 25.344796,-20.680483 34.946149,-34.026083 91.274754,-45.532313 46.20438,10.34087 66.51552,24.02148 93.49462,50.717406 -49.16519,68.608245 -132.668864,52.084496 -184.769374,-5.185093 z"
       id="path11-6-7"
       sodipodi:nodetypes="cccc"
       transform="matrix(0.35462824,0,0,0.26790657,30.53714,58.122563)" /><path
       style="display:inline;mix-blend-mode:normal;fill:#f9f9f9;fill-opacity:1;stroke:none;stroke-width:0.79375;stroke-dasharray:none;stroke-opacity:1;filter:url(#filter16-5)"
       d="M 27.863873,77.686093 C 50.167989,33.295755 68.729629,8.9041591 126.55432,5.221745 184.00249,8.7562606 205.92486,28.02054 228.65688,61.514966 138.75651,107.04818 136.93047,101.76274 27.863873,77.686093 Z"
       id="path12-3-8"
       sodipodi:nodetypes="cccc"
       transform="matrix(0.43593684,-0.02161371,-0.02194142,-0.42942576,11.095163,117.89914)" /></g><g
     inkscape:groupmode="layer"
     id="layer11"
     inkscape:label="static5"
     style="display:inline"><circle
       style="display:inline;fill:url(#radialGradient4-4-7-9);fill-opacity:1;stroke:none;stroke-width:0.160424;stroke-dasharray:none;stroke-opacity:1"
       id="path1-0-0-4"
       cx="66.145836"
       cy="66.145836"
       r="26.722918" /></g><g
     inkscape:groupmode="layer"
     id="rotate1"
     inkscape:label="rotate1"
     style="display:inline"><path
       id="path1-8"
       style="fill:#000000;fill-opacity:1;stroke:none;stroke-width:0.122253;stroke-dasharray:none;stroke-opacity:1"
       d="m 66.790006,13.49375 c -8.231457,0.03161 -10.420793,0.42036 -18.061154,2.887657 -4.168898,1.334891 -9.028863,3.501533 -14.683338,7.740393 -4.555791,3.205505 -8.161531,7.32153 -11.400716,11.814672 -3.557215,4.688206 -4.953492,9.104367 -6.706713,14.013289 -1.734992,5.192685 -2.511063,11.152302 -2.439854,16.633746 0.07624,2.59872 -0.09172,8.920547 2.807568,16.357588 1.753204,4.708896 4.474999,9.619005 7.568917,14.317836 3.031699,4.718709 7.437791,8.208549 11.896272,11.559579 4.519122,3.37951 8.689534,5.23043 14.596544,7.06503 5.344721,1.65344 10.843539,2.40599 16.426671,2.38478 6.510254,-0.0305 12.117112,-1.47534 16.172064,-2.84135 5.032318,-1.74369 9.045848,-3.80186 14.388228,-7.83349 4.416865,-3.27907 7.948395,-7.40605 11.242895,-11.68631 3.46485,-4.429255 5.65062,-9.563365 7.35901,-14.87644 1.46566,-4.995911 2.26438,-9.00917 2.31097,-16.253977 0.0501,-5.567282 -1.26707,-11.007471 -3.07689,-16.221903 -1.63951,-5.240683 -4.42378,-9.780624 -7.88665,-14.101123 -2.96102,-4.0858 -5.4033,-7.157851 -12.220861,-11.906727 -4.65655,-3.208749 -8.379703,-5.084877 -13.944757,-6.789938 -6.117065,-1.837845 -9.756396,-2.218395 -14.348206,-2.263312 z m -2.041117,1.561121 0.132573,7.936587 c -3.0626,0.338564 -5.910911,2.562401 -6.17277,6.452777 -0.04382,3.079468 1.232744,5.131404 3.692936,6.623732 l 6.544156,0.0168 c 2.259817,-1.478631 3.949141,-3.609979 3.72553,-6.625834 -0.459608,-3.984269 -3.121936,-6.071761 -6.002311,-6.4491 l -0.140985,-7.877148 1.498744,-0.05313 -0.04458,4.003796 1.596049,0.03997 0.166234,-3.859149 1.578704,0.08414 -0.525538,3.931211 1.601324,0.24353 0.512379,-4.02431 1.492422,0.264044 -0.731219,3.871775 1.689177,0.353989 0.73964,-3.913855 1.442454,0.248792 -0.921642,3.868617 1.668627,0.453401 0.945339,-3.889659 0.969,0.28298 c -0.804966,2.635931 -1.630073,5.266077 -2.447752,7.898189 l 1.697581,0.561752 2.336228,-7.554721 1.440346,0.417633 -1.437188,3.777621 1.647613,0.548604 1.363014,-3.614042 1.473487,0.572271 -1.727574,3.571437 1.445081,0.731645 1.74389,-3.662959 1.335137,0.716917 -1.903809,3.44941 1.494008,0.863666 1.925371,-3.486226 1.292534,0.686937 -2.08425,3.386815 1.443503,0.952034 2.113175,-3.399968 1.129448,0.775303 -4.587223,6.532735 1.444022,1.05406 4.536208,-6.477493 1.24306,0.838419 -2.523495,3.156958 1.399841,1.026203 2.404083,-3.023894 1.227821,0.996216 -2.737608,2.870823 1.151533,1.13876 2.781283,-2.953399 1.0521,1.09089 -2.868563,2.701462 1.157823,1.279191 2.90016,-2.730393 1.02056,1.049861 -3.02116,2.586276 1.05213,1.19977 3.08322,-2.441622 0.83011,1.074059 -0.0322,0.02582 -6.40687,4.834858 1.05107,1.446455 6.30638,-4.771203 0.92588,1.179248 -3.37205,2.229127 1.01741,1.40701 3.21686,-2.139705 0.86167,1.324432 -3.48672,1.89196 0.74647,1.437523 3.55405,-1.957193 0.66599,1.360729 -3.55929,1.691035 0.7091,1.573225 3.59877,-1.707878 0.6481,1.311812 -3.66871,1.5343 0.61601,1.615299 3.7008,-1.527994 0.46451,1.289191 -7.5384,2.628342 0.14467,0.441307 c -1.15821,-2.926508 -4.15378,-5.120748 -8.036062,-4.228394 -2.961165,0.847894 -4.557382,2.663061 -5.275312,5.449215 l 1.874873,6.268684 c 2.068771,1.735811 4.597589,2.737143 7.420571,1.651589 3.97864,-1.719515 5.09383,-5.26101 4.29369,-8.295308 l 0.13518,0.411314 7.46426,-2.614134 0.52078,1.40648 -3.8923,1.091406 0.53815,1.650027 3.71712,-1.052497 0.41507,1.524828 -3.87022,0.847885 0.24252,1.483266 3.98278,-0.77581 0.21726,1.499581 -3.90651,0.519669 0.19413,1.714713 3.9486,-0.524405 0.21619,1.447514 -3.96331,0.337677 0.0931,1.54535 3.99015,-0.140986 0.0446,1.286052 -7.82825,0.04829 -0.0221,1.78781 7.90821,-0.05897 0.0378,1.499069 -4.06328,-0.07735 0.002,1.586356 3.85758,0.206182 -0.0999,1.576902 -3.92651,-0.565959 -0.26038,1.598483 4.01854,0.553851 -0.27882,1.489059 -3.86441,-0.770572 -0.3714,1.684729 3.90599,0.781111 -0.2641,1.439083 -3.85862,-0.962026 -0.47135,1.663697 3.88022,0.986215 -0.39719,1.310224 -7.61522,-2.395333 -0.12939,0.386075 c 0.85774,-3.125112 -0.30981,-6.801818 -4.11642,-8.328447 -2.915512,-0.993607 -5.262263,-0.414276 -7.442138,1.463829 l -2.038991,6.21765 c 0.707864,2.605926 2.212951,4.871091 5.150632,5.590693 4.145087,0.837661 7.042587,-1.30456 8.179667,-4.147375 l -0.17149,0.512305 7.54735,2.363771 -0.42296,1.438563 -3.7734,-1.450662 -0.55448,1.645283 3.60981,1.375977 -0.57812,1.471175 -3.56509,-1.739952 -0.737,1.441729 3.65661,1.757308 -0.72124,1.332853 -3.44356,-1.916688 -0.86904,1.490118 3.47987,1.938769 -0.69176,1.289721 -3.3794,-2.096581 -0.95796,1.439631 3.39308,2.125488 -0.77278,1.116152 -0.0343,-0.02265 -6.54784,-4.643403 -1.061042,1.438572 6.456842,4.56659 -0.84431,1.239208 -3.14532,-2.538372 -1.03265,1.394914 3.01167,2.417914 -1.0011,1.221872 -2.85857,-2.749849 -1.144194,1.146111 2.940694,2.794564 -1.0958,1.0467 -2.688693,-2.880805 -1.285155,1.151375 2.716586,2.91292 -1.054233,1.01513 -2.572945,-3.03282 -1.353022,1.07617 2.575574,3.06439 -1.087871,0.83263 -4.756632,-6.34916 c 2.418277,-2.080649 3.510768,-5.695142 1.309359,-9.079022 -1.813838,-2.489157 -4.067265,-3.363878 -6.930815,-3.080679 l -5.243728,3.914376 c -0.919562,2.538993 -0.991126,5.257494 0.998435,7.535243 2.669653,2.815572 5.92277,2.974412 8.422726,1.689992 l -0.03584,0.0257 4.749251,6.32288 -1.182582,0.92153 -2.217323,-3.37947 -1.410372,1.012 2.127382,3.22428 -1.327784,0.85735 -1.87958,-3.49358 -1.439826,0.7411 1.944303,3.56092 -1.364053,0.66065 -1.677087,-3.56567 -1.576067,0.70378 1.694433,3.60457 -1.314625,0.64329 -1.520297,-3.67455 -1.618698,0.6107 1.514531,3.70606 -1.2315,0.43816 -2.507199,-7.53053 -1.707061,0.53282 2.507718,7.50001 -1.414039,0.50022 -1.03528,-3.90702 -1.658135,0.51494 1.000033,3.73082 -1.530827,0.39344 -0.679125,-3.90809 -1.600283,0.24828 0.718599,3.99223 -1.502422,0.19619 -0.465032,-3.91228 -1.717062,0.16883 0.468719,3.95542 -1.450867,0.19462 -0.281443,-3.96595 -1.565545,0.0941 0.103119,3.96804 -1.369867,0.0279 -0.08255,-7.98181 -0.255666,-0.002 c 3.111117,-0.27129 6.047858,-2.48184 6.339004,-6.4228 0.06407,-3.079116 -1.199407,-5.13958 -3.649786,-6.647922 l -6.543403,-0.06017 c -2.269446,1.463817 -3.973108,3.584348 -3.769201,6.601602 0.445253,4.09453 3.226781,6.20561 6.193272,6.51801 l -0.101493,-9.3e-4 0.09202,7.90712 -1.499254,0.0438 0.117297,-3.97591 -1.643397,-0.0779 -0.189904,3.85809 -1.578183,-0.0936 0.549736,-3.92806 -1.599744,-0.25405 -0.537099,4.02115 -1.490843,-0.27299 0.755409,-3.86755 -1.68707,-0.364 -0.764359,3.90914 -1.440875,-0.25826 0.946379,-3.86232 -1.557661,-0.41447 -1.077894,3.83444 -1.300938,-0.38871 0.01115,-0.0396 2.385666,-7.66307 -1.697061,-0.56332 -2.340965,7.55313 -1.439816,-0.41816 1.345649,-3.79024 -1.553446,-0.5365 -1.365651,3.61352 -1.472428,-0.57333 1.729143,-3.56985 -1.444543,-0.73271 -1.745996,3.6619 -1.334599,-0.71744 1.905897,-3.44835 -1.493469,-0.86526 -1.928007,3.48573 -1.291467,-0.68801 2.086339,-3.38522 -1.442974,-0.9531 -2.115811,3.3984 -1.12892,-0.77635 4.591439,-6.53012 -0.105737,-0.0773 c 2.677174,1.48446 6.257271,1.32859 8.728367,-1.655264 1.836133,-2.472737 2.000342,-4.883811 0.876931,-7.532628 l -5.299398,-3.839161 c -2.697965,-0.121318 -5.314671,0.620486 -6.896615,3.197988 -1.999748,3.578119 -0.974951,6.894335 1.239922,8.870715 l -4.526735,6.45594 -1.242541,-0.83896 2.525594,-3.15537 -1.399311,-1.02725 -2.406189,3.02229 -1.226765,-0.99724 2.739188,-2.86874 -1.15102,-1.13929 -2.783373,2.95184 -1.05106,-1.09194 2.8707,-2.699362 -1.157329,-1.280248 -2.902264,2.7283 -1.019502,-1.050404 3.022734,-2.584156 -1.031077,-1.221328 -3.10532,2.460545 -0.806976,-1.045644 0.08154,-0.06319 6.459994,-4.763329 -1.03476,-1.458536 -6.358462,4.701773 -0.913233,-1.189779 3.319951,-2.248059 -0.925336,-1.36125 -3.239989,2.103416 -0.847484,-1.333903 3.50776,-1.853044 -0.730699,-1.445936 -3.575088,1.917756 -0.651256,-1.368094 3.577716,-1.651058 -0.691244,-1.581127 -3.617699,1.667902 -0.633371,-1.319175 3.685561,-1.493275 -0.598654,-1.622125 -3.717119,1.486432 -0.450308,-1.293399 7.56681,-2.545242 -0.05048,-0.159892 c 1.174854,2.870691 4.126785,5.008177 7.958733,4.153689 2.96665,-0.828524 4.574456,-2.633105 5.310559,-5.414476 l -1.833821,-6.280793 c -2.057415,-1.749294 -4.579528,-2.767071 -7.40953,-1.699968 -3.903094,1.656678 -5.07805,5.07522 -4.396786,8.068595 l -0.117313,-0.371348 -7.492648,2.530516 -0.50501,-1.411755 3.904396,-1.047752 -0.520274,-1.656315 -3.728163,1.011454 -0.398754,-1.529554 3.906504,-0.690622 -0.25303,-1.600042 -3.990681,0.731646 -0.20095,-1.501698 3.911768,-0.477066 -0.174656,-1.716292 -3.95438,0.481292 -0.199901,-1.450672 3.966483,-0.293506 -0.07371,-1.574255 -3.994356,0.124643 -0.03157,-1.357044 0.04051,-0.0019 8.026593,-0.09946 0.0111,-1.78782 -7.908231,0.107817 -0.04683,-1.49852 4.037488,0.104139 0.01365,-1.63844 -3.858631,-0.181982 0.08999,-1.577423 4.026973,0.352934 0.153602,-1.411746 -4.022237,-0.52863 0.269346,-1.491157 3.869155,0.746363 0.361404,-1.686827 -3.911247,-0.756365 0.255137,-1.4412 3.864949,0.937836 0.431902,-1.555871 -3.85759,-1.07195 0.389805,-1.313372 7.555244,2.324845 c -0.874517,3.11797 0.270052,6.798123 4.063805,8.34844 2.90895,1.012605 5.259495,0.448374 7.451608,-1.415442 l 2.079532,-6.203981 c -0.69075,-2.610466 -2.180803,-4.885577 -5.113717,-5.624354 -3.866478,-0.807668 -6.661314,0.991286 -7.955047,3.542518 l 0.105737,-0.32243 -7.561557,-2.31645 0.414006,-1.441191 3.776569,1.329677 0.549731,-1.551115 -3.618222,-1.353887 0.569194,-1.474861 3.575609,1.718391 0.728065,-1.446466 -3.667676,-1.734695 0.713342,-1.336522 3.455138,1.895126 0.860107,-1.495903 -3.491972,-1.916697 0.683352,-1.294448 3.392546,2.07607 0.948486,-1.445936 -3.405696,-2.104466 0.611278,-0.893645 6.503126,4.643923 1.066319,-1.435935 -6.442107,-4.587122 0.848009,-1.236588 3.136878,2.54892 1.037387,-1.391754 -3.004316,-2.427424 1.005301,-1.219233 2.849654,2.759847 1.147857,-1.142969 -2.931193,-2.804023 1.099452,-1.043022 2.678695,2.889225 1.28884,-1.147164 -2.707618,-2.921845 1.058427,-1.011473 2.562428,3.040714 1.356709,-1.071421 -2.565588,-3.072807 1.089994,-0.829478 4.766085,6.404383 1.453494,-1.040912 -4.729257,-6.337596 1.186249,-0.917843 2.206292,3.386291 1.414039,-1.007789 -2.117901,-3.230596 1.330922,-0.852622 1.86803,3.499378 1.442454,-0.736381 -1.932734,-3.566703 1.366171,-0.656955 1.666028,3.57091 1.577654,-0.698506 -1.682862,-3.609835 1.316714,-0.639598 1.509264,3.679266 1.619738,-0.605409 -1.50295,-3.710299 1.280417,-0.451294 0.01476,0.0384 2.582423,7.598902 1.702846,-0.543341 -2.553488,-7.483713 1.410372,-0.509678 1.059999,3.900177 1.654467,-0.524935 -1.022662,-3.724497 1.527669,-0.402904 0.703342,3.903334 1.599216,-0.257734 -0.743847,-3.988017 1.501362,-0.205659 0.489231,3.909645 1.716013,-0.179887 -0.492917,-3.95225 1.449288,-0.204081 0.30617,3.964347 1.727546,-0.07837 -0.290366,-3.992751 z M 44.754473,29.823474 c -4.953436,0.0036 -9.207151,5.644046 -5.904998,10.793209 1.797552,2.500959 4.044991,3.390946 6.910304,3.126459 l 5.269004,-3.880196 c 0.936108,-2.53292 1.025643,-5.250888 -0.949016,-7.54157 -1.650233,-1.763358 -3.533612,-2.499335 -5.325294,-2.497902 z m 41.515973,0.03631 c -1.860537,0.01119 -3.754985,0.794317 -5.237442,2.608348 -1.819958,2.484709 -1.968688,4.897016 -0.828013,7.538423 l 5.324756,3.803921 c 2.698717,0.103695 5.310502,-0.654916 6.875593,-3.242697 3.150712,-5.725049 -1.380175,-10.736651 -6.134894,-10.707995 z"
       sodipodi:nodetypes="cccccccccccccccccccccccccccccccccccccccccccccccccccccccccccccccccccccccccccccccccccccccccccccccccccccccccccccccccccccccccccccccccccccccccccccccccccccccccccccccccccccccccccccccccccccccccccccccccccccccccccccccccccccccccccccccccccccccccccccccccccccccccccccccccccccccccccccccccccccccccccccccccccccccccccccccccccccccccccccccccccccccccccccccccccccccccccccccccccccccccccccccccccccccccccccccccccccccccccccccccccccccccccccccccccccccccccccccccccccccccccccccccccccccccccccccccccccccccccccsccccs" /></g><g
     inkscape:groupmode="layer"
     id="rotate2"
     inkscape:label="rotate2"
     style="display:inline"
     transform="matrix(1.00502,0,0,1.0050207,-0.2123971,0.7380868)"><path
       sodipodi:type="star"
       style="fill:#1a1a1a;stroke-width:0.79375;stroke-dasharray:none"
       id="path6"
       inkscape:flatsided="false"
       sodipodi:sides="20"
       sodipodi:cx="54.975971"
       sodipodi:cy="53.198006"
       sodipodi:r1="22.070309"
       sodipodi:r2="20.525387"
       sodipodi:arg1="0.86717788"
       sodipodi:arg2="1.0242575"
       inkscape:rounded="0"
       inkscape:randomized="0"
       d="m 69.255042,70.026751 -3.611342,0.706678 -2.287894,2.88214 -3.652966,-0.443875 -3.066546,2.03408 -3.337012,-1.550979 -3.545025,0.98691 -2.694408,-2.506262 -3.67649,-0.156866 -1.788057,-3.216215 -3.448076,-1.285286 -0.706678,-3.611342 -2.88214,-2.287894 0.443875,-3.652966 -2.03408,-3.066546 1.550979,-3.337012 -0.98691,-3.545024 2.506262,-2.694408 0.156866,-3.676491 3.216215,-1.788057 1.285286,-3.448076 3.611342,-0.706678 2.287894,-2.88214 3.652965,0.443876 3.066547,-2.03408 3.337012,1.550979 3.545024,-0.98691 2.694408,2.506262 3.676491,0.156865 1.788057,3.216215 3.448076,1.285286 0.706678,3.611342 2.88214,2.287894 -0.443876,3.652966 2.03408,3.066546 -1.550979,3.337012 0.98691,3.545025 -2.506262,2.694408 -0.156865,3.67649 -3.216215,1.788057 z"
       transform="matrix(1.1244487,0,0,1.1244479,4.2091185,5.2626101)" /><g
       id="logo-bg"
       stroke="#0508a2"
       stroke-width="15"
       fill="#ffffff"
       transform="matrix(0.0706177,0,0,0.06828198,46.888852,46.125678)"
       style="fill:#f9f9f9;stroke:#000000;stroke-opacity:1"><path
         d="M 516.55757,97.880248 C 527.50694,230.25012 491.58051,346.83904 409.93231,418.23121 327.48662,423.63554 284.68211,384.39623 256.48104,315.29438 373.28869,292.6356 482.59177,265.36936 516.55757,97.880248 Z"
         id="path10"
         style="fill:#f9f9f9;stroke:#000000;stroke-opacity:1" /><path
         d="M 251.96361,312.16223 C 343.58182,281.10248 481.73932,190.0979 400.56564,42.824834 c 40.99918,14.61305 79.37759,31.46195 115.10839,57.973486 -37.21838,174.87036 -160.86349,195.29004 -263.71042,211.36391 z"
         id="path11-1"
         style="fill:#f9f9f9;stroke:#000000;stroke-opacity:1" /><path
         d="M 23.363896,95.782512 C 120.38846,35.179676 252.37652,-13.372009 358.92221,33.908071 385.90077,81.085291 420.05615,160.15306 342.9564,217.50421 268.10387,90.93273 158.90361,66.640422 23.363896,95.782512 Z"
         id="path12-7"
         style="fill:#f9f9f9;stroke:#000000;stroke-opacity:1" /><path
         d="M 36.396711,226.23918 C 19.790954,167.66381 23.100124,132.42055 25.290054,95.931481 236.42531,48.36279 305.8514,157.86264 339.6401,215.03688 218.14393,140.42305 100.51954,132.44005 36.396711,226.23918 Z"
         id="path13-2"
         style="fill:#f9f9f9;stroke:#000000;stroke-opacity:1" /><path
         d="M 275.93221,526.84604 C 168.97259,476.94409 76.705078,396.56267 49.354673,270.45767 85.951874,198.92077 171.7639,153.74844 236.78128,137.08669 225.2344,201.76304 119.50529,382.60957 275.93221,526.84604 Z"
         id="path14-7"
         style="fill:#f9f9f9;stroke:#000000;stroke-opacity:1" /><path
         d="M 274.50644,525.74429 C 118.4901,386.79297 217.71633,217.72176 236.20767,141.02297 c -8.02349,137.68426 -37.36435,299.54637 141.25694,310.37024 -26.71542,25.63295 -58.19163,50.73419 -102.95817,74.35108 z"
         id="path15-2"
         style="fill:#f9f9f9;stroke:#000000;stroke-opacity:1" /></g></g><g
     inkscape:groupmode="layer"
     id="rotate3"
     inkscape:label="rotate3"
     style="display:inline"
     transform="matrix(0.99854598,0,0,1.002168,0.28762058,1.4327831)"><path
       style="opacity:1;fill:#ff0000;fill-opacity:1;stroke:none;stroke-width:0.68921;stroke-dasharray:none;stroke-opacity:1"
       d="m 61.595562,32.894969 -0.0091,-8.447379 8.465313,-0.0042 0.0014,8.466667 z"
       id="num0"
       sodipodi:nodetypes="ccccc" /><path
       style="opacity:1;fill:#ff0000;fill-opacity:1;stroke:none;stroke-width:0.68921;stroke-dasharray:none;stroke-opacity:1"
       d="m 82.426519,39.653724 -0.0091,-8.447379 8.465313,-0.0042 0.0014,8.466667 z"
       id="num1"
       sodipodi:nodetypes="ccccc" /><path
       style="opacity:1;fill:#ff0000;fill-opacity:1;stroke:none;stroke-width:0.68921;stroke-dasharray:none;stroke-opacity:1"
       d="m 95.72652,58.074423 -0.0091,-8.447379 8.46531,-0.0042 10e-4,8.466667 z"
       id="num2"
       sodipodi:nodetypes="ccccc" /><path
       style="opacity:1;fill:#ff0000;fill-opacity:1;stroke:none;stroke-width:0.68921;stroke-dasharray:none;stroke-opacity:1"
       d="m 96.182321,79.688012 -0.0091,-8.447379 8.465309,-0.0042 10e-4,8.466667 z"
       id="num3"
       sodipodi:nodetypes="ccccc" /><path
       style="opacity:1;fill:#ff0000;fill-opacity:1;stroke:none;stroke-width:0.68921;stroke-dasharray:none;stroke-opacity:1"
       d="m 83.020419,97.892332 -0.0091,-8.447379 8.465309,-0.0042 10e-4,8.466667 z"
       id="num4"
       sodipodi:nodetypes="ccccc" /><path
       style="opacity:1;fill:#ff0000;fill-opacity:1;stroke:none;stroke-width:0.68921;stroke-dasharray:none;stroke-opacity:1"
       d="m 61.733285,104.68764 -0.0091,-8.447382 8.465309,-0.0042 0.001,8.466662 z"
       id="num5"
       sodipodi:nodetypes="ccccc" /><path
       style="opacity:1;fill:#ff0000;fill-opacity:1;stroke:none;stroke-width:0.68921;stroke-dasharray:none;stroke-opacity:1"
       d="m 40.150206,98.100555 -0.0091,-8.447382 8.465309,-0.0042 0.001,8.466662 z"
       id="num6"
       sodipodi:nodetypes="ccccc" /><path
       style="opacity:1;fill:#ff0000;fill-opacity:1;stroke:none;stroke-width:0.68921;stroke-dasharray:none;stroke-opacity:1"
       d="m 27.649494,79.791664 -0.0091,-8.447382 8.465309,-0.0042 0.001,8.466662 z"
       id="num7"
       sodipodi:nodetypes="ccccc" /><path
       style="opacity:1;fill:#ff0000;fill-opacity:1;stroke:none;stroke-width:0.68921;stroke-dasharray:none;stroke-opacity:1"
       d="m 27.277796,57.892096 -0.0091,-8.447382 8.465309,-0.0042 10e-4,8.466662 z"
       id="num8"
       sodipodi:nodetypes="ccccc" /><path
       style="opacity:1;fill:#ff0000;fill-opacity:1;stroke:none;stroke-width:0.68921;stroke-dasharray:none;stroke-opacity:1"
       d="m 40.687208,39.608531 -0.0091,-8.447382 8.465309,-0.0042 10e-4,8.466662 z"
       id="num9"
       sodipodi:nodetypes="ccccc" /></g><g
     inkscape:groupmode="layer"
     id="numsvg"
     inkscape:label="numsvg"
     style="display:inline"><path
       d="m 7.1367603,-5.0427316 c 0,-1.146541 -0.418444,-2.175823 -1.139895,-2.8402959 -0.519448,-0.456011 -1.212046,-0.690531 -2.048936,-0.690531 -0.836889,0 -1.5294873,0.23452 -2.0489364,0.690531 -0.721456,0.6644729 -1.13989998,1.6937549 -1.13989998,2.8402959 v 1.1726 c 0,1.133513 0.41844398,2.175823 1.13989998,2.827267 0.5194491,0.45601099 1.2120474,0.69053099 2.0489364,0.69053099 0.83689,0 1.529488,-0.23452 2.048936,-0.69053099 0.721451,-0.651444 1.139895,-1.693754 1.139895,-2.827267 z m -4.8193223,-0.0912 c 0,-1.27683 0.634882,-2.09765 1.6304913,-2.09765 0.99561,0 1.630492,0.82082 1.630492,2.09765 v 1.341975 c 0,1.263802 -0.649311,2.09765 -1.630492,2.09765 -0.9811803,0 -1.6304913,-0.833848 -1.6304913,-2.09765 z"
       id="svgnum0"
       style="font-weight:bold;font-size:13.537px;font-family:'Nimbus Mono PS';-inkscape-font-specification:'Nimbus Mono PS Bold';display:inline;fill:#ff0000;stroke-width:0.856944"
       aria-label="0" /><path
       d="m 4.8605762,-8.5134236 -3.2287701,0.714386 c -0.624923,0.13479 -0.83323098,0.323495 -0.83323098,0.7143859 0,0.404369 0.32734098,0.727865 0.74395698,0.727865 0.148791,0 0.193428,-0.01348 0.491011,-0.08087 l 1.2200881,-0.283059 v 5.135493 H 1.8103561 c -0.386857,0 -0.50589,0.01348 -0.654682,0.09435 -0.23806598,0.1347893 -0.38685698,0.3639322 -0.38685698,0.59307509 0,0.215664 0.133912,0.444806 0.32734098,0.566117 0.148791,0.09435 0.371978,0.13479 0.714198,0.13479 h 4.4934951 c 0.68444,0 1.041539,-0.242622 1.041539,-0.700907 0,-0.21566389 -0.119033,-0.41784889 -0.327341,-0.55263779 -0.16367,-0.1078322 -0.312461,-0.1347902 -0.714198,-0.1347902 h -1.443275 z"
       id="svgnum1"
       style="font-weight:bold;font-size:13.5148px;font-family:'Nimbus Mono PS';-inkscape-font-specification:'Nimbus Mono PS Bold';display:inline;fill:#ff0000;stroke-width:0.885113"
       aria-label="1" /><path
       d="m 3.2264792,-1.6305137 c 3.720489,-2.806409 4.135467,-3.249526 4.135467,-4.364033 0,-1.436774 -1.330791,-2.5244249 -3.105178,-2.5244249 -0.872884,0 -1.67422,0.268556 -2.2609121,0.738528 -0.500836,0.4028339 -0.887194,1.0339409 -0.887194,1.4636299 0,0.36255 0.357739,0.67139 0.772717,0.67139 0.3291201,0 0.6153111,-0.161134 0.7011691,-0.402834 0.157405,-0.416262 0.171715,-0.443117 0.300501,-0.577395 0.314811,-0.322267 0.787027,-0.510256 1.3451,-0.510256 0.901503,0 1.588363,0.469972 1.588363,1.101079 0,0.416261 -0.228954,0.671389 -1.659911,1.839607 -0.586692,0.483401 -1.588363,1.248785 -3.24827308,2.457287 l -0.08586,0.06714 v 1.43677309 H 7.4334902 V -1.4156675 c 0,-0.3222672 -0.02862,-0.4431182 -0.114476,-0.5773952 -0.143096,-0.201417 -0.386359,-0.322267 -0.658241,-0.322267 -0.457906,0 -0.701169,0.214844 -0.758407,0.684817 z"
       id="svgnum2"
       style="font-weight:bold;font-size:13.4808px;font-family:'Nimbus Mono PS';-inkscape-font-specification:'Nimbus Mono PS Bold';display:inline;fill:#ff0000;stroke-width:0.866353"
       aria-label="2" /><path
       d="m 3.7943912,-5.3309097 c -0.443699,0 -0.776472,0.288519 -0.776472,0.668839 0,0.38032 0.277311,0.603266 0.762606,0.629495 0.623951,0.02623 0.776472,0.05246 1.053784,0.157373 0.637816,0.236061 1.026052,0.655724 1.026052,1.101616 0,0.275404 -0.152521,0.577037 -0.37437,0.747526 -0.360505,0.301632 -0.859666,0.419663 -1.802525,0.419663 -0.887397,0 -1.289498,-0.06557 -1.6222721,-0.275404 -0.235715,-0.131145 -0.305043,-0.157374 -0.485295,-0.157374 -0.429833,0 -0.74874098,0.301633 -0.74874098,0.6819533 0,0.6688378 1.15084298,1.10161579 2.89790508,1.10161579 1.22017,0 1.955046,-0.170488 2.578997,-0.603266 0.651682,-0.44589189 1.053783,-1.16718809 1.053783,-1.91471409 0,-0.786868 -0.513026,-1.442592 -1.497482,-1.888484 0.831935,-0.459007 1.19244,-0.957357 1.19244,-1.626195 0,-0.550808 -0.263446,-1.101616 -0.707145,-1.5081649 -0.540757,-0.485236 -1.261767,-0.734411 -2.204626,-0.734411 -1.539079,0 -2.9117701,0.681953 -2.9117701,1.4425929 0,0.380319 0.332773,0.681952 0.734875,0.681952 0.2079841,0 0.4021021,-0.07869 0.5268921,-0.209831 0.443698,-0.432778 0.804203,-0.563923 1.552944,-0.563923 0.928994,0 1.511348,0.340977 1.511348,0.891785 0,0.511464 -0.554623,0.957356 -1.206305,0.957356 z"
       id="svgnum3"
       style="font-weight:bold;font-size:13.27px;font-family:'Nimbus Mono PS';-inkscape-font-specification:'Nimbus Mono PS Bold';display:inline;fill:#ff0000;stroke-width:0.842799"
       aria-label="3" /><path
       d="m 6.4752742,-8.4783436 h -1.975329 l -3.50368608,4.8685809 v 1.062236 H 4.9180812 v 0.975293 h -0.490228 c -0.360462,0 -0.490228,0.02529 -0.634412,0.08852 -0.230696,0.1264573 -0.37488,0.3414332 -0.37488,0.55641009 0,0.429952 0.346043,0.657574 1.009292,0.657574 h 1.903237 c 0.677667,0 1.02371,-0.227622 1.02371,-0.657574 0,-0.20233089 -0.115347,-0.40466189 -0.317206,-0.51847279 -0.144184,-0.08852 -0.245114,-0.1138112 -0.56232,-0.1264562 v -0.975293 c 0.56232,-0.01265 0.879526,-0.252913 0.879526,-0.657575 0,-0.20233 -0.115347,-0.404661 -0.317206,-0.531118 -0.144184,-0.07587 -0.245114,-0.101165 -0.56232,-0.113811 z m -1.557193,4.6283129 h -1.989748 l 1.989748,-2.706172 z"
       id="svgnum4"
       style="font-weight:bold;font-size:13.503px;font-family:'Nimbus Mono PS';-inkscape-font-specification:'Nimbus Mono PS Bold';display:inline;fill:#ff0000;stroke-width:0.843937"
       aria-label="4"
       sodipodi:nodetypes="ccccccscsssscccsccccccc" /><path
       d="m 2.4930042,-7.0948537 h 2.699415 c 0.299935,0 0.490803,-0.02693 0.59987,-0.09424 0.218134,-0.134629 0.354469,-0.3634989 0.354469,-0.6058319 0,-0.228869 -0.109068,-0.430813 -0.299935,-0.565443 -0.149968,-0.094241 -0.286302,-0.121166 -0.654404,-0.121166 H 1.0205951 v 3.7023049 c 0,0.444276 0.313569,0.767386 0.736205,0.767386 0.149967,0 0.204501,-0.01346 0.3953691,-0.107703 0.558969,-0.269258 1.186106,-0.444277 1.608742,-0.444277 0.899805,0 1.486042,0.605832 1.486042,1.521311 0,0.996257 -0.627137,1.453996 -2.004112,1.453996 -0.899805,0 -1.2815401,-0.09424 -1.6905431,-0.403887 -0.204501,-0.175018 -0.313568,-0.215407 -0.518069,-0.215407 -0.39536898,0 -0.73620398,0.309647 -0.73620398,0.686609 0,0.7539241 1.25427298,1.31936709 2.94481608,1.31936709 1.308808,0 2.099545,-0.255796 2.713049,-0.88855299 0.490803,-0.5115921 0.763471,-1.1982011 0.763471,-1.9521251 0,-1.682866 -1.24064,-2.907992 -2.931183,-2.907992 -0.395369,0 -0.818005,0.06732 -1.295174,0.201944 z"
       id="svgnum5"
       style="font-weight:bold;font-size:13.5479px;font-family:'Nimbus Mono PS';-inkscape-font-specification:'Nimbus Mono PS Bold';display:inline;fill:#ff0000;stroke-width:0.846744"
       aria-label="5" /><path
       d="m 2.3638402,-4.6992667 c 0.39675,-1.422246 1.704556,-2.436254 3.159307,-2.436254 0.13225,0 0.191028,0.01317 0.352667,0.06584 0.249805,0.07901 0.39675,0.105351 0.529,0.105351 0.440833,0 0.808195,-0.316054 0.808195,-0.6979539 0,-0.526757 -0.705334,-0.86915 -1.778029,-0.86915 -1.366584,0 -2.600918,0.539927 -3.5854461,1.5802729 -0.764112,0.803305 -1.14616798,1.777807 -1.14616798,2.897167 0,0.921826 0.2645,1.922665 0.66125098,2.528436 0.558389,0.86915009 1.4694451,1.30372509 2.7184731,1.30372509 0.999223,0 1.733946,-0.23704 2.277641,-0.750629 0.499611,-0.48725079 0.778806,-1.13252909 0.778806,-1.86999009 0,-1.448583 -1.278418,-2.620619 -2.865419,-2.620619 -0.705333,0 -1.263723,0.223872 -1.910278,0.763799 z m 0.117555,1.632948 c 0.382056,-0.605771 1.102084,-1.040346 1.719251,-1.040346 0.749417,0 1.35189,0.553095 1.35189,1.251049 0,0.790137 -0.543695,1.277387 -1.425362,1.277387 -0.925751,0 -1.440057,-0.460913 -1.645779,-1.48809 z"
       id="svgnum6"
       style="font-weight:bold;font-size:13.9108px;font-family:'Nimbus Mono PS';-inkscape-font-specification:'Nimbus Mono PS Bold';display:inline;fill:#ff0000;stroke-width:0.869422"
       aria-label="6" /><path
       d="m 5.6424082,-7.0952227 -2.197205,5.7613312 c -0.08968,0.20774 -0.119576,0.34623389 -0.119576,0.47087789 0,0.360083 0.373674,0.678618 0.807137,0.678618 0.433462,0 0.657666,-0.180041 0.851977,-0.692467 L 7.3613102,-7.1506197 V -8.5217056 H 0.76969512 v 1.2048939 c 0,0.332384 0.02989,0.470878 0.119575,0.595522 0.14946998,0.221589 0.40356898,0.346234 0.68756098,0.346234 0.478303,0 0.7324021,-0.235439 0.7921901,-0.720167 z"
       id="svgnum7"
       style="font-weight:bold;font-size:14.3877px;font-family:'Nimbus Mono PS';-inkscape-font-specification:'Nimbus Mono PS Bold';display:inline;fill:#ff0000;stroke-width:0.89923"
       aria-label="7" /><path
       d="m 5.9478912,-4.4218587 c 0.824338,-0.471753 1.251228,-1.061444 1.251228,-1.703552 0,-1.310424 -1.368991,-2.3456589 -3.12071,-2.3456589 -1.751719,0 -3.12070908,1.0352349 -3.12070908,2.3456589 0,0.655213 0.42688898,1.218695 1.25122808,1.703552 -0.9126611,0.484857 -1.38371108,1.153174 -1.38371108,1.926324 0,1.3628412 1.31010898,2.29324209 3.23847208,2.29324209 1.943083,0 3.267913,-0.93040089 3.267913,-2.29324209 0,-0.77315 -0.471051,-1.441467 -1.383711,-1.926324 z m -1.869482,-2.699474 c 0.89794,0 1.530914,0.419336 1.530914,1.022131 0,0.642108 -0.618254,1.061444 -1.530914,1.061444 -0.89794,0 -1.530914,-0.43244 -1.530914,-1.04834 0,-0.615899 0.618254,-1.035235 1.530914,-1.035235 z m 0,3.446416 c 0.91266,0 1.663397,0.471753 1.663397,1.061444 0,0.629003 -0.677135,1.061443 -1.663397,1.061443 -0.971541,0 -1.663397,-0.43244 -1.663397,-1.048339 0,-0.602795 0.750737,-1.074548 1.663397,-1.074548 z"
       id="svgnum8"
       style="font-weight:bold;font-size:13.8888px;font-family:'Nimbus Mono PS';-inkscape-font-specification:'Nimbus Mono PS Bold';display:inline;fill:#ff0000;stroke-width:0.86805"
       aria-label="8" /><path
       d="m 5.6780072,-4.0379627 c -0.395971,1.439148 -1.686545,2.442591 -3.167771,2.442591 -0.13199,0 -0.175987,-0.0132 -0.322643,-0.05281 -0.2493151,-0.07922 -0.3959711,-0.105626 -0.5426281,-0.105626 -0.439968,0 -0.80660798,0.3036743 -0.80660798,0.6997691 0,0.51492498 0.70394898,0.85820798 1.75987308,0.85820798 1.393232,0 2.595812,-0.528128 3.593073,-1.58438308 0.762612,-0.805395 1.143917,-1.782431 1.143917,-2.917905 0,-0.91102 -0.263981,-1.914463 -0.659952,-2.52181 -0.571959,-0.8714099 -1.46656,-1.3071159 -2.713137,-1.3071159 -0.997261,0 -1.730541,0.250861 -2.2731691,0.765785 -0.49863,0.4753149 -0.77727698,1.1354749 -0.77727698,1.8616499 0,1.465555 1.27590808,2.640639 2.85979308,2.640639 0.703949,0 1.261242,-0.224455 1.906529,-0.778989 z m -0.117325,-1.623992 c -0.381306,0.594143 -1.09992,1.029849 -1.70121,1.029849 -0.762612,0 -1.363901,-0.554534 -1.363901,-1.254303 0,-0.805395 0.527961,-1.28071 1.407898,-1.28071 0.938598,0 1.437229,0.462112 1.657213,1.505164 z"
       id="svgnum9"
       style="font-weight:bold;font-size:13.9152px;font-family:'Nimbus Mono PS';-inkscape-font-specification:'Nimbus Mono PS Bold';display:inline;fill:#ff0000;stroke-width:0.869699"
       aria-label="9" /></g></svg>
