<?xml version="1.0" encoding="UTF-8" standalone="no"?>
<!-- Created with Inkscape (http://www.inkscape.org/) -->

<svg
   width="800"
   height="800"
   viewBox="0 0 211.66666 211.66667"
   version="1.1"
   id="svg1"
   xml:space="preserve"
   sodipodi:docname="safedigits1.svg"
   inkscape:version="1.3 (0e150ed6c4, 2023-07-21)"
   xmlns:inkscape="http://www.inkscape.org/namespaces/inkscape"
   xmlns:sodipodi="http://sodipodi.sourceforge.net/DTD/sodipodi-0.dtd"
   xmlns="http://www.w3.org/2000/svg"
   xmlns:svg="http://www.w3.org/2000/svg"><sodipodi:namedview
     id="namedview1"
     pagecolor="#ffffff"
     bordercolor="#000000"
     borderopacity="0.25"
     inkscape:showpageshadow="2"
     inkscape:pageopacity="0.0"
     inkscape:pagecheckerboard="0"
     inkscape:deskcolor="#d1d1d1"
     inkscape:document-units="px"
     inkscape:zoom="2.0283687"
     inkscape:cx="247.73602"
     inkscape:cy="228.01574"
     inkscape:window-width="1920"
     inkscape:window-height="1014"
     inkscape:window-x="0"
     inkscape:window-y="31"
     inkscape:window-maximized="1"
     inkscape:current-layer="layer1" /><defs
     id="defs1" /><g
     inkscape:label="Layer 1"
     inkscape:groupmode="layer"
     id="layer1"><path
       id="path1"
       style="opacity:0.528964;fill:#feaa02;stroke:#000000;stroke-width:0.165589"
       d="m 66.812993,14.59851 c -8.086036,0.03105 -10.23658,0.413277 -17.741984,2.837324 -4.095254,1.311493 -8.869424,3.439912 -14.424004,7.60447 -4.475323,3.149318 -8.017254,7.193318 -11.199227,11.607705 -3.494379,4.606034 -4.865916,8.944588 -6.588167,13.767465 -1.704342,5.101652 -2.466843,10.956814 -2.396902,16.342175 0.07489,2.553176 -0.08995,8.764143 2.758087,16.070845 1.722237,4.626347 4.39573,9.450466 7.434997,14.066946 2.978147,4.636 7.306239,8.06446 11.685969,11.35674 4.439287,3.32029 8.536293,5.13903 14.338946,6.94147 5.250321,1.62448 10.651979,2.36365 16.136478,2.34283 6.395262,-0.03 11.903155,-1.44935 15.886489,-2.79141 4.943414,-1.71312 8.885908,-3.73536 14.133902,-7.69632 4.338853,-3.22158 7.807993,-7.275981 11.044313,-11.481246 3.40364,-4.351622 5.55075,-9.395828 7.22899,-14.615781 1.43975,-4.90835 2.22426,-8.851136 2.27005,-15.968966 0.0492,-5.469698 -1.24478,-10.814614 -3.02264,-15.937645 -1.61055,-5.148823 -4.34538,-9.609307 -7.74709,-13.854088 -2.90872,-4.014173 -5.30814,-7.032061 -12.005268,-11.6977 C 90.031643,20.340816 86.374508,18.497174 80.907758,16.821998 74.898735,15.016366 71.323704,14.64264 66.812993,14.59851 Z m -2.004855,1.533636 0.130342,7.841207 1.756145,0.0032 -0.139071,-7.767792 1.472187,-0.05207 -0.04394,3.933453 1.568211,0.03939 0.163009,-3.791723 1.550773,0.08279 -0.516168,3.862551 1.573089,0.239327 0.503237,-3.953753 1.466039,0.259055 -0.718304,3.804013 1.659446,0.347672 0.72672,-3.845086 1.416874,0.244501 -0.905563,3.800455 1.639399,0.445666 0.928523,-3.821476 0.952138,0.278137 c -0.790752,2.589727 -1.601361,5.17373 -2.404601,7.759707 l 1.667207,0.552069 2.294961,-7.422384 1.414938,0.410415 -1.41138,3.711192 1.618052,0.539134 1.339254,-3.550778 1.447292,0.562419 -1.69697,3.50841 1.419474,0.718953 1.713127,-3.598643 1.311457,0.704075 -1.869988,3.38907 1.467329,0.848642 1.891668,-3.425293 1.269397,0.674968 -2.047218,3.327298 1.417851,0.935317 2.076004,-3.340234 1.109311,0.761967 -4.506135,6.418178 1.418496,1.035577 4.456012,-6.363845 1.221541,0.823416 -2.479296,3.101553 1.375488,1.00841 2.361574,-2.970895 1.205697,0.978656 -2.689203,2.820506 1.131303,1.119017 2.732224,-2.902006 1.03363,1.071797 -2.818251,2.654272 1.137447,1.256792 2.849304,-2.682407 1.00227,1.03137 -2.96766,2.541076 1.03337,1.178716 3.02905,-2.398962 0.81533,1.055304 -0.0314,0.02523 -6.293658,4.750326 1.032018,1.421088 6.19502,-4.687908 0.90945,1.158798 -3.3121,2.190169 0.99935,1.381955 3.15977,-2.101878 0.8467,1.301101 -3.42496,1.858992 0.73318,1.412032 3.49095,-1.922705 0.65458,1.336999 -3.49644,1.661062 0.69631,1.545602 3.53526,-1.67788 0.63681,1.289135 -3.60414,1.507116 0.60542,1.586999 3.6352,-1.500971 0.45634,1.266171 -7.40493,2.582472 0.54754,1.668501 7.33248,-2.567918 0.51132,1.38163 -3.82342,1.072122 0.52879,1.621281 3.65136,-1.034282 0.40782,1.498383 -3.80188,0.832731 0.23817,1.457374 3.91236,-0.76229 0.21377,1.47348 -3.83764,0.510674 0.19049,1.684668 3.87904,-0.515524 0.21217,1.422377 -3.89296,0.3315 0.0912,1.518551 3.91979,-0.138536 0.044,1.263591 -7.69017,0.04757 -0.0217,1.756145 7.76875,-0.05785 0.0372,1.472832 -3.99173,-0.0759 0.002,1.558424 3.78945,0.202458 -0.0983,1.549484 -3.85705,-0.555951 -0.25582,1.570508 3.94793,0.543977 -0.27425,1.463137 -3.79594,-0.757119 -0.36513,1.655243 3.83733,0.767137 -0.25971,1.413971 -3.79043,-0.945012 -0.4628,1.634531 3.81178,0.968637 -0.39037,1.287519 -7.48092,-2.3535 -0.5579,1.665272 7.41398,2.322124 -0.41558,1.413326 -3.70634,-1.424977 -0.54497,1.616106 3.54593,1.352196 -0.56791,1.445347 -3.50195,-1.709569 -0.72412,1.416561 3.59217,1.726391 -0.7086,1.309189 -3.3826,-1.882929 -0.85382,1.464104 3.41849,1.904589 -0.67981,1.267139 -3.31954,-2.059827 -0.94081,1.414616 3.3328,2.0883 -0.75906,1.09638 -0.0336,-0.02238 -6.43176,-4.561781 -1.042385,1.413326 6.342515,4.486742 -0.82924,1.217339 -3.08959,-2.494174 -1.01488,1.370631 2.95893,2.375805 -0.98382,1.200516 -2.807905,-2.702124 -1.124185,1.126123 2.88875,2.745478 -1.07633,1.02846 -2.641009,-2.830206 -1.262291,1.131306 2.668496,2.86191 -1.0359,0.99708 -2.527173,-2.9793 -1.329236,1.05693 2.530085,3.01099 -1.068571,0.81792 -4.70181,-6.276853 -1.424644,1.026843 4.665595,6.21217 -1.162034,0.90524 -2.178205,-3.31986 -1.385508,0.99418 2.090225,3.16752 -1.304653,0.84218 -1.84605,-3.43208 -1.414626,0.72801 1.90977,3.49838 -1.33991,0.64941 -1.647482,-3.50322 -1.548184,0.69114 1.664617,3.54139 -1.291389,0.63227 -1.493535,-3.60995 -1.589911,0.59993 1.487709,3.64069 -1.2099,0.43079 -2.462807,-7.39878 -1.676581,0.52361 2.46313,7.36838 -1.388753,0.49158 -1.017138,-3.83828 -1.628715,0.50549 0.981881,3.66559 -1.503553,0.38681 -0.666881,-3.83959 -1.572454,0.24353 0.706351,3.92238 -1.476068,0.19276 -0.456672,-3.8438 -1.686932,0.16592 0.46022,3.88615 -1.424967,0.19148 -0.276519,-3.89684 -1.537782,0.0925 0.101164,3.89841 -1.345403,0.0278 -0.08114,-7.84186 -1.756144,-0.0142 0.09021,7.76843 -1.47251,0.043 0.115305,-3.90623 -1.614655,-0.0763 -0.186614,3.79044 -1.550129,-0.0922 0.540107,-3.85931 -1.571478,-0.24936 -0.527814,3.95052 -1.464424,-0.26811 0.741914,-3.79948 -1.656857,-0.35802 -0.75097,3.84055 -1.415589,-0.25355 0.929495,-3.79464 -1.529906,-0.4069 -1.059034,3.76687 -1.277814,-0.38195 0.011,-0.0388 2.343467,-7.52879 -1.666882,-0.55304 -2.299807,7.42077 -1.414619,-0.41107 1.321966,-3.72399 -1.525718,-0.52665 -1.341527,3.54981 -1.446638,-0.56339 1.698902,-3.50712 -1.419147,-0.71993 -1.715072,3.59768 -1.311449,-0.70472 1.872251,-3.3881 -1.466688,-0.84962 -1.893922,3.42433 -1.269081,-0.67594 2.049484,-3.326 -1.417208,-0.93629 -2.078267,3.33894 -1.108992,-0.76261 4.510352,-6.41559 -1.417853,-1.036235 -4.459899,6.361265 -1.220893,-0.82438 2.481244,-3.09995 -1.37484,-1.00904 -2.36352,2.96927 -1.205046,-0.97963 2.690816,-2.81889 -1.130659,-1.119339 -2.734154,2.900069 -1.032666,-1.07244 2.819859,-2.652338 -1.136805,-1.257765 -2.850907,2.680475 -1.001618,-1.031703 2.969278,-2.539136 -1.012843,-1.19974 -3.050225,2.417401 -0.792692,-1.027489 0.07989,-0.06179 6.345735,-4.68014 -1.016172,-1.432727 -6.246446,4.619332 -0.89683,-1.168818 3.261083,-2.208906 -0.908883,-1.337349 -3.182731,2.06663 -0.832471,-1.310479 3.445667,-1.820832 -0.717659,-1.420119 -3.511968,1.883896 -0.639715,-1.344112 3.514555,-1.622255 -0.678849,-1.553042 -3.554013,1.638432 -0.62225,-1.295935 3.620635,-1.467329 -0.587969,-1.593469 -3.651684,1.460536 -0.442108,-1.27102 7.433056,-2.500321 -0.52943,-1.674646 -7.360288,2.486413 -0.495796,-1.38712 3.835059,-1.029435 -0.510672,-1.627102 -3.66268,0.993533 -0.391332,-1.502586 3.837323,-0.678855 -0.248384,-1.571799 -3.92044,0.71896 -0.197607,-1.475746 3.842822,-0.468303 -0.171411,-1.686619 -3.884542,0.472839 -0.196313,-1.424967 3.896186,-0.288493 -0.07213,-1.546369 -3.923676,0.122369 -0.03138,-1.333116 0.0401,-0.002 7.884544,-0.09767 0.011,-1.756145 -7.768438,0.106082 -0.04625,-1.47251 3.966044,0.102162 0.01358,-1.609605 -3.790429,-0.178843 0.08862,-1.549806 3.955775,0.347021 0.150954,-1.387128 -3.951489,-0.519404 0.264877,-1.465072 3.800778,0.733506 0.354787,-1.657504 -3.841852,-0.742885 0.250646,-1.415913 3.796574,0.92141 0.424157,-1.528882 -3.789294,-1.052943 0.3826,-1.290427 7.495153,2.306921 0.547542,-1.668499 -7.428206,-2.275874 0.406858,-1.415913 3.709738,1.305947 0.53994,-1.523605 -3.554335,-1.330209 0.559185,-1.448901 3.512615,1.688229 0.715071,-1.421411 -3.602847,-1.704075 0.70084,-1.31339 3.393922,1.862226 0.844761,-1.469924 -3.430144,-1.882924 0.67141,-1.27167 3.332473,2.039457 0.932083,-1.420439 -3.345733,-2.067596 0.600259,-0.877749 6.388425,4.562098 1.047219,-1.410415 -6.328269,-4.506794 0.833118,-1.214748 3.081502,2.504206 1.019405,-1.367401 -2.951488,-2.385189 0.987711,-1.19793 2.79916,2.711514 1.127749,-1.122574 -2.879691,-2.754852 1.079884,-1.024904 2.631632,2.838617 1.266172,-1.127102 -2.65977,-2.870636 1.039458,-0.993532 2.517142,2.987388 1.333119,-1.052717 -2.5207,-3.019083 1.071152,-0.814684 4.681438,6.291725 1.428202,-1.022317 -4.645862,-6.226717 1.165265,-0.901682 2.167531,3.326975 1.388746,-0.989975 -2.080208,-3.173999 1.307245,-0.837969 1.835058,3.437905 1.417206,-0.72348 -1.898771,-3.504206 1.341851,-0.645214 1.636481,3.508088 1.550131,-0.685965 -1.6533,-3.546573 1.293662,-0.628397 1.482213,3.614814 1.591203,-0.59476 -1.476068,-3.645539 1.257763,-0.44308 0.01423,0.03751 2.536871,7.466044 1.673028,-0.534283 -2.508733,-7.352526 1.385511,-0.500647 1.041075,3.83215 1.625485,-0.515848 -1.004851,-3.659121 1.50097,-0.396184 0.691139,3.835059 1.570829,-0.253234 -0.730919,-3.917854 1.474774,-0.202135 0.480919,3.840881 1.68564,-0.176584 -0.48447,-3.882926 1.423667,-0.200518 0.301101,3.894892 1.696638,-0.0773 -0.285247,-3.922382 z"
       sodipodi:nodetypes="cccccccccccccccccccccccccccccccccccccccccccccccccccccccccccccccccccccccccccccccccccccccccccccccccccccccccccccccccccccccccccccccccccccccccccccccccccccccccccccccccccccccccccccccccccccccccccccccccccccccccccccccccccccccccccccccccccccccccccccccccccccccccccccccccccccccccccccccccccccccccccccccccccccccccccccccccccccccccccccccccccccccccccccccccccccccccccccccccccccccccccccccccccccccccccccccccccccccccccccccccccccccccccccccccccccccccccc" /></g></svg>
