<?xml version="1.0" encoding="UTF-8" standalone="no"?>
<!-- Created with Inkscape (http://www.inkscape.org/) -->

<svg
   width="500"
   height="500"
   viewBox="0 0 132.29166 132.29167"
   version="1.1"
   id="svg1"
   inkscape:version="1.3 (0e150ed6c4, 2023-07-21)"
   sodipodi:docname="safedigits1-500.svg"
   xmlns:inkscape="http://www.inkscape.org/namespaces/inkscape"
   xmlns:sodipodi="http://sodipodi.sourceforge.net/DTD/sodipodi-0.dtd"
   xmlns="http://www.w3.org/2000/svg"
   xmlns:svg="http://www.w3.org/2000/svg">
  <sodipodi:namedview
     id="namedview1"
     pagecolor="#ffffff"
     bordercolor="#000000"
     borderopacity="0.25"
     inkscape:showpageshadow="2"
     inkscape:pageopacity="0.0"
     inkscape:pagecheckerboard="0"
     inkscape:deskcolor="#d1d1d1"
     inkscape:document-units="px"
     inkscape:zoom="11.474186"
     inkscape:cx="207.11708"
     inkscape:cy="352.13826"
     inkscape:window-width="1920"
     inkscape:window-height="1014"
     inkscape:window-x="0"
     inkscape:window-y="31"
     inkscape:window-maximized="1"
     inkscape:current-layer="layer10" />
  <defs
     id="defs1" />
  <g
     inkscape:label="Layer 1"
     inkscape:groupmode="layer"
     id="layer1">
    <path
       id="path1"
       style="opacity:0.528964;fill:#feaa02;stroke:#000000;stroke-width:0.264583"
       d="M 66.812975 14.598592 C 58.727019 14.629642 56.57623 15.011601 49.070906 17.435628 C 44.975692 18.747111 40.20151 20.875814 34.64698 25.040332 C 30.171707 28.18962 26.629607 32.233545 23.447664 36.647892 C 19.953325 41.253876 18.581667 45.5927 16.859436 50.415527 C 15.155114 55.517129 14.392742 61.37238 14.462683 66.757681 C 14.537573 69.310837 14.372647 75.521903 17.220654 82.828535 C 18.942871 87.454832 21.616622 92.278946 24.655859 96.895376 C 27.633976 101.53137 31.962287 104.96003 36.341967 108.25231 C 40.781214 111.5725 44.878034 113.39114 50.680627 115.19348 C 55.930898 116.81796 61.33267 117.55731 66.817109 117.53649 C 73.212311 117.50649 78.720184 116.08699 82.703478 114.74493 C 87.646842 113.03181 91.589555 111.00972 96.837499 107.04876 C 101.17635 103.82718 104.64547 99.772517 107.88179 95.567292 C 111.28533 91.21571 113.43256 86.17155 115.1108 80.951647 C 116.55055 76.043347 117.33516 72.100356 117.38095 64.982596 C 117.43015 59.512948 116.13625 54.168049 114.35839 49.045068 C 112.74784 43.896295 110.01277 39.435874 106.61106 35.191133 C 103.70244 31.177 101.30314 28.158738 94.60611 23.493139 C 90.031871 20.340671 86.374412 18.497385 80.907722 16.822229 C 74.898759 15.016617 71.323646 14.642722 66.812975 14.598592 z M 64.80793 16.132348 L 64.938671 23.973213 L 66.694636 23.976314 L 66.555627 16.20883 L 68.027888 16.156636 L 67.983963 20.090246 L 69.551826 20.12952 L 69.715124 16.338021 L 71.265933 16.420703 L 70.749686 20.282999 L 72.322716 20.522261 L 72.826045 16.568498 L 74.292105 16.827913 L 73.573803 20.631815 L 75.233133 20.979598 L 75.959704 17.134354 L 77.376671 17.378784 L 76.4713 21.179586 L 78.110477 21.625036 L 79.039102 17.803564 L 79.990982 18.081583 C 79.20024 20.67129 78.389708 23.255369 77.586478 25.841316 L 79.254076 26.393221 L 81.549026 18.970935 L 82.963927 19.381246 L 81.552127 23.092647 L 83.170633 23.631632 L 84.509569 20.080945 L 85.957026 20.643184 L 84.259972 24.152014 L 85.679524 24.870833 L 87.392597 21.272086 L 88.704145 21.976436 L 86.833975 25.365376 L 88.301586 26.213903 L 90.192943 22.78879 L 91.462633 23.463684 L 89.415213 26.791129 L 90.833214 27.726473 L 92.909056 24.386108 L 94.018549 25.147819 L 89.515982 31.560864 C 85.480528 29.635951 79.564756 31.585141 79.427709 37.425105 C 80.003171 47.37248 93.295304 45.994632 93.20878 37.640079 C 93.189561 35.358267 92.303047 33.651478 90.989277 32.518428 L 95.386941 26.237675 L 96.608055 27.061397 L 94.129137 30.163016 L 95.504247 31.171224 L 97.86586 28.200346 L 99.071988 29.179097 L 96.382746 31.999597 L 97.513943 33.118392 L 100.24608 30.21676 L 101.2796 31.288529 L 98.461689 33.942631 L 99.599087 35.199401 L 102.44801 32.516878 L 103.45053 33.548339 L 100.48275 36.08927 L 101.51628 37.268009 L 104.54504 34.869189 L 105.36049 35.924422 L 105.32897 35.949743 L 99.035297 40.699841 L 100.06779 42.120943 L 106.26276 37.433374 L 107.17227 38.591959 L 103.85981 40.782006 L 104.85923 42.164351 L 108.01925 40.062154 L 108.86571 41.363366 L 105.44059 43.222167 L 106.17388 44.634484 L 109.66514 42.711604 L 110.31936 44.048474 L 106.82294 45.709871 L 107.51953 47.255513 L 111.05472 45.577579 L 111.69137 46.866389 L 108.08746 48.373791 L 108.69259 49.960774 L 112.32803 48.459574 L 112.78433 49.726163 L 105.3791 52.308434 L 105.59614 52.969376 C 103.40412 46.416342 92.380488 47.118466 92.192821 55.115498 C 92.768292 65.062883 106.06042 63.685033 105.97389 55.330472 C 105.96696 54.506905 105.8459 53.758611 105.63386 53.084614 L 105.92687 53.977066 L 113.25924 51.408748 L 113.77083 52.790576 L 109.94729 53.862861 L 110.47594 55.483951 L 114.1274 54.449906 L 114.53513 55.948005 L 110.73329 56.78103 L 110.97152 58.238305 L 114.88394 57.476078 L 115.09737 58.949373 L 111.25987 59.459936 L 111.45056 61.144587 L 115.32939 60.629373 L 115.54178 62.051509 L 111.64848 62.383272 L 111.73995 63.901525 L 115.65961 63.763032 L 115.70353 65.026521 L 108.01356 65.074063 L 107.99186 66.830545 L 115.76037 66.772668 L 115.79758 68.245446 L 111.80609 68.169482 L 111.80816 69.728043 L 115.59759 69.930614 L 115.49941 71.479874 L 111.64228 70.923835 L 111.38648 72.494282 L 115.33404 73.038435 L 115.06016 74.501395 L 111.26401 73.744335 L 110.89917 75.399531 L 114.73615 76.166926 L 114.47673 77.580793 L 110.68627 76.635631 L 110.22324 78.270157 L 114.0349 79.23909 L 113.64474 80.52635 L 106.16406 78.173005 L 105.60596 79.83802 L 113.01997 82.160359 L 112.60449 83.573709 L 108.89774 82.148473 L 108.35307 83.764912 L 111.89911 85.116767 L 111.33119 86.562157 L 107.82908 84.852701 L 107.10509 86.269152 L 110.69712 87.995661 L 109.98863 89.305142 L 106.60589 87.422053 L 105.7522 88.886046 L 109.1706 90.79084 L 108.49105 92.057946 L 105.17136 89.998123 L 104.23033 91.412507 L 107.56346 93.500752 L 106.80433 94.597325 L 106.77074 94.575105 L 100.33858 90.013109 L 99.296263 91.42646 L 105.63903 95.913007 L 104.80962 97.130504 L 101.71989 94.6366 L 100.70548 96.007059 L 103.66396 98.382624 L 102.68055 99.583068 L 99.872456 96.881424 L 98.748493 98.007453 L 101.63721 100.75302 L 100.56079 101.78138 L 97.919603 98.951065 L 96.657148 100.08226 L 99.325719 102.9441 L 98.290123 103.94146 L 95.762629 100.96179 L 94.433511 102.01909 L 96.963589 105.02976 L 95.894921 105.8478 L 91.193399 99.571182 L 89.76868 100.59799 L 94.434028 106.81002 L 93.272342 107.71539 L 91.09418 104.39518 L 89.708735 105.38943 L 91.79853 108.5572 L 90.494217 109.39952 L 88.647818 105.96717 L 87.233434 106.69529 L 89.143395 110.19379 L 87.803425 110.84285 L 86.15598 107.3397 L 84.607754 108.03113 L 86.272252 111.57252 L 84.980858 112.20452 L 83.487409 108.5944 L 81.897326 109.19437 L 83.38509 112.83549 L 82.175345 113.26595 L 79.712446 105.86744 L 78.035546 106.39092 L 80.498961 113.75946 L 79.109899 114.25091 L 78.092907 110.41238 L 76.464066 110.91829 L 77.446435 114.5837 L 75.94265 114.97024 L 75.275508 111.13068 L 73.703511 111.3746 L 74.409411 115.29684 L 72.933532 115.48959 L 72.476712 111.6459 L 70.789993 111.81178 L 71.25043 115.69785 L 69.825194 115.88905 L 69.548726 111.99265 L 68.010835 112.08515 L 68.112121 115.98362 L 66.766466 116.01101 L 66.685334 108.16911 L 64.929369 108.15515 L 65.019803 115.92367 L 63.547025 115.96656 L 63.662263 112.06034 L 62.047891 111.98386 L 61.86134 115.77433 L 60.311047 115.68234 L 60.851065 111.82315 L 59.279585 111.57355 L 58.751969 115.52421 L 57.287459 115.25601 L 58.029532 111.45624 L 56.372269 111.09864 L 55.62141 114.93924 L 54.205993 114.6855 L 55.135652 110.8909 L 53.605513 110.48369 L 52.546663 114.25091 L 51.268705 113.86902 L 51.279557 113.83026 L 53.623083 106.30152 L 51.956001 105.74807 L 49.6564 113.1688 L 48.242016 112.75797 L 49.563899 109.03417 L 48.037894 108.50707 L 46.696374 112.05724 L 45.249951 111.49397 L 46.948555 107.98669 L 45.52952 107.26684 L 43.814379 110.86455 L 42.503348 110.15968 L 44.375585 106.77178 L 42.908491 105.9217 L 41.01455 109.3463 L 39.745894 108.67037 L 41.795381 105.34447 L 40.377897 104.4081 L 38.299471 107.74691 L 37.190494 106.98417 L 41.700813 100.56854 L 40.283329 99.532425 L 35.823136 105.89379 L 34.602539 105.06955 L 37.083524 101.96949 L 35.708931 100.96024 L 33.345251 103.92957 L 32.140157 102.94979 L 34.830948 100.13135 L 33.700268 99.012043 L 30.966068 101.91212 L 29.933573 100.83932 L 32.753556 98.187287 L 31.616674 96.929483 L 28.765686 99.609939 L 27.764196 98.577961 L 30.733524 96.039098 L 29.720666 94.839171 L 26.670206 97.256595 L 25.87749 96.229267 L 25.957588 96.167255 L 32.303454 91.487438 L 31.286979 90.05445 L 25.040848 94.673807 L 24.143746 93.504886 L 27.405045 91.296235 L 26.496057 89.958849 L 23.313305 92.025389 L 22.480798 90.714875 L 25.926583 88.894314 L 25.208797 87.473729 L 21.696867 89.357852 L 21.057112 88.013748 L 24.571626 86.391625 L 23.892598 84.838231 L 20.33881 86.476891 L 19.716626 85.180846 L 23.337077 83.713752 L 22.748999 82.120051 L 19.097542 83.580427 L 18.655192 82.309704 L 26.08833 79.809081 L 25.559163 78.134765 L 18.198889 80.620918 L 17.702795 79.233922 L 21.53822 78.204528 L 21.02714 76.577237 L 17.364831 77.570975 L 16.973124 76.068224 L 20.810616 75.389713 L 20.562052 73.817716 L 16.641878 74.536535 L 16.444474 73.061173 L 20.287134 72.592467 L 20.115568 70.906265 L 16.23105 71.379105 L 16.03468 69.953869 L 19.931083 69.665514 L 19.858736 68.118839 L 15.934944 68.241312 L 15.903939 66.90806 L 15.943729 66.90651 L 23.828519 66.808841 L 23.839371 65.052359 L 16.070853 65.158296 L 16.024861 63.686034 L 19.991028 63.788354 L 20.004463 62.178633 L 16.213997 61.999832 L 16.302364 60.450056 L 20.258195 60.796805 L 20.40909 59.40981 L 16.45791 58.890461 L 16.722493 57.425435 L 20.523295 58.158723 L 20.878312 56.50146 L 17.036169 55.758353 L 17.2868 54.342419 L 21.083467 55.26381 L 21.507731 53.735221 L 17.718298 52.682055 L 18.10122 51.391695 L 25.59637 53.69853 L 26.143624 52.029898 L 18.715653 49.754068 L 19.122347 48.338134 L 22.832198 49.644514 L 23.372217 48.120576 L 19.817912 46.790425 L 20.377051 45.341418 L 23.889498 47.029687 L 24.604699 45.608585 L 21.001819 43.904296 L 21.702551 42.591198 L 25.096659 44.4531 L 25.941569 42.983422 L 22.511287 41.100333 L 23.182564 39.828576 L 26.515177 41.868245 L 27.446903 40.44766 L 24.101371 38.380086 L 24.701851 37.502103 L 31.090092 42.064615 L 32.137573 40.653849 L 25.809277 36.147147 L 26.642301 34.932234 L 29.723767 37.436474 L 30.742826 36.069116 L 27.791585 33.684248 L 28.779122 32.486389 L 31.578434 35.197851 L 32.706014 34.074922 L 29.826603 31.320052 L 30.90664 30.295308 L 33.538004 33.133894 L 34.804077 32.006831 L 32.144291 29.136206 L 33.184021 28.142468 L 35.70118 31.129882 L 37.033915 30.077234 L 34.513655 27.058296 L 35.584391 26.243359 L 40.266276 32.535481 L 41.694095 31.512805 L 37.048384 25.286312 L 38.213688 24.384558 L 40.380997 27.711486 L 41.77006 26.721366 L 39.689567 23.5474 L 40.99698 22.709725 L 42.83201 26.147758 L 44.248978 25.424288 L 42.350386 21.920109 L 43.692423 21.27467 L 45.329016 24.782983 L 46.878792 24.09672 L 45.225663 20.550167 L 46.519124 19.921781 L 48.001721 23.536548 L 49.592838 22.941752 L 48.116442 19.296496 L 49.374247 18.853113 L 49.388716 18.890836 L 51.925512 26.35653 L 53.598278 25.822713 L 51.089904 18.47019 L 52.475349 17.969446 L 53.516629 21.801253 L 55.141853 21.285522 L 54.137263 17.626314 L 55.637947 17.230473 L 56.328861 21.065381 L 57.899824 20.812166 L 57.16912 16.894059 L 58.643965 16.692004 L 59.124556 20.533113 L 60.810241 20.35638 L 60.326033 16.473413 L 61.749718 16.272908 L 62.050475 20.167761 L 63.747529 20.090763 L 63.462275 16.168005 L 64.80793 16.132348 z M 65.963415 23.979931 C 62.553607 23.94196 59.127179 26.133582 59.02327 30.561442 C 59.598731 40.508807 72.890865 39.130951 72.804341 30.776416 C 72.766516 26.285533 69.373214 24.017902 65.963415 23.979931 z M 45.418933 30.663244 C 42.009094 30.625273 38.582697 32.81686 38.478788 37.244755 C 39.054258 47.192218 52.346388 45.814353 52.259859 37.459729 C 52.222059 32.968809 48.828771 30.701216 45.418933 30.663244 z M 32.480704 48.407897 C 29.07087 48.369926 25.644467 50.561517 25.54056 54.989408 C 26.116029 64.936861 39.40816 63.558997 39.32163 55.204382 C 39.28383 50.713466 35.89054 48.445869 32.480704 48.407897 z M 32.365466 69.970922 C 28.955633 69.932951 25.52923 72.125062 25.425321 76.552949 C 26.000792 86.500392 39.292922 85.122532 39.206392 76.767923 C 39.168592 72.277014 35.775297 70.008893 32.365466 69.970922 z M 99.310733 70.153857 C 95.900912 70.115885 92.474497 72.308012 92.370588 76.735884 C 92.946052 86.683279 106.23819 85.30542 106.15166 76.950858 C 106.11386 72.459963 102.72057 70.191828 99.310733 70.153857 z M 45.177604 87.705757 C 41.767774 87.667785 38.341368 89.859384 38.237459 94.287267 C 38.812926 104.2347 52.10506 102.85684 52.01853 94.502241 C 51.98073 90.011333 48.58743 87.743728 45.177604 87.705757 z M 86.304808 87.855101 C 82.89499 87.81713 79.468573 90.008736 79.364664 94.436612 C 79.940129 104.38402 93.232259 103.00616 93.145735 94.651586 C 93.107935 90.160687 89.714632 87.893073 86.304808 87.855101 z M 65.801667 94.560118 C 62.391845 94.522147 58.965432 96.713746 58.861523 101.14163 C 59.436989 111.08905 72.729123 109.71118 72.642593 101.3566 C 72.604798 96.865711 69.211494 94.59809 65.801667 94.560118 z " />
  </g>
  <g
     inkscape:groupmode="layer"
     id="layer10"
     inkscape:label="Layer 2">
    <text
       xml:space="preserve"
       style="font-style:normal;font-variant:normal;font-weight:normal;font-stretch:normal;font-size:14.1111px;font-family:'Droid Sans Mono';-inkscape-font-specification:'Droid Sans Mono';opacity:0.528964;fill:#008080;stroke:#000000;stroke-width:0.264583"
       x="61.776619"
       y="35.556938"
       id="text11"><tspan
         sodipodi:role="line"
         id="tspan11"
         style="font-style:normal;font-variant:normal;font-weight:normal;font-stretch:normal;font-size:14.1111px;font-family:'Droid Sans Mono';-inkscape-font-specification:'Droid Sans Mono';stroke-width:0.264583"
         x="61.776619"
         y="35.556938">0</tspan></text>
    <text
       xml:space="preserve"
       style="font-style:normal;font-variant:normal;font-weight:normal;font-stretch:normal;font-size:14.1111px;font-family:'Droid Sans Mono';-inkscape-font-specification:'Droid Sans Mono';opacity:0.528964;fill:#008080;stroke:#000000;stroke-width:0.264583"
       x="85.87841"
       y="-21.877384"
       id="text12"
       transform="rotate(40.280221)"><tspan
         sodipodi:role="line"
         id="tspan12"
         style="stroke-width:0.264583"
         x="85.87841"
         y="-21.877384">1</tspan></text>
    <text
       xml:space="preserve"
       style="font-style:normal;font-variant:normal;font-weight:normal;font-stretch:normal;font-size:14.1111px;font-family:'Droid Sans Mono';-inkscape-font-specification:'Droid Sans Mono';opacity:0.528964;fill:#008080;stroke:#000000;stroke-width:0.264583"
       x="74.987251"
       y="-76.462234"
       id="text13"
       transform="rotate(74.996244)"><tspan
         sodipodi:role="line"
         id="tspan13"
         style="stroke-width:0.264583"
         x="74.987251"
         y="-76.462234">2</tspan></text>
    <text
       xml:space="preserve"
       style="font-style:normal;font-variant:normal;font-weight:normal;font-stretch:normal;font-size:14.1111px;font-family:'Droid Sans Mono';-inkscape-font-specification:'Droid Sans Mono';opacity:0.528964;fill:#008080;stroke:#000000;stroke-width:0.264583"
       x="27.246693"
       y="-116.71304"
       id="text14"
       transform="rotate(113.56719)"><tspan
         sodipodi:role="line"
         id="tspan14"
         style="stroke-width:0.264583"
         x="27.246693"
         y="-116.71304">3</tspan></text>
    <text
       xml:space="preserve"
       style="font-style:normal;font-variant:normal;font-weight:normal;font-stretch:normal;font-size:14.1111px;font-family:'Droid Sans Mono';-inkscape-font-specification:'Droid Sans Mono';opacity:0.528964;fill:#008080;stroke:#000000;stroke-width:0.264583"
       x="-11.738717"
       y="-122.23017"
       id="text15"
       transform="rotate(140.78293)"><tspan
         sodipodi:role="line"
         id="tspan15"
         style="stroke-width:0.264583"
         x="-11.738717"
         y="-122.23017">4</tspan></text>
    <text
       xml:space="preserve"
       style="font-style:normal;font-variant:normal;font-weight:normal;font-stretch:normal;font-size:14.1111px;font-family:'Droid Sans Mono';-inkscape-font-specification:'Droid Sans Mono';opacity:0.528964;fill:#008080;stroke:#000000;stroke-width:0.264583"
       x="-70.891113"
       y="-96.040901"
       id="text16"
       transform="rotate(-179.58311)"><tspan
         sodipodi:role="line"
         id="tspan16"
         style="stroke-width:0.264583"
         x="-70.891113"
         y="-96.040901">5</tspan></text>
    <text
       xml:space="preserve"
       style="font-style:normal;font-variant:normal;font-weight:normal;font-stretch:normal;font-size:12.7736px;font-family:'Droid Sans Mono';-inkscape-font-specification:'Droid Sans Mono';opacity:0.528964;fill:#008080;stroke:#000000;stroke-width:0.239505"
       x="-90.61541"
       y="-56.415302"
       id="text17"
       transform="matrix(-0.87190123,-0.49746965,0.50509944,-0.85873071,0,0)"><tspan
         sodipodi:role="line"
         id="tspan17"
         style="stroke-width:0.239505"
         x="-90.61541"
         y="-56.415302">6</tspan></text>
    <text
       xml:space="preserve"
       style="font-style:normal;font-variant:normal;font-weight:normal;font-stretch:normal;font-size:14.1111px;font-family:'Droid Sans Mono';-inkscape-font-specification:'Droid Sans Mono';opacity:0.528964;fill:#008080;stroke:#000000;stroke-width:0.264583"
       x="-86.875351"
       y="3.1079926"
       id="text18"
       transform="rotate(-114.47975)"><tspan
         sodipodi:role="line"
         id="tspan18"
         style="stroke-width:0.264583"
         x="-86.875351"
         y="3.1079926">7</tspan></text>
    <text
       xml:space="preserve"
       style="font-style:normal;font-variant:normal;font-weight:normal;font-stretch:normal;font-size:14.1111px;font-family:'Droid Sans Mono';-inkscape-font-specification:'Droid Sans Mono';opacity:0.528964;fill:#008080;stroke:#000000;stroke-width:0.264583"
       x="-45.155777"
       y="54.308132"
       id="text19"
       transform="rotate(-70.290035)"><tspan
         sodipodi:role="line"
         id="tspan19"
         style="stroke-width:0.264583"
         x="-45.155777"
         y="54.308132">8</tspan></text>
    <text
       xml:space="preserve"
       style="font-style:normal;font-variant:normal;font-weight:normal;font-stretch:normal;font-size:12.5317px;font-family:'Droid Sans Mono';-inkscape-font-specification:'Droid Sans Mono';opacity:0.528964;fill:#008080;stroke:#000000;stroke-width:0.234969"
       x="6.802608"
       y="61.401806"
       id="text20"
       transform="matrix(0.75420889,-0.65574416,0.65040428,0.760401,0,0)"><tspan
         sodipodi:role="line"
         id="tspan20"
         style="stroke-width:0.234969"
         x="6.802608"
         y="61.401806">9</tspan></text>
    <text
       xml:space="preserve"
       style="font-style:normal;font-variant:normal;font-weight:normal;font-stretch:normal;font-size:6.89605px;font-family:'Droid Sans Mono';-inkscape-font-specification:'Droid Sans Mono';opacity:0.528964;fill:#008080;stroke:#000000;stroke-width:0.129301"
       x="1.9211333"
       y="64.17643"
       id="text21"
       transform="matrix(0.70361483,-0.71033765,0.72359257,0.69072586,0,0)"><tspan
         sodipodi:role="line"
         id="tspan21"
         style="stroke-width:0.129301"
         x="1.9211333"
         y="64.17643">.</tspan></text>
    <text
       xml:space="preserve"
       style="font-style:normal;font-variant:normal;font-weight:normal;font-stretch:normal;font-size:6.72465px;font-family:'Droid Sans Mono';-inkscape-font-specification:'Droid Sans Mono';opacity:0.528964;fill:#008080;stroke:#000000;stroke-width:0.126087"
       x="80.9617"
       y="67.233765"
       id="text22"
       transform="matrix(0.96097465,0.41384967,-0.4759127,0.83565543,0,0)"><tspan
         sodipodi:role="line"
         id="tspan22"
         style="stroke-width:0.126087"
         x="80.9617"
         y="67.233765">.</tspan></text>
  </g>
</svg>
