<?xml version="1.0" encoding="UTF-8" standalone="no"?>
<!-- Created with Inkscape (http://www.inkscape.org/) -->

<svg
   width="500"
   height="500"
   viewBox="0 0 132.29167 132.29167"
   version="1.1"
   id="svg1"
   xml:space="preserve"
   inkscape:version="1.3 (0e150ed6c4, 2023-07-21)"
   sodipodi:docname="safe-500-a.svg"
   xmlns:inkscape="http://www.inkscape.org/namespaces/inkscape"
   xmlns:sodipodi="http://sodipodi.sourceforge.net/DTD/sodipodi-0.dtd"
   xmlns:xlink="http://www.w3.org/1999/xlink"
   xmlns="http://www.w3.org/2000/svg"
   xmlns:svg="http://www.w3.org/2000/svg"><sodipodi:namedview
     id="namedview1"
     pagecolor="#ffffff"
     bordercolor="#000000"
     borderopacity="0.25"
     inkscape:showpageshadow="2"
     inkscape:pageopacity="0.0"
     inkscape:pagecheckerboard="0"
     inkscape:deskcolor="#d1d1d1"
     inkscape:document-units="px"
     inkscape:zoom="1.4142136"
     inkscape:cx="331.98663"
     inkscape:cy="334.81506"
     inkscape:window-width="1920"
     inkscape:window-height="1014"
     inkscape:window-x="0"
     inkscape:window-y="31"
     inkscape:window-maximized="1"
     inkscape:current-layer="rotate3"
     showgrid="false" /><defs
     id="defs1"><linearGradient
       id="linearGradient17"
       inkscape:collect="always"><stop
         style="stop-color:#262626;stop-opacity:1;"
         offset="0"
         id="stop16" /><stop
         style="stop-color:#fefefe;stop-opacity:1;"
         offset="1"
         id="stop17" /></linearGradient><linearGradient
       id="linearGradient3"
       inkscape:collect="always"><stop
         style="stop-color:#5e5e61;stop-opacity:1;"
         offset="0"
         id="stop3" /><stop
         style="stop-color:#fefefe;stop-opacity:1;"
         offset="1"
         id="stop4" /></linearGradient><radialGradient
       inkscape:collect="always"
       xlink:href="#linearGradient3"
       id="radialGradient4"
       cx="139.80365"
       cy="134.7023"
       fx="139.80365"
       fy="134.7023"
       r="132.61803"
       gradientTransform="matrix(0.22590531,0.00276549,-0.00457871,0.37402281,36.02324,10.537041)"
       gradientUnits="userSpaceOnUse"
       spreadMethod="reflect" /><filter
       inkscape:collect="always"
       style="color-interpolation-filters:sRGB"
       id="filter11"
       x="-0.034775601"
       y="-0.14817472"
       width="1.0695512"
       height="1.2963494"><feGaussianBlur
         inkscape:collect="always"
         stdDeviation="2.810124"
         id="feGaussianBlur11" /></filter><radialGradient
       inkscape:collect="always"
       xlink:href="#linearGradient13"
       id="radialGradient14"
       cx="139.84782"
       cy="137.34108"
       fx="139.84782"
       fy="137.34108"
       r="84.818245"
       gradientTransform="matrix(-7.2337887e-5,0.32731448,-0.54785921,-0.00582649,141.28046,19.65717)"
       gradientUnits="userSpaceOnUse"
       spreadMethod="reflect" /><linearGradient
       id="linearGradient13"
       inkscape:collect="always"><stop
         style="stop-color:#434343;stop-opacity:1;"
         offset="0"
         id="stop13" /><stop
         style="stop-color:#1b1b19;stop-opacity:1;"
         offset="1"
         id="stop14" /></linearGradient><radialGradient
       inkscape:collect="always"
       xlink:href="#linearGradient17"
       id="radialGradient4-4"
       cx="139.80365"
       cy="134.7023"
       fx="139.80365"
       fy="134.7023"
       r="132.61803"
       gradientTransform="matrix(0.19447291,0.00173957,-0.00284543,0.31810003,39.917741,18.710744)"
       gradientUnits="userSpaceOnUse"
       spreadMethod="reflect" /><filter
       inkscape:collect="always"
       style="color-interpolation-filters:sRGB"
       id="filter11-3"
       x="-0.057662624"
       y="-0.11135734"
       width="1.1153252"
       height="1.2227147"><feGaussianBlur
         inkscape:collect="always"
         stdDeviation="4.439286"
         id="feGaussianBlur11-6" /></filter><filter
       inkscape:collect="always"
       style="color-interpolation-filters:sRGB"
       id="filter16"
       x="-0.066273647"
       y="-0.14680816"
       width="1.1325473"
       height="1.2936163"><feGaussianBlur
         inkscape:collect="always"
         stdDeviation="5.5447021"
         id="feGaussianBlur16" /></filter><filter
       inkscape:collect="always"
       style="color-interpolation-filters:sRGB"
       id="filter11-3-5"
       x="-0.057662624"
       y="-0.11135734"
       width="1.1153252"
       height="1.2227147"><feGaussianBlur
         inkscape:collect="always"
         stdDeviation="4.439286"
         id="feGaussianBlur11-6-2" /></filter><filter
       inkscape:collect="always"
       style="color-interpolation-filters:sRGB"
       id="filter16-5"
       x="-0.066273647"
       y="-0.14680816"
       width="1.1325473"
       height="1.2936163"><feGaussianBlur
         inkscape:collect="always"
         stdDeviation="5.5447021"
         id="feGaussianBlur16-4" /></filter><radialGradient
       inkscape:collect="always"
       xlink:href="#linearGradient3"
       id="radialGradient4-4-7"
       cx="139.80365"
       cy="134.7023"
       fx="139.80365"
       fy="134.7023"
       r="132.61803"
       gradientTransform="matrix(0.1862308,0.00101608,-0.00156175,0.26989646,40.851508,25.704334)"
       gradientUnits="userSpaceOnUse"
       spreadMethod="reflect" /><radialGradient
       inkscape:collect="always"
       xlink:href="#linearGradient3"
       id="radialGradient4-4-7-9"
       cx="139.80365"
       cy="134.7023"
       fx="139.80365"
       fy="134.7023"
       r="132.61803"
       gradientTransform="matrix(0.14204209,0.0012064,-0.00138581,0.16316727,47.020147,41.277711)"
       gradientUnits="userSpaceOnUse"
       spreadMethod="reflect" /></defs><g
     inkscape:label="Layer 1"
     inkscape:groupmode="layer"
     id="layer1"
     style="display:inline" /><g
     inkscape:groupmode="layer"
     id="layer2"
     inkscape:label="static1"
     style="display:inline"><ellipse
       style="opacity:1;fill:url(#radialGradient4);fill-opacity:1;stroke:none;stroke-width:0.367524;stroke-dasharray:none;stroke-opacity:1"
       id="path1"
       cx="66.026772"
       cy="64.631172"
       ry="61.221283"
       rx="61.221321" /><path
       style="opacity:1;mix-blend-mode:normal;fill:#f9f9f9;fill-opacity:1;stroke:none;stroke-width:0.79375;stroke-dasharray:none;stroke-opacity:1;filter:url(#filter11)"
       d="M 38.077306,47.377054 C 53.099274,19.819895 81.705042,6.3077704 139.52973,2.6253563 185.50208,8.3366343 214.98648,18.382473 232.01493,48.1412 174.33034,20.754324 90.640323,27.216723 38.077306,47.377054 Z"
       id="path11"
       sodipodi:nodetypes="cccc"
       transform="matrix(0.46302216,0,0,0.46302182,3.3027069,1.9071596)" /><path
       style="opacity:1;mix-blend-mode:normal;fill:#f9f9f9;fill-opacity:1;stroke:none;stroke-width:0.79375;stroke-dasharray:none;stroke-opacity:1;filter:url(#filter11)"
       d="M 14.053725,87.472255 C 30.278423,41.459544 81.705042,6.3077704 139.52973,2.6253563 185.50208,8.3366343 226.67949,33.826535 249.62529,77.851085 130.36645,104.66314 123.12032,111.5489 14.053725,87.472255 Z"
       id="path12"
       sodipodi:nodetypes="cccc"
       transform="matrix(0.46302216,0,0,-0.46302182,4.2391299,126.38994)" /></g><g
     inkscape:groupmode="layer"
     id="layer6"
     inkscape:label="static2"
     style="display:inline"><ellipse
       style="display:inline;fill:url(#radialGradient14);stroke:none;stroke-width:0.548422;stroke-dasharray:none;stroke-opacity:1"
       id="path13"
       cx="66.026772"
       cy="64.631172"
       ry="56.966156"
       rx="56.966194" /><path
       style="display:inline;opacity:0.631838;fill:#e8e8e8;fill-opacity:1;stroke:none;stroke-width:0.367524;stroke-dasharray:none;stroke-opacity:1"
       d="M 24.503482,26.124987 C 31.257185,18.826291 45.48416,8.2317581 65.578267,8.0652311 83.77656,8.0920931 97.040029,15.492678 107.35089,25.958777 97.63209,16.687887 83.630401,9.1950985 65.604043,8.7096378 55.879412,8.5280408 38.453762,13.483178 24.503482,26.124987 Z"
       id="path14"
       sodipodi:nodetypes="ccccc" /><path
       style="opacity:1;fill:#f8f8f6;fill-opacity:1;stroke:none;stroke-width:0.367524;stroke-dasharray:none;stroke-opacity:1"
       d="m 64.972736,11.88013 -0.02587,-3.7639669 1.486714,0.0042 0.0056,3.7628549 z"
       id="path15"
       sodipodi:nodetypes="ccccc" /><path
       style="opacity:1;fill:#e9e9e9;fill-opacity:1;stroke:none;stroke-width:0.26162;stroke-dasharray:none;stroke-opacity:1"
       d="m 34.187066,22.330431 -2.124611,-2.98578 0.866375,-0.611996 2.112455,2.993445 z"
       id="path16"
       sodipodi:nodetypes="ccccc"
       inkscape:transform-center-x="-0.017436893"
       inkscape:transform-center-y="0.25877433" /></g><g
     inkscape:groupmode="layer"
     id="layer7"
     inkscape:label="static3"
     style="display:inline"><ellipse
       style="display:inline;fill:url(#radialGradient4-4);fill-opacity:1;stroke:none;stroke-width:0.312562;stroke-dasharray:none;stroke-opacity:1"
       id="path1-0"
       cx="65.904259"
       cy="64.631172"
       rx="52.065872"
       ry="52.065834" /><path
       style="display:inline;mix-blend-mode:normal;fill:#f9f9f9;fill-opacity:1;stroke:none;stroke-width:0.79375;stroke-dasharray:none;stroke-opacity:1;filter:url(#filter11-3)"
       d="m 9.534866,-96.344397 c 25.344796,-20.680483 34.946149,-34.026083 91.274754,-45.532313 46.20438,10.34087 66.51552,24.02148 93.49462,50.717406 -49.16519,68.608245 -132.668864,52.084496 -184.769374,-5.185093 z"
       id="path11-6"
       sodipodi:nodetypes="cccc"
       transform="matrix(0.37618556,0,0,0.288501,28.890468,54.884381)" /><path
       style="display:inline;mix-blend-mode:normal;fill:#f9f9f9;fill-opacity:1;stroke:none;stroke-width:0.79375;stroke-dasharray:none;stroke-opacity:1;filter:url(#filter16)"
       d="M 27.863873,77.686093 C 50.167989,33.295755 68.729629,8.9041591 126.55432,5.221745 184.00249,8.7562606 205.92486,28.02054 228.65688,61.514966 138.75651,107.04818 136.93047,101.76274 27.863873,77.686093 Z"
       id="path12-3"
       sodipodi:nodetypes="cccc"
       transform="matrix(0.46243679,-0.0232752,-0.02327522,-0.46243645,7.7682945,119.49488)" /></g><g
     inkscape:groupmode="layer"
     id="layer8"
     inkscape:label="static4"
     style="display:inline"><ellipse
       style="display:inline;fill:url(#radialGradient4-4-7);fill-opacity:1;stroke:none;stroke-width:0.270086;stroke-dasharray:none;stroke-opacity:1"
       id="path1-0-0"
       cx="65.965523"
       cy="64.631172"
       rx="45.266685"
       ry="44.715366" /><path
       style="display:inline;mix-blend-mode:normal;fill:#f9f9f9;fill-opacity:1;stroke:none;stroke-width:0.79375;stroke-dasharray:none;stroke-opacity:1;filter:url(#filter11-3-5)"
       d="m 9.534866,-96.344397 c 25.344796,-20.680483 34.946149,-34.026083 91.274754,-45.532313 46.20438,10.34087 66.51552,24.02148 93.49462,50.717406 -49.16519,68.608245 -132.668864,52.084496 -184.769374,-5.185093 z"
       id="path11-6-7"
       sodipodi:nodetypes="cccc"
       transform="matrix(0.35462824,0,0,0.26790657,30.53714,56.799627)" /><path
       style="display:inline;mix-blend-mode:normal;fill:#f9f9f9;fill-opacity:1;stroke:none;stroke-width:0.79375;stroke-dasharray:none;stroke-opacity:1;filter:url(#filter16-5)"
       d="M 27.863873,77.686093 C 50.167989,33.295755 68.729629,8.9041591 126.55432,5.221745 184.00249,8.7562606 205.92486,28.02054 228.65688,61.514966 138.75651,107.04818 136.93047,101.76274 27.863873,77.686093 Z"
       id="path12-3-8"
       sodipodi:nodetypes="cccc"
       transform="matrix(0.43593684,-0.02161371,-0.02194142,-0.42942576,11.095163,116.57617)" /></g><g
     inkscape:groupmode="layer"
     id="layer11"
     inkscape:label="static5"
     style="display:inline"><ellipse
       style="display:inline;fill:url(#radialGradient4-4-7-9);fill-opacity:1;stroke:none;stroke-width:0.160326;stroke-dasharray:none;stroke-opacity:1"
       id="path1-0-0-4"
       cx="66.27179"
       cy="64.87619"
       rx="26.706734"
       ry="26.706715" /></g><g
     inkscape:groupmode="layer"
     id="rotate1"
     inkscape:label="rotate1"
     style="display:inline"><path
       id="path1-8"
       style="fill:#000000;fill-opacity:1;stroke:none;stroke-width:0.122075;stroke-dasharray:none;stroke-opacity:1"
       d="m 66.934196,12.320325 c -8.219419,0.03156 -10.405553,0.419745 -18.034741,2.883431 -4.162801,1.332938 -9.015659,3.496409 -14.661865,7.729066 -4.549128,3.200815 -8.149595,7.310816 -11.384043,11.797383 -3.552013,4.681346 -4.946248,9.091045 -6.696905,13.992783 -1.732454,5.185086 -2.50739,11.135982 -2.436286,16.609405 0.07613,2.594917 -0.09158,8.907493 2.803463,16.333651 1.75064,4.702005 4.468454,9.604929 7.557848,14.296884 3.027265,4.711802 7.426913,8.196532 11.878874,11.542662 4.512513,3.37456 8.676826,5.22277 14.575198,7.05469 5.336904,1.65102 10.827681,2.40247 16.402648,2.38129 6.500733,-0.0305 12.099391,-1.47318 16.148413,-2.83719 5.024959,-1.74114 9.032619,-3.7963 14.367186,-7.82203 4.410404,-3.27427 7.936774,-7.395207 11.226454,-11.669205 3.45978,-4.422773 5.64235,-9.54937 7.34825,-14.85467 1.46351,-4.9886 2.26106,-8.995987 2.30759,-16.230192 0.05,-5.559135 -1.26522,-10.991363 -3.07239,-16.198165 -1.63712,-5.233014 -4.41731,-9.766311 -7.87512,-14.080488 -2.95669,-4.079821 -5.3954,-7.147376 -12.202988,-11.889303 -4.64974,-3.204054 -8.367448,-5.077436 -13.924363,-6.780002 -6.10812,-1.835156 -9.742128,-2.215149 -14.327223,-2.26 z m -2.038132,1.558837 0.132379,7.924973 c -3.058121,0.338068 -5.902267,2.558651 -6.163743,6.443334 -0.04376,3.074962 1.230941,5.123895 3.687536,6.614039 l 6.534585,0.01678 c 2.256512,-1.476467 3.943366,-3.604696 3.720082,-6.616138 -0.458936,-3.978438 -3.11737,-6.062876 -5.993533,-6.439662 l -0.140779,-7.865621 1.496552,-0.05305 -0.04451,3.997937 1.593715,0.03991 0.165991,-3.853502 1.576395,0.08402 -0.524769,3.925458 1.598982,0.243174 0.51163,-4.018421 1.490239,0.263658 -0.730149,3.866109 1.686706,0.353471 0.738559,-3.908128 1.440344,0.248428 -0.920294,3.862956 1.666187,0.452737 0.943956,-3.883967 0.967583,0.282566 c -0.803789,2.632074 -1.627689,5.258371 -2.444172,7.886631 l 1.695098,0.56093 2.332812,-7.543665 1.438239,0.417022 -1.435086,3.772093 1.645204,0.547801 1.36102,-3.608754 1.471332,0.571434 -1.725047,3.566211 1.442968,0.730574 1.741339,-3.657599 1.333185,0.715868 -1.901025,3.444362 1.491823,0.862403 1.922555,-3.481125 1.290644,0.685932 -2.081202,3.381859 1.441392,0.950641 2.110085,-3.394993 1.127796,0.774168 -4.580515,6.523176 1.441911,1.052517 4.529574,-6.468014 1.241242,0.837192 -2.519805,3.152338 1.397794,1.024702 2.400567,-3.019469 1.226026,0.994758 -2.733605,2.866622 1.149849,1.137094 2.777204,-2.949078 1.05057,1.089294 -2.864365,2.697509 1.156125,1.277319 2.89592,-2.726397 1.01906,1.048324 -3.01674,2.582492 1.05059,1.198014 3.07871,-2.438049 0.8289,1.072487 -0.0321,0.02578 -6.397496,4.827783 1.049526,1.444339 6.29716,-4.764221 0.92452,1.177522 -3.36711,2.225865 1.01592,1.404951 3.21215,-2.136574 0.86041,1.322494 -3.48162,1.889191 0.74538,1.43542 3.54885,-1.954329 0.66502,1.358738 -3.55409,1.68856 0.70807,1.570923 3.5935,-1.705379 0.64716,1.309892 -3.66335,1.532055 0.61511,1.612935 3.69539,-1.525758 0.46383,1.287305 -7.52738,2.624496 0.14446,0.440661 c -1.15651,-2.922226 -4.1477,-5.113255 -8.024301,-4.222206 -2.956835,0.846653 -4.550717,2.659164 -5.267597,5.44124 l 1.872131,6.259511 c 2.065745,1.733271 4.590865,2.733138 7.409707,1.649172 3.97283,-1.716998 5.08639,-5.253311 4.28742,-8.283169 l 0.13498,0.410712 7.45334,-2.610308 0.52002,1.404422 -3.88661,1.089808 0.53737,1.647613 3.71168,-1.050957 0.41446,1.522597 -3.86456,0.846644 0.24217,1.481095 3.97695,-0.774674 0.21695,1.497386 -3.9008,0.518909 0.19384,1.712204 3.94283,-0.523638 0.21587,1.445396 -3.95751,0.337183 0.093,1.543088 3.98432,-0.140779 0.0445,1.28417 -7.8168,0.04822 -0.0221,1.785194 7.89665,-0.05888 0.0377,1.496875 -4.05733,-0.07724 0.002,1.584034 3.85194,0.20588 -0.0998,1.574595 -3.92077,-0.565131 -0.26,1.596144 4.01266,0.55304 -0.27841,1.48688 -3.85876,-0.769444 -0.37085,1.682264 3.90027,0.779968 -0.26371,1.436977 -3.85298,-0.960618 -0.47066,1.661262 3.87455,0.984772 -0.39661,1.308307 -7.60408,-2.391828 -0.12921,0.38551 c 0.85649,-3.120539 -0.30935,-6.791865 -4.1104,-8.31626 -2.911237,-0.992153 -5.254556,-0.41367 -7.431243,1.461687 l -2.036009,6.208552 c 0.706829,2.602112 2.209715,4.863962 5.143099,5.582511 4.139023,0.836436 7.032283,-1.302651 8.167703,-4.141306 l -0.17124,0.511556 7.53631,2.360312 -0.42234,1.436458 -3.76788,-1.44854 -0.55367,1.642876 3.60453,1.373963 -0.57728,1.469022 -3.55987,-1.737405 -0.73593,1.439619 3.65127,1.754736 -0.72019,1.330903 -3.43852,-1.913883 -0.86777,1.487937 3.47478,1.935932 -0.69075,1.287834 -3.37446,-2.093513 -0.95656,1.437524 3.38812,2.122378 -0.77165,1.114518 -0.0342,-0.02262 -6.53826,-4.636608 -1.059489,1.436467 6.447399,4.559908 -0.84308,1.237394 -3.14072,-2.534657 -1.03114,1.392873 3.00727,2.414375 -0.99964,1.220084 -2.85439,-2.745825 -1.142512,1.144434 2.936382,2.790465 -1.09419,1.045173 -2.684757,-2.876584 -1.283276,1.149694 2.712604,2.90864 -1.052682,1.01365 -2.569182,-3.02838 -1.351043,1.07459 2.571807,3.05991 -1.08628,0.83141 -4.749676,-6.339857 c 2.414741,-2.077608 3.505634,-5.686812 1.307445,-9.06574 -1.811186,-2.485514 -4.061317,-3.358955 -6.92068,-3.076171 l -5.236059,3.908648 c -0.918217,2.535278 -0.989677,5.249801 0.996975,7.524216 2.665749,2.811444 5.914108,2.970054 8.410408,1.687521 l -0.03579,0.0257 4.742305,6.313623 -1.180852,0.92018 -2.214081,-3.37453 -1.408309,1.01052 2.124271,3.21956 -1.325842,0.8561 -1.876832,-3.48847 -1.43772,0.74002 1.94146,3.55571 -1.362059,0.65968 -1.674634,-3.56045 -1.573762,0.70275 1.691955,3.59929 -1.312703,0.64235 -1.518073,-3.66917 -1.616331,0.6098 1.512316,3.70064 -1.229699,0.43752 -2.503532,-7.51951 -1.704565,0.53204 2.504051,7.48903 -1.411971,0.49949 -1.033766,-3.9013 -1.65571,0.51419 0.99857,3.72536 -1.528588,0.39286 -0.678132,-3.90237 -1.597943,0.24792 0.717548,3.98638 -1.500224,0.19591 -0.464352,-3.90656 -1.714551,0.16859 0.468033,3.94963 -1.448745,0.19433 -0.281031,-3.96014 -1.563256,0.094 0.102968,3.96223 -1.367863,0.0279 -0.08243,-7.97013 -0.255292,-0.002 c 3.106568,-0.27089 6.039014,-2.4782 6.329734,-6.4134 0.06398,-3.074601 -1.197653,-5.132049 -3.644448,-6.638184 l -6.533834,-0.06008 c -2.266127,1.461675 -3.967298,3.579103 -3.763689,6.591934 0.444602,4.08854 3.222062,6.19653 6.184215,6.50847 l -0.101345,-9.3e-4 0.09189,7.89555 -1.497062,0.0437 0.117126,-3.9701 -1.640994,-0.0778 -0.189626,3.85244 -1.575875,-0.0935 0.548932,-3.92231 -1.597405,-0.25368 -0.536313,4.01527 -1.488663,-0.27259 0.754304,-3.8619 -1.684602,-0.36346 -0.763242,3.90342 -1.438767,-0.25789 0.944995,-3.85666 -1.555384,-0.41387 -1.076317,3.82883 -1.299036,-0.38814 0.01113,-0.0395 2.382177,-7.65186 -1.694579,-0.56249 -2.337541,7.54207 -1.437711,-0.41754 1.343681,-3.7847 -1.551174,-0.53571 -1.363654,3.60823 -1.470274,-0.57249 1.726614,-3.56463 -1.442431,-0.73164 -1.743442,3.65655 -1.332648,-0.71639 1.90311,-3.44331 -1.491285,-0.86399 -1.925187,3.48063 -1.289578,-0.68701 2.083287,-3.38026 -1.440863,-0.95171 -2.112717,3.39343 -1.127269,-0.77521 4.584724,-6.520563 -0.105582,-0.0772 c 2.673259,1.482283 6.24812,1.326643 8.715602,-1.652838 1.833448,-2.469118 1.997417,-4.876664 0.875649,-7.521605 l -5.291648,-3.833543 c -2.69402,-0.121141 -5.306899,0.619578 -6.886529,3.193308 -1.996824,3.572883 -0.973526,6.884246 1.238108,8.857734 l -4.520115,6.446487 -1.240723,-0.83773 2.5219,-3.15075 -1.397265,-1.02575 -2.40267,3.01787 -1.224971,-0.99579 2.735182,-2.86453 -1.149336,-1.137624 -2.779303,2.947514 -1.049523,-1.090343 2.866502,-2.695405 -1.155636,-1.278374 -2.89802,2.724305 -1.018011,-1.048864 3.018313,-2.580375 -1.029569,-1.219541 -3.100778,2.456945 -0.805796,-1.044114 0.08142,-0.0631 6.450546,-4.756358 -1.033247,-1.456402 -6.349163,4.694893 -0.911897,-1.188038 3.315096,-2.24477 -0.923983,-1.359258 -3.235251,2.100338 -0.846244,-1.331951 3.50263,-1.850332 -0.729631,-1.44382 -3.569859,1.91495 -0.650304,-1.366092 3.572484,-1.648642 -0.690233,-1.578814 -3.612409,1.665462 -0.632444,-1.317245 3.680171,-1.49109 -0.597779,-1.619751 -3.711683,1.484257 -0.449649,-1.291506 7.555744,-2.541518 -0.05041,-0.159658 c 1.173136,2.86649 4.12075,5.000848 7.947094,4.147611 2.962311,-0.827312 4.567766,-2.629252 5.302792,-5.406553 L 36.90617,70.906615 c -2.054406,-1.746734 -4.572831,-2.763022 -7.398694,-1.69748 -3.897386,1.654253 -5.070624,5.067793 -4.390356,8.056788 l -0.117141,-0.370805 -7.481691,2.526813 -0.504271,-1.409689 3.898686,-1.046219 -0.519513,-1.653891 -3.722711,1.009974 -0.398171,-1.527316 3.900791,-0.689611 -0.25266,-1.597701 -3.984845,0.730575 -0.200656,-1.4995 3.906047,-0.476368 -0.1744,-1.71378 -3.948597,0.480587 -0.199609,-1.448549 3.960682,-0.293076 -0.0736,-1.571952 -3.988514,0.124461 -0.03152,-1.355058 0.04045,-0.0019 8.014854,-0.09931 0.01108,-1.785204 -7.896666,0.107659 -0.04676,-1.496327 4.031583,0.103987 0.01363,-1.636042 -3.852988,-0.181716 0.08986,-1.575115 4.021083,0.352418 0.153378,-1.40968 -4.016355,-0.527857 0.268952,-1.488975 3.863497,0.745271 0.360875,-1.684359 -3.905527,-0.755258 0.254764,-1.439091 3.859297,0.936464 0.43127,-1.553594 -3.851948,-1.070382 0.389235,-1.31145 7.544195,2.321443 c -0.873239,3.113408 0.269657,6.788175 4.057861,8.336223 2.904696,1.011124 5.251804,0.447718 7.440711,-1.41337 l 2.076491,-6.194903 c -0.68974,-2.606646 -2.177614,-4.878427 -5.106239,-5.616123 -3.860823,-0.806486 -6.651572,0.989835 -7.943413,3.537334 l 0.105582,-0.321958 -7.550498,-2.313061 0.4134,-1.439082 3.771046,1.327732 0.548927,-1.548846 -3.61293,-1.351905 0.568361,-1.472703 3.57038,1.715876 0.727,-1.444349 -3.662312,-1.732157 0.712299,-1.334566 3.450085,1.892353 0.858849,-1.493714 -3.486865,-1.913892 0.682353,-1.292554 3.387584,2.073032 0.947099,-1.44382 -3.400715,-2.101386 0.610384,-0.892338 6.493615,4.637128 1.06476,-1.433834 -6.432686,-4.58041 0.846769,-1.234778 3.132291,2.54519 1.035869,-1.389717 -2.999922,-2.423872 1.003831,-1.217449 2.845486,2.755808 1.146179,-1.141296 -2.926907,-2.79992 1.097845,-1.041496 2.674777,2.884998 1.286955,-1.145486 -2.703658,-2.917569 1.056879,-1.009993 2.558681,3.036264 1.354725,-1.069853 -2.561836,-3.06831 1.0884,-0.828264 4.759115,6.395011 1.451368,-1.039389 -4.722341,-6.328322 1.184514,-0.9165 2.203066,3.381336 1.411971,-1.006314 -2.114804,-3.225869 1.328976,-0.851374 1.865298,3.494257 1.440344,-0.735303 -1.929907,-3.561484 1.364173,-0.655994 1.663591,3.565685 1.575347,-0.697484 -1.680401,-3.604553 1.314789,-0.638662 1.507057,3.673882 1.617369,-0.604523 -1.500752,-3.704869 1.278544,-0.450634 0.01474,0.03834 2.578646,7.587782 1.700356,-0.542546 -2.549754,-7.472761 1.408309,-0.508933 1.058449,3.89447 1.652048,-0.524167 -1.021167,-3.719047 1.525435,-0.402314 0.702314,3.897622 1.596877,-0.257357 -0.742759,-3.982181 1.499166,-0.205358 0.488516,3.903924 1.713503,-0.179624 -0.492196,-3.946466 1.447168,-0.203783 0.305723,3.958546 1.725019,-0.07825 -0.289941,-3.986908 z M 44.930888,28.626153 c -4.946192,0.0036 -9.193686,5.635787 -5.896362,10.777415 1.794923,2.497299 4.039075,3.385984 6.900198,3.121884 l 5.261299,-3.874518 C 52.130762,36.12172 52.220166,33.40773 50.248394,31.1204 48.600575,29.359622 46.71995,28.624722 44.930888,28.626153 Z m 41.455259,0.03626 c -1.857816,0.01117 -3.749493,0.793154 -5.229782,2.604531 -1.817297,2.481073 -1.965809,4.88985 -0.826803,7.527391 l 5.316969,3.798355 c 2.694771,0.103543 5.302736,-0.653958 6.865538,-3.237952 3.146105,-5.716671 -1.378156,-10.720939 -6.125922,-10.692325 z"
       sodipodi:nodetypes="cccccccccccccccccccccccccccccccccccccccccccccccccccccccccccccccccccccccccccccccccccccccccccccccccccccccccccccccccccccccccccccccccccccccccccccccccccccccccccccccccccccccccccccccccccccccccccccccccccccccccccccccccccccccccccccccccccccccccccccccccccccccccccccccccccccccccccccccccccccccccccccccccccccccccccccccccccccccccccccccccccccccccccccccccccccccccccccccccccccccccccccccccccccccccccccccccccccccccccccccccccccccccccccccccccccccccccccccccccccccccccccccccccccccccccccccccccccccccccccsccccs" /></g><g
     inkscape:groupmode="layer"
     id="rotate2"
     inkscape:label="rotate2"><path
       sodipodi:type="star"
       style="fill:#1a1a1a;stroke-width:0.79375;stroke-dasharray:none"
       id="path6"
       inkscape:flatsided="false"
       sodipodi:sides="20"
       sodipodi:cx="54.975971"
       sodipodi:cy="53.198006"
       sodipodi:r1="22.070309"
       sodipodi:r2="20.525387"
       sodipodi:arg1="0.86717788"
       sodipodi:arg2="1.0242575"
       inkscape:rounded="0"
       inkscape:randomized="0"
       d="m 69.255042,70.026751 -3.611342,0.706678 -2.287894,2.88214 -3.652966,-0.443875 -3.066546,2.03408 -3.337012,-1.550979 -3.545025,0.98691 -2.694408,-2.506262 -3.67649,-0.156866 -1.788057,-3.216215 -3.448076,-1.285286 -0.706678,-3.611342 -2.88214,-2.287894 0.443875,-3.652966 -2.03408,-3.066546 1.550979,-3.337012 -0.98691,-3.545024 2.506262,-2.694408 0.156866,-3.676491 3.216215,-1.788057 1.285286,-3.448076 3.611342,-0.706678 2.287894,-2.88214 3.652965,0.443876 3.066547,-2.03408 3.337012,1.550979 3.545024,-0.98691 2.694408,2.506262 3.676491,0.156865 1.788057,3.216215 3.448076,1.285286 0.706678,3.611342 2.88214,2.287894 -0.443876,3.652966 2.03408,3.066546 -1.550979,3.337012 0.98691,3.545025 -2.506262,2.694408 -0.156865,3.67649 -3.216215,1.788057 z"
       transform="matrix(1.1244487,0,0,1.1244479,4.2091185,4.8127998)" /><g
       id="logo-bg"
       stroke="#0508a2"
       stroke-width="15"
       fill="#ffffff"
       transform="matrix(0.0706177,0,0,0.06828198,46.888852,46.125678)"
       style="fill:#f9f9f9;stroke:#000000;stroke-opacity:1"><path
         d="M 516.55757,97.880248 C 527.50694,230.25012 491.58051,346.83904 409.93231,418.23121 327.48662,423.63554 284.68211,384.39623 256.48104,315.29438 373.28869,292.6356 482.59177,265.36936 516.55757,97.880248 Z"
         id="path10"
         style="fill:#f9f9f9;stroke:#000000;stroke-opacity:1" /><path
         d="M 251.96361,312.16223 C 343.58182,281.10248 481.73932,190.0979 400.56564,42.824834 c 40.99918,14.61305 79.37759,31.46195 115.10839,57.973486 -37.21838,174.87036 -160.86349,195.29004 -263.71042,211.36391 z"
         id="path11-1"
         style="fill:#f9f9f9;stroke:#000000;stroke-opacity:1" /><path
         d="M 23.363896,95.782512 C 120.38846,35.179676 252.37652,-13.372009 358.92221,33.908071 385.90077,81.085291 420.05615,160.15306 342.9564,217.50421 268.10387,90.93273 158.90361,66.640422 23.363896,95.782512 Z"
         id="path12-7"
         style="fill:#f9f9f9;stroke:#000000;stroke-opacity:1" /><path
         d="M 36.396711,226.23918 C 19.790954,167.66381 23.100124,132.42055 25.290054,95.931481 236.42531,48.36279 305.8514,157.86264 339.6401,215.03688 218.14393,140.42305 100.51954,132.44005 36.396711,226.23918 Z"
         id="path13-2"
         style="fill:#f9f9f9;stroke:#000000;stroke-opacity:1" /><path
         d="M 275.93221,526.84604 C 168.97259,476.94409 76.705078,396.56267 49.354673,270.45767 85.951874,198.92077 171.7639,153.74844 236.78128,137.08669 225.2344,201.76304 119.50529,382.60957 275.93221,526.84604 Z"
         id="path14-7"
         style="fill:#f9f9f9;stroke:#000000;stroke-opacity:1" /><path
         d="M 274.50644,525.74429 C 118.4901,386.79297 217.71633,217.72176 236.20767,141.02297 c -8.02349,137.68426 -37.36435,299.54637 141.25694,310.37024 -26.71542,25.63295 -58.19163,50.73419 -102.95817,74.35108 z"
         id="path15-2"
         style="fill:#f9f9f9;stroke:#000000;stroke-opacity:1" /></g></g><g
     inkscape:groupmode="layer"
     id="rotate3"
     inkscape:label="rotate3"
     style="fill:#0000ff"><g
       id="g12"
       transform="translate(-1.8024984,2.0497195)"><text
         xml:space="preserve"
         style="font-weight:bold;font-size:12.7px;font-family:'Nimbus Mono PS';-inkscape-font-specification:'Nimbus Mono PS Bold';fill:#f9f9f9;stroke-width:0.79375"
         x="62.136002"
         y="32.07777"
         id="text0"><tspan
           sodipodi:role="line"
           id="tspan1"
           style="fill:#f9f9f9;stroke-width:0.79375"
           x="62.136002"
           y="32.07777">0</tspan></text><text
         xml:space="preserve"
         style="font-weight:bold;font-size:12.7px;font-family:'Nimbus Mono PS';-inkscape-font-specification:'Nimbus Mono PS Bold';fill:#f9f9f9;stroke-width:0.79375"
         x="83.478798"
         y="38.773129"
         id="text1"><tspan
           sodipodi:role="line"
           id="tspan2"
           style="stroke-width:0.79375"
           x="83.478798"
           y="38.773129">1</tspan></text><text
         xml:space="preserve"
         style="font-weight:bold;font-size:12.7px;font-family:'Nimbus Mono PS';-inkscape-font-specification:'Nimbus Mono PS Bold';fill:#f9f9f9;stroke-width:0.79375"
         x="96.184448"
         y="56.500755"
         id="text2"><tspan
           sodipodi:role="line"
           id="tspan5"
           style="stroke-width:0.79375"
           x="96.184448"
           y="56.500755">2</tspan></text><text
         xml:space="preserve"
         style="font-weight:bold;font-size:12.7px;font-family:'Nimbus Mono PS';-inkscape-font-specification:'Nimbus Mono PS Bold';fill:#f9f9f9;stroke-width:0.79375"
         x="96.527077"
         y="79.101479"
         id="text3"><tspan
           sodipodi:role="line"
           id="tspan6"
           style="stroke-width:0.79375"
           x="96.527077"
           y="79.101479">3</tspan></text><text
         xml:space="preserve"
         style="font-weight:bold;font-size:12.7px;font-family:'Nimbus Mono PS';-inkscape-font-specification:'Nimbus Mono PS Bold';fill:#f9f9f9;stroke-width:0.79375"
         x="83.622536"
         y="96.9142"
         id="text4"><tspan
           sodipodi:role="line"
           id="tspan7"
           style="stroke-width:0.79375"
           x="83.622536"
           y="96.9142">4</tspan></text><text
         xml:space="preserve"
         style="font-weight:bold;font-size:12.7px;font-family:'Nimbus Mono PS';-inkscape-font-specification:'Nimbus Mono PS Bold';fill:#f9f9f9;stroke-width:0.79375"
         x="62.431454"
         y="103.85902"
         id="text5"><tspan
           sodipodi:role="line"
           id="tspan8"
           style="stroke-width:0.79375"
           x="62.431454"
           y="103.85902">5</tspan></text><text
         xml:space="preserve"
         style="font-weight:bold;font-size:12.7px;font-family:'Nimbus Mono PS';-inkscape-font-specification:'Nimbus Mono PS Bold';fill:#f9f9f9;stroke-width:0.79375"
         x="40.054867"
         y="96.538322"
         id="text6"><tspan
           sodipodi:role="line"
           id="tspan9"
           style="stroke-width:0.79375"
           x="40.054867"
           y="96.538322">6</tspan></text><text
         xml:space="preserve"
         style="font-weight:bold;font-size:12.7px;font-family:'Nimbus Mono PS';-inkscape-font-specification:'Nimbus Mono PS Bold';fill:#f9f9f9;stroke-width:0.79375"
         x="28.044073"
         y="79.62133"
         id="text7"><tspan
           sodipodi:role="line"
           id="tspan10"
           style="stroke-width:0.79375"
           x="28.044073"
           y="79.62133">7</tspan></text><text
         xml:space="preserve"
         style="font-weight:bold;font-size:12.7px;font-family:'Nimbus Mono PS';-inkscape-font-specification:'Nimbus Mono PS Bold';fill:#f9f9f9;stroke-width:0.79375"
         x="27.608435"
         y="57.142944"
         id="text8"><tspan
           sodipodi:role="line"
           id="tspan11"
           style="stroke-width:0.79375"
           x="27.608435"
           y="57.142944">8</tspan></text><text
         xml:space="preserve"
         style="font-weight:bold;font-size:12.7px;font-family:'Nimbus Mono PS';-inkscape-font-specification:'Nimbus Mono PS Bold';fill:#f9f9f9;stroke-width:0.79375"
         x="40.85043"
         y="39.0186"
         id="text9"><tspan
           sodipodi:role="line"
           id="tspan12"
           style="stroke-width:0.79375"
           x="40.85043"
           y="39.0186">9</tspan></text></g></g></svg>
