<?xml version="1.0" encoding="UTF-8" standalone="no"?>
<!-- Created with Inkscape (http://www.inkscape.org/) -->

<svg
   width="500"
   height="500"
   viewBox="0 0 132.29166 132.29167"
   version="1.1"
   id="svg1"
   inkscape:version="1.3 (0e150ed6c4, 2023-07-21)"
   sodipodi:docname="safedigits1-500.svg"
   xmlns:inkscape="http://www.inkscape.org/namespaces/inkscape"
   xmlns:sodipodi="http://sodipodi.sourceforge.net/DTD/sodipodi-0.dtd"
   xmlns:xlink="http://www.w3.org/1999/xlink"
   xmlns="http://www.w3.org/2000/svg"
   xmlns:svg="http://www.w3.org/2000/svg">
  <sodipodi:namedview
     id="namedview1"
     pagecolor="#ffffff"
     bordercolor="#000000"
     borderopacity="0.25"
     inkscape:showpageshadow="2"
     inkscape:pageopacity="0.0"
     inkscape:pagecheckerboard="0"
     inkscape:deskcolor="#d1d1d1"
     inkscape:document-units="px"
     inkscape:zoom="2.8685466"
     inkscape:cx="231.65041"
     inkscape:cy="289.17083"
     inkscape:window-width="1920"
     inkscape:window-height="1014"
     inkscape:window-x="0"
     inkscape:window-y="31"
     inkscape:window-maximized="1"
     inkscape:current-layer="layer14"
     showgrid="false" />
  <defs
     id="defs1">
    <linearGradient
       id="linearGradient10"
       inkscape:collect="always">
      <stop
         style="stop-color:#111111;stop-opacity:1;"
         offset="0"
         id="stop9" />
      <stop
         style="stop-color:#777777;stop-opacity:1;"
         offset="1"
         id="stop10" />
    </linearGradient>
    <linearGradient
       id="linearGradient60"
       inkscape:collect="always">
      <stop
         style="stop-color:#aaaaaa;stop-opacity:1;"
         offset="0"
         id="stop59" />
      <stop
         style="stop-color:#dddddd;stop-opacity:1;"
         offset="1"
         id="stop60" />
    </linearGradient>
    <linearGradient
       id="linearGradient57"
       inkscape:collect="always">
      <stop
         style="stop-color:#aaaaaa;stop-opacity:1;"
         offset="0"
         id="stop57" />
      <stop
         style="stop-color:#ffffff;stop-opacity:1;"
         offset="1"
         id="stop58" />
    </linearGradient>
    <linearGradient
       id="linearGradient53"
       inkscape:collect="always">
      <stop
         style="stop-color:#666666;stop-opacity:1;"
         offset="0"
         id="stop53" />
      <stop
         style="stop-color:#eeeeee;stop-opacity:1;"
         offset="1"
         id="stop54" />
    </linearGradient>
    <linearGradient
       inkscape:collect="always"
       xlink:href="#linearGradient53"
       id="linearGradient54"
       x1="221.56082"
       y1="2.3085515"
       x2="168.74998"
       y2="110.3827"
       gradientUnits="userSpaceOnUse"
       gradientTransform="translate(-140.0413,1.96081)" />
    <radialGradient
       inkscape:collect="always"
       xlink:href="#linearGradient57"
       id="radialGradient58"
       cx="190.93674"
       cy="29.548405"
       fx="190.93674"
       fy="29.548405"
       r="66.163658"
       gradientTransform="matrix(0.1167856,1.0450789,-1.5196633,0.1698195,53.430516,-174.78129)"
       gradientUnits="userSpaceOnUse" />
    <radialGradient
       inkscape:collect="always"
       xlink:href="#linearGradient60"
       id="radialGradient59"
       gradientUnits="userSpaceOnUse"
       gradientTransform="matrix(0.09761528,0.87352948,-1.270211,0.14194367,55.520656,-135.16247)"
       cx="190.93674"
       cy="29.548405"
       fx="190.93674"
       fy="29.548405"
       r="66.163658" />
    <linearGradient
       inkscape:collect="always"
       xlink:href="#linearGradient53"
       id="linearGradient59"
       gradientUnits="userSpaceOnUse"
       gradientTransform="matrix(0.83585027,0,0,0.83585027,-106.19282,12.56746)"
       x1="281.51883"
       y1="-29.024673"
       x2="168.74998"
       y2="110.3827" />
    <radialGradient
       inkscape:collect="always"
       xlink:href="#linearGradient60"
       id="radialGradient3"
       cx="109.29926"
       cy="213.73524"
       fx="109.29926"
       fy="213.73524"
       r="15.058308"
       gradientTransform="matrix(1.2601831,0.21741007,-0.25341167,1.4688607,24.459555,-261.80936)"
       gradientUnits="userSpaceOnUse" />
    <linearGradient
       inkscape:collect="always"
       xlink:href="#linearGradient53"
       id="linearGradient7"
       x1="41.140133"
       y1="35.474354"
       x2="66.432274"
       y2="80.22641"
       gradientUnits="userSpaceOnUse" />
    <radialGradient
       inkscape:collect="always"
       xlink:href="#linearGradient10"
       id="radialGradient9"
       cx="59.141277"
       cy="66.661865"
       fx="59.141277"
       fy="66.661865"
       r="12.461447"
       gradientTransform="matrix(3.3345171,1.7422435,-2.3555329,4.5083053,17.388598,-340.81142)"
       gradientUnits="userSpaceOnUse" />
  </defs>
  <g
     inkscape:groupmode="layer"
     id="layer13"
     inkscape:label="bg" />
  <g
     inkscape:groupmode="layer"
     id="layer14"
     inkscape:label="bg 1">
    <ellipse
       style="fill:url(#radialGradient58);stroke:url(#linearGradient54);stroke-width:1.95792;stroke-dasharray:none"
       id="path50"
       cx="66.163635"
       cy="66.576553"
       rx="65.1847"
       ry="65.597588" />
    <ellipse
       style="fill:url(#radialGradient59);stroke:url(#linearGradient59);stroke-width:0.79375;stroke-dasharray:none"
       id="ellipse58"
       cx="66.163635"
       cy="66.576553"
       rx="54.48465"
       ry="54.829762" />
    <path
       style="fill:url(#radialGradient3);stroke-width:0;stroke-dasharray:none"
       d="m 98.860676,109.8018 c -7.21784,-32.34311 -5.65968,-46.98689 18.111444,-61.73477 8.1372,25.48894 -0.60735,47.5977 -18.111444,61.73477 z"
       id="path2"
       sodipodi:nodetypes="ccc" />
    <ellipse
       style="fill:#90000e;stroke:none;stroke-width:0.410333;stroke-dasharray:none;fill-opacity:1"
       id="ellipse3"
       cx="66.163635"
       cy="66.576553"
       rx="28.16609"
       ry="28.344498" />
    <ellipse
       style="fill:url(#linearGradient7);stroke:none;stroke-width:0.384711;stroke-dasharray:none;fill-opacity:1"
       id="ellipse4"
       cx="66.163635"
       cy="66.576553"
       rx="26.407322"
       ry="26.574589" />
  </g>
  <g
     inkscape:label="Layer 1"
     inkscape:groupmode="layer"
     id="layer1">
    <path
       id="path1"
       style="opacity:1;fill:#000000;fill-opacity:1;stroke:#e0000e;stroke-width:0.291042;stroke-dasharray:none;stroke-opacity:1"
       d="m 66.990918,14.749781 c -8.08602,0.03105 -10.23668,0.412993 -17.74207,2.837036 -4.09525,1.311491 -8.86936,3.440154 -14.42393,7.604704 -4.47531,3.149312 -8.01735,7.193181 -11.19931,11.60756 -3.49437,4.606024 -4.86598,8.944768 -6.58823,13.767635 -1.70434,5.101642 -2.4667,10.956804 -2.39675,16.342154 0.0749,2.55317 -0.0901,8.76417 2.75797,16.07085 1.72223,4.62634 4.39594,9.45038 7.4352,14.06685 2.97814,4.63599 7.30639,8.06465 11.68611,11.35693 4.43928,3.32027 8.53602,5.13875 14.33866,6.94117 5.25031,1.62448 10.65199,2.36383 16.13648,2.34301 6.39525,-0.03 11.90304,-1.4495 15.88637,-2.79156 4.9434,-1.71312 8.88604,-3.73521 14.13402,-7.69617 4.338852,-3.22158 7.807972,-7.27621 11.044292,-11.48147 3.40362,-4.35161 5.55077,-9.3957 7.22901,-14.61564 1.43975,-4.90834 2.22436,-8.85124 2.27015,-15.96905 0.0492,-5.46969 -1.2447,-10.814512 -3.02256,-15.937533 -1.61055,-5.148813 -4.34562,-9.609162 -7.74733,-13.853935 -2.9087,-4.014165 -5.30784,-7.032363 -12.004952,-11.697994 -4.57428,-3.1525 -8.23165,-4.995738 -13.69839,-6.67091 -6.00901,-1.805628 -9.58404,-2.179507 -14.09474,-2.223637 z m -2.00505,1.533756 0.13023,7.797457 c -3.00849,0.332629 -5.80649,2.517483 -6.06372,6.339665 -0.0431,3.025487 1.21097,5.041452 3.62769,6.507613 l 6.42855,0.01654 c 2.2199,-1.452707 3.87938,-3.546693 3.65972,-6.50968 -0.45149,-3.914424 -3.06679,-5.965324 -5.89628,-6.336047 l -0.13849,-7.739062 1.47226,-0.05219 -0.0439,3.93361 1.56786,0.03927 0.1633,-3.791499 1.55081,0.08268 -0.51625,3.862296 1.57303,0.239262 0.50333,-3.953763 1.46606,0.259415 -0.7183,3.803902 1.65933,0.347783 0.72657,-3.845244 1.41697,0.24443 -0.90537,3.800802 1.63917,0.44545 0.92863,-3.821472 0.95188,0.278019 c -0.79075,2.589723 -1.60127,5.173762 -2.4045,7.759733 l 1.66759,0.551905 2.29495,-7.422286 1.4149,0.410311 -1.4118,3.711401 1.61851,0.538985 1.33894,-3.550687 1.44745,0.562239 -1.69705,3.50883 1.41955,0.718819 1.71307,-3.598747 1.31155,0.70435 -1.87017,3.38894 1.46761,0.848527 1.89136,-3.425113 1.26969,0.674894 -2.04742,3.327445 1.418,0.935344 2.07584,-3.340365 1.1095,0.761711 -4.50619,6.418213 1.41852,1.035595 4.45606,-6.363952 1.22111,0.823722 -2.47892,3.101619 1.37511,1.008208 2.36162,-2.970878 1.20613,0.978751 -2.68925,2.8205 1.1312,1.118795 2.732132,-2.901632 1.03352,1.071769 -2.817902,2.654102 1.13739,1.25677 2.848922,-2.682523 1.00252,1.031461 -2.96778,2.540931 1.03353,1.178739 3.02876,-2.39882 0.81545,1.055233 -0.0315,0.02532 -6.293672,4.750098 1.032492,1.421102 6.19497,-4.687569 0.90951,1.158585 -3.31246,2.190047 0.99942,1.382345 3.16002,-2.102197 0.84646,1.301212 -3.42512,1.858801 0.73329,1.412317 3.49126,-1.92288 0.65422,1.33687 -3.49642,1.661397 0.69659,1.545642 3.53519,-1.677934 0.63665,1.28881 -3.60391,1.507402 0.60513,1.586983 3.63544,-1.5012 0.4563,1.266589 -7.40523,2.582271 0.14211,0.433566 c -1.13773,-2.875207 -4.08038,-5.030981 -7.894092,-4.154269 -2.90885,0.833034 -4.47687,2.616383 -5.18211,5.353679 l 1.84175,6.1588 c 2.03223,1.70539 4.51637,2.68916 7.289472,1.62264 3.90837,-1.68937 5.00384,-5.168783 4.21783,-8.149893 l 0.13281,0.404109 7.33237,-2.568318 0.51159,1.381828 -3.82354,1.072285 0.52865,1.62109 3.65146,-1.034045 0.40773,1.498099 -3.80184,0.833025 0.23823,1.457275 3.91242,-0.762227 0.21343,1.473295 -3.8375,0.510567 0.19069,1.68465 3.87883,-0.51522 0.21239,1.42214 -3.8933,0.33176 0.0915,1.51826 3.91966,-0.1385 0.0439,1.26349 -7.68997,0.0475 -0.0217,1.75648 7.76851,-0.0579 0.0372,1.47278 -3.99149,-0.076 0.002,1.55856 3.78943,0.20257 -0.0982,1.54926 -3.85713,-0.55604 -0.2558,1.57045 3.94756,0.54415 -0.27388,1.46296 -3.79615,-0.75706 -0.36484,1.6552 3.83698,0.7674 -0.25942,1.41386 -3.79046,-0.94516 -0.46303,1.63453 3.81166,0.96893 -0.39016,1.28726 -7.48068,-2.35335 -0.12712,0.37931 c 0.84259,-3.07033 -0.30434,-6.68259 -4.04368,-8.18245 -2.864002,-0.97619 -5.169292,-0.407 -7.310662,1.43816 l -2.00298,6.10867 c 0.69537,2.56023 2.17385,4.7857 5.05964,5.49269 4.071872,0.82297 6.918162,-1.2817 8.035162,-4.07469 l -0.16846,0.50333 7.41401,2.32234 -0.41548,1.41335 -3.70675,-1.42524 -0.54467,1.61644 3.54604,1.35186 -0.56792,1.44539 -3.50211,-1.70946 -0.72399,1.41645 3.59203,1.72651 -0.70849,1.30948 -3.38274,-1.88309 -0.85369,1.464 3.4184,1.90479 -0.67955,1.26711 -3.31969,-2.05983 -0.94103,1.41439 3.33313,2.08824 -0.75913,1.09657 -0.0336,-0.0222 -6.43216,-4.56199 -1.042312,1.41335 6.342762,4.48655 -0.82941,1.21749 -3.08973,-2.4939 -1.01441,1.37046 2.95848,2.37556 -0.98341,1.20045 -2.80809,-2.70165 -1.123962,1.12603 2.888712,2.74557 -1.07642,1.02836 -2.641182,-2.83032 -1.26245,1.1312 2.66857,2.86184 -1.0356,0.99736 -2.52749,-2.97967 -1.32912,1.0573 2.53008,3.01067 -1.06867,0.81804 -4.67258,-6.23786 c 2.37555,-2.04417 3.44874,-5.59531 1.28622,-8.91987 -1.7818,-2.44553 -3.99542,-3.30492 -6.80837,-3.02669 l -5.1511,3.84576 c -0.90331,2.49448 -0.97361,5.16535 0.98081,7.40317 2.62249,2.76621 5.81813,2.92227 8.27392,1.66036 l -0.0351,0.0253 4.66535,6.21203 -1.16169,0.90537 -2.17816,-3.32021 -1.38545,0.99425 2.0898,3.16777 -1.30432,0.84232 -1.84639,-3.43235 -1.41439,0.72812 1.90996,3.4985 -1.33997,0.64906 -1.64744,-3.50315 -1.54823,0.69143 1.6645,3.54139 -1.29139,0.632 -1.49345,-3.61012 -1.59009,0.59997 1.48777,3.64112 -1.20975,0.43046 -2.4629,-7.39851 -1.6769,0.52348 2.46342,7.36854 -1.38906,0.49145 -1.017,-3.83853 -1.62884,0.50591 0.98237,3.66541 -1.50378,0.38654 -0.66714,-3.83956 -1.572,0.24392 0.7059,3.92224 -1.47588,0.19275 -0.45682,-3.84369 -1.68672,0.16588 0.46044,3.88607 -1.42524,0.1912 -0.27647,-3.8964 -1.53789,0.0925 0.10129,3.89847 -1.34566,0.0274 -0.0811,-7.8419 -0.25114,-0.002 c 3.05615,-0.26652 5.94101,-2.43831 6.22701,-6.31021 0.0629,-3.02514 -1.17822,-5.04947 -3.58531,-6.53138 l -6.42804,-0.0589 c -2.22934,1.43818 -3.90291,3.52154 -3.70261,6.4859 0.43738,4.02277 3.16977,6.09685 6.08386,6.40375 l -0.0997,-0.001 0.0904,7.76852 -1.47277,0.0429 0.11523,-3.90622 -1.61437,-0.0765 -0.18655,3.79047 -1.55029,-0.092 0.54002,-3.85919 -1.57148,-0.2496 -0.52762,3.95066 -1.46451,-0.2682 0.74207,-3.79977 -1.65726,-0.3576 -0.75086,3.8406 -1.41542,-0.25374 0.92966,-3.7946 -1.53014,-0.40721 -1.05885,3.76722 -1.27795,-0.38189 0.0109,-0.0388 2.34352,-7.52874 -1.66708,-0.55345 -2.2996,7.42073 -1.41438,-0.41083 1.32188,-3.7238 -1.52601,-0.5271 -1.34152,3.55017 -1.44642,-0.56327 1.6986,-3.50728 -1.41903,-0.71985 -1.71514,3.59771 -1.31103,-0.70487 1.87223,-3.3879 -1.46709,-0.85008 -1.89394,3.4246 -1.26866,-0.67593 2.04949,-3.3259 -1.41748,-0.93637 -2.07843,3.33881 -1.10898,-0.76274 4.51032,-6.41563 -0.10387,-0.076 c 2.62988,1.45844 6.14673,1.3053 8.57416,-1.62625 1.80371,-2.42941 1.96501,-4.79822 0.86144,-7.40059 l -5.20579,-3.77187 c -2.6503,-0.11919 -5.22078,0.60961 -6.77478,3.14193 -1.96441,3.51539 -0.95772,6.7735 1.21802,8.71523 l -4.44676,6.34276 -1.2206,-0.82424 2.48099,-3.10006 -1.3746,-1.00925 -2.36368,2.96933 -1.20509,-0.97978 2.69079,-2.81844 -1.13068,-1.11931 -2.7342,2.90008 -1.03249,-1.0728 2.81998,-2.65203 -1.13688,-1.25781 -2.85099,2.68046 -1.00149,-1.03198 2.96933,-2.53886 -1.01286,-1.19993 -3.05046,2.41742 -0.79272,-1.02732 0.0801,-0.062 6.34587,-4.67982 -1.01648,-1.43299 -6.24613,4.61936 -0.8971,-1.16892 3.2613,-2.20865 -0.90899,-1.33739 -3.18275,2.06654 -0.83251,-1.31051 3.44579,-1.82056 -0.71779,-1.42059 -3.51193,1.88412 -0.63975,-1.3441 3.51451,-1.62212 -0.67903,-1.5534 -3.55379,1.63866 -0.62218,-1.29604 3.62045,-1.4671 -0.58808,-1.5937 -3.65145,1.46038 -0.44235,-1.27072 7.43313,-2.50063 -0.0496,-0.15709 c 1.1541,2.82037 4.05388,4.92038 7.81813,4.08088 2.91424,-0.81401 4.49364,-2.58694 5.21674,-5.31957 l -1.80144,-6.17068 c -2.02106,-1.71862 -4.49862,-2.71857 -7.27863,-1.67018 -3.83414,1.62764 -4.98834,4.98626 -4.31911,7.92716 l -0.11524,-0.36483 -7.36028,2.48615 -0.49609,-1.387 3.83542,-1.02939 -0.51108,-1.62729 -3.6623,0.99374 -0.39171,-1.50275 3.83749,-0.67852 -0.24856,-1.57199 -3.92018,0.71882 -0.1974,-1.47537 3.84266,-0.4687 -0.17157,-1.6862 -3.88452,0.47284 -0.19637,-1.42524 3.89641,-0.28835 -0.0724,-1.54668 -3.92379,0.12247 -0.031,-1.33325 0.0398,-0.002 7.88479,-0.0977 0.0109,-1.75648 -7.76852,0.10594 -0.046,-1.47227 3.96616,0.10232 0.0134,-1.60972 -3.79046,-0.1788 0.0884,-1.54977 3.95583,0.34675 0.15089,-1.387 -3.95118,-0.519349 0.26459,-1.465026 3.8008,0.733288 0.35502,-1.657263 -3.84215,-0.743107 0.25063,-1.415934 3.79667,0.921391 0.42427,-1.528589 -3.78944,-1.053166 0.38292,-1.29036 7.42177,2.284098 c -0.85907,3.063321 0.26528,6.678957 3.99201,8.202087 2.85756,0.99487 5.16658,0.44051 7.31996,-1.39062 l 2.04277,-6.095232 c -0.67863,-2.564718 -2.14236,-4.799936 -5.02346,-5.525761 -3.79817,-0.793504 -6.54363,0.973902 -7.81451,3.480408 l 0.10387,-0.316777 -7.42797,-2.27583 0.40669,-1.415934 3.70985,1.30638 0.54002,-1.523938 -3.5543,-1.330151 0.55914,-1.449007 3.51244,1.688269 0.7152,-1.421102 -3.60288,-1.704289 0.70074,-1.313098 3.3941,1.861902 0.84491,-1.469678 -3.43028,-1.883089 0.67128,-1.271757 3.33261,2.039669 0.93173,-1.420585 -3.34553,-2.067574 0.60048,-0.877983 6.38824,4.562512 1.04748,-1.410766 -6.3283,-4.506702 0.83303,-1.214913 3.08146,2.50424 1.01906,-1.367358 -2.95124,-2.384868 0.98754,-1.197859 2.79931,2.711462 1.12758,-1.122929 -2.87941,-2.75487 1.08003,-1.024744 2.63137,2.838586 1.26607,-1.127063 -2.65978,-2.870625 1.03973,-0.993738 2.51715,2.987414 1.33274,-1.052648 -2.52026,-3.018938 1.07074,-0.814937 4.68188,6.292122 1.42782,-1.022676 -4.64571,-6.226493 1.1653,-0.901754 2.16731,3.326928 1.38906,-0.99012 -2.08049,-3.173966 1.30741,-0.837675 1.83503,3.438033 1.41697,-0.72347 -1.89859,-3.504179 1.34204,-0.645439 1.63659,3.508313 1.54978,-0.686263 -1.65313,-3.546553 1.29346,-0.628386 1.4826,3.614767 1.59111,-0.594796 -1.47639,-3.645256 1.2578,-0.443383 0.0145,0.03772 2.5368,7.465694 1.67276,-0.533817 -2.50837,-7.352523 1.38544,-0.500744 1.04128,3.831807 1.62523,-0.515731 -1.00459,-3.659208 1.50068,-0.395841 0.69092,3.834908 1.57096,-0.253215 -0.7307,-3.918107 1.47484,-0.202055 0.48059,3.841109 1.68569,-0.176733 -0.48421,-3.882967 1.42368,-0.200505 0.30076,3.894853 1.69705,-0.077 -0.28525,-3.922758 z m -19.64118,14.509709 c -4.86593,0.0039 -9.0445,5.545098 -5.80068,10.604004 1.76579,2.457119 3.97352,3.331506 6.78822,3.071647 l 5.17591,-3.812171 c 0.91958,-2.48852 1.00752,-5.158834 -0.93224,-7.409366 -1.62108,-1.732446 -3.47119,-2.455518 -5.23121,-2.454114 z m 40.78253,0.03566 c -1.82768,0.01102 -3.68866,0.780389 -5.14491,2.562634 -1.78781,2.441139 -1.93392,4.811167 -0.81339,7.406266 l 5.23069,3.73724 c 2.65103,0.101883 5.21668,-0.643441 6.75411,-3.185852 3.09505,-5.624689 -1.35578,-10.548441 -6.0265,-10.520288 z m -22.08393,20.237177 -2.10426,1.578199 -2.62516,-0.165365 -1.5136,2.15129 -2.54817,0.653707 -0.77463,2.514058 -2.22105,1.409218 0.0403,2.63033 -1.6769,2.02623 0.85059,2.48926 -0.96842,2.44532 1.5782,2.10427 -0.16536,2.62516 2.15129,1.5136 0.6537,2.54765 2.51406,0.77463 1.40922,2.22157 2.63033,-0.0403 2.02623,1.6769 2.48926,-0.85111 2.44533,0.96893 2.10426,-1.57871 2.62516,0.16588 1.51361,-2.15181 2.54764,-0.6537 0.77463,-2.51355 2.22157,-1.40921 -0.0403,-2.63033 1.6769,-2.02623 -0.85111,-2.48926 0.96893,-2.44533 -1.57871,-2.10426 0.16588,-2.62516 -2.15181,-1.513607 -0.6537,-2.548165 -2.51354,-0.77463 -1.40922,-2.221053 -2.63033,0.04031 -2.02623,-1.6769 -2.48926,0.850594 z"
       sodipodi:nodetypes="cccccccccccccccccccccccccccccccccccccccccccccccccccccccccccccccccccccccccccccccccccccccccccccccccccccccccccccccccccccccccccccccccccccccccccccccccccccccccccccccccccccccccccccccccccccccccccccccccccccccccccccccccccccccccccccccccccccccccccccccccccccccccccccccccccccccccccccccccccccccccccccccccccccccccccccccccccccccccccccccccccccccccccccccccccccccccccccccccccccccccccccccccccccccccccccccccccccccccccccccccccccccccccccccccccccccccccccccccccccccccccccccccccccccccccccccccccccccccccccsccccsccccccccccccccccccccccccccccccccccccccccc" />
  </g>
  <g
     inkscape:groupmode="layer"
     id="layer11"
     inkscape:label="Layer 2">
    <text
       xml:space="preserve"
       style="font-style:normal;font-variant:normal;font-weight:bold;font-stretch:normal;font-size:11.2889px;font-family:'Nimbus Mono PS';-inkscape-font-specification:'Nimbus Mono PS Bold';opacity:1;fill:#ffffff;fill-opacity:1;stroke:#000000;stroke-width:0.264583"
       x="62.594467"
       y="34.092705"
       id="text41"><tspan
         sodipodi:role="line"
         id="tspan41"
         style="fill:#ffffff;fill-opacity:1;stroke-width:0.264583"
         x="62.594467"
         y="34.092705">0</tspan></text>
    <text
       xml:space="preserve"
       style="font-style:normal;font-variant:normal;font-weight:bold;font-stretch:normal;font-size:11.2889px;font-family:'Nimbus Mono PS';-inkscape-font-specification:'Nimbus Mono PS Bold';opacity:1;fill:#ffffff;fill-opacity:1;stroke:#000000;stroke-width:0.264583"
       x="88.887466"
       y="-15.958846"
       id="text42"
       transform="rotate(35.215916)"><tspan
         sodipodi:role="line"
         id="tspan42"
         style="fill:#ffffff;fill-opacity:1;stroke-width:0.264583"
         x="88.887466"
         y="-15.958846">1</tspan></text>
    <text
       xml:space="preserve"
       style="font-style:normal;font-variant:normal;font-weight:bold;font-stretch:normal;font-size:11.2889px;font-family:'Nimbus Mono PS';-inkscape-font-specification:'Nimbus Mono PS Bold';opacity:1;fill:#ffffff;fill-opacity:1;stroke:#000000;stroke-width:0.264583"
       x="76.459679"
       y="-78.128532"
       id="text43"
       transform="rotate(74.650679)"><tspan
         sodipodi:role="line"
         id="tspan43"
         style="fill:#ffffff;fill-opacity:1;stroke-width:0.264583"
         x="76.459679"
         y="-78.128532">2</tspan></text>
    <text
       xml:space="preserve"
       style="font-style:normal;font-variant:normal;font-weight:bold;font-stretch:normal;font-size:11.2889px;font-family:'Nimbus Mono PS';-inkscape-font-specification:'Nimbus Mono PS Bold';opacity:1;fill:#ffffff;fill-opacity:1;stroke:#000000;stroke-width:0.264583"
       x="38.282681"
       y="-115.27789"
       id="text44"
       transform="rotate(108.2325)"><tspan
         sodipodi:role="line"
         id="tspan44"
         style="fill:#ffffff;fill-opacity:1;stroke-width:0.264583"
         x="38.282681"
         y="-115.27789">3</tspan></text>
    <text
       xml:space="preserve"
       style="font-style:normal;font-variant:normal;font-weight:bold;font-stretch:normal;font-size:11.2889px;font-family:'Nimbus Mono PS';-inkscape-font-specification:'Nimbus Mono PS Bold';opacity:1;fill:#ffffff;fill-opacity:1;stroke:#000000;stroke-width:0.264583"
       x="-9.3822699"
       y="-124.87914"
       id="text45"
       transform="rotate(139.92898)"><tspan
         sodipodi:role="line"
         id="tspan45"
         style="fill:#ffffff;fill-opacity:1;stroke-width:0.264583"
         x="-9.3822699"
         y="-124.87914">4</tspan></text>
    <text
       xml:space="preserve"
       style="font-style:normal;font-variant:normal;font-weight:bold;font-stretch:normal;font-size:11.2889px;font-family:'Nimbus Mono PS';-inkscape-font-specification:'Nimbus Mono PS Bold';opacity:1;fill:#ffffff;fill-opacity:1;stroke:#000000;stroke-width:0.264583"
       x="-67.392906"
       y="-98.808067"
       id="text46"
       transform="rotate(179.25723)"><tspan
         sodipodi:role="line"
         id="tspan46"
         style="fill:#ffffff;fill-opacity:1;stroke-width:0.264583"
         x="-67.392906"
         y="-98.808067">5</tspan></text>
    <text
       xml:space="preserve"
       style="font-style:normal;font-variant:normal;font-weight:bold;font-stretch:normal;font-size:11.2889px;font-family:'Nimbus Mono PS';-inkscape-font-specification:'Nimbus Mono PS Bold';opacity:1;fill:#ffffff;fill-opacity:1;stroke:#000000;stroke-width:0.264583"
       x="-82.734184"
       y="-64.657555"
       id="text47"
       transform="rotate(-156.42278)"><tspan
         sodipodi:role="line"
         id="tspan47"
         style="fill:#ffffff;fill-opacity:1;stroke-width:0.264583"
         x="-82.734184"
         y="-64.657555">6</tspan></text>
    <text
       xml:space="preserve"
       style="font-style:normal;font-variant:normal;font-weight:bold;font-stretch:normal;font-size:11.2889px;font-family:'Nimbus Mono PS';-inkscape-font-specification:'Nimbus Mono PS Bold';opacity:1;fill:#ffffff;fill-opacity:1;stroke:#000000;stroke-width:0.264583"
       x="-86.481125"
       y="12.446395"
       id="text48"
       transform="rotate(-106.72753)"><tspan
         sodipodi:role="line"
         id="tspan48"
         style="fill:#ffffff;fill-opacity:1;stroke-width:0.264583"
         x="-86.481125"
         y="12.446395">7</tspan></text>
    <text
       xml:space="preserve"
       style="font-style:normal;font-variant:normal;font-weight:bold;font-stretch:normal;font-size:11.2889px;font-family:'Nimbus Mono PS';-inkscape-font-specification:'Nimbus Mono PS Bold';opacity:1;fill:#ffffff;fill-opacity:1;stroke:#000000;stroke-width:0.264583"
       x="-47.526329"
       y="49.708916"
       id="text49"
       transform="rotate(-73.709684)"><tspan
         sodipodi:role="line"
         id="tspan49"
         style="fill:#ffffff;fill-opacity:1;stroke-width:0.264583"
         x="-47.526329"
         y="49.708916">8</tspan></text>
    <text
       xml:space="preserve"
       style="font-style:normal;font-variant:normal;font-weight:bold;font-stretch:normal;font-size:11.2889px;font-family:'Nimbus Mono PS';-inkscape-font-specification:'Nimbus Mono PS Bold';opacity:1;fill:#ffffff;fill-opacity:1;stroke:#000000;stroke-width:0.264583"
       x="1.4072832"
       y="61.517578"
       id="text50"
       transform="rotate(-45.736732)"><tspan
         sodipodi:role="line"
         id="tspan50"
         style="fill:#ffffff;fill-opacity:1;stroke-width:0.264583"
         x="1.4072832"
         y="61.517578">9</tspan></text>
  </g>
  <g
     inkscape:groupmode="layer"
     id="layer12"
     inkscape:label="Layer 3" />
  <g
     inkscape:groupmode="layer"
     id="layer2"
     inkscape:label="Layer 4">
    <ellipse
       style="fill:url(#radialGradient9);fill-opacity:1;stroke:none;stroke-width:0.200153;stroke-dasharray:none"
       id="ellipse4-5"
       cx="66.287178"
       cy="66.983612"
       rx="13.738853"
       ry="13.825875" />
    <g
       id="logo-bg"
       stroke="#0508a2"
       stroke-width="15"
       fill="#ffffff"
       transform="matrix(0.0399178,0,0,0.0399178,55.204893,57.031844)">
      <path
         d="M 516.55757,97.880248 C 527.50694,230.25012 491.58051,346.83904 409.93231,418.23121 327.48662,423.63554 284.68211,384.39623 256.48104,315.29438 373.28869,292.6356 482.59177,265.36936 516.55757,97.880248 Z"
         id="path10" />
      <path
         d="M 251.96361,312.16223 C 343.58182,281.10248 481.73932,190.0979 400.56564,42.824834 c 40.99918,14.61305 79.37759,31.46195 115.10839,57.973486 -37.21838,174.87036 -160.86349,195.29004 -263.71042,211.36391 z"
         id="path11" />
      <path
         d="M 23.363896,95.782512 C 120.38846,35.179676 252.37652,-13.372009 358.92221,33.908071 385.90077,81.085291 420.05615,160.15306 342.9564,217.50421 268.10387,90.93273 158.90361,66.640422 23.363896,95.782512 Z"
         id="path12" />
      <path
         d="M 36.396711,226.23918 C 19.790954,167.66381 23.100124,132.42055 25.290054,95.931481 236.42531,48.36279 305.8514,157.86264 339.6401,215.03688 218.14393,140.42305 100.51954,132.44005 36.396711,226.23918 Z"
         id="path13" />
      <path
         d="M 275.93221,526.84604 C 168.97259,476.94409 76.705078,396.56267 49.354673,270.45767 85.951874,198.92077 171.7639,153.74844 236.78128,137.08669 225.2344,201.76304 119.50529,382.60957 275.93221,526.84604 Z"
         id="path14" />
      <path
         d="M 274.50644,525.74429 C 118.4901,386.79297 217.71633,217.72176 236.20767,141.02297 c -8.02349,137.68426 -37.36435,299.54637 141.25694,310.37024 -26.71542,25.63295 -58.19163,50.73419 -102.95817,74.35108 z"
         id="path15" />
    </g>
  </g>
</svg>
