<?xml version="1.0" encoding="UTF-8" standalone="no"?>
<!-- Created with Inkscape (http://www.inkscape.org/) -->

<svg
   width="500"
   height="500"
   viewBox="0 0 132.29166 132.29167"
   version="1.1"
   id="svg1"
   inkscape:version="1.3 (0e150ed6c4, 2023-07-21)"
   sodipodi:docname="safe-500.svg"
   xmlns:inkscape="http://www.inkscape.org/namespaces/inkscape"
   xmlns:sodipodi="http://sodipodi.sourceforge.net/DTD/sodipodi-0.dtd"
   xmlns:xlink="http://www.w3.org/1999/xlink"
   xmlns="http://www.w3.org/2000/svg"
   xmlns:svg="http://www.w3.org/2000/svg">
  <sodipodi:namedview
     id="namedview1"
     pagecolor="#ffffff"
     bordercolor="#000000"
     borderopacity="0.25"
     inkscape:showpageshadow="2"
     inkscape:pageopacity="0.0"
     inkscape:pagecheckerboard="0"
     inkscape:deskcolor="#d1d1d1"
     inkscape:document-units="px"
     inkscape:zoom="1.4342733"
     inkscape:cx="210.21098"
     inkscape:cy="234.61358"
     inkscape:window-width="1920"
     inkscape:window-height="1014"
     inkscape:window-x="0"
     inkscape:window-y="31"
     inkscape:window-maximized="1"
     inkscape:current-layer="layer1"
     showgrid="false" />
  <defs
     id="defs1">
    <linearGradient
       id="linearGradient9"
       inkscape:collect="always">
      <stop
         style="stop-color:#2a0004;stop-opacity:1;"
         offset="0"
         id="stop11" />
      <stop
         style="stop-color:#9a0000;stop-opacity:1;"
         offset="1"
         id="stop12" />
    </linearGradient>
    <linearGradient
       id="linearGradient8"
       inkscape:collect="always">
      <stop
         style="stop-color:#111111;stop-opacity:1;"
         offset="0"
         id="stop7" />
      <stop
         style="stop-color:#860202;stop-opacity:1;"
         offset="1"
         id="stop8" />
    </linearGradient>
    <linearGradient
       id="linearGradient1"
       inkscape:collect="always">
      <stop
         style="stop-color:#888888;stop-opacity:1;"
         offset="0"
         id="stop1" />
      <stop
         style="stop-color:#eeeeee;stop-opacity:1;"
         offset="1"
         id="stop2" />
    </linearGradient>
    <radialGradient
       inkscape:collect="always"
       xlink:href="#linearGradient1"
       id="radialGradient2"
       cx="2.4655151"
       cy="27.805006"
       fx="2.4655151"
       fy="27.805006"
       r="66.145836"
       gradientUnits="userSpaceOnUse"
       gradientTransform="matrix(1.3219006,1.1744664,-0.64868394,0.73011514,15.910153,-8.8492692)" />
    <radialGradient
       inkscape:collect="always"
       xlink:href="#linearGradient1"
       id="radialGradient4"
       cx="79.044403"
       cy="34.182705"
       fx="79.044403"
       fy="34.182705"
       r="66.145836"
       gradientUnits="userSpaceOnUse"
       gradientTransform="matrix(-0.69305611,0.68813677,-0.85760927,-0.86374012,168.3095,27.569508)" />
    <radialGradient
       inkscape:collect="always"
       xlink:href="#linearGradient1"
       id="radialGradient5"
       gradientUnits="userSpaceOnUse"
       gradientTransform="matrix(1.1624673,1.137493,-0.43418379,0.44371651,17.671455,0.91799503)"
       cx="32.3041"
       cy="24.580799"
       fx="32.3041"
       fy="24.580799"
       r="66.145836" />
    <radialGradient
       inkscape:collect="always"
       xlink:href="#linearGradient1"
       id="radialGradient6"
       gradientUnits="userSpaceOnUse"
       gradientTransform="matrix(-0.63745538,0.63293069,-0.78880719,-0.79444619,160.11337,30.664311)"
       cx="81.510696"
       cy="58.372356"
       fx="81.510696"
       fy="58.372356"
       r="66.145836" />
    <linearGradient
       inkscape:collect="always"
       xlink:href="#linearGradient53"
       id="linearGradient7"
       x1="41.140133"
       y1="35.474354"
       x2="66.432274"
       y2="80.22641"
       gradientUnits="userSpaceOnUse"
       gradientTransform="matrix(1.076398,0,0,1.0696229,-5.0725734,-5.0659742)" />
    <linearGradient
       id="linearGradient53"
       inkscape:collect="always">
      <stop
         style="stop-color:#666666;stop-opacity:1;"
         offset="0"
         id="stop53" />
      <stop
         style="stop-color:#eeeeee;stop-opacity:1;"
         offset="1"
         id="stop54" />
    </linearGradient>
    <radialGradient
       inkscape:collect="always"
       xlink:href="#linearGradient10"
       id="radialGradient9"
       cx="60.91938"
       cy="65.751869"
       fx="60.91938"
       fy="65.751869"
       r="12.461447"
       gradientTransform="matrix(0.0961797,4.1203037,-5.9901956,0.11167528,447.43445,-197.46107)"
       gradientUnits="userSpaceOnUse" />
    <linearGradient
       id="linearGradient10"
       inkscape:collect="always">
      <stop
         style="stop-color:#111111;stop-opacity:1;"
         offset="0"
         id="stop9" />
      <stop
         style="stop-color:#777777;stop-opacity:1;"
         offset="1"
         id="stop10" />
    </linearGradient>
    <radialGradient
       inkscape:collect="always"
       xlink:href="#linearGradient10"
       id="radialGradient11"
       cx="57.708958"
       cy="52.08485"
       fx="57.708958"
       fy="52.08485"
       r="18.520834"
       gradientUnits="userSpaceOnUse"
       gradientTransform="matrix(-0.59731352,1.6174317,-5.2909605,-1.9539385,382.07479,74.832795)" />
    <radialGradient
       inkscape:collect="always"
       xlink:href="#linearGradient8"
       id="radialGradient7"
       cx="65.097267"
       cy="4.1554422"
       fx="65.097267"
       fy="4.1554422"
       r="1.0366619"
       gradientUnits="userSpaceOnUse"
       gradientTransform="matrix(0.69751233,1.3399212,-1.2187836,0.63445258,24.755702,-86.050289)" />
    <radialGradient
       inkscape:collect="always"
       xlink:href="#linearGradient9"
       id="radialGradient12"
       cx="44.970314"
       cy="56.302727"
       fx="44.970314"
       fy="56.302727"
       r="31.008862"
       gradientUnits="userSpaceOnUse"
       gradientTransform="matrix(0.6641718,2.247724,-1.8367451,0.54273301,117.93674,-81.024145)" />
    <filter
       inkscape:collect="always"
       style="color-interpolation-filters:sRGB"
       id="filter1"
       x="-0.21477768"
       y="-0.19669347"
       width="1.4295554"
       height="1.3933869">
      <feGaussianBlur
         inkscape:collect="always"
         stdDeviation="7.9209819"
         id="feGaussianBlur1" />
    </filter>
  </defs>
  <g
     inkscape:groupmode="layer"
     id="layer1"
     inkscape:label="blur">
    <rect
       style="fill:#444444;stroke:#000000;stroke-width:0.132292;filter:url(#filter1);fill-opacity:1"
       id="rect1"
       width="88.819763"
       height="96.985947"
       x="21.746786"
       y="18.357294" />
  </g>
  <g
     inkscape:label="Static 1"
     inkscape:groupmode="layer"
     id="static1">
    <circle
       style="fill:url(#radialGradient2);stroke:url(#radialGradient4);stroke-width:2.06726;stroke-dasharray:none"
       id="path1"
       cx="66.145836"
       cy="66.145836"
       r="64.601799" />
    <circle
       style="fill:url(#radialGradient5);stroke:url(#radialGradient6);stroke-width:0.775222;stroke-dasharray:none"
       id="circle4"
       cx="66.145836"
       cy="66.145836"
       r="59.419086" />
    <circle
       style="fill:url(#radialGradient12);fill-opacity:1;stroke:none;stroke-width:0.450324;stroke-dasharray:none"
       id="ellipse3"
       cx="66.145828"
       cy="66.145828"
       r="31.008862" />
    <circle
       style="fill:url(#linearGradient7);fill-opacity:1;stroke:none;stroke-width:0.412798;stroke-dasharray:none"
       id="ellipse4"
       cx="66.145836"
       cy="66.145836"
       r="28.424789" />
    <circle
       style="fill:#90000e;fill-opacity:1;stroke:url(#radialGradient7);stroke-width:0.264583;stroke-dasharray:none"
       id="circle1"
       cx="65.84919"
       cy="4.220922"
       r="1.0366619" />
  </g>
  <g
     inkscape:groupmode="layer"
     id="rotate1"
     inkscape:label="Rotate 1">
    <path
       id="path1-8"
       style="fill:#000000;fill-opacity:1;stroke:#e0000e;stroke-width:0.13229166;stroke-dasharray:none;stroke-opacity:1"
       d="m 67.129192,9.4565487 c -8.907362,0.0342 -11.276476,0.4548798 -19.544229,3.1247753 -4.511226,1.444505 -9.770269,3.789061 -15.889047,8.37599 -4.929891,3.468723 -8.831715,7.92273 -12.336884,12.784827 -3.849312,5.073177 -5.360244,9.851966 -7.257431,15.16398 -1.87746,5.619064 -2.7172574,12.068069 -2.6402021,17.999614 0.082508,2.812118 -0.099252,9.653052 3.0381121,17.700793 1.897166,5.095555 4.84246,10.40886 8.190434,15.493542 3.280645,5.10618 8.04854,8.88259 12.873131,12.50879 4.890201,3.65702 9.40307,5.65992 15.795115,7.64516 5.783613,1.78923 11.73397,2.60357 17.77555,2.58063 7.04485,-0.0331 13.112096,-1.5965 17.500035,-3.07467 5.445526,-1.88688 9.788643,-4.11406 15.569694,-8.47674 4.77957,-3.54832 8.60107,-8.01419 12.16611,-12.645957 3.74936,-4.79296 6.1146,-10.348634 7.9633,-16.097992 1.586,-5.406155 2.4503,-9.748953 2.50074,-17.588668 0.0542,-6.02444 -1.37113,-11.911346 -3.32957,-17.553955 -1.77414,-5.671019 -4.78703,-10.583747 -8.53426,-15.259035 C 107.76563,27.716343 105.1228,24.392032 97.745422,19.253201 92.706506,15.780968 88.677636,13.750784 82.655611,11.905712 76.036234,9.9169531 72.098067,9.5051545 67.129192,9.4565487 Z m -2.208714,1.6893133 0.143457,8.588294 c -3.314077,0.366364 -6.396287,2.77281 -6.679644,6.982647 -0.04748,3.33234 1.333975,5.552768 3.996174,7.167632 l 7.081534,0.01822 c 2.445386,-1.600045 4.273428,-3.906407 4.031456,-7.169908 -0.49735,-4.311434 -3.378301,-6.570341 -6.495198,-6.978664 l -0.152556,-8.523974 1.621805,-0.05749 -0.04835,4.332564 1.727116,0.04325 0.179888,-4.176042 1.708334,0.09106 -0.568689,4.254019 1.732811,0.263528 0.554455,-4.354763 1.614977,0.285725 -0.791262,4.189703 1.827877,0.383057 0.800372,-4.235239 1.5609,0.269221 -0.997333,4.186288 1.805669,0.490629 1.022955,-4.209055 1.048568,0.306216 c -0.87107,2.85238 -1.763919,5.698498 -2.648738,8.546745 l 1.836976,0.60788 2.52806,-8.175072 1.55862,0.451926 -1.555205,4.087819 1.782912,0.593651 1.474942,-3.910806 1.594476,0.619262 -1.869429,3.864704 1.563742,0.791723 1.887076,-3.963741 1.444771,0.775787 -2.060133,3.732655 1.616683,0.934587 2.083476,-3.772496 1.398659,0.743344 -2.255387,3.664922 1.562034,1.030209 2.286694,-3.679153 1.222192,0.838966 -4.963903,7.069163 1.562608,1.140628 4.908687,-7.009401 1.34514,0.907266 -2.730713,3.416193 1.514785,1.110463 2.601501,-3.272192 1.32864,1.078019 -2.962411,3.106561 1.246101,1.232266 3.00964,-3.195922 1.13851,1.18047 -3.10412,2.923289 1.25291,1.384233 3.1383,-2.95459 1.10435,1.136073 -3.26923,2.798639 1.13852,1.298289 3.33639,-2.642114 0.89828,1.162258 -0.0347,0.02788 -6.93295,5.231864 1.13736,1.565233 6.82423,-5.162993 1.00189,1.27609 -3.64892,2.412169 1.10093,1.522545 3.48101,-2.315406 0.93243,1.433184 -3.77303,2.047324 0.80778,1.555558 3.84589,-2.117903 0.72067,1.472458 -3.85157,1.8299 0.76734,1.702405 3.89428,-1.848115 0.70132,1.419524 -3.96997,1.660287 0.66659,1.747939 4.0047,-1.653456 0.50266,1.395049 -8.15743,2.844172 0.15655,0.47754 c -1.25329,-3.166818 -4.49484,-5.541236 -8.69593,-4.575605 -3.204318,0.917521 -4.931607,2.881742 -5.708482,5.896661 l 2.028825,6.78344 c 2.238654,1.878354 4.975117,2.961901 8.029897,1.787213 4.30536,-1.860711 5.51211,-5.693013 4.64627,-8.976476 l 0.14628,0.445095 8.07717,-2.828803 0.56355,1.521977 -4.21191,1.181038 0.58234,1.785505 4.02235,-1.13892 0.44916,1.650039 -4.18803,0.917513 0.26244,1.605074 4.30982,-0.839532 0.23511,1.622719 -4.22729,0.56235 0.21006,1.855511 4.27283,-0.567475 0.23395,1.566379 -4.28876,0.365406 0.1008,1.672245 4.3178,-0.152546 0.0483,1.391636 -8.47107,0.05232 -0.0239,1.934625 8.5576,-0.06378 0.0409,1.622154 -4.39692,-0.08371 0.002,1.716633 4.17434,0.223114 -0.10816,1.706391 -4.24893,-0.612435 -0.28176,1.729729 4.34852,0.599338 -0.3017,1.611338 -4.18174,-0.833844 -0.4019,1.823075 4.22671,0.845232 -0.28576,1.557257 -4.17548,-1.041021 -0.51006,1.800309 4.19884,1.0672 -0.4298,1.417817 -8.24053,-2.592032 -0.14004,0.417781 c 0.92818,-3.381731 -0.33524,-7.360355 -4.45442,-9.012335 -3.15491,-1.075197 -5.69435,-0.448278 -8.053229,1.584023 l -2.206435,6.728225 c 0.766001,2.819895 2.394656,5.271078 5.573584,6.049771 4.48545,0.906439 7.62086,-1.411693 8.85132,-4.487954 l -0.18557,0.554378 8.1671,2.557879 -0.45769,1.556694 -4.08326,-1.56979 -0.60001,1.780382 3.90623,1.488968 -0.6256,1.591986 -3.85783,-1.882837 -0.79753,1.560109 3.95689,1.901617 -0.78047,1.442291 -3.72633,-2.074079 -0.9404,1.612484 3.76562,2.097978 -0.74857,1.395622 -3.6569,-2.268742 -1.03661,1.557841 3.67169,2.300034 -0.83624,1.207786 -0.037,-0.02446 -7.08551,-5.024679 -1.14817,1.556696 6.98703,4.94158 -0.91365,1.340976 -3.40358,-2.746835 -1.11745,1.509453 3.25898,2.616492 -1.0833,1.32221 -3.09331,-2.97566 -1.23814,1.24023 3.18214,3.02404 -1.18576,1.13265 -2.90947,-3.11736 -1.39067,1.24592 2.93963,3.1521 -1.14079,1.0985 -2.784215,-3.28186 -1.464126,1.16453 2.787061,3.31602 -1.177208,0.901 -5.147201,-6.87051 c 2.616848,-2.2515 3.799043,-6.162807 1.416868,-9.824553 -1.962787,-2.69356 -4.401256,-3.640112 -7.499932,-3.333663 l -5.674325,4.235805 c -0.995064,2.747477 -1.072505,5.689231 1.080435,8.154021 2.888871,3.04676 6.40911,3.21865 9.114348,1.82877 l -0.03867,0.0278 5.139235,6.84206 -1.279689,0.9972 -2.399407,-3.65696 -1.526179,1.09509 2.302073,3.48905 -1.436807,0.92775 -2.033938,-3.78047 -1.558057,0.80197 2.103966,3.85333 -1.476079,0.71489 -1.814779,-3.85846 -1.705492,0.76157 1.833573,3.90056 -1.422564,0.6961 -1.645148,-3.97627 -1.751604,0.66082 1.63889,4.01041 -1.332631,0.47413 -2.713069,-8.14889 -1.847232,0.57657 2.713642,8.11587 -1.530155,0.54129 -1.120301,-4.22783 -1.794291,0.55722 1.082155,4.03716 -1.656526,0.42575 -0.734905,-4.22899 -1.731678,0.26866 0.777604,4.32004 -1.625794,0.21231 -0.503222,-4.23353 -1.858049,0.1827 0.507209,4.28021 -1.570009,0.21059 -0.304553,-4.29159 -1.694101,0.10189 0.111579,4.29386 -1.482347,0.0302 -0.08934,-8.63723 -0.27665,-0.002 c 3.36658,-0.29356 6.54447,-2.68561 6.859521,-6.9502 0.06928,-3.33196 -1.297898,-5.56161 -3.949489,-7.193816 l -7.080714,-0.06514 c -2.455788,1.584043 -4.299351,3.878706 -4.078705,7.143716 0.481807,4.43076 3.491739,6.7152 6.701831,7.05324 l -0.109829,-9.8e-4 0.09958,8.55642 -1.622368,0.0473 0.126937,-4.3024 -1.778351,-0.0843 -0.2055,4.17489 -1.70776,-0.1013 0.594871,-4.25061 -1.731103,-0.27491 -0.581212,4.35134 -1.613269,-0.2954 0.817447,-4.18515 -1.825598,-0.39388 -0.827129,4.23014 -1.559193,-0.27948 1.024092,-4.17946 -1.685565,-0.44852 -1.166403,4.14931 -1.407757,-0.42062 0.01201,-0.0427 2.581564,-8.29232 -1.836414,-0.60958 -2.533183,8.17335 -1.558046,-0.4525 1.45615,-4.10147 -1.681015,-0.58056 -1.477785,3.91024 -1.593342,-0.62041 1.871137,-3.86299 -1.563168,-0.79286 -1.889357,3.9626 -1.444197,-0.77636 2.062402,-3.73151 -1.616111,-0.9363 -2.086318,3.77194 -1.397524,-0.74449 2.257667,-3.66321 -1.561461,-1.03134 -2.289547,3.67744 -1.221626,-0.8401 4.968458,-7.06632 -0.11442,-0.0837 c 2.897011,1.60635 6.771086,1.43768 9.445083,-1.7912 1.986922,-2.675796 2.164608,-5.284864 0.948942,-8.151173 l -5.734572,-4.154423 c -2.919504,-0.131277 -5.751082,0.671438 -7.46293,3.460594 -2.163946,3.871928 -1.055001,7.460482 1.341741,9.599152 l -4.898442,6.98607 -1.344582,-0.90784 2.732998,-3.41447 -1.514226,-1.11161 -2.603771,3.27047 -1.327499,-1.07914 2.964109,-3.10429 -1.245529,-1.23285 -3.011928,3.19422 -1.137367,-1.1816 3.106422,-2.92102 -1.252358,-1.38538 -3.140581,2.95233 -1.103218,-1.13665 3.270943,-2.796367 -1.115743,-1.321626 -3.360312,2.662603 -0.873241,-1.13151 0.08823,-0.06827 6.990455,-5.154457 -1.119731,-1.578328 -6.880583,5.087867 -0.988223,-1.287475 3.592568,-2.432656 -1.001321,-1.473031 -3.506038,2.276134 -0.917074,-1.443427 3.795797,-2.005205 -0.790699,-1.564669 -3.868655,2.075212 -0.704733,-1.480423 3.871497,-1.786638 -0.748003,-1.710949 -3.914768,1.804855 -0.685377,-1.427486 3.988198,-1.615896 -0.647814,-1.755338 -4.022347,1.608496 -0.487283,-1.3996 8.188153,-2.75425 -0.05463,-0.173023 c 1.271328,3.10642 4.465654,5.419418 8.612261,4.494773 3.210255,-0.896569 4.950082,-2.849313 5.746632,-5.859093 L 34.58789,72.947058 c -2.226352,-1.892927 -4.95557,-2.994293 -8.01796,-1.839574 -4.223595,1.79272 -5.495032,5.491979 -4.757826,8.731152 l -0.126945,-0.401833 -8.107904,2.738302 -0.54648,-1.527673 4.225004,-1.133793 -0.562994,-1.792333 -4.034299,1.094527 -0.431498,-1.655162 4.227285,-0.747337 -0.273808,-1.731425 -4.318374,0.791724 -0.21745,-1.625005 4.232979,-0.516238 -0.188997,-1.857218 -4.279092,0.520797 -0.216316,-1.569791 4.29219,-0.317595 -0.07976,-1.703549 -4.32235,0.134892 -0.03415,-1.468472 0.04385,-0.0021 8.685692,-0.107609 0.01201,-1.934625 -8.557612,0.116683 -0.05067,-1.62159 4.369024,0.112697 0.01477,-1.772981 -4.175479,-0.196935 0.09738,-1.70695 4.357644,0.381918 0.166217,-1.527673 -4.352522,-0.572023 0.291464,-1.613612 4.186869,0.807658 0.391081,-1.825345 -4.232418,-0.818474 0.276088,-1.559543 4.182318,1.014842 0.467366,-1.683622 -4.174354,-1.159982 0.421814,-1.42123 8.17564,2.515757 c -0.946329,3.374008 0.292227,7.356352 4.3975,9.033962 3.147818,1.095772 5.691379,0.485187 8.063489,-1.531661 l 2.250265,-6.713425 C 35.609009,50.460753 33.9966,47.998834 30.822851,47.199395 26.63888,46.325412 23.614548,48.272073 22.21458,51.032794 l 0.114419,-0.348906 -8.182469,-2.50665 0.448,-1.559541 4.08668,1.438876 0.594873,-1.678499 -3.91533,-1.465059 0.615934,-1.595968 3.869217,1.859498 0.787849,-1.565234 -3.968845,-1.877142 0.771918,-1.446275 3.738856,2.05074 0.930733,-1.618737 -3.778712,-2.074075 0.739466,-1.400741 3.671121,2.246536 1.02637,-1.564665 -3.685353,-2.277272 0.661474,-0.967029 7.037127,5.025252 1.153879,-1.553849 -6.971098,-4.963783 0.917643,-1.338131 3.394462,2.758225 1.12257,-1.506039 -3.251013,-2.626746 1.087851,-1.31935 3.083651,2.986465 1.242114,-1.236819 -3.171887,-3.034275 1.189733,-1.128676 2.898654,3.126482 1.394671,-1.241372 -2.929948,-3.161771 1.145341,-1.094525 2.772831,3.290404 1.468114,-1.159409 -2.776257,-3.325125 1.179499,-0.897591 5.157445,6.930284 1.572852,-1.126398 -5.1176,-6.857999 1.283666,-0.993212 2.387456,3.664353 1.530154,-1.090541 -2.291818,-3.495876 1.440211,-0.922634 2.021424,3.786727 1.5609,-0.796847 -2.091441,-3.859582 1.478359,-0.710901 1.802827,3.864135 1.7072,-0.755865 -1.821047,-3.906253 1.424843,-0.692119 1.633195,3.981386 1.752729,-0.655121 -1.626355,-4.014967 1.385561,-0.488352 0.01597,0.04155 2.794478,8.222881 1.84267,-0.587957 -2.763159,-8.098233 1.526167,-0.551531 1.147049,4.220438 1.790313,-0.568038 -1.106632,-4.030334 1.653112,-0.435987 0.761101,4.223854 1.730531,-0.278898 -0.804921,-4.315491 1.624647,-0.222546 0.529406,4.230682 1.856915,-0.194657 -0.533394,-4.276787 1.568291,-0.22084 0.331309,4.289878 1.869428,-0.0848 -0.314224,-4.320613 z M 43.284236,27.127179 c -5.360188,0.0043 -9.963198,6.107496 -6.389886,11.679487 1.945151,2.706326 4.377133,3.669395 7.477736,3.383181 l 5.701656,-4.198811 c 1.012987,-2.74091 1.10986,-5.682054 -1.026933,-8.16084 -1.785741,-1.908156 -3.823777,-2.704563 -5.762573,-2.703017 z m 44.925034,0.03927 c -2.013328,0.01214 -4.063338,0.859537 -5.667508,2.822542 -1.969406,2.688724 -2.130359,5.299126 -0.89601,8.157428 l 5.762,4.116279 c 2.92031,0.112215 5.746567,-0.708701 7.440161,-3.508969 C 98.257347,32.55857 93.35442,27.13544 88.20927,27.166449 Z"
       sodipodi:nodetypes="cccccccccccccccccccccccccccccccccccccccccccccccccccccccccccccccccccccccccccccccccccccccccccccccccccccccccccccccccccccccccccccccccccccccccccccccccccccccccccccccccccccccccccccccccccccccccccccccccccccccccccccccccccccccccccccccccccccccccccccccccccccccccccccccccccccccccccccccccccccccccccccccccccccccccccccccccccccccccccccccccccccccccccccccccccccccccccccccccccccccccccccccccccccccccccccccccccccccccccccccccccccccccccccccccccccccccccccccccccccccccccccccccccccccccccccccccccccccccccccsccccs" />
    <text
       xml:space="preserve"
       style="font-weight:bold;font-size:12.4035px;font-family:'Nimbus Mono PS';-inkscape-font-specification:'Nimbus Mono PS Bold';fill:#f9f9f9;stroke-width:0.775222;stroke-dasharray:none"
       x="85.459526"
       y="101.44629"
       id="text15"><tspan
         sodipodi:role="line"
         id="number4"
         style="stroke-width:0.775222"
         x="85.459526"
         y="101.44629">4</tspan></text>
    <text
       xml:space="preserve"
       style="font-weight:bold;font-size:12.4035px;font-family:'Nimbus Mono PS';-inkscape-font-specification:'Nimbus Mono PS Bold';fill:#f9f9f9;stroke-width:0.775222;stroke-dasharray:none"
       x="24.098063"
       y="57.938969"
       id="text19"><tspan
         sodipodi:role="line"
         id="number8"
         style="stroke-width:0.775222"
         x="24.098063"
         y="57.938969">8</tspan></text>
    <text
       xml:space="preserve"
       style="font-weight:bold;font-size:12.4035px;font-family:'Nimbus Mono PS';-inkscape-font-specification:'Nimbus Mono PS Bold';fill:#f9f9f9;stroke-width:0.775222;stroke-dasharray:none"
       x="39.019253"
       y="38.047783"
       id="text20"><tspan
         sodipodi:role="line"
         id="number9"
         style="stroke-width:0.775222"
         x="39.019253"
         y="38.047783">9</tspan></text>
    <text
       xml:space="preserve"
       style="font-weight:bold;font-size:12.4035px;font-family:'Nimbus Mono PS';-inkscape-font-specification:'Nimbus Mono PS Bold';fill:#f9f9f9;stroke-width:0.775222;stroke-dasharray:none"
       x="25.441723"
       y="81.890739"
       id="text18"><tspan
         sodipodi:role="line"
         id="number7"
         style="stroke-width:0.775222"
         x="25.441723"
         y="81.890739">7</tspan></text>
    <text
       xml:space="preserve"
       style="font-weight:bold;font-size:12.4035px;font-family:'Nimbus Mono PS';-inkscape-font-specification:'Nimbus Mono PS Bold';fill:#f9f9f9;stroke-width:0.775222;stroke-dasharray:none"
       x="37.901173"
       y="101.60258"
       id="text17"><tspan
         sodipodi:role="line"
         id="number6"
         style="stroke-width:0.775222"
         x="37.901173"
         y="101.60258">6</tspan></text>
    <text
       xml:space="preserve"
       style="font-weight:bold;font-size:12.4035px;font-family:'Nimbus Mono PS';-inkscape-font-specification:'Nimbus Mono PS Bold';fill:#f9f9f9;stroke-width:0.775222;stroke-dasharray:none"
       x="62.158016"
       y="108.96171"
       id="text16"><tspan
         sodipodi:role="line"
         id="number5"
         style="stroke-width:0.775222"
         x="62.158016"
         y="108.96171">5</tspan></text>
    <text
       xml:space="preserve"
       style="font-weight:bold;font-size:12.4035px;font-family:'Nimbus Mono PS';-inkscape-font-specification:'Nimbus Mono PS Bold';fill:#f9f9f9;stroke-width:0.775222;stroke-dasharray:none"
       x="99.332573"
       y="81.499825"
       id="text14"><tspan
         sodipodi:role="line"
         id="number3"
         style="stroke-width:0.775222"
         x="99.332573"
         y="81.499825">3</tspan></text>
    <text
       xml:space="preserve"
       style="font-weight:bold;font-size:12.4035px;font-family:'Nimbus Mono PS';-inkscape-font-specification:'Nimbus Mono PS Bold';fill:#f9f9f9;stroke-width:0.775222;stroke-dasharray:none"
       x="99.91716"
       y="57.870674"
       id="text13"><tspan
         sodipodi:role="line"
         id="number2"
         style="stroke-width:0.775222"
         x="99.91716"
         y="57.870674">2</tspan></text>
    <text
       xml:space="preserve"
       style="font-weight:bold;font-size:12.4035px;font-family:'Nimbus Mono PS';-inkscape-font-specification:'Nimbus Mono PS Bold';fill:#f9f9f9;stroke-width:0.775222;stroke-dasharray:none"
       x="85.186913"
       y="37.634449"
       id="text12"><tspan
         sodipodi:role="line"
         id="number1"
         style="stroke-width:0.775222"
         x="85.186913"
         y="37.634449">1</tspan></text>
    <text
       xml:space="preserve"
       style="font-weight:bold;font-size:12.4035px;font-family:'Nimbus Mono PS';-inkscape-font-specification:'Nimbus Mono PS Bold';fill:#f9f9f9;stroke-width:0.775222;stroke-dasharray:none"
       x="62.210594"
       y="30.4842"
       id="text11"><tspan
         sodipodi:role="line"
         id="number0"
         style="font-size:12.4035px;fill:#f9f9f9;stroke-width:0.775222"
         x="62.210594"
         y="30.4842">0</tspan></text>
    <path
       sodipodi:type="star"
       style="fill:#1a1a1a;stroke-width:0.79375;stroke-dasharray:none"
       id="path6"
       inkscape:flatsided="false"
       sodipodi:sides="20"
       sodipodi:cx="54.975971"
       sodipodi:cy="53.198006"
       sodipodi:r1="22.070309"
       sodipodi:r2="20.525387"
       sodipodi:arg1="0.86717788"
       sodipodi:arg2="1.0242575"
       inkscape:rounded="0"
       inkscape:randomized="0"
       d="m 69.255042,70.026751 -3.611342,0.706678 -2.287894,2.88214 -3.652966,-0.443875 -3.066546,2.03408 -3.337012,-1.550979 -3.545025,0.98691 -2.694408,-2.506262 -3.67649,-0.156866 -1.788057,-3.216215 -3.448076,-1.285286 -0.706678,-3.611342 -2.88214,-2.287894 0.443875,-3.652966 -2.03408,-3.066546 1.550979,-3.337012 -0.98691,-3.545024 2.506262,-2.694408 0.156866,-3.676491 3.216215,-1.788057 1.285286,-3.448076 3.611342,-0.706678 2.287894,-2.88214 3.652965,0.443876 3.066547,-2.03408 3.337012,1.550979 3.545024,-0.98691 2.694408,2.506262 3.676491,0.156865 1.788057,3.216215 3.448076,1.285286 0.706678,3.611342 2.88214,2.287894 -0.443876,3.652966 2.03408,3.066546 -1.550979,3.337012 0.98691,3.545025 -2.506262,2.694408 -0.156865,3.67649 -3.216215,1.788057 z"
       transform="matrix(0.93933077,0,0,0.93933077,14.505211,16.175308)" />
  </g>
  <g
     inkscape:groupmode="layer"
     id="layer4"
     inkscape:label="Static 2">
    <circle
       style="fill:url(#radialGradient9);fill-opacity:1;stroke:url(#radialGradient11);stroke-width:0.704746;stroke-dasharray:none"
       id="ellipse4-5"
       cx="66.145836"
       cy="66.145836"
       r="16.444094" />
  </g>
  <g
     inkscape:groupmode="layer"
     id="rotate2"
     inkscape:label="Logo">
    <g
       id="logo-bg"
       stroke="#0508a2"
       stroke-width="15"
       fill="#ffffff"
       transform="matrix(0.04612016,0,0,0.0443047,53.654038,54.078128)"
       style="stroke:#000000;stroke-opacity:1">
      <path
         d="M 516.55757,97.880248 C 527.50694,230.25012 491.58051,346.83904 409.93231,418.23121 327.48662,423.63554 284.68211,384.39623 256.48104,315.29438 373.28869,292.6356 482.59177,265.36936 516.55757,97.880248 Z"
         id="path10"
         style="stroke:#000000;stroke-opacity:1" />
      <path
         d="M 251.96361,312.16223 C 343.58182,281.10248 481.73932,190.0979 400.56564,42.824834 c 40.99918,14.61305 79.37759,31.46195 115.10839,57.973486 -37.21838,174.87036 -160.86349,195.29004 -263.71042,211.36391 z"
         id="path11"
         style="stroke:#000000;stroke-opacity:1" />
      <path
         d="M 23.363896,95.782512 C 120.38846,35.179676 252.37652,-13.372009 358.92221,33.908071 385.90077,81.085291 420.05615,160.15306 342.9564,217.50421 268.10387,90.93273 158.90361,66.640422 23.363896,95.782512 Z"
         id="path12"
         style="stroke:#000000;stroke-opacity:1" />
      <path
         d="M 36.396711,226.23918 C 19.790954,167.66381 23.100124,132.42055 25.290054,95.931481 236.42531,48.36279 305.8514,157.86264 339.6401,215.03688 218.14393,140.42305 100.51954,132.44005 36.396711,226.23918 Z"
         id="path13"
         style="stroke:#000000;stroke-opacity:1" />
      <path
         d="M 275.93221,526.84604 C 168.97259,476.94409 76.705078,396.56267 49.354673,270.45767 85.951874,198.92077 171.7639,153.74844 236.78128,137.08669 225.2344,201.76304 119.50529,382.60957 275.93221,526.84604 Z"
         id="path14"
         style="stroke:#000000;stroke-opacity:1" />
      <path
         d="M 274.50644,525.74429 C 118.4901,386.79297 217.71633,217.72176 236.20767,141.02297 c -8.02349,137.68426 -37.36435,299.54637 141.25694,310.37024 -26.71542,25.63295 -58.19163,50.73419 -102.95817,74.35108 z"
         id="path15"
         style="stroke:#000000;stroke-opacity:1" />
    </g>
  </g>
  <g
     inkscape:groupmode="layer"
     id="numbers"
     inkscape:label="Layer 5"
     transform="translate(122.27645,1.3803427)" />
</svg>
