<?xml version="1.0" encoding="UTF-8" standalone="no"?>
<svg
   width="500"
   zoomAndPan="magnify"
   viewBox="0 0 375 374.999991"
   height="500"
   preserveAspectRatio="xMidYMid meet"
   version="1.0"
   id="svg19"
   sodipodi:docname="spa-blu-3.svg"
   inkscape:version="1.3 (0e150ed6c4, 2023-07-21)"
   xmlns:inkscape="http://www.inkscape.org/namespaces/inkscape"
   xmlns:sodipodi="http://sodipodi.sourceforge.net/DTD/sodipodi-0.dtd"
   xmlns="http://www.w3.org/2000/svg"
   xmlns:svg="http://www.w3.org/2000/svg">
  <sodipodi:namedview
     id="namedview19"
     pagecolor="#ffffff"
     bordercolor="#000000"
     borderopacity="0.25"
     inkscape:showpageshadow="2"
     inkscape:pageopacity="0.0"
     inkscape:pagecheckerboard="0"
     inkscape:deskcolor="#d1d1d1"
     inkscape:zoom="1.61"
     inkscape:cx="250"
     inkscape:cy="250"
     inkscape:window-width="1920"
     inkscape:window-height="1014"
     inkscape:window-x="0"
     inkscape:window-y="31"
     inkscape:window-maximized="1"
     inkscape:current-layer="svg19" />
  <defs
     id="defs8">
    <clipPath
       id="0ed03b2736">
      <path
         d="M 21.363281 27.773438 L 352.863281 27.773438 L 352.863281 359.273438 L 21.363281 359.273438 Z M 21.363281 27.773438 "
         clip-rule="nonzero"
         id="path1" />
    </clipPath>
    <clipPath
       id="659408ef7d">
      <path
         d="M 187.113281 27.773438 C 95.570312 27.773438 21.363281 101.984375 21.363281 193.523438 C 21.363281 285.066406 95.570312 359.273438 187.113281 359.273438 C 278.652344 359.273438 352.863281 285.066406 352.863281 193.523438 C 352.863281 101.984375 278.652344 27.773438 187.113281 27.773438 Z M 187.113281 27.773438 "
         clip-rule="nonzero"
         id="path2" />
    </clipPath>
    <clipPath
       id="4bc724f270">
      <path
         d="M 37.5 43.910156 L 337.097656 43.910156 L 337.097656 343.511719 L 37.5 343.511719 Z M 37.5 43.910156 "
         clip-rule="nonzero"
         id="path3" />
    </clipPath>
    <clipPath
       id="bee8e9b27a">
      <path
         d="M 187.300781 43.910156 C 104.566406 43.910156 37.5 110.980469 37.5 193.710938 C 37.5 276.445312 104.566406 343.511719 187.300781 343.511719 C 270.03125 343.511719 337.097656 276.445312 337.097656 193.710938 C 337.097656 110.980469 270.03125 43.910156 187.300781 43.910156 Z M 187.300781 43.910156 "
         clip-rule="nonzero"
         id="path4" />
    </clipPath>
    <clipPath
       id="1346bef084">
      <path
         d="M 37.5 43.910156 L 336.75 43.910156 L 336.75 343.160156 L 37.5 343.160156 Z M 37.5 43.910156 "
         clip-rule="nonzero"
         id="path5" />
    </clipPath>
    <clipPath
       id="cce2e9df8e">
      <path
         d="M 187.125 43.910156 C 104.488281 43.910156 37.5 110.902344 37.5 193.535156 C 37.5 276.171875 104.488281 343.160156 187.125 343.160156 C 269.761719 343.160156 336.75 276.171875 336.75 193.535156 C 336.75 110.902344 269.761719 43.910156 187.125 43.910156 Z M 187.125 43.910156 "
         clip-rule="nonzero"
         id="path6" />
    </clipPath>
    <clipPath
       id="edc06c4b7e">
      <path
         d="M 175 171 L 271.542969 171 L 271.542969 281.230469 L 175 281.230469 Z M 175 171 "
         clip-rule="nonzero"
         id="path7" />
    </clipPath>
    <clipPath
       id="ff913af7d9">
      <path
         d="M 103.542969 106.480469 L 227 106.480469 L 227 268 L 103.542969 268 Z M 103.542969 106.480469 "
         clip-rule="nonzero"
         id="path8" />
    </clipPath>
  </defs>
  <g
     clip-path="url(#0ed03b2736)"
     id="g10">
    <g
       clip-path="url(#659408ef7d)"
       id="g9">
      <path
         stroke-linecap="butt"
         transform="matrix(0.749179, 0, 0, 0.749179, 21.362708, 27.774569)"
         fill="none"
         stroke-linejoin="miter"
         d="M 221.24295 -0.0015105 C 99.051901 -0.0015105 0.000765629 99.054839 0.000765629 221.240674 C 0.000765629 343.431723 99.051901 442.482858 221.24295 442.482858 C 343.428785 442.482858 442.485135 343.431723 442.485135 221.240674 C 442.485135 99.054839 343.428785 -0.0015105 221.24295 -0.0015105 Z M 221.24295 -0.0015105 "
         stroke="#000000"
         stroke-width="16"
         stroke-opacity="1"
         stroke-miterlimit="4"
         id="path9" />
    </g>
  </g>
  <g
     clip-path="url(#4bc724f270)"
     id="g12">
    <g
       clip-path="url(#bee8e9b27a)"
       id="g11">
      <path
         fill="#1d319b"
         d="M 37.5 43.910156 L 337.097656 43.910156 L 337.097656 343.511719 L 37.5 343.511719 Z M 37.5 43.910156 "
         fill-opacity="1"
         fill-rule="nonzero"
         id="path10" />
    </g>
  </g>
  <g
     clip-path="url(#1346bef084)"
     id="g14">
    <g
       clip-path="url(#cce2e9df8e)"
       id="g13">
      <path
         stroke-linecap="butt"
         transform="matrix(0.749149, 0, 0, 0.749149, 37.500002, 43.911859)"
         fill="none"
         stroke-linejoin="miter"
         d="M 199.72658 -0.00227253 C 89.419149 -0.00227253 -0.00000271975 89.422093 -0.00000271975 199.72431 C -0.00000271975 310.031742 89.419149 399.450893 199.72658 399.450893 C 310.034012 399.450893 399.453163 310.031742 399.453163 199.72431 C 399.453163 89.422093 310.034012 -0.00227253 199.72658 -0.00227253 Z M 199.72658 -0.00227253 "
         stroke="#000000"
         stroke-width="8"
         stroke-opacity="1"
         stroke-miterlimit="4"
         id="path12" />
    </g>
  </g>
  <g
     clip-path="url(#edc06c4b7e)"
     id="g15">
    <path
       fill="#ffffff"
       d="M 223.011719 201.820312 C 229.542969 201.820312 234.835938 207.359375 234.835938 214.191406 C 234.835938 218.289062 232.890625 222.105469 229.652344 224.414062 L 233.183594 239.542969 C 233.464844 241.195312 232.246094 242.578125 231.058594 242.578125 L 214.953125 242.578125 C 213.78125 242.578125 212.558594 241.195312 212.839844 239.542969 L 216.375 224.425781 C 213.128906 222.132812 211.179688 218.289062 211.179688 214.191406 C 211.179688 207.359375 216.476562 201.820312 223.011719 201.820312 Z M 223.011719 171.988281 L 175.007812 188.691406 L 175.007812 206.824219 C 175.007812 243.789062 194.269531 266.050781 223.011719 281.277344 C 251.734375 266.050781 271.011719 243.789062 271.011719 206.824219 L 271.011719 188.691406 Z M 223.011719 171.988281 "
       fill-opacity="1"
       fill-rule="nonzero"
       id="path14" />
  </g>
  <g
     clip-path="url(#ff913af7d9)"
     id="g16">
    <path
       fill="#ffffff"
       d="M 143.839844 113.25 L 198.546875 113.25 C 201.933594 113.25 204.585938 115.867188 204.585938 119.265625 L 204.585938 121.535156 L 158.90625 121.535156 C 156.488281 121.535156 154.582031 121.464844 152.898438 121.511719 C 151.210938 121.570312 149.757812 121.746094 148.257812 122.246094 C 145.246094 123.222656 143.175781 125.363281 140.238281 128.753906 L 123.308594 148.257812 C 119.777344 152.332031 118.996094 156.757812 118.996094 162.457031 L 118.996094 245.3125 L 116.703125 245.3125 C 113.3125 245.3125 110.695312 242.695312 110.695312 239.296875 L 110.695312 147.410156 C 110.695312 142.089844 110.835938 140.519531 113.34375 137.632812 L 130.261719 118.125 C 134.65625 113.070312 139.050781 113.25 143.839844 113.25 Z M 137.828125 106.476562 C 132.25 106.476562 128.027344 110.394531 125.15625 113.710938 L 108.253906 133.207031 C 104.707031 137.28125 103.929688 141.703125 103.929688 147.40625 L 103.929688 239.296875 C 103.929688 246.3125 109.6875 252.078125 116.707031 252.078125 L 119 252.078125 L 119 254.335938 C 119 261.363281 124.753906 267.125 131.765625 267.125 L 191.730469 267.125 L 185.246094 260.375 L 131.761719 260.375 C 128.375 260.375 125.75 257.746094 125.75 254.335938 L 125.769531 161.226562 L 147.933594 161.226562 C 153.546875 161.226562 158.175781 156.59375 158.175781 150.957031 L 158.175781 138.0625 C 158.210938 136.15625 156.652344 134.597656 154.746094 134.628906 C 152.886719 134.652344 151.398438 136.1875 151.417969 138.0625 L 151.417969 150.957031 C 151.417969 152.960938 149.929688 154.476562 147.933594 154.476562 L 127.761719 154.476562 C 127.761719 153.753906 127.84375 153.335938 128.402344 152.695312 L 145.328125 133.179688 C 148.128906 129.945312 149.199219 129.058594 150.359375 128.675781 C 151.535156 128.300781 153.929688 128.300781 158.90625 128.300781 L 213.628906 128.300781 C 217.011719 128.300781 219.636719 130.933594 219.636719 134.328125 L 219.636719 165.84375 L 226.382812 165.84375 L 226.382812 134.324219 C 226.382812 127.308594 220.636719 121.53125 213.628906 121.53125 L 211.3125 121.53125 L 211.3125 119.265625 C 211.3125 112.246094 205.558594 106.480469 198.546875 106.480469 Z M 137.828125 106.476562 "
       fill-opacity="1"
       fill-rule="evenodd"
       id="path15" />
  </g>
  <path
     fill="#ffffff"
     d="M 143.203125 191.996094 C 141.757812 191.949219 140.574219 193.089844 140.574219 194.53125 C 140.574219 195.976562 141.753906 197.113281 143.203125 197.070312 L 165.046875 197.070312 C 166.488281 197.113281 167.671875 195.976562 167.671875 194.53125 C 167.671875 193.089844 166.488281 191.949219 165.046875 191.996094 Z M 143.203125 191.996094 "
     fill-opacity="1"
     fill-rule="nonzero"
     id="path16" />
  <path
     fill="#ffffff"
     d="M 142.957031 210.839844 C 139.585938 211.003906 139.828125 216.066406 143.203125 215.902344 L 165.046875 215.902344 C 166.488281 215.960938 167.683594 214.808594 167.683594 213.375 C 167.683594 211.933594 166.484375 210.78125 165.046875 210.839844 L 143.203125 210.839844 C 143.117188 210.839844 143.035156 210.839844 142.957031 210.839844 Z M 142.957031 210.839844 "
     fill-opacity="1"
     fill-rule="nonzero"
     id="path17" />
  <path
     fill="#ffffff"
     d="M 142.957031 229.683594 C 139.585938 229.847656 139.828125 234.910156 143.203125 234.746094 L 165.046875 234.746094 C 166.488281 234.792969 167.671875 233.648438 167.671875 232.207031 C 167.671875 230.777344 166.488281 229.625 165.046875 229.683594 L 143.203125 229.683594 C 143.117188 229.667969 143.035156 229.667969 142.957031 229.683594 Z M 142.957031 229.683594 "
     fill-opacity="1"
     fill-rule="nonzero"
     id="path18" />
  <path
     fill="#ffffff"
     d="M 143.203125 173.164062 C 139.816406 173.164062 139.816406 178.242188 143.203125 178.242188 L 176.042969 178.242188 C 179.425781 178.242188 179.425781 173.164062 176.042969 173.164062 Z M 143.203125 173.164062 "
     fill-opacity="1"
     fill-rule="nonzero"
     id="path19" />
</svg>
