<?xml version="1.0" encoding="UTF-8" standalone="no"?>
<svg
   width="500"
   zoomAndPan="magnify"
   viewBox="0 0 375 374.999991"
   height="500"
   preserveAspectRatio="xMidYMid meet"
   version="1.0"
   id="svg14"
   sodipodi:docname="spa-blu-2.svg"
   inkscape:version="1.3 (0e150ed6c4, 2023-07-21)"
   xmlns:inkscape="http://www.inkscape.org/namespaces/inkscape"
   xmlns:sodipodi="http://sodipodi.sourceforge.net/DTD/sodipodi-0.dtd"
   xmlns="http://www.w3.org/2000/svg"
   xmlns:svg="http://www.w3.org/2000/svg">
  <sodipodi:namedview
     id="namedview14"
     pagecolor="#ffffff"
     bordercolor="#000000"
     borderopacity="0.25"
     inkscape:showpageshadow="2"
     inkscape:pageopacity="0.0"
     inkscape:pagecheckerboard="0"
     inkscape:deskcolor="#d1d1d1"
     inkscape:zoom="1.61"
     inkscape:cx="250"
     inkscape:cy="250"
     inkscape:window-width="1920"
     inkscape:window-height="1014"
     inkscape:window-x="0"
     inkscape:window-y="31"
     inkscape:window-maximized="1"
     inkscape:current-layer="svg14" />
  <defs
     id="defs7">
    <clipPath
       id="7651727d90">
      <path
         d="M 21.363281 27.773438 L 352.863281 27.773438 L 352.863281 359.273438 L 21.363281 359.273438 Z M 21.363281 27.773438 "
         clip-rule="nonzero"
         id="path1" />
    </clipPath>
    <clipPath
       id="0c0f937b78">
      <path
         d="M 187.113281 27.773438 C 95.570312 27.773438 21.363281 101.984375 21.363281 193.523438 C 21.363281 285.066406 95.570312 359.273438 187.113281 359.273438 C 278.652344 359.273438 352.863281 285.066406 352.863281 193.523438 C 352.863281 101.984375 278.652344 27.773438 187.113281 27.773438 Z M 187.113281 27.773438 "
         clip-rule="nonzero"
         id="path2" />
    </clipPath>
    <clipPath
       id="282a48b5b4">
      <path
         d="M 37.5 43.910156 L 337.097656 43.910156 L 337.097656 343.511719 L 37.5 343.511719 Z M 37.5 43.910156 "
         clip-rule="nonzero"
         id="path3" />
    </clipPath>
    <clipPath
       id="aec6e4c2bb">
      <path
         d="M 187.300781 43.910156 C 104.566406 43.910156 37.5 110.980469 37.5 193.710938 C 37.5 276.445312 104.566406 343.511719 187.300781 343.511719 C 270.03125 343.511719 337.097656 276.445312 337.097656 193.710938 C 337.097656 110.980469 270.03125 43.910156 187.300781 43.910156 Z M 187.300781 43.910156 "
         clip-rule="nonzero"
         id="path4" />
    </clipPath>
    <clipPath
       id="d1c611b0b6">
      <path
         d="M 37.5 43.910156 L 336.75 43.910156 L 336.75 343.160156 L 37.5 343.160156 Z M 37.5 43.910156 "
         clip-rule="nonzero"
         id="path5" />
    </clipPath>
    <clipPath
       id="2638bb9ac2">
      <path
         d="M 187.125 43.910156 C 104.488281 43.910156 37.5 110.902344 37.5 193.535156 C 37.5 276.171875 104.488281 343.160156 187.125 343.160156 C 269.761719 343.160156 336.75 276.171875 336.75 193.535156 C 336.75 110.902344 269.761719 43.910156 187.125 43.910156 Z M 187.125 43.910156 "
         clip-rule="nonzero"
         id="path6" />
    </clipPath>
    <clipPath
       id="3f34d80802">
      <path
         d="M 120.695312 112.5 L 270.695312 112.5 L 270.695312 262.5 L 120.695312 262.5 Z M 120.695312 112.5 "
         clip-rule="nonzero"
         id="path7" />
    </clipPath>
  </defs>
  <g
     clip-path="url(#7651727d90)"
     id="g9">
    <g
       clip-path="url(#0c0f937b78)"
       id="g8">
      <path
         stroke-linecap="butt"
         transform="matrix(0.749179, 0, 0, 0.749179, 21.362708, 27.77449)"
         fill="none"
         stroke-linejoin="miter"
         d="M 221.24295 -0.00140543 C 99.051901 -0.00140543 0.000765629 99.054944 0.000765629 221.240779 C 0.000765629 343.431828 99.051901 442.482963 221.24295 442.482963 C 343.428785 442.482963 442.485135 343.431828 442.485135 221.240779 C 442.485135 99.054944 343.428785 -0.00140543 221.24295 -0.00140543 Z M 221.24295 -0.00140543 "
         stroke="#000000"
         stroke-width="16"
         stroke-opacity="1"
         stroke-miterlimit="4"
         id="path8" />
    </g>
  </g>
  <g
     clip-path="url(#282a48b5b4)"
     id="g11">
    <g
       clip-path="url(#aec6e4c2bb)"
       id="g10">
      <path
         fill="#1d319b"
         d="M 37.5 43.910156 L 337.097656 43.910156 L 337.097656 343.511719 L 37.5 343.511719 Z M 37.5 43.910156 "
         fill-opacity="1"
         fill-rule="nonzero"
         id="path9" />
    </g>
  </g>
  <g
     clip-path="url(#d1c611b0b6)"
     id="g13">
    <g
       clip-path="url(#2638bb9ac2)"
       id="g12">
      <path
         stroke-linecap="butt"
         transform="matrix(0.749149, 0, 0, 0.749149, 37.500002, 43.911794)"
         fill="none"
         stroke-linejoin="miter"
         d="M 199.72658 -0.00218604 C 89.419149 -0.00218604 -0.00000271975 89.422179 -0.00000271975 199.724397 C -0.00000271975 310.031829 89.419149 399.45098 199.72658 399.45098 C 310.034012 399.45098 399.453163 310.031829 399.453163 199.724397 C 399.453163 89.422179 310.034012 -0.00218604 199.72658 -0.00218604 Z M 199.72658 -0.00218604 "
         stroke="#000000"
         stroke-width="8"
         stroke-opacity="1"
         stroke-miterlimit="4"
         id="path11" />
    </g>
  </g>
  <g
     clip-path="url(#3f34d80802)"
     id="g14">
    <path
       fill="#ffffff"
       d="M 120.695312 129.3125 C 120.695312 125.203125 126.660156 121.195312 136.300781 118.050781 C 146.796875 114.617188 161.355469 112.5 177.492188 112.5 C 193.625 112.5 208.183594 114.617188 218.679688 118.050781 C 228.320312 121.199219 234.285156 125.203125 234.285156 129.3125 C 234.285156 133.421875 228.320312 137.421875 218.679688 140.574219 C 208.183594 144 193.625 146.121094 177.492188 146.121094 C 161.355469 146.121094 146.796875 144 136.300781 140.574219 C 126.660156 137.421875 120.695312 133.421875 120.695312 129.3125 Z M 136.300781 179.367188 C 146.796875 182.792969 161.355469 184.917969 177.492188 184.917969 C 193.625 184.917969 208.183594 182.792969 218.679688 179.367188 C 228.320312 176.214844 234.285156 172.210938 234.285156 168.105469 L 234.285156 139.6875 C 234.285156 139.183594 233.714844 138.898438 233.308594 139.199219 C 230.0625 141.609375 225.628906 143.730469 220.273438 145.480469 C 209.28125 149.074219 194.148438 151.292969 177.492188 151.292969 C 160.832031 151.292969 145.703125 149.074219 134.707031 145.480469 C 129.351562 143.730469 124.917969 141.609375 121.671875 139.199219 C 121.265625 138.898438 120.695312 139.183594 120.695312 139.6875 L 120.695312 168.105469 C 120.695312 172.210938 126.660156 176.214844 136.300781 179.367188 Z M 233.667969 201.527344 C 234.007812 201.527344 234.28125 201.253906 234.28125 200.917969 L 234.28125 178.476562 C 234.28125 177.976562 233.710938 177.691406 233.304688 177.988281 C 230.058594 180.402344 225.625 182.519531 220.269531 184.269531 C 209.277344 187.863281 194.144531 190.082031 177.488281 190.082031 C 160.828125 190.082031 145.699219 187.859375 134.703125 184.269531 C 129.347656 182.523438 124.914062 180.402344 121.667969 177.988281 C 121.261719 177.691406 120.691406 177.976562 120.691406 178.476562 L 120.691406 206.894531 C 120.691406 211.003906 126.65625 215.007812 136.296875 218.15625 C 146.792969 221.582031 161.351562 223.707031 177.488281 223.707031 C 179.277344 223.707031 180.789062 223.691406 182.046875 223.65625 C 182.535156 223.644531 183.027344 223.632812 183.523438 223.613281 C 183.855469 223.601562 184.117188 223.332031 184.117188 223 L 184.117188 210.675781 C 184.117188 208.160156 185.144531 205.871094 186.800781 204.214844 L 186.96875 204.058594 C 188.617188 202.496094 190.832031 201.53125 193.257812 201.53125 L 233.667969 201.53125 Z M 184.203125 229.28125 C 184.160156 228.980469 183.890625 228.757812 183.585938 228.769531 C 183.121094 228.785156 182.648438 228.796875 182.171875 228.808594 C 180.378906 228.855469 178.8125 228.878906 177.492188 228.878906 C 160.832031 228.878906 145.703125 226.65625 134.707031 223.066406 C 129.351562 221.316406 124.917969 219.195312 121.671875 216.785156 C 121.265625 216.484375 120.695312 216.769531 120.695312 217.269531 L 120.695312 245.6875 C 120.695312 249.796875 126.664062 253.800781 136.300781 256.949219 C 146.796875 260.378906 161.359375 262.5 177.492188 262.5 C 179.882812 262.5 182.085938 262.460938 184.097656 262.386719 C 184.515625 262.371094 184.785156 261.953125 184.644531 261.558594 C 184.308594 260.605469 184.125 259.585938 184.125 258.523438 L 184.125 241.160156 C 184.125 238.640625 185.152344 236.355469 186.808594 234.703125 L 186.917969 234.601562 L 186.808594 234.492188 C 185.421875 233.109375 184.480469 231.296875 184.203125 229.28125 Z M 190.457031 230.859375 C 189.734375 230.132812 189.289062 229.140625 189.289062 228.042969 L 189.289062 210.675781 C 189.289062 209.582031 189.738281 208.589844 190.457031 207.871094 L 190.5625 207.757812 C 191.269531 207.105469 192.214844 206.699219 193.261719 206.699219 L 266.726562 206.699219 C 267.816406 206.699219 268.808594 207.148438 269.53125 207.871094 C 270.25 208.589844 270.699219 209.582031 270.699219 210.675781 L 270.699219 228.042969 C 270.699219 229.136719 270.257812 230.128906 269.542969 230.847656 C 268.808594 231.566406 267.816406 232.015625 266.726562 232.015625 L 193.261719 232.015625 C 192.164062 232.015625 191.171875 231.570312 190.457031 230.859375 Z M 223.613281 219.359375 C 223.613281 220.789062 224.769531 221.945312 226.195312 221.945312 L 262.453125 221.945312 C 263.882812 221.945312 265.039062 220.785156 265.039062 219.359375 C 265.039062 217.929688 263.878906 216.777344 262.453125 216.777344 L 226.195312 216.777344 C 224.765625 216.773438 223.613281 217.929688 223.613281 219.359375 Z M 197.519531 219.359375 C 197.519531 220.789062 198.679688 221.949219 200.101562 221.949219 C 201.53125 221.949219 202.6875 220.789062 202.6875 219.359375 C 202.6875 217.929688 201.527344 216.777344 200.101562 216.777344 C 198.679688 216.773438 197.519531 217.929688 197.519531 219.359375 Z M 270.695312 241.160156 L 270.695312 258.523438 C 270.695312 259.621094 270.253906 260.613281 269.539062 261.328125 C 268.808594 262.050781 267.8125 262.5 266.722656 262.5 L 193.257812 262.5 C 192.75 262.5 192.261719 262.402344 191.816406 262.230469 L 191.6875 262.175781 C 191.222656 261.980469 190.804688 261.691406 190.453125 261.339844 C 189.730469 260.617188 189.285156 259.625 189.285156 258.523438 L 189.285156 241.160156 C 189.285156 240.066406 189.734375 239.074219 190.453125 238.355469 L 190.558594 238.242188 C 191.265625 237.589844 192.214844 237.183594 193.257812 237.183594 L 266.722656 237.183594 C 267.8125 237.183594 268.808594 237.632812 269.527344 238.355469 C 270.246094 239.074219 270.695312 240.066406 270.695312 241.160156 Z M 202.691406 250.035156 C 202.691406 248.605469 201.53125 247.453125 200.105469 247.453125 C 198.679688 247.453125 197.523438 248.609375 197.523438 250.039062 C 197.523438 251.46875 198.683594 252.625 200.105469 252.625 C 201.53125 252.621094 202.691406 251.464844 202.691406 250.035156 Z M 265.039062 249.84375 C 265.039062 248.414062 263.878906 247.261719 262.453125 247.261719 L 226.195312 247.261719 C 224.765625 247.261719 223.613281 248.417969 223.613281 249.84375 C 223.613281 251.273438 224.769531 252.425781 226.195312 252.425781 L 262.453125 252.425781 C 263.878906 252.425781 265.039062 251.269531 265.039062 249.84375 Z M 265.039062 249.84375 "
       fill-opacity="1"
       fill-rule="evenodd"
       id="path13" />
  </g>
</svg>
