<?xml version="1.0" encoding="UTF-8" standalone="no"?>
<svg
   width="500"
   zoomAndPan="magnify"
   viewBox="0 0 375 374.999991"
   height="500"
   preserveAspectRatio="xMidYMid meet"
   version="1.0"
   id="svg21"
   sodipodi:docname="spa-yel.svg"
   inkscape:version="1.3 (0e150ed6c4, 2023-07-21)"
   xmlns:inkscape="http://www.inkscape.org/namespaces/inkscape"
   xmlns:sodipodi="http://sodipodi.sourceforge.net/DTD/sodipodi-0.dtd"
   xmlns="http://www.w3.org/2000/svg"
   xmlns:svg="http://www.w3.org/2000/svg">
  <sodipodi:namedview
     id="namedview21"
     pagecolor="#ffffff"
     bordercolor="#000000"
     borderopacity="0.25"
     inkscape:showpageshadow="2"
     inkscape:pageopacity="0.0"
     inkscape:pagecheckerboard="0"
     inkscape:deskcolor="#d1d1d1"
     inkscape:zoom="1.61"
     inkscape:cx="250"
     inkscape:cy="250"
     inkscape:window-width="1920"
     inkscape:window-height="1014"
     inkscape:window-x="0"
     inkscape:window-y="31"
     inkscape:window-maximized="1"
     inkscape:current-layer="svg21" />
  <defs
     id="defs10">
    <clipPath
       id="0689462b1a">
      <path
         d="M 21.363281 27.773438 L 352.863281 27.773438 L 352.863281 359.273438 L 21.363281 359.273438 Z M 21.363281 27.773438 "
         clip-rule="nonzero"
         id="path1" />
    </clipPath>
    <clipPath
       id="8cb5e13e00">
      <path
         d="M 187.113281 27.773438 C 95.570312 27.773438 21.363281 101.984375 21.363281 193.523438 C 21.363281 285.066406 95.570312 359.273438 187.113281 359.273438 C 278.652344 359.273438 352.863281 285.066406 352.863281 193.523438 C 352.863281 101.984375 278.652344 27.773438 187.113281 27.773438 Z M 187.113281 27.773438 "
         clip-rule="nonzero"
         id="path2" />
    </clipPath>
    <clipPath
       id="149de9bcf0">
      <path
         d="M 37.5 43.910156 L 337.097656 43.910156 L 337.097656 343.511719 L 37.5 343.511719 Z M 37.5 43.910156 "
         clip-rule="nonzero"
         id="path3" />
    </clipPath>
    <clipPath
       id="55398b8b3a">
      <path
         d="M 187.300781 43.910156 C 104.566406 43.910156 37.5 110.980469 37.5 193.710938 C 37.5 276.445312 104.566406 343.511719 187.300781 343.511719 C 270.03125 343.511719 337.097656 276.445312 337.097656 193.710938 C 337.097656 110.980469 270.03125 43.910156 187.300781 43.910156 Z M 187.300781 43.910156 "
         clip-rule="nonzero"
         id="path4" />
    </clipPath>
    <clipPath
       id="114c9fdd6e">
      <path
         d="M 37.5 43.910156 L 336.75 43.910156 L 336.75 343.160156 L 37.5 343.160156 Z M 37.5 43.910156 "
         clip-rule="nonzero"
         id="path5" />
    </clipPath>
    <clipPath
       id="2b02b75bfd">
      <path
         d="M 187.125 43.910156 C 104.488281 43.910156 37.5 110.902344 37.5 193.535156 C 37.5 276.171875 104.488281 343.160156 187.125 343.160156 C 269.761719 343.160156 336.75 276.171875 336.75 193.535156 C 336.75 110.902344 269.761719 43.910156 187.125 43.910156 Z M 187.125 43.910156 "
         clip-rule="nonzero"
         id="path6" />
    </clipPath>
    <clipPath
       id="837657f1e5">
      <path
         d="M 98.980469 154 L 154 154 L 154 260 L 98.980469 260 Z M 98.980469 154 "
         clip-rule="nonzero"
         id="path7" />
    </clipPath>
    <clipPath
       id="558c8e53c3">
      <path
         d="M 221 154 L 275.980469 154 L 275.980469 260 L 221 260 Z M 221 154 "
         clip-rule="nonzero"
         id="path8" />
    </clipPath>
    <clipPath
       id="aa4362a300">
      <path
         d="M 193 86.886719 L 226 86.886719 L 226 144 L 193 144 Z M 193 86.886719 "
         clip-rule="nonzero"
         id="path9" />
    </clipPath>
    <clipPath
       id="0aa3a2895d">
      <path
         d="M 103 211 L 272 211 L 272 263.886719 L 103 263.886719 Z M 103 211 "
         clip-rule="nonzero"
         id="path10" />
    </clipPath>
  </defs>
  <g
     clip-path="url(#0689462b1a)"
     id="g12"
     style="fill:#feaa02;fill-opacity:1">
    <g
       clip-path="url(#8cb5e13e00)"
       id="g11"
       style="fill:#feaa02;fill-opacity:1">
      <path
         stroke-linecap="butt"
         transform="matrix(0.749179, 0, 0, 0.749179, 21.362708, 27.774578)"
         fill="none"
         stroke-linejoin="miter"
         d="M 221.24295 -0.00152267 C 99.051901 -0.00152267 0.000765629 99.054827 0.000765629 221.240662 C 0.000765629 343.431711 99.051901 442.482846 221.24295 442.482846 C 343.428785 442.482846 442.485135 343.431711 442.485135 221.240662 C 442.485135 99.054827 343.428785 -0.00152267 221.24295 -0.00152267 Z M 221.24295 -0.00152267 "
         stroke="#000000"
         stroke-width="16"
         stroke-opacity="1"
         stroke-miterlimit="4"
         id="path11"
         style="fill:#feaa02;fill-opacity:1" />
    </g>
  </g>
  <g
     clip-path="url(#149de9bcf0)"
     id="g14">
    <g
       clip-path="url(#55398b8b3a)"
       id="g13">
      <path
         fill="#fbc11c"
         d="M 37.5 43.910156 L 337.097656 43.910156 L 337.097656 343.511719 L 37.5 343.511719 Z M 37.5 43.910156 "
         fill-opacity="1"
         fill-rule="nonzero"
         id="path12" />
    </g>
  </g>
  <g
     clip-path="url(#114c9fdd6e)"
     id="g16"
     style="fill:#feaa02;fill-opacity:1">
    <g
       clip-path="url(#2b02b75bfd)"
       id="g15"
       style="fill:#feaa02;fill-opacity:1">
      <path
         stroke-linecap="butt"
         transform="matrix(0.749149, 0, 0, 0.749149, 37.500002, 43.911852)"
         fill="none"
         stroke-linejoin="miter"
         d="M 199.72658 -0.00226292 C 89.419149 -0.00226292 -0.00000271975 89.422103 -0.00000271975 199.72432 C -0.00000271975 310.031752 89.419149 399.450903 199.72658 399.450903 C 310.034012 399.450903 399.453163 310.031752 399.453163 199.72432 C 399.453163 89.422103 310.034012 -0.00226292 199.72658 -0.00226292 Z M 199.72658 -0.00226292 "
         stroke="#000000"
         stroke-width="8"
         stroke-opacity="1"
         stroke-miterlimit="4"
         id="path14"
         style="fill:#feaa02;fill-opacity:1" />
    </g>
  </g>
  <g
     clip-path="url(#837657f1e5)"
     id="g17">
    <path
       fill="#040606"
       d="M 98.980469 259.613281 L 153.824219 207.003906 L 98.980469 154.371094 Z M 98.980469 259.613281 "
       fill-opacity="1"
       fill-rule="nonzero"
       id="path16" />
  </g>
  <g
     clip-path="url(#558c8e53c3)"
     id="g18">
    <path
       fill="#040606"
       d="M 275.980469 259.613281 L 275.980469 154.371094 L 221.136719 206.992188 Z M 275.980469 259.613281 "
       fill-opacity="1"
       fill-rule="nonzero"
       id="path17" />
  </g>
  <g
     clip-path="url(#aa4362a300)"
     id="g19">
    <path
       fill="#040606"
       d="M 209.605469 93.207031 C 214.839844 93.207031 219.085938 97.453125 219.085938 102.6875 C 219.085938 107.921875 214.839844 112.171875 209.605469 112.171875 C 204.371094 112.171875 200.121094 107.921875 200.121094 102.6875 C 200.121094 97.453125 204.371094 93.207031 209.605469 93.207031 Z M 204.320312 117.566406 C 205.59375 118 206.445312 119.195312 206.445312 120.542969 L 206.445312 143.777344 L 212.765625 143.777344 L 212.765625 120.542969 C 212.765625 119.195312 213.617188 118 214.890625 117.566406 C 221.171875 115.367188 225.410156 109.394531 225.410156 102.6875 C 225.410156 93.972656 218.320312 86.886719 209.605469 86.886719 C 200.886719 86.886719 193.800781 93.972656 193.800781 102.6875 C 193.800781 109.394531 198.035156 115.367188 204.320312 117.566406 "
       fill-opacity="1"
       fill-rule="nonzero"
       id="path18" />
  </g>
  <path
     fill="#040606"
     d="M 103.660156 150.097656 L 184.984375 228.128906 C 186.382812 229.464844 188.578125 229.464844 189.972656 228.117188 L 271.300781 150.097656 L 174.835938 150.097656 C 174.835938 157.074219 180.503906 162.742188 187.480469 162.742188 C 188.960938 162.742188 190.394531 162.472656 191.738281 162 L 191.566406 161.816406 C 190.332031 160.582031 190.332031 158.582031 191.566406 157.347656 C 192.800781 156.113281 194.800781 156.113281 196.035156 157.347656 L 211.839844 173.152344 C 213.074219 174.386719 213.074219 176.386719 211.839844 177.621094 C 211.222656 178.238281 210.421875 178.546875 209.605469 178.546875 C 208.789062 178.546875 207.988281 178.238281 207.371094 177.621094 L 205.679688 175.929688 C 200.417969 179.667969 194.0625 181.707031 187.480469 181.707031 C 170.046875 181.707031 155.871094 167.53125 155.871094 150.097656 L 103.660156 150.097656 "
     fill-opacity="1"
     fill-rule="nonzero"
     id="path19" />
  <g
     clip-path="url(#0aa3a2895d)"
     id="g20">
    <path
       fill="#040606"
       d="M 194.34375 232.699219 C 192.417969 234.539062 189.949219 235.449219 187.480469 235.449219 C 185.011719 235.449219 182.542969 234.539062 180.628906 232.710938 L 158.390625 211.375 L 103.660156 263.886719 L 271.300781 263.886719 L 216.570312 211.375 L 194.34375 232.699219 "
       fill-opacity="1"
       fill-rule="nonzero"
       id="path20" />
  </g>
  <path
     fill="#040606"
     d="M 162.195312 134.296875 L 162.195312 150.097656 C 162.195312 164.039062 173.539062 175.386719 187.480469 175.386719 C 192.371094 175.386719 197.097656 173.964844 201.109375 171.359375 L 196.519531 166.765625 C 193.765625 168.261719 190.703125 169.0625 187.480469 169.0625 C 177.023438 169.0625 168.515625 160.558594 168.515625 150.097656 L 168.515625 125.160156 C 168.503906 125.160156 168.082031 124.949219 168.070312 124.949219 L 159.390625 131.160156 C 160.972656 131.332031 162.195312 132.667969 162.195312 134.296875 "
     fill-opacity="1"
     fill-rule="nonzero"
     id="path21" />
</svg>
