<?xml version="1.0" encoding="UTF-8" standalone="no"?>
<svg
   width="500"
   zoomAndPan="magnify"
   viewBox="0 0 375 374.999991"
   height="500"
   preserveAspectRatio="xMidYMid meet"
   version="1.0"
   id="svg21"
   sodipodi:docname="spa-blu-1.svg"
   inkscape:version="1.3 (0e150ed6c4, 2023-07-21)"
   xmlns:inkscape="http://www.inkscape.org/namespaces/inkscape"
   xmlns:sodipodi="http://sodipodi.sourceforge.net/DTD/sodipodi-0.dtd"
   xmlns="http://www.w3.org/2000/svg"
   xmlns:svg="http://www.w3.org/2000/svg">
  <sodipodi:namedview
     id="namedview21"
     pagecolor="#ffffff"
     bordercolor="#000000"
     borderopacity="0.25"
     inkscape:showpageshadow="2"
     inkscape:pageopacity="0.0"
     inkscape:pagecheckerboard="0"
     inkscape:deskcolor="#d1d1d1"
     inkscape:zoom="1.61"
     inkscape:cx="250"
     inkscape:cy="250"
     inkscape:window-width="1920"
     inkscape:window-height="1014"
     inkscape:window-x="0"
     inkscape:window-y="31"
     inkscape:window-maximized="1"
     inkscape:current-layer="svg21" />
  <defs
     id="defs10">
    <clipPath
       id="ec96f108f6">
      <path
         d="M 21.363281 27.773438 L 352.863281 27.773438 L 352.863281 359.273438 L 21.363281 359.273438 Z M 21.363281 27.773438 "
         clip-rule="nonzero"
         id="path1" />
    </clipPath>
    <clipPath
       id="269592be8c">
      <path
         d="M 187.113281 27.773438 C 95.570312 27.773438 21.363281 101.984375 21.363281 193.523438 C 21.363281 285.066406 95.570312 359.273438 187.113281 359.273438 C 278.652344 359.273438 352.863281 285.066406 352.863281 193.523438 C 352.863281 101.984375 278.652344 27.773438 187.113281 27.773438 Z M 187.113281 27.773438 "
         clip-rule="nonzero"
         id="path2" />
    </clipPath>
    <clipPath
       id="1236a36e71">
      <path
         d="M 37.5 43.910156 L 337.097656 43.910156 L 337.097656 343.511719 L 37.5 343.511719 Z M 37.5 43.910156 "
         clip-rule="nonzero"
         id="path3" />
    </clipPath>
    <clipPath
       id="0c99589970">
      <path
         d="M 187.300781 43.910156 C 104.566406 43.910156 37.5 110.980469 37.5 193.710938 C 37.5 276.445312 104.566406 343.511719 187.300781 343.511719 C 270.03125 343.511719 337.097656 276.445312 337.097656 193.710938 C 337.097656 110.980469 270.03125 43.910156 187.300781 43.910156 Z M 187.300781 43.910156 "
         clip-rule="nonzero"
         id="path4" />
    </clipPath>
    <clipPath
       id="ae8dba719e">
      <path
         d="M 37.5 43.910156 L 336.75 43.910156 L 336.75 343.160156 L 37.5 343.160156 Z M 37.5 43.910156 "
         clip-rule="nonzero"
         id="path5" />
    </clipPath>
    <clipPath
       id="f1b7030fc5">
      <path
         d="M 187.125 43.910156 C 104.488281 43.910156 37.5 110.902344 37.5 193.535156 C 37.5 276.171875 104.488281 343.160156 187.125 343.160156 C 269.761719 343.160156 336.75 276.171875 336.75 193.535156 C 336.75 110.902344 269.761719 43.910156 187.125 43.910156 Z M 187.125 43.910156 "
         clip-rule="nonzero"
         id="path6" />
    </clipPath>
    <clipPath
       id="d5f6edf5e6">
      <path
         d="M 99.179688 166 L 155 166 L 155 272 L 99.179688 272 Z M 99.179688 166 "
         clip-rule="nonzero"
         id="path7" />
    </clipPath>
    <clipPath
       id="be98c75ce7">
      <path
         d="M 221 166 L 276.179688 166 L 276.179688 272 L 221 272 Z M 221 166 "
         clip-rule="nonzero"
         id="path8" />
    </clipPath>
    <clipPath
       id="df34b8714d">
      <path
         d="M 194 99.179688 L 226 99.179688 L 226 157 L 194 157 Z M 194 99.179688 "
         clip-rule="nonzero"
         id="path9" />
    </clipPath>
    <clipPath
       id="e1c078b4d2">
      <path
         d="M 103 223 L 272 223 L 272 276.179688 L 103 276.179688 Z M 103 223 "
         clip-rule="nonzero"
         id="path10" />
    </clipPath>
  </defs>
  <g
     clip-path="url(#ec96f108f6)"
     id="g12">
    <g
       clip-path="url(#269592be8c)"
       id="g11">
      <path
         stroke-linecap="butt"
         transform="matrix(0.749179, 0, 0, 0.749179, 21.362708, 27.77449)"
         fill="none"
         stroke-linejoin="miter"
         d="M 221.24295 -0.00140543 C 99.051901 -0.00140543 0.000765629 99.054944 0.000765629 221.240779 C 0.000765629 343.431828 99.051901 442.482963 221.24295 442.482963 C 343.428785 442.482963 442.485135 343.431828 442.485135 221.240779 C 442.485135 99.054944 343.428785 -0.00140543 221.24295 -0.00140543 Z M 221.24295 -0.00140543 "
         stroke="#000000"
         stroke-width="16"
         stroke-opacity="1"
         stroke-miterlimit="4"
         id="path11" />
    </g>
  </g>
  <g
     clip-path="url(#1236a36e71)"
     id="g14">
    <g
       clip-path="url(#0c99589970)"
       id="g13">
      <path
         fill="#1d319b"
         d="M 37.5 43.910156 L 337.097656 43.910156 L 337.097656 343.511719 L 37.5 343.511719 Z M 37.5 43.910156 "
         fill-opacity="1"
         fill-rule="nonzero"
         id="path12" />
    </g>
  </g>
  <g
     clip-path="url(#ae8dba719e)"
     id="g16">
    <g
       clip-path="url(#f1b7030fc5)"
       id="g15">
      <path
         stroke-linecap="butt"
         transform="matrix(0.749149, 0, 0, 0.749149, 37.500002, 43.911912)"
         fill="none"
         stroke-linejoin="miter"
         d="M 199.72658 -0.00234301 C 89.419149 -0.00234301 -0.00000271975 89.422023 -0.00000271975 199.72424 C -0.00000271975 310.031672 89.419149 399.450823 199.72658 399.450823 C 310.034012 399.450823 399.453163 310.031672 399.453163 199.72424 C 399.453163 89.422023 310.034012 -0.00234301 199.72658 -0.00234301 Z M 199.72658 -0.00234301 "
         stroke="#000000"
         stroke-width="8"
         stroke-opacity="1"
         stroke-miterlimit="4"
         id="path14" />
    </g>
  </g>
  <g
     clip-path="url(#d5f6edf5e6)"
     id="g17">
    <path
       fill="#ffffff"
       d="M 99.179688 271.910156 L 154.023438 219.300781 L 99.179688 166.667969 Z M 99.179688 271.910156 "
       fill-opacity="1"
       fill-rule="nonzero"
       id="path16" />
  </g>
  <g
     clip-path="url(#be98c75ce7)"
     id="g18">
    <path
       fill="#ffffff"
       d="M 276.179688 271.910156 L 276.179688 166.667969 L 221.335938 219.289062 Z M 276.179688 271.910156 "
       fill-opacity="1"
       fill-rule="nonzero"
       id="path17" />
  </g>
  <g
     clip-path="url(#df34b8714d)"
     id="g19">
    <path
       fill="#ffffff"
       d="M 209.804688 105.5 C 215.039062 105.5 219.289062 109.75 219.289062 114.984375 C 219.289062 120.21875 215.039062 124.464844 209.804688 124.464844 C 204.570312 124.464844 200.324219 120.21875 200.324219 114.984375 C 200.324219 109.75 204.570312 105.5 209.804688 105.5 Z M 204.519531 129.863281 C 205.792969 130.292969 206.644531 131.492188 206.644531 132.835938 L 206.644531 156.074219 L 212.964844 156.074219 L 212.964844 132.835938 C 212.964844 131.492188 213.816406 130.292969 215.089844 129.863281 C 221.375 127.664062 225.609375 121.6875 225.609375 114.984375 C 225.609375 106.265625 218.523438 99.179688 209.804688 99.179688 C 201.089844 99.179688 194 106.265625 194 114.984375 C 194 121.6875 198.238281 127.664062 204.519531 129.863281 "
       fill-opacity="1"
       fill-rule="nonzero"
       id="path18" />
  </g>
  <path
     fill="#ffffff"
     d="M 103.859375 162.394531 L 185.1875 240.425781 C 186.582031 241.757812 188.777344 241.757812 190.175781 240.414062 L 271.5 162.394531 L 175.039062 162.394531 C 175.039062 169.371094 180.703125 175.039062 187.679688 175.039062 C 189.160156 175.039062 190.59375 174.765625 191.941406 174.296875 L 191.765625 174.113281 C 190.53125 172.875 190.53125 170.875 191.765625 169.640625 C 193 168.40625 195 168.40625 196.238281 169.640625 L 212.039062 185.445312 C 213.273438 186.679688 213.273438 188.679688 212.039062 189.914062 C 211.421875 190.53125 210.621094 190.839844 209.804688 190.839844 C 208.992188 190.839844 208.1875 190.53125 207.570312 189.914062 L 205.878906 188.222656 C 200.621094 191.964844 194.261719 194 187.679688 194 C 170.246094 194 156.074219 179.828125 156.074219 162.394531 L 103.859375 162.394531 "
     fill-opacity="1"
     fill-rule="nonzero"
     id="path19" />
  <g
     clip-path="url(#e1c078b4d2)"
     id="g20">
    <path
       fill="#ffffff"
       d="M 194.546875 244.992188 C 192.617188 246.832031 190.148438 247.746094 187.679688 247.746094 C 185.210938 247.746094 182.742188 246.832031 180.828125 245.003906 L 158.59375 223.671875 L 103.859375 276.179688 L 271.5 276.179688 L 216.769531 223.671875 L 194.546875 244.992188 "
       fill-opacity="1"
       fill-rule="nonzero"
       id="path20" />
  </g>
  <path
     fill="#ffffff"
     d="M 162.394531 146.589844 L 162.394531 162.394531 C 162.394531 176.332031 173.742188 187.679688 187.679688 187.679688 C 192.570312 187.679688 197.296875 186.261719 201.3125 183.65625 L 196.71875 179.0625 C 193.964844 180.554688 190.902344 181.359375 187.679688 181.359375 C 177.222656 181.359375 168.714844 172.851562 168.714844 162.394531 L 168.714844 137.453125 C 168.703125 137.453125 168.285156 137.246094 168.273438 137.246094 L 159.59375 143.453125 C 161.171875 143.628906 162.394531 144.960938 162.394531 146.589844 "
     fill-opacity="1"
     fill-rule="nonzero"
     id="path21" />
</svg>
