<?xml version="1.0" encoding="UTF-8" standalone="no"?>
<svg
   width="1005"
   height="1005"
   viewBox="0 0 1005 1005"
   fill="none"
   version="1.1"
   id="svg15"
   sodipodi:docname="logo-128.svg"
   inkscape:version="1.3.2 (091e20ef0f, 2023-11-25)"
   xmlns:inkscape="http://www.inkscape.org/namespaces/inkscape"
   xmlns:sodipodi="http://sodipodi.sourceforge.net/DTD/sodipodi-0.dtd"
   xmlns="http://www.w3.org/2000/svg"
   xmlns:svg="http://www.w3.org/2000/svg">
  <sodipodi:namedview
     id="namedview15"
     pagecolor="#ffffff"
     bordercolor="#000000"
     borderopacity="0.25"
     inkscape:showpageshadow="2"
     inkscape:pageopacity="0.0"
     inkscape:pagecheckerboard="0"
     inkscape:deskcolor="#d1d1d1"
     showgrid="false"
     inkscape:zoom="0.80099502"
     inkscape:cx="701.62733"
     inkscape:cy="502.5"
     inkscape:window-width="1920"
     inkscape:window-height="1009"
     inkscape:window-x="0"
     inkscape:window-y="36"
     inkscape:window-maximized="1"
     inkscape:current-layer="svg15" />
  <g
     id="g15"
     transform="matrix(0.12747862,0,0,0.12747988,2.4553537e-5,0)">
    <path
       d="M 502.085,0 1004.09,502 502.085,1004 0.0844712,502 Z"
       fill="#ffffff"
       id="path1" />
    <path
       d="M 502.122,92.0752 912.207,502.16 502.122,912.244 92.0376,502.16 Z"
       fill="url(#paint0_linear_67_245)"
       id="path2"
       style="fill:url(#paint0_linear_67_245)" />
    <path
       fill-rule="evenodd"
       clip-rule="evenodd"
       d="M 954.507,502.085 502,49.5779 49.493,502.085 502,954.592 Z M 502,0.0849609 2.81409e-5,502.085 502,1004.08 1004,502.085 Z"
       fill="url(#paint1_linear_67_245)"
       id="path3"
       style="fill:url(#paint1_linear_67_245)" />
    <path
       d="m 343.932,579.034 c -19.482,0 -34.666,-4.951 -45.553,-14.853 -10.887,-9.902 -16.617,-24.611 -17.19,-44.128 -0.143,-4.162 -0.214,-10.261 -0.214,-18.297 0,-8.18 0.071,-14.351 0.214,-18.512 0.573,-19.086 6.447,-33.724 17.62,-43.913 11.173,-10.189 26.214,-15.283 45.123,-15.283 18.909,0 33.949,5.094 45.123,15.283 11.316,10.189 17.261,24.827 17.834,43.913 0.287,8.323 0.43,14.494 0.43,18.512 0,3.875 -0.143,9.974 -0.43,18.297 -0.716,19.517 -6.518,34.226 -17.404,44.128 -10.887,9.902 -26.072,14.853 -45.553,14.853 z m 0,-24.755 c 9.597,0 17.261,-2.87 22.991,-8.61 5.73,-5.884 8.81,-14.781 9.24,-26.692 0.286,-8.611 0.429,-14.423 0.429,-17.436 0,-3.301 -0.143,-9.113 -0.429,-17.436 -0.43,-11.911 -3.51,-20.737 -9.24,-26.477 -5.73,-5.884 -13.394,-8.825 -22.991,-8.825 -9.454,0 -17.047,2.941 -22.776,8.825 -5.73,5.74 -8.81,14.566 -9.24,26.477 -0.143,4.162 -0.215,9.973 -0.215,17.436 0,7.319 0.072,13.131 0.215,17.436 0.43,11.911 3.438,20.808 9.025,26.692 5.73,5.74 13.393,8.61 22.991,8.61 z"
       fill="#000000"
       fill-opacity="0.87"
       id="path4" />
    <path
       d="m 440.906,576.881 c -1.576,0 -2.865,-0.43 -3.868,-1.291 -1.003,-1.005 -1.504,-2.296 -1.504,-3.875 V 431.582 c 0,-1.579 0.501,-2.87 1.504,-3.875 1.003,-1.004 2.292,-1.507 3.868,-1.507 h 16.975 c 3.008,0 5.157,1.364 6.446,4.09 l 41.47,77.493 41.9,-77.493 c 1.432,-2.726 3.581,-4.09 6.446,-4.09 h 16.76 c 1.576,0 2.865,0.503 3.868,1.507 1.002,1.005 1.504,2.296 1.504,3.875 v 140.133 c 0,1.579 -0.502,2.87 -1.504,3.875 -1.003,0.861 -2.292,1.291 -3.868,1.291 h -18.049 c -1.433,0 -2.65,-0.502 -3.653,-1.507 -1.003,-1.004 -1.504,-2.224 -1.504,-3.659 v -93.207 l -30.082,57.474 c -1.862,3.157 -4.298,4.736 -7.306,4.736 H 501.5 c -3.009,0 -5.444,-1.579 -7.306,-4.736 l -30.082,-57.474 v 93.207 c 0,1.435 -0.501,2.655 -1.504,3.659 -0.86,1.005 -2.077,1.507 -3.653,1.507 z"
       fill="#000000"
       fill-opacity="0.87"
       id="path5" />
    <path
       d="m 661.911,579.034 c -12.749,0 -23.708,-1.938 -32.875,-5.812 -9.168,-3.875 -16.116,-8.969 -20.843,-15.284 -4.727,-6.314 -7.234,-13.13 -7.52,-20.449 0,-1.292 0.429,-2.368 1.289,-3.229 0.859,-0.861 1.934,-1.292 3.223,-1.292 h 19.123 c 1.719,0 3.009,0.359 3.868,1.077 1.003,0.574 1.934,1.578 2.793,3.013 1.433,4.88 4.728,8.969 9.885,12.27 5.156,3.301 12.176,4.951 21.057,4.951 10.17,0 17.834,-1.65 22.991,-4.951 5.157,-3.444 7.735,-8.18 7.735,-14.207 0,-4.018 -1.36,-7.319 -4.082,-9.902 -2.579,-2.583 -6.518,-4.807 -11.818,-6.673 -5.157,-1.865 -12.892,-4.161 -23.206,-6.888 -16.903,-4.018 -29.294,-9.328 -37.173,-15.929 -7.735,-6.745 -11.603,-16.288 -11.603,-28.63 0,-8.323 2.22,-15.713 6.661,-22.171 4.584,-6.458 11.102,-11.552 19.553,-15.283 8.595,-3.732 18.551,-5.597 29.868,-5.597 11.746,0 21.916,2.081 30.511,6.242 8.595,4.162 15.113,9.4 19.553,15.714 4.584,6.171 7.02,12.342 7.306,18.512 0,1.292 -0.43,2.368 -1.289,3.229 -0.86,0.861 -1.934,1.292 -3.223,1.292 h -19.983 c -3.008,0 -5.085,-1.363 -6.231,-4.09 -0.86,-4.592 -3.725,-8.395 -8.595,-11.409 -4.871,-3.157 -10.887,-4.735 -18.049,-4.735 -8.022,0 -14.325,1.506 -18.909,4.52 -4.584,3.014 -6.876,7.39 -6.876,13.131 0,4.018 1.146,7.318 3.438,9.902 2.292,2.583 5.873,4.879 10.743,6.888 5.014,2.009 12.176,4.233 21.488,6.673 12.605,2.87 22.633,6.099 30.082,9.686 7.592,3.588 13.178,8.109 16.759,13.562 3.582,5.453 5.372,12.413 5.372,20.88 0,9.184 -2.578,17.22 -7.735,24.109 -5.014,6.744 -12.176,11.911 -21.487,15.498 -9.168,3.588 -19.768,5.382 -31.801,5.382 z"
       fill="#000000"
       fill-opacity="0.87"
       id="path6" />
  </g>
  <defs
     id="defs15">
    <linearGradient
       id="paint0_linear_67_245"
       x1="233.025"
       y1="357.551"
       x2="595.992"
       y2="804.51"
       gradientUnits="userSpaceOnUse">
      <stop
         offset="0.0767781"
         stop-color="#E1C44A"
         id="stop6" />
      <stop
         offset="0.290113"
         stop-color="#E1C44A"
         stop-opacity="0.7"
         id="stop7" />
      <stop
         offset="0.463052"
         stop-color="#E1C44A"
         stop-opacity="0.26"
         id="stop8" />
      <stop
         offset="0.675574"
         stop-color="#E1C44A"
         stop-opacity="0.71"
         id="stop9" />
      <stop
         offset="1"
         stop-color="#E1C44A"
         id="stop10" />
    </linearGradient>
    <linearGradient
       id="paint1_linear_67_245"
       x1="346.014"
       y1="314.556"
       x2="718.674"
       y2="491.224"
       gradientUnits="userSpaceOnUse">
      <stop
         stop-color="#E1C44A"
         id="stop11" />
      <stop
         offset="0.201382"
         stop-color="#E1C44A"
         stop-opacity="0.7"
         id="stop12" />
      <stop
         offset="0.463052"
         stop-color="#E1C44A"
         stop-opacity="0.09"
         id="stop13" />
      <stop
         offset="0.744023"
         stop-color="#E1C44A"
         stop-opacity="0.71"
         id="stop14" />
      <stop
         offset="1"
         stop-color="#E1C44A"
         id="stop15" />
    </linearGradient>
  </defs>
</svg>
